M48
; DRILL file {KiCad (5.1.0)-1} date 11/07/2020 17:50:01
; FORMAT={-:-/ absolute / metric / decimal}
; #@! TF.CreationDate,2020-07-11T17:50:01+02:00
; #@! TF.GenerationSoftware,Kicad,Pcbnew,(5.1.0)-1
; #@! TF.FileFunction,Plated,1,2,PTH
FMAT,2
METRIC
T1C0.600
T2C0.950
T3C1.000
T4C1.100
T5C1.200
T6C1.300
%
G90
G05
T1
X224.574Y-111.149
X226.358Y-108.043
X226.795Y-110.489
T2
X207.305Y-127.158
X207.305Y-129.658
X207.305Y-132.158
X207.305Y-134.658
X207.305Y-137.158
T3
X253.421Y-109.426
X261.021Y-109.426
X232.161Y-106.485
X234.701Y-106.485
X237.241Y-106.485
X239.781Y-106.485
X208.37Y-96.23
X208.37Y-98.77
X210.91Y-96.23
X210.91Y-98.77
X213.45Y-96.23
X213.45Y-98.77
X215.99Y-96.23
X215.99Y-98.77
X218.53Y-96.23
X218.53Y-98.77
X221.07Y-96.23
X221.07Y-98.77
X223.61Y-96.23
X223.61Y-98.77
X226.15Y-96.23
X226.15Y-98.77
X228.69Y-96.23
X228.69Y-98.77
X231.23Y-96.23
X231.23Y-98.77
X233.77Y-96.23
X233.77Y-98.77
X236.31Y-96.23
X236.31Y-98.77
X238.85Y-96.23
X238.85Y-98.77
X241.39Y-96.23
X241.39Y-98.77
X243.93Y-96.23
X243.93Y-98.77
X246.47Y-96.23
X246.47Y-98.77
X249.01Y-96.23
X249.01Y-98.77
X251.55Y-96.23
X251.55Y-98.77
X254.09Y-96.23
X254.09Y-98.77
X256.63Y-96.23
X256.63Y-98.77
T4
X219.201Y-143.31
X219.201Y-147.81
X225.701Y-143.31
X225.701Y-147.81
X239.201Y-143.31
X239.201Y-147.81
X245.701Y-143.31
X245.701Y-147.81
X209.21Y-143.31
X209.21Y-147.81
X215.71Y-143.31
X215.71Y-147.81
X249.031Y-143.31
X249.031Y-147.81
X255.531Y-143.31
X255.531Y-147.81
X229.201Y-143.31
X229.201Y-147.81
X235.701Y-143.31
X235.701Y-147.81
T5
X202.741Y-110.513
X202.741Y-115.513
X203.041Y-108.013
X203.041Y-118.013
T6
X212.741Y-105.513
X212.741Y-113.013
X212.741Y-120.513
X215.241Y-108.013
X215.241Y-118.013
X217.741Y-113.013
T0
M30
