G04 #@! TF.GenerationSoftware,KiCad,Pcbnew,(5.1.0)-1*
G04 #@! TF.CreationDate,2020-07-11T17:50:00+02:00*
G04 #@! TF.ProjectId,Pi1541,50693135-3431-42e6-9b69-6361645f7063,rev?*
G04 #@! TF.SameCoordinates,Original*
G04 #@! TF.FileFunction,Soldermask,Bot*
G04 #@! TF.FilePolarity,Negative*
%FSLAX46Y46*%
G04 Gerber Fmt 4.6, Leading zero omitted, Abs format (unit mm)*
G04 Created by KiCad (PCBNEW (5.1.0)-1) date 2020-07-11 17:50:00*
%MOMM*%
%LPD*%
G04 APERTURE LIST*
%ADD10C,0.150000*%
G04 APERTURE END LIST*
D10*
G36*
X255758290Y-146835619D02*
G01*
X255822689Y-146848429D01*
X256004678Y-146923811D01*
X256168463Y-147033249D01*
X256307751Y-147172537D01*
X256417189Y-147336322D01*
X256492571Y-147518311D01*
X256531000Y-147711509D01*
X256531000Y-147908491D01*
X256492571Y-148101689D01*
X256417189Y-148283678D01*
X256307751Y-148447463D01*
X256168463Y-148586751D01*
X256004678Y-148696189D01*
X255822689Y-148771571D01*
X255758290Y-148784381D01*
X255629493Y-148810000D01*
X255432507Y-148810000D01*
X255303710Y-148784381D01*
X255239311Y-148771571D01*
X255057322Y-148696189D01*
X254893537Y-148586751D01*
X254754249Y-148447463D01*
X254644811Y-148283678D01*
X254569429Y-148101689D01*
X254531000Y-147908491D01*
X254531000Y-147711509D01*
X254569429Y-147518311D01*
X254644811Y-147336322D01*
X254754249Y-147172537D01*
X254893537Y-147033249D01*
X255057322Y-146923811D01*
X255239311Y-146848429D01*
X255303710Y-146835619D01*
X255432507Y-146810000D01*
X255629493Y-146810000D01*
X255758290Y-146835619D01*
X255758290Y-146835619D01*
G37*
G36*
X249258290Y-146835619D02*
G01*
X249322689Y-146848429D01*
X249504678Y-146923811D01*
X249668463Y-147033249D01*
X249807751Y-147172537D01*
X249917189Y-147336322D01*
X249992571Y-147518311D01*
X250031000Y-147711509D01*
X250031000Y-147908491D01*
X249992571Y-148101689D01*
X249917189Y-148283678D01*
X249807751Y-148447463D01*
X249668463Y-148586751D01*
X249504678Y-148696189D01*
X249322689Y-148771571D01*
X249258290Y-148784381D01*
X249129493Y-148810000D01*
X248932507Y-148810000D01*
X248803710Y-148784381D01*
X248739311Y-148771571D01*
X248557322Y-148696189D01*
X248393537Y-148586751D01*
X248254249Y-148447463D01*
X248144811Y-148283678D01*
X248069429Y-148101689D01*
X248031000Y-147908491D01*
X248031000Y-147711509D01*
X248069429Y-147518311D01*
X248144811Y-147336322D01*
X248254249Y-147172537D01*
X248393537Y-147033249D01*
X248557322Y-146923811D01*
X248739311Y-146848429D01*
X248803710Y-146835619D01*
X248932507Y-146810000D01*
X249129493Y-146810000D01*
X249258290Y-146835619D01*
X249258290Y-146835619D01*
G37*
G36*
X215937290Y-146835619D02*
G01*
X216001689Y-146848429D01*
X216183678Y-146923811D01*
X216347463Y-147033249D01*
X216486751Y-147172537D01*
X216596189Y-147336322D01*
X216671571Y-147518311D01*
X216710000Y-147711509D01*
X216710000Y-147908491D01*
X216671571Y-148101689D01*
X216596189Y-148283678D01*
X216486751Y-148447463D01*
X216347463Y-148586751D01*
X216183678Y-148696189D01*
X216001689Y-148771571D01*
X215937290Y-148784381D01*
X215808493Y-148810000D01*
X215611507Y-148810000D01*
X215482710Y-148784381D01*
X215418311Y-148771571D01*
X215236322Y-148696189D01*
X215072537Y-148586751D01*
X214933249Y-148447463D01*
X214823811Y-148283678D01*
X214748429Y-148101689D01*
X214710000Y-147908491D01*
X214710000Y-147711509D01*
X214748429Y-147518311D01*
X214823811Y-147336322D01*
X214933249Y-147172537D01*
X215072537Y-147033249D01*
X215236322Y-146923811D01*
X215418311Y-146848429D01*
X215482710Y-146835619D01*
X215611507Y-146810000D01*
X215808493Y-146810000D01*
X215937290Y-146835619D01*
X215937290Y-146835619D01*
G37*
G36*
X209437290Y-146835619D02*
G01*
X209501689Y-146848429D01*
X209683678Y-146923811D01*
X209847463Y-147033249D01*
X209986751Y-147172537D01*
X210096189Y-147336322D01*
X210171571Y-147518311D01*
X210210000Y-147711509D01*
X210210000Y-147908491D01*
X210171571Y-148101689D01*
X210096189Y-148283678D01*
X209986751Y-148447463D01*
X209847463Y-148586751D01*
X209683678Y-148696189D01*
X209501689Y-148771571D01*
X209437290Y-148784381D01*
X209308493Y-148810000D01*
X209111507Y-148810000D01*
X208982710Y-148784381D01*
X208918311Y-148771571D01*
X208736322Y-148696189D01*
X208572537Y-148586751D01*
X208433249Y-148447463D01*
X208323811Y-148283678D01*
X208248429Y-148101689D01*
X208210000Y-147908491D01*
X208210000Y-147711509D01*
X208248429Y-147518311D01*
X208323811Y-147336322D01*
X208433249Y-147172537D01*
X208572537Y-147033249D01*
X208736322Y-146923811D01*
X208918311Y-146848429D01*
X208982710Y-146835619D01*
X209111507Y-146810000D01*
X209308493Y-146810000D01*
X209437290Y-146835619D01*
X209437290Y-146835619D01*
G37*
G36*
X219428290Y-146835619D02*
G01*
X219492689Y-146848429D01*
X219674678Y-146923811D01*
X219838463Y-147033249D01*
X219977751Y-147172537D01*
X220087189Y-147336322D01*
X220162571Y-147518311D01*
X220201000Y-147711509D01*
X220201000Y-147908491D01*
X220162571Y-148101689D01*
X220087189Y-148283678D01*
X219977751Y-148447463D01*
X219838463Y-148586751D01*
X219674678Y-148696189D01*
X219492689Y-148771571D01*
X219428290Y-148784381D01*
X219299493Y-148810000D01*
X219102507Y-148810000D01*
X218973710Y-148784381D01*
X218909311Y-148771571D01*
X218727322Y-148696189D01*
X218563537Y-148586751D01*
X218424249Y-148447463D01*
X218314811Y-148283678D01*
X218239429Y-148101689D01*
X218201000Y-147908491D01*
X218201000Y-147711509D01*
X218239429Y-147518311D01*
X218314811Y-147336322D01*
X218424249Y-147172537D01*
X218563537Y-147033249D01*
X218727322Y-146923811D01*
X218909311Y-146848429D01*
X218973710Y-146835619D01*
X219102507Y-146810000D01*
X219299493Y-146810000D01*
X219428290Y-146835619D01*
X219428290Y-146835619D01*
G37*
G36*
X225928290Y-146835619D02*
G01*
X225992689Y-146848429D01*
X226174678Y-146923811D01*
X226338463Y-147033249D01*
X226477751Y-147172537D01*
X226587189Y-147336322D01*
X226662571Y-147518311D01*
X226701000Y-147711509D01*
X226701000Y-147908491D01*
X226662571Y-148101689D01*
X226587189Y-148283678D01*
X226477751Y-148447463D01*
X226338463Y-148586751D01*
X226174678Y-148696189D01*
X225992689Y-148771571D01*
X225928290Y-148784381D01*
X225799493Y-148810000D01*
X225602507Y-148810000D01*
X225473710Y-148784381D01*
X225409311Y-148771571D01*
X225227322Y-148696189D01*
X225063537Y-148586751D01*
X224924249Y-148447463D01*
X224814811Y-148283678D01*
X224739429Y-148101689D01*
X224701000Y-147908491D01*
X224701000Y-147711509D01*
X224739429Y-147518311D01*
X224814811Y-147336322D01*
X224924249Y-147172537D01*
X225063537Y-147033249D01*
X225227322Y-146923811D01*
X225409311Y-146848429D01*
X225473710Y-146835619D01*
X225602507Y-146810000D01*
X225799493Y-146810000D01*
X225928290Y-146835619D01*
X225928290Y-146835619D01*
G37*
G36*
X229428290Y-146835619D02*
G01*
X229492689Y-146848429D01*
X229674678Y-146923811D01*
X229838463Y-147033249D01*
X229977751Y-147172537D01*
X230087189Y-147336322D01*
X230162571Y-147518311D01*
X230201000Y-147711509D01*
X230201000Y-147908491D01*
X230162571Y-148101689D01*
X230087189Y-148283678D01*
X229977751Y-148447463D01*
X229838463Y-148586751D01*
X229674678Y-148696189D01*
X229492689Y-148771571D01*
X229428290Y-148784381D01*
X229299493Y-148810000D01*
X229102507Y-148810000D01*
X228973710Y-148784381D01*
X228909311Y-148771571D01*
X228727322Y-148696189D01*
X228563537Y-148586751D01*
X228424249Y-148447463D01*
X228314811Y-148283678D01*
X228239429Y-148101689D01*
X228201000Y-147908491D01*
X228201000Y-147711509D01*
X228239429Y-147518311D01*
X228314811Y-147336322D01*
X228424249Y-147172537D01*
X228563537Y-147033249D01*
X228727322Y-146923811D01*
X228909311Y-146848429D01*
X228973710Y-146835619D01*
X229102507Y-146810000D01*
X229299493Y-146810000D01*
X229428290Y-146835619D01*
X229428290Y-146835619D01*
G37*
G36*
X235928290Y-146835619D02*
G01*
X235992689Y-146848429D01*
X236174678Y-146923811D01*
X236338463Y-147033249D01*
X236477751Y-147172537D01*
X236587189Y-147336322D01*
X236662571Y-147518311D01*
X236701000Y-147711509D01*
X236701000Y-147908491D01*
X236662571Y-148101689D01*
X236587189Y-148283678D01*
X236477751Y-148447463D01*
X236338463Y-148586751D01*
X236174678Y-148696189D01*
X235992689Y-148771571D01*
X235928290Y-148784381D01*
X235799493Y-148810000D01*
X235602507Y-148810000D01*
X235473710Y-148784381D01*
X235409311Y-148771571D01*
X235227322Y-148696189D01*
X235063537Y-148586751D01*
X234924249Y-148447463D01*
X234814811Y-148283678D01*
X234739429Y-148101689D01*
X234701000Y-147908491D01*
X234701000Y-147711509D01*
X234739429Y-147518311D01*
X234814811Y-147336322D01*
X234924249Y-147172537D01*
X235063537Y-147033249D01*
X235227322Y-146923811D01*
X235409311Y-146848429D01*
X235473710Y-146835619D01*
X235602507Y-146810000D01*
X235799493Y-146810000D01*
X235928290Y-146835619D01*
X235928290Y-146835619D01*
G37*
G36*
X245928290Y-146835619D02*
G01*
X245992689Y-146848429D01*
X246174678Y-146923811D01*
X246338463Y-147033249D01*
X246477751Y-147172537D01*
X246587189Y-147336322D01*
X246662571Y-147518311D01*
X246701000Y-147711509D01*
X246701000Y-147908491D01*
X246662571Y-148101689D01*
X246587189Y-148283678D01*
X246477751Y-148447463D01*
X246338463Y-148586751D01*
X246174678Y-148696189D01*
X245992689Y-148771571D01*
X245928290Y-148784381D01*
X245799493Y-148810000D01*
X245602507Y-148810000D01*
X245473710Y-148784381D01*
X245409311Y-148771571D01*
X245227322Y-148696189D01*
X245063537Y-148586751D01*
X244924249Y-148447463D01*
X244814811Y-148283678D01*
X244739429Y-148101689D01*
X244701000Y-147908491D01*
X244701000Y-147711509D01*
X244739429Y-147518311D01*
X244814811Y-147336322D01*
X244924249Y-147172537D01*
X245063537Y-147033249D01*
X245227322Y-146923811D01*
X245409311Y-146848429D01*
X245473710Y-146835619D01*
X245602507Y-146810000D01*
X245799493Y-146810000D01*
X245928290Y-146835619D01*
X245928290Y-146835619D01*
G37*
G36*
X239428290Y-146835619D02*
G01*
X239492689Y-146848429D01*
X239674678Y-146923811D01*
X239838463Y-147033249D01*
X239977751Y-147172537D01*
X240087189Y-147336322D01*
X240162571Y-147518311D01*
X240201000Y-147711509D01*
X240201000Y-147908491D01*
X240162571Y-148101689D01*
X240087189Y-148283678D01*
X239977751Y-148447463D01*
X239838463Y-148586751D01*
X239674678Y-148696189D01*
X239492689Y-148771571D01*
X239428290Y-148784381D01*
X239299493Y-148810000D01*
X239102507Y-148810000D01*
X238973710Y-148784381D01*
X238909311Y-148771571D01*
X238727322Y-148696189D01*
X238563537Y-148586751D01*
X238424249Y-148447463D01*
X238314811Y-148283678D01*
X238239429Y-148101689D01*
X238201000Y-147908491D01*
X238201000Y-147711509D01*
X238239429Y-147518311D01*
X238314811Y-147336322D01*
X238424249Y-147172537D01*
X238563537Y-147033249D01*
X238727322Y-146923811D01*
X238909311Y-146848429D01*
X238973710Y-146835619D01*
X239102507Y-146810000D01*
X239299493Y-146810000D01*
X239428290Y-146835619D01*
X239428290Y-146835619D01*
G37*
G36*
X261893779Y-145201879D02*
G01*
X262139463Y-145303645D01*
X262139465Y-145303646D01*
X262250769Y-145378017D01*
X262360574Y-145451386D01*
X262548614Y-145639426D01*
X262696355Y-145860537D01*
X262798121Y-146106221D01*
X262850000Y-146367035D01*
X262850000Y-146632965D01*
X262798121Y-146893779D01*
X262785681Y-146923811D01*
X262696354Y-147139465D01*
X262621983Y-147250769D01*
X262564819Y-147336322D01*
X262548613Y-147360575D01*
X262360575Y-147548613D01*
X262139465Y-147696354D01*
X262139464Y-147696355D01*
X262139463Y-147696355D01*
X261893779Y-147798121D01*
X261632965Y-147850000D01*
X261367035Y-147850000D01*
X261106221Y-147798121D01*
X260860537Y-147696355D01*
X260860536Y-147696355D01*
X260860535Y-147696354D01*
X260639425Y-147548613D01*
X260451387Y-147360575D01*
X260435182Y-147336322D01*
X260378017Y-147250769D01*
X260303646Y-147139465D01*
X260214319Y-146923811D01*
X260201879Y-146893779D01*
X260150000Y-146632965D01*
X260150000Y-146367035D01*
X260201879Y-146106221D01*
X260303645Y-145860537D01*
X260451386Y-145639426D01*
X260639426Y-145451386D01*
X260749231Y-145378017D01*
X260860535Y-145303646D01*
X260860537Y-145303645D01*
X261106221Y-145201879D01*
X261367035Y-145150000D01*
X261632965Y-145150000D01*
X261893779Y-145201879D01*
X261893779Y-145201879D01*
G37*
G36*
X203893779Y-145201879D02*
G01*
X204139463Y-145303645D01*
X204139465Y-145303646D01*
X204250769Y-145378017D01*
X204360574Y-145451386D01*
X204548614Y-145639426D01*
X204696355Y-145860537D01*
X204798121Y-146106221D01*
X204850000Y-146367035D01*
X204850000Y-146632965D01*
X204798121Y-146893779D01*
X204785681Y-146923811D01*
X204696354Y-147139465D01*
X204621983Y-147250769D01*
X204564819Y-147336322D01*
X204548613Y-147360575D01*
X204360575Y-147548613D01*
X204139465Y-147696354D01*
X204139464Y-147696355D01*
X204139463Y-147696355D01*
X203893779Y-147798121D01*
X203632965Y-147850000D01*
X203367035Y-147850000D01*
X203106221Y-147798121D01*
X202860537Y-147696355D01*
X202860536Y-147696355D01*
X202860535Y-147696354D01*
X202639425Y-147548613D01*
X202451387Y-147360575D01*
X202435182Y-147336322D01*
X202378017Y-147250769D01*
X202303646Y-147139465D01*
X202214319Y-146923811D01*
X202201879Y-146893779D01*
X202150000Y-146632965D01*
X202150000Y-146367035D01*
X202201879Y-146106221D01*
X202303645Y-145860537D01*
X202451386Y-145639426D01*
X202639426Y-145451386D01*
X202749231Y-145378017D01*
X202860535Y-145303646D01*
X202860537Y-145303645D01*
X203106221Y-145201879D01*
X203367035Y-145150000D01*
X203632965Y-145150000D01*
X203893779Y-145201879D01*
X203893779Y-145201879D01*
G37*
G36*
X245928290Y-142335619D02*
G01*
X245992689Y-142348429D01*
X246174678Y-142423811D01*
X246338463Y-142533249D01*
X246477751Y-142672537D01*
X246587189Y-142836322D01*
X246662571Y-143018311D01*
X246701000Y-143211509D01*
X246701000Y-143408491D01*
X246662571Y-143601689D01*
X246587189Y-143783678D01*
X246477751Y-143947463D01*
X246338463Y-144086751D01*
X246174678Y-144196189D01*
X245992689Y-144271571D01*
X245928290Y-144284381D01*
X245799493Y-144310000D01*
X245602507Y-144310000D01*
X245473710Y-144284381D01*
X245409311Y-144271571D01*
X245227322Y-144196189D01*
X245063537Y-144086751D01*
X244924249Y-143947463D01*
X244814811Y-143783678D01*
X244739429Y-143601689D01*
X244701000Y-143408491D01*
X244701000Y-143211509D01*
X244739429Y-143018311D01*
X244814811Y-142836322D01*
X244924249Y-142672537D01*
X245063537Y-142533249D01*
X245227322Y-142423811D01*
X245409311Y-142348429D01*
X245473710Y-142335619D01*
X245602507Y-142310000D01*
X245799493Y-142310000D01*
X245928290Y-142335619D01*
X245928290Y-142335619D01*
G37*
G36*
X249258290Y-142335619D02*
G01*
X249322689Y-142348429D01*
X249504678Y-142423811D01*
X249668463Y-142533249D01*
X249807751Y-142672537D01*
X249917189Y-142836322D01*
X249992571Y-143018311D01*
X250031000Y-143211509D01*
X250031000Y-143408491D01*
X249992571Y-143601689D01*
X249917189Y-143783678D01*
X249807751Y-143947463D01*
X249668463Y-144086751D01*
X249504678Y-144196189D01*
X249322689Y-144271571D01*
X249258290Y-144284381D01*
X249129493Y-144310000D01*
X248932507Y-144310000D01*
X248803710Y-144284381D01*
X248739311Y-144271571D01*
X248557322Y-144196189D01*
X248393537Y-144086751D01*
X248254249Y-143947463D01*
X248144811Y-143783678D01*
X248069429Y-143601689D01*
X248031000Y-143408491D01*
X248031000Y-143211509D01*
X248069429Y-143018311D01*
X248144811Y-142836322D01*
X248254249Y-142672537D01*
X248393537Y-142533249D01*
X248557322Y-142423811D01*
X248739311Y-142348429D01*
X248803710Y-142335619D01*
X248932507Y-142310000D01*
X249129493Y-142310000D01*
X249258290Y-142335619D01*
X249258290Y-142335619D01*
G37*
G36*
X225928290Y-142335619D02*
G01*
X225992689Y-142348429D01*
X226174678Y-142423811D01*
X226338463Y-142533249D01*
X226477751Y-142672537D01*
X226587189Y-142836322D01*
X226662571Y-143018311D01*
X226701000Y-143211509D01*
X226701000Y-143408491D01*
X226662571Y-143601689D01*
X226587189Y-143783678D01*
X226477751Y-143947463D01*
X226338463Y-144086751D01*
X226174678Y-144196189D01*
X225992689Y-144271571D01*
X225928290Y-144284381D01*
X225799493Y-144310000D01*
X225602507Y-144310000D01*
X225473710Y-144284381D01*
X225409311Y-144271571D01*
X225227322Y-144196189D01*
X225063537Y-144086751D01*
X224924249Y-143947463D01*
X224814811Y-143783678D01*
X224739429Y-143601689D01*
X224701000Y-143408491D01*
X224701000Y-143211509D01*
X224739429Y-143018311D01*
X224814811Y-142836322D01*
X224924249Y-142672537D01*
X225063537Y-142533249D01*
X225227322Y-142423811D01*
X225409311Y-142348429D01*
X225473710Y-142335619D01*
X225602507Y-142310000D01*
X225799493Y-142310000D01*
X225928290Y-142335619D01*
X225928290Y-142335619D01*
G37*
G36*
X219428290Y-142335619D02*
G01*
X219492689Y-142348429D01*
X219674678Y-142423811D01*
X219838463Y-142533249D01*
X219977751Y-142672537D01*
X220087189Y-142836322D01*
X220162571Y-143018311D01*
X220201000Y-143211509D01*
X220201000Y-143408491D01*
X220162571Y-143601689D01*
X220087189Y-143783678D01*
X219977751Y-143947463D01*
X219838463Y-144086751D01*
X219674678Y-144196189D01*
X219492689Y-144271571D01*
X219428290Y-144284381D01*
X219299493Y-144310000D01*
X219102507Y-144310000D01*
X218973710Y-144284381D01*
X218909311Y-144271571D01*
X218727322Y-144196189D01*
X218563537Y-144086751D01*
X218424249Y-143947463D01*
X218314811Y-143783678D01*
X218239429Y-143601689D01*
X218201000Y-143408491D01*
X218201000Y-143211509D01*
X218239429Y-143018311D01*
X218314811Y-142836322D01*
X218424249Y-142672537D01*
X218563537Y-142533249D01*
X218727322Y-142423811D01*
X218909311Y-142348429D01*
X218973710Y-142335619D01*
X219102507Y-142310000D01*
X219299493Y-142310000D01*
X219428290Y-142335619D01*
X219428290Y-142335619D01*
G37*
G36*
X209437290Y-142335619D02*
G01*
X209501689Y-142348429D01*
X209683678Y-142423811D01*
X209847463Y-142533249D01*
X209986751Y-142672537D01*
X210096189Y-142836322D01*
X210171571Y-143018311D01*
X210210000Y-143211509D01*
X210210000Y-143408491D01*
X210171571Y-143601689D01*
X210096189Y-143783678D01*
X209986751Y-143947463D01*
X209847463Y-144086751D01*
X209683678Y-144196189D01*
X209501689Y-144271571D01*
X209437290Y-144284381D01*
X209308493Y-144310000D01*
X209111507Y-144310000D01*
X208982710Y-144284381D01*
X208918311Y-144271571D01*
X208736322Y-144196189D01*
X208572537Y-144086751D01*
X208433249Y-143947463D01*
X208323811Y-143783678D01*
X208248429Y-143601689D01*
X208210000Y-143408491D01*
X208210000Y-143211509D01*
X208248429Y-143018311D01*
X208323811Y-142836322D01*
X208433249Y-142672537D01*
X208572537Y-142533249D01*
X208736322Y-142423811D01*
X208918311Y-142348429D01*
X208982710Y-142335619D01*
X209111507Y-142310000D01*
X209308493Y-142310000D01*
X209437290Y-142335619D01*
X209437290Y-142335619D01*
G37*
G36*
X215937290Y-142335619D02*
G01*
X216001689Y-142348429D01*
X216183678Y-142423811D01*
X216347463Y-142533249D01*
X216486751Y-142672537D01*
X216596189Y-142836322D01*
X216671571Y-143018311D01*
X216710000Y-143211509D01*
X216710000Y-143408491D01*
X216671571Y-143601689D01*
X216596189Y-143783678D01*
X216486751Y-143947463D01*
X216347463Y-144086751D01*
X216183678Y-144196189D01*
X216001689Y-144271571D01*
X215937290Y-144284381D01*
X215808493Y-144310000D01*
X215611507Y-144310000D01*
X215482710Y-144284381D01*
X215418311Y-144271571D01*
X215236322Y-144196189D01*
X215072537Y-144086751D01*
X214933249Y-143947463D01*
X214823811Y-143783678D01*
X214748429Y-143601689D01*
X214710000Y-143408491D01*
X214710000Y-143211509D01*
X214748429Y-143018311D01*
X214823811Y-142836322D01*
X214933249Y-142672537D01*
X215072537Y-142533249D01*
X215236322Y-142423811D01*
X215418311Y-142348429D01*
X215482710Y-142335619D01*
X215611507Y-142310000D01*
X215808493Y-142310000D01*
X215937290Y-142335619D01*
X215937290Y-142335619D01*
G37*
G36*
X255758290Y-142335619D02*
G01*
X255822689Y-142348429D01*
X256004678Y-142423811D01*
X256168463Y-142533249D01*
X256307751Y-142672537D01*
X256417189Y-142836322D01*
X256492571Y-143018311D01*
X256531000Y-143211509D01*
X256531000Y-143408491D01*
X256492571Y-143601689D01*
X256417189Y-143783678D01*
X256307751Y-143947463D01*
X256168463Y-144086751D01*
X256004678Y-144196189D01*
X255822689Y-144271571D01*
X255758290Y-144284381D01*
X255629493Y-144310000D01*
X255432507Y-144310000D01*
X255303710Y-144284381D01*
X255239311Y-144271571D01*
X255057322Y-144196189D01*
X254893537Y-144086751D01*
X254754249Y-143947463D01*
X254644811Y-143783678D01*
X254569429Y-143601689D01*
X254531000Y-143408491D01*
X254531000Y-143211509D01*
X254569429Y-143018311D01*
X254644811Y-142836322D01*
X254754249Y-142672537D01*
X254893537Y-142533249D01*
X255057322Y-142423811D01*
X255239311Y-142348429D01*
X255303710Y-142335619D01*
X255432507Y-142310000D01*
X255629493Y-142310000D01*
X255758290Y-142335619D01*
X255758290Y-142335619D01*
G37*
G36*
X239428290Y-142335619D02*
G01*
X239492689Y-142348429D01*
X239674678Y-142423811D01*
X239838463Y-142533249D01*
X239977751Y-142672537D01*
X240087189Y-142836322D01*
X240162571Y-143018311D01*
X240201000Y-143211509D01*
X240201000Y-143408491D01*
X240162571Y-143601689D01*
X240087189Y-143783678D01*
X239977751Y-143947463D01*
X239838463Y-144086751D01*
X239674678Y-144196189D01*
X239492689Y-144271571D01*
X239428290Y-144284381D01*
X239299493Y-144310000D01*
X239102507Y-144310000D01*
X238973710Y-144284381D01*
X238909311Y-144271571D01*
X238727322Y-144196189D01*
X238563537Y-144086751D01*
X238424249Y-143947463D01*
X238314811Y-143783678D01*
X238239429Y-143601689D01*
X238201000Y-143408491D01*
X238201000Y-143211509D01*
X238239429Y-143018311D01*
X238314811Y-142836322D01*
X238424249Y-142672537D01*
X238563537Y-142533249D01*
X238727322Y-142423811D01*
X238909311Y-142348429D01*
X238973710Y-142335619D01*
X239102507Y-142310000D01*
X239299493Y-142310000D01*
X239428290Y-142335619D01*
X239428290Y-142335619D01*
G37*
G36*
X229428290Y-142335619D02*
G01*
X229492689Y-142348429D01*
X229674678Y-142423811D01*
X229838463Y-142533249D01*
X229977751Y-142672537D01*
X230087189Y-142836322D01*
X230162571Y-143018311D01*
X230201000Y-143211509D01*
X230201000Y-143408491D01*
X230162571Y-143601689D01*
X230087189Y-143783678D01*
X229977751Y-143947463D01*
X229838463Y-144086751D01*
X229674678Y-144196189D01*
X229492689Y-144271571D01*
X229428290Y-144284381D01*
X229299493Y-144310000D01*
X229102507Y-144310000D01*
X228973710Y-144284381D01*
X228909311Y-144271571D01*
X228727322Y-144196189D01*
X228563537Y-144086751D01*
X228424249Y-143947463D01*
X228314811Y-143783678D01*
X228239429Y-143601689D01*
X228201000Y-143408491D01*
X228201000Y-143211509D01*
X228239429Y-143018311D01*
X228314811Y-142836322D01*
X228424249Y-142672537D01*
X228563537Y-142533249D01*
X228727322Y-142423811D01*
X228909311Y-142348429D01*
X228973710Y-142335619D01*
X229102507Y-142310000D01*
X229299493Y-142310000D01*
X229428290Y-142335619D01*
X229428290Y-142335619D01*
G37*
G36*
X235928290Y-142335619D02*
G01*
X235992689Y-142348429D01*
X236174678Y-142423811D01*
X236338463Y-142533249D01*
X236477751Y-142672537D01*
X236587189Y-142836322D01*
X236662571Y-143018311D01*
X236701000Y-143211509D01*
X236701000Y-143408491D01*
X236662571Y-143601689D01*
X236587189Y-143783678D01*
X236477751Y-143947463D01*
X236338463Y-144086751D01*
X236174678Y-144196189D01*
X235992689Y-144271571D01*
X235928290Y-144284381D01*
X235799493Y-144310000D01*
X235602507Y-144310000D01*
X235473710Y-144284381D01*
X235409311Y-144271571D01*
X235227322Y-144196189D01*
X235063537Y-144086751D01*
X234924249Y-143947463D01*
X234814811Y-143783678D01*
X234739429Y-143601689D01*
X234701000Y-143408491D01*
X234701000Y-143211509D01*
X234739429Y-143018311D01*
X234814811Y-142836322D01*
X234924249Y-142672537D01*
X235063537Y-142533249D01*
X235227322Y-142423811D01*
X235409311Y-142348429D01*
X235473710Y-142335619D01*
X235602507Y-142310000D01*
X235799493Y-142310000D01*
X235928290Y-142335619D01*
X235928290Y-142335619D01*
G37*
G36*
X208149677Y-136311701D02*
G01*
X208179909Y-136320873D01*
X208207771Y-136335764D01*
X208232193Y-136355807D01*
X208252236Y-136380229D01*
X208267127Y-136408091D01*
X208276299Y-136438323D01*
X208280000Y-136475905D01*
X208280000Y-137840095D01*
X208276299Y-137877677D01*
X208267127Y-137907909D01*
X208252236Y-137935771D01*
X208232193Y-137960193D01*
X208207771Y-137980236D01*
X208179909Y-137995127D01*
X208149677Y-138004299D01*
X208112095Y-138008000D01*
X206497905Y-138008000D01*
X206460323Y-138004299D01*
X206430091Y-137995127D01*
X206402229Y-137980236D01*
X206377807Y-137960193D01*
X206357764Y-137935771D01*
X206342873Y-137907909D01*
X206333701Y-137877677D01*
X206330000Y-137840095D01*
X206330000Y-136475905D01*
X206333701Y-136438323D01*
X206342873Y-136408091D01*
X206357764Y-136380229D01*
X206377807Y-136355807D01*
X206402229Y-136335764D01*
X206430091Y-136320873D01*
X206460323Y-136311701D01*
X206497905Y-136308000D01*
X208112095Y-136308000D01*
X208149677Y-136311701D01*
X208149677Y-136311701D01*
G37*
G36*
X207596627Y-133820299D02*
G01*
X207676742Y-133844601D01*
X207756855Y-133868903D01*
X207756857Y-133868904D01*
X207904518Y-133947831D01*
X208033949Y-134054051D01*
X208140169Y-134183482D01*
X208219096Y-134331143D01*
X208267701Y-134491373D01*
X208284112Y-134658000D01*
X208267701Y-134824627D01*
X208219096Y-134984857D01*
X208140169Y-135132518D01*
X208033949Y-135261949D01*
X207904518Y-135368169D01*
X207756857Y-135447096D01*
X207756855Y-135447097D01*
X207676742Y-135471398D01*
X207596627Y-135495701D01*
X207471752Y-135508000D01*
X207138248Y-135508000D01*
X207013373Y-135495701D01*
X206933258Y-135471399D01*
X206853145Y-135447097D01*
X206853143Y-135447096D01*
X206705482Y-135368169D01*
X206576051Y-135261949D01*
X206469831Y-135132518D01*
X206390904Y-134984857D01*
X206342299Y-134824627D01*
X206325888Y-134658000D01*
X206342299Y-134491373D01*
X206390904Y-134331143D01*
X206469831Y-134183482D01*
X206576051Y-134054051D01*
X206705482Y-133947831D01*
X206853143Y-133868904D01*
X206853145Y-133868903D01*
X206933258Y-133844601D01*
X207013373Y-133820299D01*
X207138248Y-133808000D01*
X207471752Y-133808000D01*
X207596627Y-133820299D01*
X207596627Y-133820299D01*
G37*
G36*
X207596627Y-131320299D02*
G01*
X207676742Y-131344602D01*
X207756855Y-131368903D01*
X207756857Y-131368904D01*
X207904518Y-131447831D01*
X208033949Y-131554051D01*
X208140169Y-131683482D01*
X208219096Y-131831143D01*
X208267701Y-131991373D01*
X208284112Y-132158000D01*
X208267701Y-132324627D01*
X208219096Y-132484857D01*
X208140169Y-132632518D01*
X208033949Y-132761949D01*
X207904518Y-132868169D01*
X207756857Y-132947096D01*
X207756855Y-132947097D01*
X207676742Y-132971398D01*
X207596627Y-132995701D01*
X207471752Y-133008000D01*
X207138248Y-133008000D01*
X207013373Y-132995701D01*
X206933258Y-132971398D01*
X206853145Y-132947097D01*
X206853143Y-132947096D01*
X206705482Y-132868169D01*
X206576051Y-132761949D01*
X206469831Y-132632518D01*
X206390904Y-132484857D01*
X206342299Y-132324627D01*
X206325888Y-132158000D01*
X206342299Y-131991373D01*
X206390904Y-131831143D01*
X206469831Y-131683482D01*
X206576051Y-131554051D01*
X206705482Y-131447831D01*
X206853143Y-131368904D01*
X206853145Y-131368903D01*
X206933258Y-131344601D01*
X207013373Y-131320299D01*
X207138248Y-131308000D01*
X207471752Y-131308000D01*
X207596627Y-131320299D01*
X207596627Y-131320299D01*
G37*
G36*
X207596627Y-128820299D02*
G01*
X207676742Y-128844602D01*
X207756855Y-128868903D01*
X207756857Y-128868904D01*
X207904518Y-128947831D01*
X208033949Y-129054051D01*
X208140169Y-129183482D01*
X208219096Y-129331143D01*
X208267701Y-129491373D01*
X208284112Y-129658000D01*
X208267701Y-129824627D01*
X208219096Y-129984857D01*
X208140169Y-130132518D01*
X208033949Y-130261949D01*
X207904518Y-130368169D01*
X207756857Y-130447096D01*
X207756855Y-130447097D01*
X207676742Y-130471398D01*
X207596627Y-130495701D01*
X207471752Y-130508000D01*
X207138248Y-130508000D01*
X207013373Y-130495701D01*
X206933258Y-130471399D01*
X206853145Y-130447097D01*
X206853143Y-130447096D01*
X206705482Y-130368169D01*
X206576051Y-130261949D01*
X206469831Y-130132518D01*
X206390904Y-129984857D01*
X206342299Y-129824627D01*
X206325888Y-129658000D01*
X206342299Y-129491373D01*
X206390904Y-129331143D01*
X206469831Y-129183482D01*
X206576051Y-129054051D01*
X206705482Y-128947831D01*
X206853143Y-128868904D01*
X206853145Y-128868903D01*
X206933258Y-128844602D01*
X207013373Y-128820299D01*
X207138248Y-128808000D01*
X207471752Y-128808000D01*
X207596627Y-128820299D01*
X207596627Y-128820299D01*
G37*
G36*
X207596627Y-126320299D02*
G01*
X207676742Y-126344602D01*
X207756855Y-126368903D01*
X207756857Y-126368904D01*
X207904518Y-126447831D01*
X208033949Y-126554051D01*
X208140169Y-126683482D01*
X208219096Y-126831143D01*
X208267701Y-126991373D01*
X208284112Y-127158000D01*
X208267701Y-127324627D01*
X208219096Y-127484857D01*
X208140169Y-127632518D01*
X208033949Y-127761949D01*
X207904518Y-127868169D01*
X207756857Y-127947096D01*
X207756855Y-127947097D01*
X207676742Y-127971398D01*
X207596627Y-127995701D01*
X207471752Y-128008000D01*
X207138248Y-128008000D01*
X207013373Y-127995701D01*
X206933258Y-127971398D01*
X206853145Y-127947097D01*
X206853143Y-127947096D01*
X206705482Y-127868169D01*
X206576051Y-127761949D01*
X206469831Y-127632518D01*
X206390904Y-127484857D01*
X206342299Y-127324627D01*
X206325888Y-127158000D01*
X206342299Y-126991373D01*
X206390904Y-126831143D01*
X206469831Y-126683482D01*
X206576051Y-126554051D01*
X206705482Y-126447831D01*
X206853143Y-126368904D01*
X206853145Y-126368903D01*
X206933258Y-126344602D01*
X207013373Y-126320299D01*
X207138248Y-126308000D01*
X207471752Y-126308000D01*
X207596627Y-126320299D01*
X207596627Y-126320299D01*
G37*
G36*
X213105250Y-119310556D02*
G01*
X213332735Y-119404784D01*
X213332737Y-119404785D01*
X213537468Y-119541582D01*
X213711578Y-119715692D01*
X213848376Y-119920425D01*
X213942604Y-120147910D01*
X213990640Y-120389404D01*
X213990640Y-120635636D01*
X213942604Y-120877130D01*
X213848376Y-121104615D01*
X213848375Y-121104617D01*
X213711578Y-121309348D01*
X213537468Y-121483458D01*
X213332737Y-121620255D01*
X213332736Y-121620256D01*
X213332735Y-121620256D01*
X213105250Y-121714484D01*
X212863756Y-121762520D01*
X212617524Y-121762520D01*
X212376030Y-121714484D01*
X212148545Y-121620256D01*
X212148544Y-121620256D01*
X212148543Y-121620255D01*
X211943812Y-121483458D01*
X211769702Y-121309348D01*
X211632905Y-121104617D01*
X211632904Y-121104615D01*
X211538676Y-120877130D01*
X211490640Y-120635636D01*
X211490640Y-120389404D01*
X211538676Y-120147910D01*
X211632904Y-119920425D01*
X211769702Y-119715692D01*
X211943812Y-119541582D01*
X212148543Y-119404785D01*
X212148545Y-119404784D01*
X212376030Y-119310556D01*
X212617524Y-119262520D01*
X212863756Y-119262520D01*
X213105250Y-119310556D01*
X213105250Y-119310556D01*
G37*
G36*
X215605250Y-116810556D02*
G01*
X215832735Y-116904784D01*
X215832737Y-116904785D01*
X216037468Y-117041582D01*
X216211578Y-117215692D01*
X216296766Y-117343184D01*
X216348376Y-117420425D01*
X216442604Y-117647910D01*
X216490640Y-117889404D01*
X216490640Y-118135636D01*
X216442604Y-118377130D01*
X216387616Y-118509882D01*
X216348375Y-118604617D01*
X216211578Y-118809348D01*
X216037468Y-118983458D01*
X215832737Y-119120255D01*
X215832736Y-119120256D01*
X215832735Y-119120256D01*
X215605250Y-119214484D01*
X215363756Y-119262520D01*
X215117524Y-119262520D01*
X214876030Y-119214484D01*
X214648545Y-119120256D01*
X214648544Y-119120256D01*
X214648543Y-119120255D01*
X214443812Y-118983458D01*
X214269702Y-118809348D01*
X214132905Y-118604617D01*
X214093664Y-118509882D01*
X214038676Y-118377130D01*
X213990640Y-118135636D01*
X213990640Y-117889404D01*
X214038676Y-117647910D01*
X214132904Y-117420425D01*
X214184515Y-117343184D01*
X214269702Y-117215692D01*
X214443812Y-117041582D01*
X214648543Y-116904785D01*
X214648545Y-116904784D01*
X214876030Y-116810556D01*
X215117524Y-116762520D01*
X215363756Y-116762520D01*
X215605250Y-116810556D01*
X215605250Y-116810556D01*
G37*
G36*
X203169327Y-116967547D02*
G01*
X203346914Y-117002870D01*
X203538002Y-117082022D01*
X203709976Y-117196931D01*
X203856229Y-117343184D01*
X203971138Y-117515158D01*
X204050290Y-117706246D01*
X204090640Y-117909104D01*
X204090640Y-118115936D01*
X204050290Y-118318794D01*
X203971138Y-118509882D01*
X203856229Y-118681856D01*
X203709976Y-118828109D01*
X203538002Y-118943018D01*
X203346914Y-119022170D01*
X203169327Y-119057493D01*
X203144057Y-119062520D01*
X202937223Y-119062520D01*
X202911953Y-119057493D01*
X202734366Y-119022170D01*
X202543278Y-118943018D01*
X202371304Y-118828109D01*
X202225051Y-118681856D01*
X202110142Y-118509882D01*
X202030990Y-118318794D01*
X201990640Y-118115936D01*
X201990640Y-117909104D01*
X202030990Y-117706246D01*
X202110142Y-117515158D01*
X202225051Y-117343184D01*
X202371304Y-117196931D01*
X202543278Y-117082022D01*
X202734366Y-117002870D01*
X202911953Y-116967547D01*
X202937223Y-116962520D01*
X203144057Y-116962520D01*
X203169327Y-116967547D01*
X203169327Y-116967547D01*
G37*
G36*
X224765463Y-117688226D02*
G01*
X224781299Y-117693030D01*
X224795886Y-117700827D01*
X224808677Y-117711323D01*
X224819173Y-117724114D01*
X224826970Y-117738701D01*
X224831774Y-117754537D01*
X224834000Y-117777140D01*
X224834000Y-118234860D01*
X224831774Y-118257463D01*
X224826970Y-118273299D01*
X224819173Y-118287886D01*
X224808677Y-118300677D01*
X224795886Y-118311173D01*
X224781299Y-118318970D01*
X224765463Y-118323774D01*
X224742860Y-118326000D01*
X224335140Y-118326000D01*
X224312537Y-118323774D01*
X224296701Y-118318970D01*
X224282114Y-118311173D01*
X224269323Y-118300677D01*
X224258827Y-118287886D01*
X224251030Y-118273299D01*
X224246226Y-118257463D01*
X224244000Y-118234860D01*
X224244000Y-117777140D01*
X224246226Y-117754537D01*
X224251030Y-117738701D01*
X224258827Y-117724114D01*
X224269323Y-117711323D01*
X224282114Y-117700827D01*
X224296701Y-117693030D01*
X224312537Y-117688226D01*
X224335140Y-117686000D01*
X224742860Y-117686000D01*
X224765463Y-117688226D01*
X224765463Y-117688226D01*
G37*
G36*
X223795463Y-117688226D02*
G01*
X223811299Y-117693030D01*
X223825886Y-117700827D01*
X223838677Y-117711323D01*
X223849173Y-117724114D01*
X223856970Y-117738701D01*
X223861774Y-117754537D01*
X223864000Y-117777140D01*
X223864000Y-118234860D01*
X223861774Y-118257463D01*
X223856970Y-118273299D01*
X223849173Y-118287886D01*
X223838677Y-118300677D01*
X223825886Y-118311173D01*
X223811299Y-118318970D01*
X223795463Y-118323774D01*
X223772860Y-118326000D01*
X223365140Y-118326000D01*
X223342537Y-118323774D01*
X223326701Y-118318970D01*
X223312114Y-118311173D01*
X223299323Y-118300677D01*
X223288827Y-118287886D01*
X223281030Y-118273299D01*
X223276226Y-118257463D01*
X223274000Y-118234860D01*
X223274000Y-117777140D01*
X223276226Y-117754537D01*
X223281030Y-117738701D01*
X223288827Y-117724114D01*
X223299323Y-117711323D01*
X223312114Y-117700827D01*
X223326701Y-117693030D01*
X223342537Y-117688226D01*
X223365140Y-117686000D01*
X223772860Y-117686000D01*
X223795463Y-117688226D01*
X223795463Y-117688226D01*
G37*
G36*
X224957000Y-116688000D02*
G01*
X224157000Y-116688000D01*
X224157000Y-115788000D01*
X224957000Y-115788000D01*
X224957000Y-116688000D01*
X224957000Y-116688000D01*
G37*
G36*
X202869327Y-114467547D02*
G01*
X203046914Y-114502870D01*
X203238002Y-114582022D01*
X203409976Y-114696931D01*
X203556229Y-114843184D01*
X203671138Y-115015158D01*
X203750290Y-115206246D01*
X203790640Y-115409104D01*
X203790640Y-115615936D01*
X203750290Y-115818794D01*
X203671138Y-116009882D01*
X203556229Y-116181856D01*
X203409976Y-116328109D01*
X203238002Y-116443018D01*
X203046914Y-116522170D01*
X202869327Y-116557493D01*
X202844057Y-116562520D01*
X202637223Y-116562520D01*
X202611953Y-116557493D01*
X202434366Y-116522170D01*
X202243278Y-116443018D01*
X202071304Y-116328109D01*
X201925051Y-116181856D01*
X201810142Y-116009882D01*
X201730990Y-115818794D01*
X201690640Y-115615936D01*
X201690640Y-115409104D01*
X201730990Y-115206246D01*
X201810142Y-115015158D01*
X201925051Y-114843184D01*
X202071304Y-114696931D01*
X202243278Y-114582022D01*
X202434366Y-114502870D01*
X202611953Y-114467547D01*
X202637223Y-114462520D01*
X202844057Y-114462520D01*
X202869327Y-114467547D01*
X202869327Y-114467547D01*
G37*
G36*
X225907000Y-114688000D02*
G01*
X225107000Y-114688000D01*
X225107000Y-113788000D01*
X225907000Y-113788000D01*
X225907000Y-114688000D01*
X225907000Y-114688000D01*
G37*
G36*
X224007000Y-114688000D02*
G01*
X223207000Y-114688000D01*
X223207000Y-113788000D01*
X224007000Y-113788000D01*
X224007000Y-114688000D01*
X224007000Y-114688000D01*
G37*
G36*
X218105250Y-111810556D02*
G01*
X218332735Y-111904784D01*
X218332737Y-111904785D01*
X218537468Y-112041582D01*
X218711578Y-112215692D01*
X218797670Y-112344537D01*
X218848376Y-112420425D01*
X218942604Y-112647910D01*
X218990640Y-112889404D01*
X218990640Y-113135636D01*
X218942604Y-113377130D01*
X218848376Y-113604615D01*
X218848375Y-113604617D01*
X218711578Y-113809348D01*
X218537468Y-113983458D01*
X218332737Y-114120255D01*
X218332736Y-114120256D01*
X218332735Y-114120256D01*
X218105250Y-114214484D01*
X217863756Y-114262520D01*
X217617524Y-114262520D01*
X217376030Y-114214484D01*
X217148545Y-114120256D01*
X217148544Y-114120256D01*
X217148543Y-114120255D01*
X216943812Y-113983458D01*
X216769702Y-113809348D01*
X216632905Y-113604617D01*
X216632904Y-113604615D01*
X216538676Y-113377130D01*
X216490640Y-113135636D01*
X216490640Y-112889404D01*
X216538676Y-112647910D01*
X216632904Y-112420425D01*
X216683611Y-112344537D01*
X216769702Y-112215692D01*
X216943812Y-112041582D01*
X217148543Y-111904785D01*
X217148545Y-111904784D01*
X217376030Y-111810556D01*
X217617524Y-111762520D01*
X217863756Y-111762520D01*
X218105250Y-111810556D01*
X218105250Y-111810556D01*
G37*
G36*
X213105250Y-111810556D02*
G01*
X213332735Y-111904784D01*
X213332737Y-111904785D01*
X213537468Y-112041582D01*
X213711578Y-112215692D01*
X213797670Y-112344537D01*
X213848376Y-112420425D01*
X213942604Y-112647910D01*
X213990640Y-112889404D01*
X213990640Y-113135636D01*
X213942604Y-113377130D01*
X213848376Y-113604615D01*
X213848375Y-113604617D01*
X213711578Y-113809348D01*
X213537468Y-113983458D01*
X213332737Y-114120255D01*
X213332736Y-114120256D01*
X213332735Y-114120256D01*
X213105250Y-114214484D01*
X212863756Y-114262520D01*
X212617524Y-114262520D01*
X212376030Y-114214484D01*
X212148545Y-114120256D01*
X212148544Y-114120256D01*
X212148543Y-114120255D01*
X211943812Y-113983458D01*
X211769702Y-113809348D01*
X211632905Y-113604617D01*
X211632904Y-113604615D01*
X211538676Y-113377130D01*
X211490640Y-113135636D01*
X211490640Y-112889404D01*
X211538676Y-112647910D01*
X211632904Y-112420425D01*
X211683611Y-112344537D01*
X211769702Y-112215692D01*
X211943812Y-112041582D01*
X212148543Y-111904785D01*
X212148545Y-111904784D01*
X212376030Y-111810556D01*
X212617524Y-111762520D01*
X212863756Y-111762520D01*
X213105250Y-111810556D01*
X213105250Y-111810556D01*
G37*
G36*
X224800463Y-112278226D02*
G01*
X224816299Y-112283030D01*
X224830886Y-112290827D01*
X224843677Y-112301323D01*
X224854173Y-112314114D01*
X224861970Y-112328701D01*
X224866774Y-112344537D01*
X224869000Y-112367140D01*
X224869000Y-112824860D01*
X224866774Y-112847463D01*
X224861970Y-112863299D01*
X224854173Y-112877886D01*
X224843677Y-112890677D01*
X224830886Y-112901173D01*
X224816299Y-112908970D01*
X224800463Y-112913774D01*
X224777860Y-112916000D01*
X224370140Y-112916000D01*
X224347537Y-112913774D01*
X224331701Y-112908970D01*
X224317114Y-112901173D01*
X224304323Y-112890677D01*
X224293827Y-112877886D01*
X224286030Y-112863299D01*
X224281226Y-112847463D01*
X224279000Y-112824860D01*
X224279000Y-112367140D01*
X224281226Y-112344537D01*
X224286030Y-112328701D01*
X224293827Y-112314114D01*
X224304323Y-112301323D01*
X224317114Y-112290827D01*
X224331701Y-112283030D01*
X224347537Y-112278226D01*
X224370140Y-112276000D01*
X224777860Y-112276000D01*
X224800463Y-112278226D01*
X224800463Y-112278226D01*
G37*
G36*
X223830463Y-112278226D02*
G01*
X223846299Y-112283030D01*
X223860886Y-112290827D01*
X223873677Y-112301323D01*
X223884173Y-112314114D01*
X223891970Y-112328701D01*
X223896774Y-112344537D01*
X223899000Y-112367140D01*
X223899000Y-112824860D01*
X223896774Y-112847463D01*
X223891970Y-112863299D01*
X223884173Y-112877886D01*
X223873677Y-112890677D01*
X223860886Y-112901173D01*
X223846299Y-112908970D01*
X223830463Y-112913774D01*
X223807860Y-112916000D01*
X223400140Y-112916000D01*
X223377537Y-112913774D01*
X223361701Y-112908970D01*
X223347114Y-112901173D01*
X223334323Y-112890677D01*
X223323827Y-112877886D01*
X223316030Y-112863299D01*
X223311226Y-112847463D01*
X223309000Y-112824860D01*
X223309000Y-112367140D01*
X223311226Y-112344537D01*
X223316030Y-112328701D01*
X223323827Y-112314114D01*
X223334323Y-112301323D01*
X223347114Y-112290827D01*
X223361701Y-112283030D01*
X223377537Y-112278226D01*
X223400140Y-112276000D01*
X223807860Y-112276000D01*
X223830463Y-112278226D01*
X223830463Y-112278226D01*
G37*
G36*
X202869327Y-109467547D02*
G01*
X203046914Y-109502870D01*
X203238002Y-109582022D01*
X203409976Y-109696931D01*
X203556229Y-109843184D01*
X203671138Y-110015158D01*
X203750290Y-110206246D01*
X203790640Y-110409104D01*
X203790640Y-110615936D01*
X203750290Y-110818794D01*
X203671138Y-111009882D01*
X203556229Y-111181856D01*
X203409976Y-111328109D01*
X203238002Y-111443018D01*
X203046914Y-111522170D01*
X202869327Y-111557493D01*
X202844057Y-111562520D01*
X202637223Y-111562520D01*
X202611953Y-111557493D01*
X202434366Y-111522170D01*
X202243278Y-111443018D01*
X202071304Y-111328109D01*
X201925051Y-111181856D01*
X201810142Y-111009882D01*
X201730990Y-110818794D01*
X201690640Y-110615936D01*
X201690640Y-110409104D01*
X201730990Y-110206246D01*
X201810142Y-110015158D01*
X201925051Y-109843184D01*
X202071304Y-109696931D01*
X202243278Y-109582022D01*
X202434366Y-109502870D01*
X202611953Y-109467547D01*
X202637223Y-109462520D01*
X202844057Y-109462520D01*
X202869327Y-109467547D01*
X202869327Y-109467547D01*
G37*
G36*
X261248290Y-108451619D02*
G01*
X261312689Y-108464429D01*
X261494678Y-108539811D01*
X261658463Y-108649249D01*
X261797751Y-108788537D01*
X261907189Y-108952322D01*
X261982571Y-109134311D01*
X262021000Y-109327509D01*
X262021000Y-109524491D01*
X261982571Y-109717689D01*
X261907189Y-109899678D01*
X261797751Y-110063463D01*
X261658463Y-110202751D01*
X261494678Y-110312189D01*
X261312689Y-110387571D01*
X261248290Y-110400381D01*
X261119493Y-110426000D01*
X260922507Y-110426000D01*
X260793710Y-110400381D01*
X260729311Y-110387571D01*
X260547322Y-110312189D01*
X260383537Y-110202751D01*
X260244249Y-110063463D01*
X260134811Y-109899678D01*
X260059429Y-109717689D01*
X260021000Y-109524491D01*
X260021000Y-109327509D01*
X260059429Y-109134311D01*
X260134811Y-108952322D01*
X260244249Y-108788537D01*
X260383537Y-108649249D01*
X260547322Y-108539811D01*
X260729311Y-108464429D01*
X260793710Y-108451619D01*
X260922507Y-108426000D01*
X261119493Y-108426000D01*
X261248290Y-108451619D01*
X261248290Y-108451619D01*
G37*
G36*
X254421000Y-110426000D02*
G01*
X252421000Y-110426000D01*
X252421000Y-108426000D01*
X254421000Y-108426000D01*
X254421000Y-110426000D01*
X254421000Y-110426000D01*
G37*
G36*
X215605250Y-106810556D02*
G01*
X215832735Y-106904784D01*
X215832737Y-106904785D01*
X216037468Y-107041582D01*
X216211578Y-107215692D01*
X216296766Y-107343184D01*
X216348376Y-107420425D01*
X216442604Y-107647910D01*
X216490640Y-107889404D01*
X216490640Y-108135636D01*
X216442604Y-108377130D01*
X216387616Y-108509882D01*
X216348375Y-108604617D01*
X216211578Y-108809348D01*
X216037468Y-108983458D01*
X215832737Y-109120255D01*
X215832736Y-109120256D01*
X215832735Y-109120256D01*
X215605250Y-109214484D01*
X215363756Y-109262520D01*
X215117524Y-109262520D01*
X214876030Y-109214484D01*
X214648545Y-109120256D01*
X214648544Y-109120256D01*
X214648543Y-109120255D01*
X214443812Y-108983458D01*
X214269702Y-108809348D01*
X214132905Y-108604617D01*
X214093664Y-108509882D01*
X214038676Y-108377130D01*
X213990640Y-108135636D01*
X213990640Y-107889404D01*
X214038676Y-107647910D01*
X214132904Y-107420425D01*
X214184515Y-107343184D01*
X214269702Y-107215692D01*
X214443812Y-107041582D01*
X214648543Y-106904785D01*
X214648545Y-106904784D01*
X214876030Y-106810556D01*
X215117524Y-106762520D01*
X215363756Y-106762520D01*
X215605250Y-106810556D01*
X215605250Y-106810556D01*
G37*
G36*
X203169327Y-106967547D02*
G01*
X203346914Y-107002870D01*
X203538002Y-107082022D01*
X203709976Y-107196931D01*
X203856229Y-107343184D01*
X203971138Y-107515158D01*
X204050290Y-107706246D01*
X204090640Y-107909104D01*
X204090640Y-108115936D01*
X204050290Y-108318794D01*
X203971138Y-108509882D01*
X203856229Y-108681856D01*
X203709976Y-108828109D01*
X203538002Y-108943018D01*
X203346914Y-109022170D01*
X203169327Y-109057493D01*
X203144057Y-109062520D01*
X202937223Y-109062520D01*
X202911953Y-109057493D01*
X202734366Y-109022170D01*
X202543278Y-108943018D01*
X202371304Y-108828109D01*
X202225051Y-108681856D01*
X202110142Y-108509882D01*
X202030990Y-108318794D01*
X201990640Y-108115936D01*
X201990640Y-107909104D01*
X202030990Y-107706246D01*
X202110142Y-107515158D01*
X202225051Y-107343184D01*
X202371304Y-107196931D01*
X202543278Y-107082022D01*
X202734366Y-107002870D01*
X202911953Y-106967547D01*
X202937223Y-106962520D01*
X203144057Y-106962520D01*
X203169327Y-106967547D01*
X203169327Y-106967547D01*
G37*
G36*
X228478463Y-108295226D02*
G01*
X228494299Y-108300030D01*
X228508886Y-108307827D01*
X228521677Y-108318323D01*
X228532173Y-108331114D01*
X228539970Y-108345701D01*
X228544774Y-108361537D01*
X228547000Y-108384140D01*
X228547000Y-108841860D01*
X228544774Y-108864463D01*
X228539970Y-108880299D01*
X228532173Y-108894886D01*
X228521677Y-108907677D01*
X228508886Y-108918173D01*
X228494299Y-108925970D01*
X228478463Y-108930774D01*
X228455860Y-108933000D01*
X228048140Y-108933000D01*
X228025537Y-108930774D01*
X228009701Y-108925970D01*
X227995114Y-108918173D01*
X227982323Y-108907677D01*
X227971827Y-108894886D01*
X227964030Y-108880299D01*
X227959226Y-108864463D01*
X227957000Y-108841860D01*
X227957000Y-108384140D01*
X227959226Y-108361537D01*
X227964030Y-108345701D01*
X227971827Y-108331114D01*
X227982323Y-108318323D01*
X227995114Y-108307827D01*
X228009701Y-108300030D01*
X228025537Y-108295226D01*
X228048140Y-108293000D01*
X228455860Y-108293000D01*
X228478463Y-108295226D01*
X228478463Y-108295226D01*
G37*
G36*
X223815463Y-108295226D02*
G01*
X223831299Y-108300030D01*
X223845886Y-108307827D01*
X223858677Y-108318323D01*
X223869173Y-108331114D01*
X223876970Y-108345701D01*
X223881774Y-108361537D01*
X223884000Y-108384140D01*
X223884000Y-108841860D01*
X223881774Y-108864463D01*
X223876970Y-108880299D01*
X223869173Y-108894886D01*
X223858677Y-108907677D01*
X223845886Y-108918173D01*
X223831299Y-108925970D01*
X223815463Y-108930774D01*
X223792860Y-108933000D01*
X223385140Y-108933000D01*
X223362537Y-108930774D01*
X223346701Y-108925970D01*
X223332114Y-108918173D01*
X223319323Y-108907677D01*
X223308827Y-108894886D01*
X223301030Y-108880299D01*
X223296226Y-108864463D01*
X223294000Y-108841860D01*
X223294000Y-108384140D01*
X223296226Y-108361537D01*
X223301030Y-108345701D01*
X223308827Y-108331114D01*
X223319323Y-108318323D01*
X223332114Y-108307827D01*
X223346701Y-108300030D01*
X223362537Y-108295226D01*
X223385140Y-108293000D01*
X223792860Y-108293000D01*
X223815463Y-108295226D01*
X223815463Y-108295226D01*
G37*
G36*
X224785463Y-108295226D02*
G01*
X224801299Y-108300030D01*
X224815886Y-108307827D01*
X224828677Y-108318323D01*
X224839173Y-108331114D01*
X224846970Y-108345701D01*
X224851774Y-108361537D01*
X224854000Y-108384140D01*
X224854000Y-108841860D01*
X224851774Y-108864463D01*
X224846970Y-108880299D01*
X224839173Y-108894886D01*
X224828677Y-108907677D01*
X224815886Y-108918173D01*
X224801299Y-108925970D01*
X224785463Y-108930774D01*
X224762860Y-108933000D01*
X224355140Y-108933000D01*
X224332537Y-108930774D01*
X224316701Y-108925970D01*
X224302114Y-108918173D01*
X224289323Y-108907677D01*
X224278827Y-108894886D01*
X224271030Y-108880299D01*
X224266226Y-108864463D01*
X224264000Y-108841860D01*
X224264000Y-108384140D01*
X224266226Y-108361537D01*
X224271030Y-108345701D01*
X224278827Y-108331114D01*
X224289323Y-108318323D01*
X224302114Y-108307827D01*
X224316701Y-108300030D01*
X224332537Y-108295226D01*
X224355140Y-108293000D01*
X224762860Y-108293000D01*
X224785463Y-108295226D01*
X224785463Y-108295226D01*
G37*
G36*
X227508463Y-108295226D02*
G01*
X227524299Y-108300030D01*
X227538886Y-108307827D01*
X227551677Y-108318323D01*
X227562173Y-108331114D01*
X227569970Y-108345701D01*
X227574774Y-108361537D01*
X227577000Y-108384140D01*
X227577000Y-108841860D01*
X227574774Y-108864463D01*
X227569970Y-108880299D01*
X227562173Y-108894886D01*
X227551677Y-108907677D01*
X227538886Y-108918173D01*
X227524299Y-108925970D01*
X227508463Y-108930774D01*
X227485860Y-108933000D01*
X227078140Y-108933000D01*
X227055537Y-108930774D01*
X227039701Y-108925970D01*
X227025114Y-108918173D01*
X227012323Y-108907677D01*
X227001827Y-108894886D01*
X226994030Y-108880299D01*
X226989226Y-108864463D01*
X226987000Y-108841860D01*
X226987000Y-108384140D01*
X226989226Y-108361537D01*
X226994030Y-108345701D01*
X227001827Y-108331114D01*
X227012323Y-108318323D01*
X227025114Y-108307827D01*
X227039701Y-108300030D01*
X227055537Y-108295226D01*
X227078140Y-108293000D01*
X227485860Y-108293000D01*
X227508463Y-108295226D01*
X227508463Y-108295226D01*
G37*
G36*
X221135463Y-108285226D02*
G01*
X221151299Y-108290030D01*
X221165886Y-108297827D01*
X221178677Y-108308323D01*
X221189173Y-108321114D01*
X221196970Y-108335701D01*
X221201774Y-108351537D01*
X221204000Y-108374140D01*
X221204000Y-108831860D01*
X221201774Y-108854463D01*
X221196970Y-108870299D01*
X221189173Y-108884886D01*
X221178677Y-108897677D01*
X221165886Y-108908173D01*
X221151299Y-108915970D01*
X221135463Y-108920774D01*
X221112860Y-108923000D01*
X220705140Y-108923000D01*
X220682537Y-108920774D01*
X220666701Y-108915970D01*
X220652114Y-108908173D01*
X220639323Y-108897677D01*
X220628827Y-108884886D01*
X220621030Y-108870299D01*
X220616226Y-108854463D01*
X220614000Y-108831860D01*
X220614000Y-108374140D01*
X220616226Y-108351537D01*
X220621030Y-108335701D01*
X220628827Y-108321114D01*
X220639323Y-108308323D01*
X220652114Y-108297827D01*
X220666701Y-108290030D01*
X220682537Y-108285226D01*
X220705140Y-108283000D01*
X221112860Y-108283000D01*
X221135463Y-108285226D01*
X221135463Y-108285226D01*
G37*
G36*
X220165463Y-108285226D02*
G01*
X220181299Y-108290030D01*
X220195886Y-108297827D01*
X220208677Y-108308323D01*
X220219173Y-108321114D01*
X220226970Y-108335701D01*
X220231774Y-108351537D01*
X220234000Y-108374140D01*
X220234000Y-108831860D01*
X220231774Y-108854463D01*
X220226970Y-108870299D01*
X220219173Y-108884886D01*
X220208677Y-108897677D01*
X220195886Y-108908173D01*
X220181299Y-108915970D01*
X220165463Y-108920774D01*
X220142860Y-108923000D01*
X219735140Y-108923000D01*
X219712537Y-108920774D01*
X219696701Y-108915970D01*
X219682114Y-108908173D01*
X219669323Y-108897677D01*
X219658827Y-108884886D01*
X219651030Y-108870299D01*
X219646226Y-108854463D01*
X219644000Y-108831860D01*
X219644000Y-108374140D01*
X219646226Y-108351537D01*
X219651030Y-108335701D01*
X219658827Y-108321114D01*
X219669323Y-108308323D01*
X219682114Y-108297827D01*
X219696701Y-108290030D01*
X219712537Y-108285226D01*
X219735140Y-108283000D01*
X220142860Y-108283000D01*
X220165463Y-108285226D01*
X220165463Y-108285226D01*
G37*
G36*
X237407627Y-105647299D02*
G01*
X237487742Y-105671602D01*
X237567855Y-105695903D01*
X237567857Y-105695904D01*
X237715518Y-105774831D01*
X237844949Y-105881051D01*
X237951169Y-106010482D01*
X238030096Y-106158143D01*
X238078701Y-106318373D01*
X238095112Y-106485000D01*
X238078701Y-106651627D01*
X238078700Y-106651629D01*
X238030491Y-106810557D01*
X238030096Y-106811857D01*
X237951169Y-106959518D01*
X237844949Y-107088949D01*
X237715518Y-107195169D01*
X237677122Y-107215692D01*
X237567855Y-107274097D01*
X237487742Y-107298399D01*
X237407627Y-107322701D01*
X237282752Y-107335000D01*
X237199248Y-107335000D01*
X237074373Y-107322701D01*
X236994258Y-107298399D01*
X236914145Y-107274097D01*
X236804878Y-107215692D01*
X236766482Y-107195169D01*
X236637051Y-107088949D01*
X236530831Y-106959518D01*
X236451904Y-106811857D01*
X236451510Y-106810557D01*
X236403300Y-106651629D01*
X236403299Y-106651627D01*
X236386888Y-106485000D01*
X236403299Y-106318373D01*
X236451904Y-106158143D01*
X236530831Y-106010482D01*
X236637051Y-105881051D01*
X236766482Y-105774831D01*
X236914143Y-105695904D01*
X236914145Y-105695903D01*
X236994258Y-105671602D01*
X237074373Y-105647299D01*
X237199248Y-105635000D01*
X237282752Y-105635000D01*
X237407627Y-105647299D01*
X237407627Y-105647299D01*
G37*
G36*
X234867627Y-105647299D02*
G01*
X234947742Y-105671602D01*
X235027855Y-105695903D01*
X235027857Y-105695904D01*
X235175518Y-105774831D01*
X235304949Y-105881051D01*
X235411169Y-106010482D01*
X235490096Y-106158143D01*
X235538701Y-106318373D01*
X235555112Y-106485000D01*
X235538701Y-106651627D01*
X235538700Y-106651629D01*
X235490491Y-106810557D01*
X235490096Y-106811857D01*
X235411169Y-106959518D01*
X235304949Y-107088949D01*
X235175518Y-107195169D01*
X235137122Y-107215692D01*
X235027855Y-107274097D01*
X234947742Y-107298399D01*
X234867627Y-107322701D01*
X234742752Y-107335000D01*
X234659248Y-107335000D01*
X234534373Y-107322701D01*
X234454258Y-107298399D01*
X234374145Y-107274097D01*
X234264878Y-107215692D01*
X234226482Y-107195169D01*
X234097051Y-107088949D01*
X233990831Y-106959518D01*
X233911904Y-106811857D01*
X233911510Y-106810557D01*
X233863300Y-106651629D01*
X233863299Y-106651627D01*
X233846888Y-106485000D01*
X233863299Y-106318373D01*
X233911904Y-106158143D01*
X233990831Y-106010482D01*
X234097051Y-105881051D01*
X234226482Y-105774831D01*
X234374143Y-105695904D01*
X234374145Y-105695903D01*
X234454258Y-105671602D01*
X234534373Y-105647299D01*
X234659248Y-105635000D01*
X234742752Y-105635000D01*
X234867627Y-105647299D01*
X234867627Y-105647299D01*
G37*
G36*
X233011000Y-107335000D02*
G01*
X231311000Y-107335000D01*
X231311000Y-105635000D01*
X233011000Y-105635000D01*
X233011000Y-107335000D01*
X233011000Y-107335000D01*
G37*
G36*
X239947627Y-105647299D02*
G01*
X240027742Y-105671602D01*
X240107855Y-105695903D01*
X240107857Y-105695904D01*
X240255518Y-105774831D01*
X240384949Y-105881051D01*
X240491169Y-106010482D01*
X240570096Y-106158143D01*
X240618701Y-106318373D01*
X240635112Y-106485000D01*
X240618701Y-106651627D01*
X240618700Y-106651629D01*
X240570491Y-106810557D01*
X240570096Y-106811857D01*
X240491169Y-106959518D01*
X240384949Y-107088949D01*
X240255518Y-107195169D01*
X240217122Y-107215692D01*
X240107855Y-107274097D01*
X240027742Y-107298399D01*
X239947627Y-107322701D01*
X239822752Y-107335000D01*
X239739248Y-107335000D01*
X239614373Y-107322701D01*
X239534258Y-107298399D01*
X239454145Y-107274097D01*
X239344878Y-107215692D01*
X239306482Y-107195169D01*
X239177051Y-107088949D01*
X239070831Y-106959518D01*
X238991904Y-106811857D01*
X238991510Y-106810557D01*
X238943300Y-106651629D01*
X238943299Y-106651627D01*
X238926888Y-106485000D01*
X238943299Y-106318373D01*
X238991904Y-106158143D01*
X239070831Y-106010482D01*
X239177051Y-105881051D01*
X239306482Y-105774831D01*
X239454143Y-105695904D01*
X239454145Y-105695903D01*
X239534258Y-105671602D01*
X239614373Y-105647299D01*
X239739248Y-105635000D01*
X239822752Y-105635000D01*
X239947627Y-105647299D01*
X239947627Y-105647299D01*
G37*
G36*
X221309000Y-107300000D02*
G01*
X220509000Y-107300000D01*
X220509000Y-106400000D01*
X221309000Y-106400000D01*
X221309000Y-107300000D01*
X221309000Y-107300000D01*
G37*
G36*
X224957000Y-107295000D02*
G01*
X224157000Y-107295000D01*
X224157000Y-106395000D01*
X224957000Y-106395000D01*
X224957000Y-107295000D01*
X224957000Y-107295000D01*
G37*
G36*
X228655000Y-107290000D02*
G01*
X227855000Y-107290000D01*
X227855000Y-106390000D01*
X228655000Y-106390000D01*
X228655000Y-107290000D01*
X228655000Y-107290000D01*
G37*
G36*
X213105250Y-104310556D02*
G01*
X213309114Y-104395000D01*
X213332737Y-104404785D01*
X213537468Y-104541582D01*
X213711578Y-104715692D01*
X213848376Y-104920425D01*
X213942604Y-105147910D01*
X213990640Y-105389404D01*
X213990640Y-105635636D01*
X213942604Y-105877130D01*
X213887367Y-106010482D01*
X213848375Y-106104617D01*
X213711578Y-106309348D01*
X213537468Y-106483458D01*
X213332737Y-106620255D01*
X213332736Y-106620256D01*
X213332735Y-106620256D01*
X213105250Y-106714484D01*
X212863756Y-106762520D01*
X212617524Y-106762520D01*
X212376030Y-106714484D01*
X212148545Y-106620256D01*
X212148544Y-106620256D01*
X212148543Y-106620255D01*
X211943812Y-106483458D01*
X211769702Y-106309348D01*
X211632905Y-106104617D01*
X211593913Y-106010482D01*
X211538676Y-105877130D01*
X211490640Y-105635636D01*
X211490640Y-105389404D01*
X211538676Y-105147910D01*
X211632904Y-104920425D01*
X211769702Y-104715692D01*
X211943812Y-104541582D01*
X212148543Y-104404785D01*
X212172166Y-104395000D01*
X212376030Y-104310556D01*
X212617524Y-104262520D01*
X212863756Y-104262520D01*
X213105250Y-104310556D01*
X213105250Y-104310556D01*
G37*
G36*
X220359000Y-105300000D02*
G01*
X219559000Y-105300000D01*
X219559000Y-104400000D01*
X220359000Y-104400000D01*
X220359000Y-105300000D01*
X220359000Y-105300000D01*
G37*
G36*
X222259000Y-105300000D02*
G01*
X221459000Y-105300000D01*
X221459000Y-104400000D01*
X222259000Y-104400000D01*
X222259000Y-105300000D01*
X222259000Y-105300000D01*
G37*
G36*
X224007000Y-105295000D02*
G01*
X223207000Y-105295000D01*
X223207000Y-104395000D01*
X224007000Y-104395000D01*
X224007000Y-105295000D01*
X224007000Y-105295000D01*
G37*
G36*
X225907000Y-105295000D02*
G01*
X225107000Y-105295000D01*
X225107000Y-104395000D01*
X225907000Y-104395000D01*
X225907000Y-105295000D01*
X225907000Y-105295000D01*
G37*
G36*
X227705000Y-105290000D02*
G01*
X226905000Y-105290000D01*
X226905000Y-104390000D01*
X227705000Y-104390000D01*
X227705000Y-105290000D01*
X227705000Y-105290000D01*
G37*
G36*
X229605000Y-105290000D02*
G01*
X228805000Y-105290000D01*
X228805000Y-104390000D01*
X229605000Y-104390000D01*
X229605000Y-105290000D01*
X229605000Y-105290000D01*
G37*
G36*
X221168463Y-102905226D02*
G01*
X221184299Y-102910030D01*
X221198886Y-102917827D01*
X221211677Y-102928323D01*
X221222173Y-102941114D01*
X221229970Y-102955701D01*
X221234774Y-102971537D01*
X221237000Y-102994140D01*
X221237000Y-103451860D01*
X221234774Y-103474463D01*
X221229970Y-103490299D01*
X221222173Y-103504886D01*
X221211677Y-103517677D01*
X221198886Y-103528173D01*
X221184299Y-103535970D01*
X221168463Y-103540774D01*
X221145860Y-103543000D01*
X220738140Y-103543000D01*
X220715537Y-103540774D01*
X220699701Y-103535970D01*
X220685114Y-103528173D01*
X220672323Y-103517677D01*
X220661827Y-103504886D01*
X220654030Y-103490299D01*
X220649226Y-103474463D01*
X220647000Y-103451860D01*
X220647000Y-102994140D01*
X220649226Y-102971537D01*
X220654030Y-102955701D01*
X220661827Y-102941114D01*
X220672323Y-102928323D01*
X220685114Y-102917827D01*
X220699701Y-102910030D01*
X220715537Y-102905226D01*
X220738140Y-102903000D01*
X221145860Y-102903000D01*
X221168463Y-102905226D01*
X221168463Y-102905226D01*
G37*
G36*
X220198463Y-102905226D02*
G01*
X220214299Y-102910030D01*
X220228886Y-102917827D01*
X220241677Y-102928323D01*
X220252173Y-102941114D01*
X220259970Y-102955701D01*
X220264774Y-102971537D01*
X220267000Y-102994140D01*
X220267000Y-103451860D01*
X220264774Y-103474463D01*
X220259970Y-103490299D01*
X220252173Y-103504886D01*
X220241677Y-103517677D01*
X220228886Y-103528173D01*
X220214299Y-103535970D01*
X220198463Y-103540774D01*
X220175860Y-103543000D01*
X219768140Y-103543000D01*
X219745537Y-103540774D01*
X219729701Y-103535970D01*
X219715114Y-103528173D01*
X219702323Y-103517677D01*
X219691827Y-103504886D01*
X219684030Y-103490299D01*
X219679226Y-103474463D01*
X219677000Y-103451860D01*
X219677000Y-102994140D01*
X219679226Y-102971537D01*
X219684030Y-102955701D01*
X219691827Y-102941114D01*
X219702323Y-102928323D01*
X219715114Y-102917827D01*
X219729701Y-102910030D01*
X219745537Y-102905226D01*
X219768140Y-102903000D01*
X220175860Y-102903000D01*
X220198463Y-102905226D01*
X220198463Y-102905226D01*
G37*
G36*
X224821463Y-102895226D02*
G01*
X224837299Y-102900030D01*
X224851886Y-102907827D01*
X224864677Y-102918323D01*
X224875173Y-102931114D01*
X224882970Y-102945701D01*
X224887774Y-102961537D01*
X224890000Y-102984140D01*
X224890000Y-103441860D01*
X224887774Y-103464463D01*
X224882970Y-103480299D01*
X224875173Y-103494886D01*
X224864677Y-103507677D01*
X224851886Y-103518173D01*
X224837299Y-103525970D01*
X224821463Y-103530774D01*
X224798860Y-103533000D01*
X224391140Y-103533000D01*
X224368537Y-103530774D01*
X224352701Y-103525970D01*
X224338114Y-103518173D01*
X224325323Y-103507677D01*
X224314827Y-103494886D01*
X224307030Y-103480299D01*
X224302226Y-103464463D01*
X224300000Y-103441860D01*
X224300000Y-102984140D01*
X224302226Y-102961537D01*
X224307030Y-102945701D01*
X224314827Y-102931114D01*
X224325323Y-102918323D01*
X224338114Y-102907827D01*
X224352701Y-102900030D01*
X224368537Y-102895226D01*
X224391140Y-102893000D01*
X224798860Y-102893000D01*
X224821463Y-102895226D01*
X224821463Y-102895226D01*
G37*
G36*
X223851463Y-102895226D02*
G01*
X223867299Y-102900030D01*
X223881886Y-102907827D01*
X223894677Y-102918323D01*
X223905173Y-102931114D01*
X223912970Y-102945701D01*
X223917774Y-102961537D01*
X223920000Y-102984140D01*
X223920000Y-103441860D01*
X223917774Y-103464463D01*
X223912970Y-103480299D01*
X223905173Y-103494886D01*
X223894677Y-103507677D01*
X223881886Y-103518173D01*
X223867299Y-103525970D01*
X223851463Y-103530774D01*
X223828860Y-103533000D01*
X223421140Y-103533000D01*
X223398537Y-103530774D01*
X223382701Y-103525970D01*
X223368114Y-103518173D01*
X223355323Y-103507677D01*
X223344827Y-103494886D01*
X223337030Y-103480299D01*
X223332226Y-103464463D01*
X223330000Y-103441860D01*
X223330000Y-102984140D01*
X223332226Y-102961537D01*
X223337030Y-102945701D01*
X223344827Y-102931114D01*
X223355323Y-102918323D01*
X223368114Y-102907827D01*
X223382701Y-102900030D01*
X223398537Y-102895226D01*
X223421140Y-102893000D01*
X223828860Y-102893000D01*
X223851463Y-102895226D01*
X223851463Y-102895226D01*
G37*
G36*
X228494463Y-102895226D02*
G01*
X228510299Y-102900030D01*
X228524886Y-102907827D01*
X228537677Y-102918323D01*
X228548173Y-102931114D01*
X228555970Y-102945701D01*
X228560774Y-102961537D01*
X228563000Y-102984140D01*
X228563000Y-103441860D01*
X228560774Y-103464463D01*
X228555970Y-103480299D01*
X228548173Y-103494886D01*
X228537677Y-103507677D01*
X228524886Y-103518173D01*
X228510299Y-103525970D01*
X228494463Y-103530774D01*
X228471860Y-103533000D01*
X228064140Y-103533000D01*
X228041537Y-103530774D01*
X228025701Y-103525970D01*
X228011114Y-103518173D01*
X227998323Y-103507677D01*
X227987827Y-103494886D01*
X227980030Y-103480299D01*
X227975226Y-103464463D01*
X227973000Y-103441860D01*
X227973000Y-102984140D01*
X227975226Y-102961537D01*
X227980030Y-102945701D01*
X227987827Y-102931114D01*
X227998323Y-102918323D01*
X228011114Y-102907827D01*
X228025701Y-102900030D01*
X228041537Y-102895226D01*
X228064140Y-102893000D01*
X228471860Y-102893000D01*
X228494463Y-102895226D01*
X228494463Y-102895226D01*
G37*
G36*
X227524463Y-102895226D02*
G01*
X227540299Y-102900030D01*
X227554886Y-102907827D01*
X227567677Y-102918323D01*
X227578173Y-102931114D01*
X227585970Y-102945701D01*
X227590774Y-102961537D01*
X227593000Y-102984140D01*
X227593000Y-103441860D01*
X227590774Y-103464463D01*
X227585970Y-103480299D01*
X227578173Y-103494886D01*
X227567677Y-103507677D01*
X227554886Y-103518173D01*
X227540299Y-103525970D01*
X227524463Y-103530774D01*
X227501860Y-103533000D01*
X227094140Y-103533000D01*
X227071537Y-103530774D01*
X227055701Y-103525970D01*
X227041114Y-103518173D01*
X227028323Y-103507677D01*
X227017827Y-103494886D01*
X227010030Y-103480299D01*
X227005226Y-103464463D01*
X227003000Y-103441860D01*
X227003000Y-102984140D01*
X227005226Y-102961537D01*
X227010030Y-102945701D01*
X227017827Y-102931114D01*
X227028323Y-102918323D01*
X227041114Y-102907827D01*
X227055701Y-102900030D01*
X227071537Y-102895226D01*
X227094140Y-102893000D01*
X227501860Y-102893000D01*
X227524463Y-102895226D01*
X227524463Y-102895226D01*
G37*
G36*
X246636627Y-97932299D02*
G01*
X246716742Y-97956601D01*
X246796855Y-97980903D01*
X246796857Y-97980904D01*
X246944518Y-98059831D01*
X247073949Y-98166051D01*
X247180169Y-98295482D01*
X247259096Y-98443143D01*
X247307701Y-98603373D01*
X247324112Y-98770000D01*
X247307701Y-98936627D01*
X247259096Y-99096857D01*
X247180169Y-99244518D01*
X247073949Y-99373949D01*
X246944518Y-99480169D01*
X246796857Y-99559096D01*
X246796855Y-99559097D01*
X246716742Y-99583398D01*
X246636627Y-99607701D01*
X246511752Y-99620000D01*
X246428248Y-99620000D01*
X246303373Y-99607701D01*
X246223258Y-99583398D01*
X246143145Y-99559097D01*
X246143143Y-99559096D01*
X245995482Y-99480169D01*
X245866051Y-99373949D01*
X245759831Y-99244518D01*
X245680904Y-99096857D01*
X245632299Y-98936627D01*
X245615888Y-98770000D01*
X245632299Y-98603373D01*
X245680904Y-98443143D01*
X245759831Y-98295482D01*
X245866051Y-98166051D01*
X245995482Y-98059831D01*
X246143143Y-97980904D01*
X246143145Y-97980903D01*
X246223258Y-97956601D01*
X246303373Y-97932299D01*
X246428248Y-97920000D01*
X246511752Y-97920000D01*
X246636627Y-97932299D01*
X246636627Y-97932299D01*
G37*
G36*
X211076627Y-97932299D02*
G01*
X211156742Y-97956601D01*
X211236855Y-97980903D01*
X211236857Y-97980904D01*
X211384518Y-98059831D01*
X211513949Y-98166051D01*
X211620169Y-98295482D01*
X211699096Y-98443143D01*
X211747701Y-98603373D01*
X211764112Y-98770000D01*
X211747701Y-98936627D01*
X211699096Y-99096857D01*
X211620169Y-99244518D01*
X211513949Y-99373949D01*
X211384518Y-99480169D01*
X211236857Y-99559096D01*
X211236855Y-99559097D01*
X211156742Y-99583398D01*
X211076627Y-99607701D01*
X210951752Y-99620000D01*
X210868248Y-99620000D01*
X210743373Y-99607701D01*
X210663258Y-99583398D01*
X210583145Y-99559097D01*
X210583143Y-99559096D01*
X210435482Y-99480169D01*
X210306051Y-99373949D01*
X210199831Y-99244518D01*
X210120904Y-99096857D01*
X210072299Y-98936627D01*
X210055888Y-98770000D01*
X210072299Y-98603373D01*
X210120904Y-98443143D01*
X210199831Y-98295482D01*
X210306051Y-98166051D01*
X210435482Y-98059831D01*
X210583143Y-97980904D01*
X210583145Y-97980903D01*
X210663258Y-97956601D01*
X210743373Y-97932299D01*
X210868248Y-97920000D01*
X210951752Y-97920000D01*
X211076627Y-97932299D01*
X211076627Y-97932299D01*
G37*
G36*
X256796627Y-97932299D02*
G01*
X256876742Y-97956601D01*
X256956855Y-97980903D01*
X256956857Y-97980904D01*
X257104518Y-98059831D01*
X257233949Y-98166051D01*
X257340169Y-98295482D01*
X257419096Y-98443143D01*
X257467701Y-98603373D01*
X257484112Y-98770000D01*
X257467701Y-98936627D01*
X257419096Y-99096857D01*
X257340169Y-99244518D01*
X257233949Y-99373949D01*
X257104518Y-99480169D01*
X256956857Y-99559096D01*
X256956855Y-99559097D01*
X256876742Y-99583398D01*
X256796627Y-99607701D01*
X256671752Y-99620000D01*
X256588248Y-99620000D01*
X256463373Y-99607701D01*
X256383258Y-99583398D01*
X256303145Y-99559097D01*
X256303143Y-99559096D01*
X256155482Y-99480169D01*
X256026051Y-99373949D01*
X255919831Y-99244518D01*
X255840904Y-99096857D01*
X255792299Y-98936627D01*
X255775888Y-98770000D01*
X255792299Y-98603373D01*
X255840904Y-98443143D01*
X255919831Y-98295482D01*
X256026051Y-98166051D01*
X256155482Y-98059831D01*
X256303143Y-97980904D01*
X256303145Y-97980903D01*
X256383258Y-97956601D01*
X256463373Y-97932299D01*
X256588248Y-97920000D01*
X256671752Y-97920000D01*
X256796627Y-97932299D01*
X256796627Y-97932299D01*
G37*
G36*
X254256627Y-97932299D02*
G01*
X254336742Y-97956601D01*
X254416855Y-97980903D01*
X254416857Y-97980904D01*
X254564518Y-98059831D01*
X254693949Y-98166051D01*
X254800169Y-98295482D01*
X254879096Y-98443143D01*
X254927701Y-98603373D01*
X254944112Y-98770000D01*
X254927701Y-98936627D01*
X254879096Y-99096857D01*
X254800169Y-99244518D01*
X254693949Y-99373949D01*
X254564518Y-99480169D01*
X254416857Y-99559096D01*
X254416855Y-99559097D01*
X254336742Y-99583398D01*
X254256627Y-99607701D01*
X254131752Y-99620000D01*
X254048248Y-99620000D01*
X253923373Y-99607701D01*
X253843258Y-99583398D01*
X253763145Y-99559097D01*
X253763143Y-99559096D01*
X253615482Y-99480169D01*
X253486051Y-99373949D01*
X253379831Y-99244518D01*
X253300904Y-99096857D01*
X253252299Y-98936627D01*
X253235888Y-98770000D01*
X253252299Y-98603373D01*
X253300904Y-98443143D01*
X253379831Y-98295482D01*
X253486051Y-98166051D01*
X253615482Y-98059831D01*
X253763143Y-97980904D01*
X253763145Y-97980903D01*
X253843258Y-97956601D01*
X253923373Y-97932299D01*
X254048248Y-97920000D01*
X254131752Y-97920000D01*
X254256627Y-97932299D01*
X254256627Y-97932299D01*
G37*
G36*
X251716627Y-97932299D02*
G01*
X251796742Y-97956601D01*
X251876855Y-97980903D01*
X251876857Y-97980904D01*
X252024518Y-98059831D01*
X252153949Y-98166051D01*
X252260169Y-98295482D01*
X252339096Y-98443143D01*
X252387701Y-98603373D01*
X252404112Y-98770000D01*
X252387701Y-98936627D01*
X252339096Y-99096857D01*
X252260169Y-99244518D01*
X252153949Y-99373949D01*
X252024518Y-99480169D01*
X251876857Y-99559096D01*
X251876855Y-99559097D01*
X251796742Y-99583398D01*
X251716627Y-99607701D01*
X251591752Y-99620000D01*
X251508248Y-99620000D01*
X251383373Y-99607701D01*
X251303258Y-99583398D01*
X251223145Y-99559097D01*
X251223143Y-99559096D01*
X251075482Y-99480169D01*
X250946051Y-99373949D01*
X250839831Y-99244518D01*
X250760904Y-99096857D01*
X250712299Y-98936627D01*
X250695888Y-98770000D01*
X250712299Y-98603373D01*
X250760904Y-98443143D01*
X250839831Y-98295482D01*
X250946051Y-98166051D01*
X251075482Y-98059831D01*
X251223143Y-97980904D01*
X251223145Y-97980903D01*
X251303258Y-97956601D01*
X251383373Y-97932299D01*
X251508248Y-97920000D01*
X251591752Y-97920000D01*
X251716627Y-97932299D01*
X251716627Y-97932299D01*
G37*
G36*
X249176627Y-97932299D02*
G01*
X249256742Y-97956601D01*
X249336855Y-97980903D01*
X249336857Y-97980904D01*
X249484518Y-98059831D01*
X249613949Y-98166051D01*
X249720169Y-98295482D01*
X249799096Y-98443143D01*
X249847701Y-98603373D01*
X249864112Y-98770000D01*
X249847701Y-98936627D01*
X249799096Y-99096857D01*
X249720169Y-99244518D01*
X249613949Y-99373949D01*
X249484518Y-99480169D01*
X249336857Y-99559096D01*
X249336855Y-99559097D01*
X249256742Y-99583398D01*
X249176627Y-99607701D01*
X249051752Y-99620000D01*
X248968248Y-99620000D01*
X248843373Y-99607701D01*
X248763258Y-99583398D01*
X248683145Y-99559097D01*
X248683143Y-99559096D01*
X248535482Y-99480169D01*
X248406051Y-99373949D01*
X248299831Y-99244518D01*
X248220904Y-99096857D01*
X248172299Y-98936627D01*
X248155888Y-98770000D01*
X248172299Y-98603373D01*
X248220904Y-98443143D01*
X248299831Y-98295482D01*
X248406051Y-98166051D01*
X248535482Y-98059831D01*
X248683143Y-97980904D01*
X248683145Y-97980903D01*
X248763258Y-97956601D01*
X248843373Y-97932299D01*
X248968248Y-97920000D01*
X249051752Y-97920000D01*
X249176627Y-97932299D01*
X249176627Y-97932299D01*
G37*
G36*
X244096627Y-97932299D02*
G01*
X244176742Y-97956601D01*
X244256855Y-97980903D01*
X244256857Y-97980904D01*
X244404518Y-98059831D01*
X244533949Y-98166051D01*
X244640169Y-98295482D01*
X244719096Y-98443143D01*
X244767701Y-98603373D01*
X244784112Y-98770000D01*
X244767701Y-98936627D01*
X244719096Y-99096857D01*
X244640169Y-99244518D01*
X244533949Y-99373949D01*
X244404518Y-99480169D01*
X244256857Y-99559096D01*
X244256855Y-99559097D01*
X244176742Y-99583398D01*
X244096627Y-99607701D01*
X243971752Y-99620000D01*
X243888248Y-99620000D01*
X243763373Y-99607701D01*
X243683258Y-99583398D01*
X243603145Y-99559097D01*
X243603143Y-99559096D01*
X243455482Y-99480169D01*
X243326051Y-99373949D01*
X243219831Y-99244518D01*
X243140904Y-99096857D01*
X243092299Y-98936627D01*
X243075888Y-98770000D01*
X243092299Y-98603373D01*
X243140904Y-98443143D01*
X243219831Y-98295482D01*
X243326051Y-98166051D01*
X243455482Y-98059831D01*
X243603143Y-97980904D01*
X243603145Y-97980903D01*
X243683258Y-97956601D01*
X243763373Y-97932299D01*
X243888248Y-97920000D01*
X243971752Y-97920000D01*
X244096627Y-97932299D01*
X244096627Y-97932299D01*
G37*
G36*
X209220000Y-99620000D02*
G01*
X207520000Y-99620000D01*
X207520000Y-97920000D01*
X209220000Y-97920000D01*
X209220000Y-99620000D01*
X209220000Y-99620000D01*
G37*
G36*
X239016627Y-97932299D02*
G01*
X239096742Y-97956601D01*
X239176855Y-97980903D01*
X239176857Y-97980904D01*
X239324518Y-98059831D01*
X239453949Y-98166051D01*
X239560169Y-98295482D01*
X239639096Y-98443143D01*
X239687701Y-98603373D01*
X239704112Y-98770000D01*
X239687701Y-98936627D01*
X239639096Y-99096857D01*
X239560169Y-99244518D01*
X239453949Y-99373949D01*
X239324518Y-99480169D01*
X239176857Y-99559096D01*
X239176855Y-99559097D01*
X239096742Y-99583398D01*
X239016627Y-99607701D01*
X238891752Y-99620000D01*
X238808248Y-99620000D01*
X238683373Y-99607701D01*
X238603258Y-99583398D01*
X238523145Y-99559097D01*
X238523143Y-99559096D01*
X238375482Y-99480169D01*
X238246051Y-99373949D01*
X238139831Y-99244518D01*
X238060904Y-99096857D01*
X238012299Y-98936627D01*
X237995888Y-98770000D01*
X238012299Y-98603373D01*
X238060904Y-98443143D01*
X238139831Y-98295482D01*
X238246051Y-98166051D01*
X238375482Y-98059831D01*
X238523143Y-97980904D01*
X238523145Y-97980903D01*
X238603258Y-97956601D01*
X238683373Y-97932299D01*
X238808248Y-97920000D01*
X238891752Y-97920000D01*
X239016627Y-97932299D01*
X239016627Y-97932299D01*
G37*
G36*
X236476627Y-97932299D02*
G01*
X236556742Y-97956601D01*
X236636855Y-97980903D01*
X236636857Y-97980904D01*
X236784518Y-98059831D01*
X236913949Y-98166051D01*
X237020169Y-98295482D01*
X237099096Y-98443143D01*
X237147701Y-98603373D01*
X237164112Y-98770000D01*
X237147701Y-98936627D01*
X237099096Y-99096857D01*
X237020169Y-99244518D01*
X236913949Y-99373949D01*
X236784518Y-99480169D01*
X236636857Y-99559096D01*
X236636855Y-99559097D01*
X236556742Y-99583398D01*
X236476627Y-99607701D01*
X236351752Y-99620000D01*
X236268248Y-99620000D01*
X236143373Y-99607701D01*
X236063258Y-99583398D01*
X235983145Y-99559097D01*
X235983143Y-99559096D01*
X235835482Y-99480169D01*
X235706051Y-99373949D01*
X235599831Y-99244518D01*
X235520904Y-99096857D01*
X235472299Y-98936627D01*
X235455888Y-98770000D01*
X235472299Y-98603373D01*
X235520904Y-98443143D01*
X235599831Y-98295482D01*
X235706051Y-98166051D01*
X235835482Y-98059831D01*
X235983143Y-97980904D01*
X235983145Y-97980903D01*
X236063258Y-97956601D01*
X236143373Y-97932299D01*
X236268248Y-97920000D01*
X236351752Y-97920000D01*
X236476627Y-97932299D01*
X236476627Y-97932299D01*
G37*
G36*
X231396627Y-97932299D02*
G01*
X231476742Y-97956601D01*
X231556855Y-97980903D01*
X231556857Y-97980904D01*
X231704518Y-98059831D01*
X231833949Y-98166051D01*
X231940169Y-98295482D01*
X232019096Y-98443143D01*
X232067701Y-98603373D01*
X232084112Y-98770000D01*
X232067701Y-98936627D01*
X232019096Y-99096857D01*
X231940169Y-99244518D01*
X231833949Y-99373949D01*
X231704518Y-99480169D01*
X231556857Y-99559096D01*
X231556855Y-99559097D01*
X231476742Y-99583398D01*
X231396627Y-99607701D01*
X231271752Y-99620000D01*
X231188248Y-99620000D01*
X231063373Y-99607701D01*
X230983258Y-99583398D01*
X230903145Y-99559097D01*
X230903143Y-99559096D01*
X230755482Y-99480169D01*
X230626051Y-99373949D01*
X230519831Y-99244518D01*
X230440904Y-99096857D01*
X230392299Y-98936627D01*
X230375888Y-98770000D01*
X230392299Y-98603373D01*
X230440904Y-98443143D01*
X230519831Y-98295482D01*
X230626051Y-98166051D01*
X230755482Y-98059831D01*
X230903143Y-97980904D01*
X230903145Y-97980903D01*
X230983258Y-97956601D01*
X231063373Y-97932299D01*
X231188248Y-97920000D01*
X231271752Y-97920000D01*
X231396627Y-97932299D01*
X231396627Y-97932299D01*
G37*
G36*
X228856627Y-97932299D02*
G01*
X228936742Y-97956601D01*
X229016855Y-97980903D01*
X229016857Y-97980904D01*
X229164518Y-98059831D01*
X229293949Y-98166051D01*
X229400169Y-98295482D01*
X229479096Y-98443143D01*
X229527701Y-98603373D01*
X229544112Y-98770000D01*
X229527701Y-98936627D01*
X229479096Y-99096857D01*
X229400169Y-99244518D01*
X229293949Y-99373949D01*
X229164518Y-99480169D01*
X229016857Y-99559096D01*
X229016855Y-99559097D01*
X228936742Y-99583398D01*
X228856627Y-99607701D01*
X228731752Y-99620000D01*
X228648248Y-99620000D01*
X228523373Y-99607701D01*
X228443258Y-99583398D01*
X228363145Y-99559097D01*
X228363143Y-99559096D01*
X228215482Y-99480169D01*
X228086051Y-99373949D01*
X227979831Y-99244518D01*
X227900904Y-99096857D01*
X227852299Y-98936627D01*
X227835888Y-98770000D01*
X227852299Y-98603373D01*
X227900904Y-98443143D01*
X227979831Y-98295482D01*
X228086051Y-98166051D01*
X228215482Y-98059831D01*
X228363143Y-97980904D01*
X228363145Y-97980903D01*
X228443258Y-97956601D01*
X228523373Y-97932299D01*
X228648248Y-97920000D01*
X228731752Y-97920000D01*
X228856627Y-97932299D01*
X228856627Y-97932299D01*
G37*
G36*
X226316627Y-97932299D02*
G01*
X226396742Y-97956601D01*
X226476855Y-97980903D01*
X226476857Y-97980904D01*
X226624518Y-98059831D01*
X226753949Y-98166051D01*
X226860169Y-98295482D01*
X226939096Y-98443143D01*
X226987701Y-98603373D01*
X227004112Y-98770000D01*
X226987701Y-98936627D01*
X226939096Y-99096857D01*
X226860169Y-99244518D01*
X226753949Y-99373949D01*
X226624518Y-99480169D01*
X226476857Y-99559096D01*
X226476855Y-99559097D01*
X226396742Y-99583398D01*
X226316627Y-99607701D01*
X226191752Y-99620000D01*
X226108248Y-99620000D01*
X225983373Y-99607701D01*
X225903258Y-99583398D01*
X225823145Y-99559097D01*
X225823143Y-99559096D01*
X225675482Y-99480169D01*
X225546051Y-99373949D01*
X225439831Y-99244518D01*
X225360904Y-99096857D01*
X225312299Y-98936627D01*
X225295888Y-98770000D01*
X225312299Y-98603373D01*
X225360904Y-98443143D01*
X225439831Y-98295482D01*
X225546051Y-98166051D01*
X225675482Y-98059831D01*
X225823143Y-97980904D01*
X225823145Y-97980903D01*
X225903258Y-97956601D01*
X225983373Y-97932299D01*
X226108248Y-97920000D01*
X226191752Y-97920000D01*
X226316627Y-97932299D01*
X226316627Y-97932299D01*
G37*
G36*
X223776627Y-97932299D02*
G01*
X223856742Y-97956601D01*
X223936855Y-97980903D01*
X223936857Y-97980904D01*
X224084518Y-98059831D01*
X224213949Y-98166051D01*
X224320169Y-98295482D01*
X224399096Y-98443143D01*
X224447701Y-98603373D01*
X224464112Y-98770000D01*
X224447701Y-98936627D01*
X224399096Y-99096857D01*
X224320169Y-99244518D01*
X224213949Y-99373949D01*
X224084518Y-99480169D01*
X223936857Y-99559096D01*
X223936855Y-99559097D01*
X223856742Y-99583398D01*
X223776627Y-99607701D01*
X223651752Y-99620000D01*
X223568248Y-99620000D01*
X223443373Y-99607701D01*
X223363258Y-99583398D01*
X223283145Y-99559097D01*
X223283143Y-99559096D01*
X223135482Y-99480169D01*
X223006051Y-99373949D01*
X222899831Y-99244518D01*
X222820904Y-99096857D01*
X222772299Y-98936627D01*
X222755888Y-98770000D01*
X222772299Y-98603373D01*
X222820904Y-98443143D01*
X222899831Y-98295482D01*
X223006051Y-98166051D01*
X223135482Y-98059831D01*
X223283143Y-97980904D01*
X223283145Y-97980903D01*
X223363258Y-97956601D01*
X223443373Y-97932299D01*
X223568248Y-97920000D01*
X223651752Y-97920000D01*
X223776627Y-97932299D01*
X223776627Y-97932299D01*
G37*
G36*
X221236627Y-97932299D02*
G01*
X221316742Y-97956601D01*
X221396855Y-97980903D01*
X221396857Y-97980904D01*
X221544518Y-98059831D01*
X221673949Y-98166051D01*
X221780169Y-98295482D01*
X221859096Y-98443143D01*
X221907701Y-98603373D01*
X221924112Y-98770000D01*
X221907701Y-98936627D01*
X221859096Y-99096857D01*
X221780169Y-99244518D01*
X221673949Y-99373949D01*
X221544518Y-99480169D01*
X221396857Y-99559096D01*
X221396855Y-99559097D01*
X221316742Y-99583398D01*
X221236627Y-99607701D01*
X221111752Y-99620000D01*
X221028248Y-99620000D01*
X220903373Y-99607701D01*
X220823258Y-99583398D01*
X220743145Y-99559097D01*
X220743143Y-99559096D01*
X220595482Y-99480169D01*
X220466051Y-99373949D01*
X220359831Y-99244518D01*
X220280904Y-99096857D01*
X220232299Y-98936627D01*
X220215888Y-98770000D01*
X220232299Y-98603373D01*
X220280904Y-98443143D01*
X220359831Y-98295482D01*
X220466051Y-98166051D01*
X220595482Y-98059831D01*
X220743143Y-97980904D01*
X220743145Y-97980903D01*
X220823258Y-97956601D01*
X220903373Y-97932299D01*
X221028248Y-97920000D01*
X221111752Y-97920000D01*
X221236627Y-97932299D01*
X221236627Y-97932299D01*
G37*
G36*
X218696627Y-97932299D02*
G01*
X218776742Y-97956601D01*
X218856855Y-97980903D01*
X218856857Y-97980904D01*
X219004518Y-98059831D01*
X219133949Y-98166051D01*
X219240169Y-98295482D01*
X219319096Y-98443143D01*
X219367701Y-98603373D01*
X219384112Y-98770000D01*
X219367701Y-98936627D01*
X219319096Y-99096857D01*
X219240169Y-99244518D01*
X219133949Y-99373949D01*
X219004518Y-99480169D01*
X218856857Y-99559096D01*
X218856855Y-99559097D01*
X218776742Y-99583398D01*
X218696627Y-99607701D01*
X218571752Y-99620000D01*
X218488248Y-99620000D01*
X218363373Y-99607701D01*
X218283258Y-99583398D01*
X218203145Y-99559097D01*
X218203143Y-99559096D01*
X218055482Y-99480169D01*
X217926051Y-99373949D01*
X217819831Y-99244518D01*
X217740904Y-99096857D01*
X217692299Y-98936627D01*
X217675888Y-98770000D01*
X217692299Y-98603373D01*
X217740904Y-98443143D01*
X217819831Y-98295482D01*
X217926051Y-98166051D01*
X218055482Y-98059831D01*
X218203143Y-97980904D01*
X218203145Y-97980903D01*
X218283258Y-97956601D01*
X218363373Y-97932299D01*
X218488248Y-97920000D01*
X218571752Y-97920000D01*
X218696627Y-97932299D01*
X218696627Y-97932299D01*
G37*
G36*
X216156627Y-97932299D02*
G01*
X216236742Y-97956601D01*
X216316855Y-97980903D01*
X216316857Y-97980904D01*
X216464518Y-98059831D01*
X216593949Y-98166051D01*
X216700169Y-98295482D01*
X216779096Y-98443143D01*
X216827701Y-98603373D01*
X216844112Y-98770000D01*
X216827701Y-98936627D01*
X216779096Y-99096857D01*
X216700169Y-99244518D01*
X216593949Y-99373949D01*
X216464518Y-99480169D01*
X216316857Y-99559096D01*
X216316855Y-99559097D01*
X216236742Y-99583398D01*
X216156627Y-99607701D01*
X216031752Y-99620000D01*
X215948248Y-99620000D01*
X215823373Y-99607701D01*
X215743258Y-99583398D01*
X215663145Y-99559097D01*
X215663143Y-99559096D01*
X215515482Y-99480169D01*
X215386051Y-99373949D01*
X215279831Y-99244518D01*
X215200904Y-99096857D01*
X215152299Y-98936627D01*
X215135888Y-98770000D01*
X215152299Y-98603373D01*
X215200904Y-98443143D01*
X215279831Y-98295482D01*
X215386051Y-98166051D01*
X215515482Y-98059831D01*
X215663143Y-97980904D01*
X215663145Y-97980903D01*
X215743258Y-97956601D01*
X215823373Y-97932299D01*
X215948248Y-97920000D01*
X216031752Y-97920000D01*
X216156627Y-97932299D01*
X216156627Y-97932299D01*
G37*
G36*
X213616627Y-97932299D02*
G01*
X213696742Y-97956601D01*
X213776855Y-97980903D01*
X213776857Y-97980904D01*
X213924518Y-98059831D01*
X214053949Y-98166051D01*
X214160169Y-98295482D01*
X214239096Y-98443143D01*
X214287701Y-98603373D01*
X214304112Y-98770000D01*
X214287701Y-98936627D01*
X214239096Y-99096857D01*
X214160169Y-99244518D01*
X214053949Y-99373949D01*
X213924518Y-99480169D01*
X213776857Y-99559096D01*
X213776855Y-99559097D01*
X213696742Y-99583398D01*
X213616627Y-99607701D01*
X213491752Y-99620000D01*
X213408248Y-99620000D01*
X213283373Y-99607701D01*
X213203258Y-99583398D01*
X213123145Y-99559097D01*
X213123143Y-99559096D01*
X212975482Y-99480169D01*
X212846051Y-99373949D01*
X212739831Y-99244518D01*
X212660904Y-99096857D01*
X212612299Y-98936627D01*
X212595888Y-98770000D01*
X212612299Y-98603373D01*
X212660904Y-98443143D01*
X212739831Y-98295482D01*
X212846051Y-98166051D01*
X212975482Y-98059831D01*
X213123143Y-97980904D01*
X213123145Y-97980903D01*
X213203258Y-97956601D01*
X213283373Y-97932299D01*
X213408248Y-97920000D01*
X213491752Y-97920000D01*
X213616627Y-97932299D01*
X213616627Y-97932299D01*
G37*
G36*
X241556627Y-97932299D02*
G01*
X241636742Y-97956601D01*
X241716855Y-97980903D01*
X241716857Y-97980904D01*
X241864518Y-98059831D01*
X241993949Y-98166051D01*
X242100169Y-98295482D01*
X242179096Y-98443143D01*
X242227701Y-98603373D01*
X242244112Y-98770000D01*
X242227701Y-98936627D01*
X242179096Y-99096857D01*
X242100169Y-99244518D01*
X241993949Y-99373949D01*
X241864518Y-99480169D01*
X241716857Y-99559096D01*
X241716855Y-99559097D01*
X241636742Y-99583398D01*
X241556627Y-99607701D01*
X241431752Y-99620000D01*
X241348248Y-99620000D01*
X241223373Y-99607701D01*
X241143258Y-99583398D01*
X241063145Y-99559097D01*
X241063143Y-99559096D01*
X240915482Y-99480169D01*
X240786051Y-99373949D01*
X240679831Y-99244518D01*
X240600904Y-99096857D01*
X240552299Y-98936627D01*
X240535888Y-98770000D01*
X240552299Y-98603373D01*
X240600904Y-98443143D01*
X240679831Y-98295482D01*
X240786051Y-98166051D01*
X240915482Y-98059831D01*
X241063143Y-97980904D01*
X241063145Y-97980903D01*
X241143258Y-97956601D01*
X241223373Y-97932299D01*
X241348248Y-97920000D01*
X241431752Y-97920000D01*
X241556627Y-97932299D01*
X241556627Y-97932299D01*
G37*
G36*
X233936627Y-97932299D02*
G01*
X234016742Y-97956601D01*
X234096855Y-97980903D01*
X234096857Y-97980904D01*
X234244518Y-98059831D01*
X234373949Y-98166051D01*
X234480169Y-98295482D01*
X234559096Y-98443143D01*
X234607701Y-98603373D01*
X234624112Y-98770000D01*
X234607701Y-98936627D01*
X234559096Y-99096857D01*
X234480169Y-99244518D01*
X234373949Y-99373949D01*
X234244518Y-99480169D01*
X234096857Y-99559096D01*
X234096855Y-99559097D01*
X234016742Y-99583398D01*
X233936627Y-99607701D01*
X233811752Y-99620000D01*
X233728248Y-99620000D01*
X233603373Y-99607701D01*
X233523258Y-99583398D01*
X233443145Y-99559097D01*
X233443143Y-99559096D01*
X233295482Y-99480169D01*
X233166051Y-99373949D01*
X233059831Y-99244518D01*
X232980904Y-99096857D01*
X232932299Y-98936627D01*
X232915888Y-98770000D01*
X232932299Y-98603373D01*
X232980904Y-98443143D01*
X233059831Y-98295482D01*
X233166051Y-98166051D01*
X233295482Y-98059831D01*
X233443143Y-97980904D01*
X233443145Y-97980903D01*
X233523258Y-97956601D01*
X233603373Y-97932299D01*
X233728248Y-97920000D01*
X233811752Y-97920000D01*
X233936627Y-97932299D01*
X233936627Y-97932299D01*
G37*
G36*
X203893779Y-96201879D02*
G01*
X204139463Y-96303645D01*
X204139465Y-96303646D01*
X204250769Y-96378017D01*
X204360574Y-96451386D01*
X204548614Y-96639426D01*
X204696355Y-96860537D01*
X204798121Y-97106221D01*
X204850000Y-97367035D01*
X204850000Y-97632965D01*
X204798121Y-97893779D01*
X204696355Y-98139463D01*
X204592108Y-98295481D01*
X204548613Y-98360575D01*
X204360575Y-98548613D01*
X204139465Y-98696354D01*
X204139464Y-98696355D01*
X204139463Y-98696355D01*
X203893779Y-98798121D01*
X203632965Y-98850000D01*
X203367035Y-98850000D01*
X203106221Y-98798121D01*
X202860537Y-98696355D01*
X202860536Y-98696355D01*
X202860535Y-98696354D01*
X202639425Y-98548613D01*
X202451387Y-98360575D01*
X202407893Y-98295481D01*
X202303645Y-98139463D01*
X202201879Y-97893779D01*
X202150000Y-97632965D01*
X202150000Y-97367035D01*
X202201879Y-97106221D01*
X202303645Y-96860537D01*
X202451386Y-96639426D01*
X202639426Y-96451386D01*
X202749231Y-96378017D01*
X202860535Y-96303646D01*
X202860537Y-96303645D01*
X203106221Y-96201879D01*
X203367035Y-96150000D01*
X203632965Y-96150000D01*
X203893779Y-96201879D01*
X203893779Y-96201879D01*
G37*
G36*
X261893779Y-96201879D02*
G01*
X262139463Y-96303645D01*
X262139465Y-96303646D01*
X262250769Y-96378017D01*
X262360574Y-96451386D01*
X262548614Y-96639426D01*
X262696355Y-96860537D01*
X262798121Y-97106221D01*
X262850000Y-97367035D01*
X262850000Y-97632965D01*
X262798121Y-97893779D01*
X262696355Y-98139463D01*
X262592108Y-98295481D01*
X262548613Y-98360575D01*
X262360575Y-98548613D01*
X262139465Y-98696354D01*
X262139464Y-98696355D01*
X262139463Y-98696355D01*
X261893779Y-98798121D01*
X261632965Y-98850000D01*
X261367035Y-98850000D01*
X261106221Y-98798121D01*
X260860537Y-98696355D01*
X260860536Y-98696355D01*
X260860535Y-98696354D01*
X260639425Y-98548613D01*
X260451387Y-98360575D01*
X260407893Y-98295481D01*
X260303645Y-98139463D01*
X260201879Y-97893779D01*
X260150000Y-97632965D01*
X260150000Y-97367035D01*
X260201879Y-97106221D01*
X260303645Y-96860537D01*
X260451386Y-96639426D01*
X260639426Y-96451386D01*
X260749231Y-96378017D01*
X260860535Y-96303646D01*
X260860537Y-96303645D01*
X261106221Y-96201879D01*
X261367035Y-96150000D01*
X261632965Y-96150000D01*
X261893779Y-96201879D01*
X261893779Y-96201879D01*
G37*
G36*
X208536627Y-95392299D02*
G01*
X208616742Y-95416601D01*
X208696855Y-95440903D01*
X208696857Y-95440904D01*
X208844518Y-95519831D01*
X208973949Y-95626051D01*
X209080169Y-95755482D01*
X209159096Y-95903143D01*
X209207701Y-96063373D01*
X209224112Y-96230000D01*
X209207701Y-96396627D01*
X209159096Y-96556857D01*
X209080169Y-96704518D01*
X208973949Y-96833949D01*
X208844518Y-96940169D01*
X208696857Y-97019096D01*
X208696855Y-97019097D01*
X208616742Y-97043399D01*
X208536627Y-97067701D01*
X208411752Y-97080000D01*
X208328248Y-97080000D01*
X208203373Y-97067701D01*
X208123258Y-97043399D01*
X208043145Y-97019097D01*
X208043143Y-97019096D01*
X207895482Y-96940169D01*
X207766051Y-96833949D01*
X207659831Y-96704518D01*
X207580904Y-96556857D01*
X207532299Y-96396627D01*
X207515888Y-96230000D01*
X207532299Y-96063373D01*
X207580904Y-95903143D01*
X207659831Y-95755482D01*
X207766051Y-95626051D01*
X207895482Y-95519831D01*
X208043143Y-95440904D01*
X208043145Y-95440903D01*
X208123258Y-95416601D01*
X208203373Y-95392299D01*
X208328248Y-95380000D01*
X208411752Y-95380000D01*
X208536627Y-95392299D01*
X208536627Y-95392299D01*
G37*
G36*
X211076627Y-95392299D02*
G01*
X211156742Y-95416601D01*
X211236855Y-95440903D01*
X211236857Y-95440904D01*
X211384518Y-95519831D01*
X211513949Y-95626051D01*
X211620169Y-95755482D01*
X211699096Y-95903143D01*
X211747701Y-96063373D01*
X211764112Y-96230000D01*
X211747701Y-96396627D01*
X211699096Y-96556857D01*
X211620169Y-96704518D01*
X211513949Y-96833949D01*
X211384518Y-96940169D01*
X211236857Y-97019096D01*
X211236855Y-97019097D01*
X211156742Y-97043399D01*
X211076627Y-97067701D01*
X210951752Y-97080000D01*
X210868248Y-97080000D01*
X210743373Y-97067701D01*
X210663258Y-97043399D01*
X210583145Y-97019097D01*
X210583143Y-97019096D01*
X210435482Y-96940169D01*
X210306051Y-96833949D01*
X210199831Y-96704518D01*
X210120904Y-96556857D01*
X210072299Y-96396627D01*
X210055888Y-96230000D01*
X210072299Y-96063373D01*
X210120904Y-95903143D01*
X210199831Y-95755482D01*
X210306051Y-95626051D01*
X210435482Y-95519831D01*
X210583143Y-95440904D01*
X210583145Y-95440903D01*
X210663258Y-95416601D01*
X210743373Y-95392299D01*
X210868248Y-95380000D01*
X210951752Y-95380000D01*
X211076627Y-95392299D01*
X211076627Y-95392299D01*
G37*
G36*
X213616627Y-95392299D02*
G01*
X213696742Y-95416601D01*
X213776855Y-95440903D01*
X213776857Y-95440904D01*
X213924518Y-95519831D01*
X214053949Y-95626051D01*
X214160169Y-95755482D01*
X214239096Y-95903143D01*
X214287701Y-96063373D01*
X214304112Y-96230000D01*
X214287701Y-96396627D01*
X214239096Y-96556857D01*
X214160169Y-96704518D01*
X214053949Y-96833949D01*
X213924518Y-96940169D01*
X213776857Y-97019096D01*
X213776855Y-97019097D01*
X213696742Y-97043399D01*
X213616627Y-97067701D01*
X213491752Y-97080000D01*
X213408248Y-97080000D01*
X213283373Y-97067701D01*
X213203258Y-97043399D01*
X213123145Y-97019097D01*
X213123143Y-97019096D01*
X212975482Y-96940169D01*
X212846051Y-96833949D01*
X212739831Y-96704518D01*
X212660904Y-96556857D01*
X212612299Y-96396627D01*
X212595888Y-96230000D01*
X212612299Y-96063373D01*
X212660904Y-95903143D01*
X212739831Y-95755482D01*
X212846051Y-95626051D01*
X212975482Y-95519831D01*
X213123143Y-95440904D01*
X213123145Y-95440903D01*
X213203258Y-95416601D01*
X213283373Y-95392299D01*
X213408248Y-95380000D01*
X213491752Y-95380000D01*
X213616627Y-95392299D01*
X213616627Y-95392299D01*
G37*
G36*
X216156627Y-95392299D02*
G01*
X216236742Y-95416601D01*
X216316855Y-95440903D01*
X216316857Y-95440904D01*
X216464518Y-95519831D01*
X216593949Y-95626051D01*
X216700169Y-95755482D01*
X216779096Y-95903143D01*
X216827701Y-96063373D01*
X216844112Y-96230000D01*
X216827701Y-96396627D01*
X216779096Y-96556857D01*
X216700169Y-96704518D01*
X216593949Y-96833949D01*
X216464518Y-96940169D01*
X216316857Y-97019096D01*
X216316855Y-97019097D01*
X216236742Y-97043399D01*
X216156627Y-97067701D01*
X216031752Y-97080000D01*
X215948248Y-97080000D01*
X215823373Y-97067701D01*
X215743258Y-97043399D01*
X215663145Y-97019097D01*
X215663143Y-97019096D01*
X215515482Y-96940169D01*
X215386051Y-96833949D01*
X215279831Y-96704518D01*
X215200904Y-96556857D01*
X215152299Y-96396627D01*
X215135888Y-96230000D01*
X215152299Y-96063373D01*
X215200904Y-95903143D01*
X215279831Y-95755482D01*
X215386051Y-95626051D01*
X215515482Y-95519831D01*
X215663143Y-95440904D01*
X215663145Y-95440903D01*
X215743258Y-95416601D01*
X215823373Y-95392299D01*
X215948248Y-95380000D01*
X216031752Y-95380000D01*
X216156627Y-95392299D01*
X216156627Y-95392299D01*
G37*
G36*
X256796627Y-95392299D02*
G01*
X256876742Y-95416601D01*
X256956855Y-95440903D01*
X256956857Y-95440904D01*
X257104518Y-95519831D01*
X257233949Y-95626051D01*
X257340169Y-95755482D01*
X257419096Y-95903143D01*
X257467701Y-96063373D01*
X257484112Y-96230000D01*
X257467701Y-96396627D01*
X257419096Y-96556857D01*
X257340169Y-96704518D01*
X257233949Y-96833949D01*
X257104518Y-96940169D01*
X256956857Y-97019096D01*
X256956855Y-97019097D01*
X256876742Y-97043399D01*
X256796627Y-97067701D01*
X256671752Y-97080000D01*
X256588248Y-97080000D01*
X256463373Y-97067701D01*
X256383258Y-97043399D01*
X256303145Y-97019097D01*
X256303143Y-97019096D01*
X256155482Y-96940169D01*
X256026051Y-96833949D01*
X255919831Y-96704518D01*
X255840904Y-96556857D01*
X255792299Y-96396627D01*
X255775888Y-96230000D01*
X255792299Y-96063373D01*
X255840904Y-95903143D01*
X255919831Y-95755482D01*
X256026051Y-95626051D01*
X256155482Y-95519831D01*
X256303143Y-95440904D01*
X256303145Y-95440903D01*
X256383258Y-95416601D01*
X256463373Y-95392299D01*
X256588248Y-95380000D01*
X256671752Y-95380000D01*
X256796627Y-95392299D01*
X256796627Y-95392299D01*
G37*
G36*
X218696627Y-95392299D02*
G01*
X218776742Y-95416601D01*
X218856855Y-95440903D01*
X218856857Y-95440904D01*
X219004518Y-95519831D01*
X219133949Y-95626051D01*
X219240169Y-95755482D01*
X219319096Y-95903143D01*
X219367701Y-96063373D01*
X219384112Y-96230000D01*
X219367701Y-96396627D01*
X219319096Y-96556857D01*
X219240169Y-96704518D01*
X219133949Y-96833949D01*
X219004518Y-96940169D01*
X218856857Y-97019096D01*
X218856855Y-97019097D01*
X218776742Y-97043399D01*
X218696627Y-97067701D01*
X218571752Y-97080000D01*
X218488248Y-97080000D01*
X218363373Y-97067701D01*
X218283258Y-97043399D01*
X218203145Y-97019097D01*
X218203143Y-97019096D01*
X218055482Y-96940169D01*
X217926051Y-96833949D01*
X217819831Y-96704518D01*
X217740904Y-96556857D01*
X217692299Y-96396627D01*
X217675888Y-96230000D01*
X217692299Y-96063373D01*
X217740904Y-95903143D01*
X217819831Y-95755482D01*
X217926051Y-95626051D01*
X218055482Y-95519831D01*
X218203143Y-95440904D01*
X218203145Y-95440903D01*
X218283258Y-95416601D01*
X218363373Y-95392299D01*
X218488248Y-95380000D01*
X218571752Y-95380000D01*
X218696627Y-95392299D01*
X218696627Y-95392299D01*
G37*
G36*
X254256627Y-95392299D02*
G01*
X254336742Y-95416601D01*
X254416855Y-95440903D01*
X254416857Y-95440904D01*
X254564518Y-95519831D01*
X254693949Y-95626051D01*
X254800169Y-95755482D01*
X254879096Y-95903143D01*
X254927701Y-96063373D01*
X254944112Y-96230000D01*
X254927701Y-96396627D01*
X254879096Y-96556857D01*
X254800169Y-96704518D01*
X254693949Y-96833949D01*
X254564518Y-96940169D01*
X254416857Y-97019096D01*
X254416855Y-97019097D01*
X254336742Y-97043399D01*
X254256627Y-97067701D01*
X254131752Y-97080000D01*
X254048248Y-97080000D01*
X253923373Y-97067701D01*
X253843258Y-97043399D01*
X253763145Y-97019097D01*
X253763143Y-97019096D01*
X253615482Y-96940169D01*
X253486051Y-96833949D01*
X253379831Y-96704518D01*
X253300904Y-96556857D01*
X253252299Y-96396627D01*
X253235888Y-96230000D01*
X253252299Y-96063373D01*
X253300904Y-95903143D01*
X253379831Y-95755482D01*
X253486051Y-95626051D01*
X253615482Y-95519831D01*
X253763143Y-95440904D01*
X253763145Y-95440903D01*
X253843258Y-95416601D01*
X253923373Y-95392299D01*
X254048248Y-95380000D01*
X254131752Y-95380000D01*
X254256627Y-95392299D01*
X254256627Y-95392299D01*
G37*
G36*
X221236627Y-95392299D02*
G01*
X221316742Y-95416601D01*
X221396855Y-95440903D01*
X221396857Y-95440904D01*
X221544518Y-95519831D01*
X221673949Y-95626051D01*
X221780169Y-95755482D01*
X221859096Y-95903143D01*
X221907701Y-96063373D01*
X221924112Y-96230000D01*
X221907701Y-96396627D01*
X221859096Y-96556857D01*
X221780169Y-96704518D01*
X221673949Y-96833949D01*
X221544518Y-96940169D01*
X221396857Y-97019096D01*
X221396855Y-97019097D01*
X221316742Y-97043399D01*
X221236627Y-97067701D01*
X221111752Y-97080000D01*
X221028248Y-97080000D01*
X220903373Y-97067701D01*
X220823258Y-97043399D01*
X220743145Y-97019097D01*
X220743143Y-97019096D01*
X220595482Y-96940169D01*
X220466051Y-96833949D01*
X220359831Y-96704518D01*
X220280904Y-96556857D01*
X220232299Y-96396627D01*
X220215888Y-96230000D01*
X220232299Y-96063373D01*
X220280904Y-95903143D01*
X220359831Y-95755482D01*
X220466051Y-95626051D01*
X220595482Y-95519831D01*
X220743143Y-95440904D01*
X220743145Y-95440903D01*
X220823258Y-95416601D01*
X220903373Y-95392299D01*
X221028248Y-95380000D01*
X221111752Y-95380000D01*
X221236627Y-95392299D01*
X221236627Y-95392299D01*
G37*
G36*
X236476627Y-95392299D02*
G01*
X236556742Y-95416601D01*
X236636855Y-95440903D01*
X236636857Y-95440904D01*
X236784518Y-95519831D01*
X236913949Y-95626051D01*
X237020169Y-95755482D01*
X237099096Y-95903143D01*
X237147701Y-96063373D01*
X237164112Y-96230000D01*
X237147701Y-96396627D01*
X237099096Y-96556857D01*
X237020169Y-96704518D01*
X236913949Y-96833949D01*
X236784518Y-96940169D01*
X236636857Y-97019096D01*
X236636855Y-97019097D01*
X236556742Y-97043399D01*
X236476627Y-97067701D01*
X236351752Y-97080000D01*
X236268248Y-97080000D01*
X236143373Y-97067701D01*
X236063258Y-97043399D01*
X235983145Y-97019097D01*
X235983143Y-97019096D01*
X235835482Y-96940169D01*
X235706051Y-96833949D01*
X235599831Y-96704518D01*
X235520904Y-96556857D01*
X235472299Y-96396627D01*
X235455888Y-96230000D01*
X235472299Y-96063373D01*
X235520904Y-95903143D01*
X235599831Y-95755482D01*
X235706051Y-95626051D01*
X235835482Y-95519831D01*
X235983143Y-95440904D01*
X235983145Y-95440903D01*
X236063258Y-95416601D01*
X236143373Y-95392299D01*
X236268248Y-95380000D01*
X236351752Y-95380000D01*
X236476627Y-95392299D01*
X236476627Y-95392299D01*
G37*
G36*
X223776627Y-95392299D02*
G01*
X223856742Y-95416601D01*
X223936855Y-95440903D01*
X223936857Y-95440904D01*
X224084518Y-95519831D01*
X224213949Y-95626051D01*
X224320169Y-95755482D01*
X224399096Y-95903143D01*
X224447701Y-96063373D01*
X224464112Y-96230000D01*
X224447701Y-96396627D01*
X224399096Y-96556857D01*
X224320169Y-96704518D01*
X224213949Y-96833949D01*
X224084518Y-96940169D01*
X223936857Y-97019096D01*
X223936855Y-97019097D01*
X223856742Y-97043399D01*
X223776627Y-97067701D01*
X223651752Y-97080000D01*
X223568248Y-97080000D01*
X223443373Y-97067701D01*
X223363258Y-97043399D01*
X223283145Y-97019097D01*
X223283143Y-97019096D01*
X223135482Y-96940169D01*
X223006051Y-96833949D01*
X222899831Y-96704518D01*
X222820904Y-96556857D01*
X222772299Y-96396627D01*
X222755888Y-96230000D01*
X222772299Y-96063373D01*
X222820904Y-95903143D01*
X222899831Y-95755482D01*
X223006051Y-95626051D01*
X223135482Y-95519831D01*
X223283143Y-95440904D01*
X223283145Y-95440903D01*
X223363258Y-95416601D01*
X223443373Y-95392299D01*
X223568248Y-95380000D01*
X223651752Y-95380000D01*
X223776627Y-95392299D01*
X223776627Y-95392299D01*
G37*
G36*
X249176627Y-95392299D02*
G01*
X249256742Y-95416601D01*
X249336855Y-95440903D01*
X249336857Y-95440904D01*
X249484518Y-95519831D01*
X249613949Y-95626051D01*
X249720169Y-95755482D01*
X249799096Y-95903143D01*
X249847701Y-96063373D01*
X249864112Y-96230000D01*
X249847701Y-96396627D01*
X249799096Y-96556857D01*
X249720169Y-96704518D01*
X249613949Y-96833949D01*
X249484518Y-96940169D01*
X249336857Y-97019096D01*
X249336855Y-97019097D01*
X249256742Y-97043399D01*
X249176627Y-97067701D01*
X249051752Y-97080000D01*
X248968248Y-97080000D01*
X248843373Y-97067701D01*
X248763258Y-97043399D01*
X248683145Y-97019097D01*
X248683143Y-97019096D01*
X248535482Y-96940169D01*
X248406051Y-96833949D01*
X248299831Y-96704518D01*
X248220904Y-96556857D01*
X248172299Y-96396627D01*
X248155888Y-96230000D01*
X248172299Y-96063373D01*
X248220904Y-95903143D01*
X248299831Y-95755482D01*
X248406051Y-95626051D01*
X248535482Y-95519831D01*
X248683143Y-95440904D01*
X248683145Y-95440903D01*
X248763258Y-95416601D01*
X248843373Y-95392299D01*
X248968248Y-95380000D01*
X249051752Y-95380000D01*
X249176627Y-95392299D01*
X249176627Y-95392299D01*
G37*
G36*
X226316627Y-95392299D02*
G01*
X226396742Y-95416601D01*
X226476855Y-95440903D01*
X226476857Y-95440904D01*
X226624518Y-95519831D01*
X226753949Y-95626051D01*
X226860169Y-95755482D01*
X226939096Y-95903143D01*
X226987701Y-96063373D01*
X227004112Y-96230000D01*
X226987701Y-96396627D01*
X226939096Y-96556857D01*
X226860169Y-96704518D01*
X226753949Y-96833949D01*
X226624518Y-96940169D01*
X226476857Y-97019096D01*
X226476855Y-97019097D01*
X226396742Y-97043399D01*
X226316627Y-97067701D01*
X226191752Y-97080000D01*
X226108248Y-97080000D01*
X225983373Y-97067701D01*
X225903258Y-97043399D01*
X225823145Y-97019097D01*
X225823143Y-97019096D01*
X225675482Y-96940169D01*
X225546051Y-96833949D01*
X225439831Y-96704518D01*
X225360904Y-96556857D01*
X225312299Y-96396627D01*
X225295888Y-96230000D01*
X225312299Y-96063373D01*
X225360904Y-95903143D01*
X225439831Y-95755482D01*
X225546051Y-95626051D01*
X225675482Y-95519831D01*
X225823143Y-95440904D01*
X225823145Y-95440903D01*
X225903258Y-95416601D01*
X225983373Y-95392299D01*
X226108248Y-95380000D01*
X226191752Y-95380000D01*
X226316627Y-95392299D01*
X226316627Y-95392299D01*
G37*
G36*
X246636627Y-95392299D02*
G01*
X246716742Y-95416601D01*
X246796855Y-95440903D01*
X246796857Y-95440904D01*
X246944518Y-95519831D01*
X247073949Y-95626051D01*
X247180169Y-95755482D01*
X247259096Y-95903143D01*
X247307701Y-96063373D01*
X247324112Y-96230000D01*
X247307701Y-96396627D01*
X247259096Y-96556857D01*
X247180169Y-96704518D01*
X247073949Y-96833949D01*
X246944518Y-96940169D01*
X246796857Y-97019096D01*
X246796855Y-97019097D01*
X246716742Y-97043399D01*
X246636627Y-97067701D01*
X246511752Y-97080000D01*
X246428248Y-97080000D01*
X246303373Y-97067701D01*
X246223258Y-97043399D01*
X246143145Y-97019097D01*
X246143143Y-97019096D01*
X245995482Y-96940169D01*
X245866051Y-96833949D01*
X245759831Y-96704518D01*
X245680904Y-96556857D01*
X245632299Y-96396627D01*
X245615888Y-96230000D01*
X245632299Y-96063373D01*
X245680904Y-95903143D01*
X245759831Y-95755482D01*
X245866051Y-95626051D01*
X245995482Y-95519831D01*
X246143143Y-95440904D01*
X246143145Y-95440903D01*
X246223258Y-95416601D01*
X246303373Y-95392299D01*
X246428248Y-95380000D01*
X246511752Y-95380000D01*
X246636627Y-95392299D01*
X246636627Y-95392299D01*
G37*
G36*
X228856627Y-95392299D02*
G01*
X228936742Y-95416601D01*
X229016855Y-95440903D01*
X229016857Y-95440904D01*
X229164518Y-95519831D01*
X229293949Y-95626051D01*
X229400169Y-95755482D01*
X229479096Y-95903143D01*
X229527701Y-96063373D01*
X229544112Y-96230000D01*
X229527701Y-96396627D01*
X229479096Y-96556857D01*
X229400169Y-96704518D01*
X229293949Y-96833949D01*
X229164518Y-96940169D01*
X229016857Y-97019096D01*
X229016855Y-97019097D01*
X228936742Y-97043399D01*
X228856627Y-97067701D01*
X228731752Y-97080000D01*
X228648248Y-97080000D01*
X228523373Y-97067701D01*
X228443258Y-97043399D01*
X228363145Y-97019097D01*
X228363143Y-97019096D01*
X228215482Y-96940169D01*
X228086051Y-96833949D01*
X227979831Y-96704518D01*
X227900904Y-96556857D01*
X227852299Y-96396627D01*
X227835888Y-96230000D01*
X227852299Y-96063373D01*
X227900904Y-95903143D01*
X227979831Y-95755482D01*
X228086051Y-95626051D01*
X228215482Y-95519831D01*
X228363143Y-95440904D01*
X228363145Y-95440903D01*
X228443258Y-95416601D01*
X228523373Y-95392299D01*
X228648248Y-95380000D01*
X228731752Y-95380000D01*
X228856627Y-95392299D01*
X228856627Y-95392299D01*
G37*
G36*
X244096627Y-95392299D02*
G01*
X244176742Y-95416601D01*
X244256855Y-95440903D01*
X244256857Y-95440904D01*
X244404518Y-95519831D01*
X244533949Y-95626051D01*
X244640169Y-95755482D01*
X244719096Y-95903143D01*
X244767701Y-96063373D01*
X244784112Y-96230000D01*
X244767701Y-96396627D01*
X244719096Y-96556857D01*
X244640169Y-96704518D01*
X244533949Y-96833949D01*
X244404518Y-96940169D01*
X244256857Y-97019096D01*
X244256855Y-97019097D01*
X244176742Y-97043399D01*
X244096627Y-97067701D01*
X243971752Y-97080000D01*
X243888248Y-97080000D01*
X243763373Y-97067701D01*
X243683258Y-97043399D01*
X243603145Y-97019097D01*
X243603143Y-97019096D01*
X243455482Y-96940169D01*
X243326051Y-96833949D01*
X243219831Y-96704518D01*
X243140904Y-96556857D01*
X243092299Y-96396627D01*
X243075888Y-96230000D01*
X243092299Y-96063373D01*
X243140904Y-95903143D01*
X243219831Y-95755482D01*
X243326051Y-95626051D01*
X243455482Y-95519831D01*
X243603143Y-95440904D01*
X243603145Y-95440903D01*
X243683258Y-95416601D01*
X243763373Y-95392299D01*
X243888248Y-95380000D01*
X243971752Y-95380000D01*
X244096627Y-95392299D01*
X244096627Y-95392299D01*
G37*
G36*
X231396627Y-95392299D02*
G01*
X231476742Y-95416601D01*
X231556855Y-95440903D01*
X231556857Y-95440904D01*
X231704518Y-95519831D01*
X231833949Y-95626051D01*
X231940169Y-95755482D01*
X232019096Y-95903143D01*
X232067701Y-96063373D01*
X232084112Y-96230000D01*
X232067701Y-96396627D01*
X232019096Y-96556857D01*
X231940169Y-96704518D01*
X231833949Y-96833949D01*
X231704518Y-96940169D01*
X231556857Y-97019096D01*
X231556855Y-97019097D01*
X231476742Y-97043399D01*
X231396627Y-97067701D01*
X231271752Y-97080000D01*
X231188248Y-97080000D01*
X231063373Y-97067701D01*
X230983258Y-97043399D01*
X230903145Y-97019097D01*
X230903143Y-97019096D01*
X230755482Y-96940169D01*
X230626051Y-96833949D01*
X230519831Y-96704518D01*
X230440904Y-96556857D01*
X230392299Y-96396627D01*
X230375888Y-96230000D01*
X230392299Y-96063373D01*
X230440904Y-95903143D01*
X230519831Y-95755482D01*
X230626051Y-95626051D01*
X230755482Y-95519831D01*
X230903143Y-95440904D01*
X230903145Y-95440903D01*
X230983258Y-95416601D01*
X231063373Y-95392299D01*
X231188248Y-95380000D01*
X231271752Y-95380000D01*
X231396627Y-95392299D01*
X231396627Y-95392299D01*
G37*
G36*
X241556627Y-95392299D02*
G01*
X241636742Y-95416601D01*
X241716855Y-95440903D01*
X241716857Y-95440904D01*
X241864518Y-95519831D01*
X241993949Y-95626051D01*
X242100169Y-95755482D01*
X242179096Y-95903143D01*
X242227701Y-96063373D01*
X242244112Y-96230000D01*
X242227701Y-96396627D01*
X242179096Y-96556857D01*
X242100169Y-96704518D01*
X241993949Y-96833949D01*
X241864518Y-96940169D01*
X241716857Y-97019096D01*
X241716855Y-97019097D01*
X241636742Y-97043399D01*
X241556627Y-97067701D01*
X241431752Y-97080000D01*
X241348248Y-97080000D01*
X241223373Y-97067701D01*
X241143258Y-97043399D01*
X241063145Y-97019097D01*
X241063143Y-97019096D01*
X240915482Y-96940169D01*
X240786051Y-96833949D01*
X240679831Y-96704518D01*
X240600904Y-96556857D01*
X240552299Y-96396627D01*
X240535888Y-96230000D01*
X240552299Y-96063373D01*
X240600904Y-95903143D01*
X240679831Y-95755482D01*
X240786051Y-95626051D01*
X240915482Y-95519831D01*
X241063143Y-95440904D01*
X241063145Y-95440903D01*
X241143258Y-95416601D01*
X241223373Y-95392299D01*
X241348248Y-95380000D01*
X241431752Y-95380000D01*
X241556627Y-95392299D01*
X241556627Y-95392299D01*
G37*
G36*
X233936627Y-95392299D02*
G01*
X234016742Y-95416601D01*
X234096855Y-95440903D01*
X234096857Y-95440904D01*
X234244518Y-95519831D01*
X234373949Y-95626051D01*
X234480169Y-95755482D01*
X234559096Y-95903143D01*
X234607701Y-96063373D01*
X234624112Y-96230000D01*
X234607701Y-96396627D01*
X234559096Y-96556857D01*
X234480169Y-96704518D01*
X234373949Y-96833949D01*
X234244518Y-96940169D01*
X234096857Y-97019096D01*
X234096855Y-97019097D01*
X234016742Y-97043399D01*
X233936627Y-97067701D01*
X233811752Y-97080000D01*
X233728248Y-97080000D01*
X233603373Y-97067701D01*
X233523258Y-97043399D01*
X233443145Y-97019097D01*
X233443143Y-97019096D01*
X233295482Y-96940169D01*
X233166051Y-96833949D01*
X233059831Y-96704518D01*
X232980904Y-96556857D01*
X232932299Y-96396627D01*
X232915888Y-96230000D01*
X232932299Y-96063373D01*
X232980904Y-95903143D01*
X233059831Y-95755482D01*
X233166051Y-95626051D01*
X233295482Y-95519831D01*
X233443143Y-95440904D01*
X233443145Y-95440903D01*
X233523258Y-95416601D01*
X233603373Y-95392299D01*
X233728248Y-95380000D01*
X233811752Y-95380000D01*
X233936627Y-95392299D01*
X233936627Y-95392299D01*
G37*
G36*
X239016627Y-95392299D02*
G01*
X239096742Y-95416601D01*
X239176855Y-95440903D01*
X239176857Y-95440904D01*
X239324518Y-95519831D01*
X239453949Y-95626051D01*
X239560169Y-95755482D01*
X239639096Y-95903143D01*
X239687701Y-96063373D01*
X239704112Y-96230000D01*
X239687701Y-96396627D01*
X239639096Y-96556857D01*
X239560169Y-96704518D01*
X239453949Y-96833949D01*
X239324518Y-96940169D01*
X239176857Y-97019096D01*
X239176855Y-97019097D01*
X239096742Y-97043399D01*
X239016627Y-97067701D01*
X238891752Y-97080000D01*
X238808248Y-97080000D01*
X238683373Y-97067701D01*
X238603258Y-97043399D01*
X238523145Y-97019097D01*
X238523143Y-97019096D01*
X238375482Y-96940169D01*
X238246051Y-96833949D01*
X238139831Y-96704518D01*
X238060904Y-96556857D01*
X238012299Y-96396627D01*
X237995888Y-96230000D01*
X238012299Y-96063373D01*
X238060904Y-95903143D01*
X238139831Y-95755482D01*
X238246051Y-95626051D01*
X238375482Y-95519831D01*
X238523143Y-95440904D01*
X238523145Y-95440903D01*
X238603258Y-95416601D01*
X238683373Y-95392299D01*
X238808248Y-95380000D01*
X238891752Y-95380000D01*
X239016627Y-95392299D01*
X239016627Y-95392299D01*
G37*
G36*
X251716627Y-95392299D02*
G01*
X251796742Y-95416601D01*
X251876855Y-95440903D01*
X251876857Y-95440904D01*
X252024518Y-95519831D01*
X252153949Y-95626051D01*
X252260169Y-95755482D01*
X252339096Y-95903143D01*
X252387701Y-96063373D01*
X252404112Y-96230000D01*
X252387701Y-96396627D01*
X252339096Y-96556857D01*
X252260169Y-96704518D01*
X252153949Y-96833949D01*
X252024518Y-96940169D01*
X251876857Y-97019096D01*
X251876855Y-97019097D01*
X251796742Y-97043399D01*
X251716627Y-97067701D01*
X251591752Y-97080000D01*
X251508248Y-97080000D01*
X251383373Y-97067701D01*
X251303258Y-97043399D01*
X251223145Y-97019097D01*
X251223143Y-97019096D01*
X251075482Y-96940169D01*
X250946051Y-96833949D01*
X250839831Y-96704518D01*
X250760904Y-96556857D01*
X250712299Y-96396627D01*
X250695888Y-96230000D01*
X250712299Y-96063373D01*
X250760904Y-95903143D01*
X250839831Y-95755482D01*
X250946051Y-95626051D01*
X251075482Y-95519831D01*
X251223143Y-95440904D01*
X251223145Y-95440903D01*
X251303258Y-95416601D01*
X251383373Y-95392299D01*
X251508248Y-95380000D01*
X251591752Y-95380000D01*
X251716627Y-95392299D01*
X251716627Y-95392299D01*
G37*
M02*
