G04 #@! TF.GenerationSoftware,KiCad,Pcbnew,(5.1.0)-1*
G04 #@! TF.CreationDate,2020-07-11T17:50:00+02:00*
G04 #@! TF.ProjectId,Pi1541,50693135-3431-42e6-9b69-6361645f7063,rev?*
G04 #@! TF.SameCoordinates,Original*
G04 #@! TF.FileFunction,Legend,Top*
G04 #@! TF.FilePolarity,Positive*
%FSLAX46Y46*%
G04 Gerber Fmt 4.6, Leading zero omitted, Abs format (unit mm)*
G04 Created by KiCad (PCBNEW (5.1.0)-1) date 2020-07-11 17:50:00*
%MOMM*%
%LPD*%
G04 APERTURE LIST*
%ADD10C,0.100000*%
%ADD11C,0.250000*%
%ADD12C,0.150000*%
%ADD13C,0.120000*%
G04 APERTURE END LIST*
D10*
X201747634Y-137311413D02*
X202128586Y-137311413D01*
X201671443Y-137539984D02*
X201938110Y-136739984D01*
X202204777Y-137539984D01*
X202357158Y-136739984D02*
X202814300Y-136739984D01*
X202585729Y-137539984D02*
X202585729Y-136739984D01*
X203080967Y-137539984D02*
X203080967Y-136739984D01*
X203538110Y-137539984D01*
X203538110Y-136739984D01*
X202160329Y-134974594D02*
X202122234Y-135012689D01*
X202007948Y-135050784D01*
X201931758Y-135050784D01*
X201817472Y-135012689D01*
X201741281Y-134936499D01*
X201703186Y-134860308D01*
X201665091Y-134707927D01*
X201665091Y-134593641D01*
X201703186Y-134441260D01*
X201741281Y-134365070D01*
X201817472Y-134288880D01*
X201931758Y-134250784D01*
X202007948Y-134250784D01*
X202122234Y-134288880D01*
X202160329Y-134326975D01*
X202884139Y-135050784D02*
X202503186Y-135050784D01*
X202503186Y-134250784D01*
X203150805Y-135050784D02*
X203150805Y-134250784D01*
X203607948Y-135050784D02*
X203265091Y-134593641D01*
X203607948Y-134250784D02*
X203150805Y-134707927D01*
X201769217Y-132546344D02*
X201769217Y-131746344D01*
X201959693Y-131746344D01*
X202073979Y-131784440D01*
X202150169Y-131860630D01*
X202188264Y-131936820D01*
X202226360Y-132089201D01*
X202226360Y-132203487D01*
X202188264Y-132355868D01*
X202150169Y-132432059D01*
X202073979Y-132508249D01*
X201959693Y-132546344D01*
X201769217Y-132546344D01*
X202531121Y-132317773D02*
X202912074Y-132317773D01*
X202454931Y-132546344D02*
X202721598Y-131746344D01*
X202988264Y-132546344D01*
X203140645Y-131746344D02*
X203597788Y-131746344D01*
X203369217Y-132546344D02*
X203369217Y-131746344D01*
X201464455Y-130026664D02*
X201197788Y-129645712D01*
X201007312Y-130026664D02*
X201007312Y-129226664D01*
X201312074Y-129226664D01*
X201388264Y-129264760D01*
X201426360Y-129302855D01*
X201464455Y-129379045D01*
X201464455Y-129493331D01*
X201426360Y-129569521D01*
X201388264Y-129607617D01*
X201312074Y-129645712D01*
X201007312Y-129645712D01*
X201807312Y-129607617D02*
X202073979Y-129607617D01*
X202188264Y-130026664D02*
X201807312Y-130026664D01*
X201807312Y-129226664D01*
X202188264Y-129226664D01*
X202493026Y-129988569D02*
X202607312Y-130026664D01*
X202797788Y-130026664D01*
X202873979Y-129988569D01*
X202912074Y-129950474D01*
X202950169Y-129874283D01*
X202950169Y-129798093D01*
X202912074Y-129721902D01*
X202873979Y-129683807D01*
X202797788Y-129645712D01*
X202645407Y-129607617D01*
X202569217Y-129569521D01*
X202531121Y-129531426D01*
X202493026Y-129455236D01*
X202493026Y-129379045D01*
X202531121Y-129302855D01*
X202569217Y-129264760D01*
X202645407Y-129226664D01*
X202835883Y-129226664D01*
X202950169Y-129264760D01*
X203293026Y-129607617D02*
X203559693Y-129607617D01*
X203673979Y-130026664D02*
X203293026Y-130026664D01*
X203293026Y-129226664D01*
X203673979Y-129226664D01*
X203902550Y-129226664D02*
X204359693Y-129226664D01*
X204131121Y-130026664D02*
X204131121Y-129226664D01*
X202016836Y-126770480D02*
X201940645Y-126732384D01*
X201826360Y-126732384D01*
X201712074Y-126770480D01*
X201635883Y-126846670D01*
X201597788Y-126922860D01*
X201559693Y-127075241D01*
X201559693Y-127189527D01*
X201597788Y-127341908D01*
X201635883Y-127418099D01*
X201712074Y-127494289D01*
X201826360Y-127532384D01*
X201902550Y-127532384D01*
X202016836Y-127494289D01*
X202054931Y-127456194D01*
X202054931Y-127189527D01*
X201902550Y-127189527D01*
X202397788Y-127532384D02*
X202397788Y-126732384D01*
X202854931Y-127532384D01*
X202854931Y-126732384D01*
X203235883Y-127532384D02*
X203235883Y-126732384D01*
X203426360Y-126732384D01*
X203540645Y-126770480D01*
X203616836Y-126846670D01*
X203654931Y-126922860D01*
X203693026Y-127075241D01*
X203693026Y-127189527D01*
X203654931Y-127341908D01*
X203616836Y-127418099D01*
X203540645Y-127494289D01*
X203426360Y-127532384D01*
X203235883Y-127532384D01*
X218530853Y-138815093D02*
X218911805Y-138815093D01*
X218454662Y-139043664D02*
X218721329Y-138243664D01*
X218987996Y-139043664D01*
X219711805Y-138967474D02*
X219673710Y-139005569D01*
X219559424Y-139043664D01*
X219483234Y-139043664D01*
X219368948Y-139005569D01*
X219292758Y-138929379D01*
X219254662Y-138853188D01*
X219216567Y-138700807D01*
X219216567Y-138586521D01*
X219254662Y-138434140D01*
X219292758Y-138357950D01*
X219368948Y-138281760D01*
X219483234Y-138243664D01*
X219559424Y-138243664D01*
X219673710Y-138281760D01*
X219711805Y-138319855D01*
X219940377Y-138243664D02*
X220397520Y-138243664D01*
X220168948Y-139043664D02*
X220168948Y-138243664D01*
X220664186Y-139043664D02*
X220664186Y-138243664D01*
X220930853Y-138243664D02*
X221197520Y-139043664D01*
X221464186Y-138243664D01*
X221730853Y-139043664D02*
X221730853Y-138243664D01*
X221997520Y-138243664D02*
X222454662Y-138243664D01*
X222226091Y-139043664D02*
X222226091Y-138243664D01*
X222873710Y-138662712D02*
X222873710Y-139043664D01*
X222607043Y-138243664D02*
X222873710Y-138662712D01*
X223140377Y-138243664D01*
X212091900Y-139043664D02*
X212091900Y-138243664D01*
X212396662Y-138243664D01*
X212472853Y-138281760D01*
X212510948Y-138319855D01*
X212549043Y-138396045D01*
X212549043Y-138510331D01*
X212510948Y-138586521D01*
X212472853Y-138624617D01*
X212396662Y-138662712D01*
X212091900Y-138662712D01*
X213044281Y-138243664D02*
X213196662Y-138243664D01*
X213272853Y-138281760D01*
X213349043Y-138357950D01*
X213387139Y-138510331D01*
X213387139Y-138776998D01*
X213349043Y-138929379D01*
X213272853Y-139005569D01*
X213196662Y-139043664D01*
X213044281Y-139043664D01*
X212968091Y-139005569D01*
X212891900Y-138929379D01*
X212853805Y-138776998D01*
X212853805Y-138510331D01*
X212891900Y-138357950D01*
X212968091Y-138281760D01*
X213044281Y-138243664D01*
X213653805Y-138243664D02*
X213844281Y-139043664D01*
X213996662Y-138472236D01*
X214149043Y-139043664D01*
X214339520Y-138243664D01*
X214644281Y-138624617D02*
X214910948Y-138624617D01*
X215025234Y-139043664D02*
X214644281Y-139043664D01*
X214644281Y-138243664D01*
X215025234Y-138243664D01*
X215825234Y-139043664D02*
X215558567Y-138662712D01*
X215368091Y-139043664D02*
X215368091Y-138243664D01*
X215672853Y-138243664D01*
X215749043Y-138281760D01*
X215787139Y-138319855D01*
X215825234Y-138396045D01*
X215825234Y-138510331D01*
X215787139Y-138586521D01*
X215749043Y-138624617D01*
X215672853Y-138662712D01*
X215368091Y-138662712D01*
D11*
X249950026Y-141780820D02*
X249950026Y-140780820D01*
X250426217Y-141780820D02*
X250426217Y-140780820D01*
X250997645Y-141780820D01*
X250997645Y-140780820D01*
X251426217Y-141733201D02*
X251569074Y-141780820D01*
X251807169Y-141780820D01*
X251902407Y-141733201D01*
X251950026Y-141685582D01*
X251997645Y-141590344D01*
X251997645Y-141495106D01*
X251950026Y-141399868D01*
X251902407Y-141352249D01*
X251807169Y-141304630D01*
X251616693Y-141257011D01*
X251521455Y-141209392D01*
X251473836Y-141161773D01*
X251426217Y-141066535D01*
X251426217Y-140971297D01*
X251473836Y-140876059D01*
X251521455Y-140828440D01*
X251616693Y-140780820D01*
X251854788Y-140780820D01*
X251997645Y-140828440D01*
X252426217Y-141257011D02*
X252759550Y-141257011D01*
X252902407Y-141780820D02*
X252426217Y-141780820D01*
X252426217Y-140780820D01*
X252902407Y-140780820D01*
X253902407Y-141780820D02*
X253569074Y-141304630D01*
X253330979Y-141780820D02*
X253330979Y-140780820D01*
X253711931Y-140780820D01*
X253807169Y-140828440D01*
X253854788Y-140876059D01*
X253902407Y-140971297D01*
X253902407Y-141114154D01*
X253854788Y-141209392D01*
X253807169Y-141257011D01*
X253711931Y-141304630D01*
X253330979Y-141304630D01*
X254188121Y-140780820D02*
X254759550Y-140780820D01*
X254473836Y-141780820D02*
X254473836Y-140780820D01*
X241123716Y-141267171D02*
X241457049Y-141267171D01*
X241599906Y-141790980D02*
X241123716Y-141790980D01*
X241123716Y-140790980D01*
X241599906Y-140790980D01*
X241933240Y-140790980D02*
X242599906Y-141790980D01*
X242599906Y-140790980D02*
X241933240Y-141790980D01*
X242980859Y-141790980D02*
X242980859Y-140790980D01*
X243314192Y-140790980D02*
X243885620Y-140790980D01*
X243599906Y-141790980D02*
X243599906Y-140790980D01*
X230835481Y-141796060D02*
X230835481Y-140796060D01*
X231406910Y-141796060D01*
X231406910Y-140796060D01*
X231883100Y-141272251D02*
X232216434Y-141272251D01*
X232359291Y-141796060D02*
X231883100Y-141796060D01*
X231883100Y-140796060D01*
X232359291Y-140796060D01*
X232692624Y-140796060D02*
X233359291Y-141796060D01*
X233359291Y-140796060D02*
X232692624Y-141796060D01*
X233597386Y-140796060D02*
X234168815Y-140796060D01*
X233883100Y-141796060D02*
X233883100Y-140796060D01*
X220795502Y-141796060D02*
X220795502Y-140796060D01*
X221176455Y-140796060D01*
X221271693Y-140843680D01*
X221319312Y-140891299D01*
X221366931Y-140986537D01*
X221366931Y-141129394D01*
X221319312Y-141224632D01*
X221271693Y-141272251D01*
X221176455Y-141319870D01*
X220795502Y-141319870D01*
X222366931Y-141796060D02*
X222033598Y-141319870D01*
X221795502Y-141796060D02*
X221795502Y-140796060D01*
X222176455Y-140796060D01*
X222271693Y-140843680D01*
X222319312Y-140891299D01*
X222366931Y-140986537D01*
X222366931Y-141129394D01*
X222319312Y-141224632D01*
X222271693Y-141272251D01*
X222176455Y-141319870D01*
X221795502Y-141319870D01*
X222795502Y-141272251D02*
X223128836Y-141272251D01*
X223271693Y-141796060D02*
X222795502Y-141796060D01*
X222795502Y-140796060D01*
X223271693Y-140796060D01*
X223557407Y-140796060D02*
X223890740Y-141796060D01*
X224224074Y-140796060D01*
X210983459Y-141790980D02*
X210650125Y-141314790D01*
X210412030Y-141790980D02*
X210412030Y-140790980D01*
X210792982Y-140790980D01*
X210888220Y-140838600D01*
X210935840Y-140886219D01*
X210983459Y-140981457D01*
X210983459Y-141124314D01*
X210935840Y-141219552D01*
X210888220Y-141267171D01*
X210792982Y-141314790D01*
X210412030Y-141314790D01*
X211412030Y-141267171D02*
X211745363Y-141267171D01*
X211888220Y-141790980D02*
X211412030Y-141790980D01*
X211412030Y-140790980D01*
X211888220Y-140790980D01*
X212269173Y-141743361D02*
X212412030Y-141790980D01*
X212650125Y-141790980D01*
X212745363Y-141743361D01*
X212792982Y-141695742D01*
X212840601Y-141600504D01*
X212840601Y-141505266D01*
X212792982Y-141410028D01*
X212745363Y-141362409D01*
X212650125Y-141314790D01*
X212459649Y-141267171D01*
X212364411Y-141219552D01*
X212316792Y-141171933D01*
X212269173Y-141076695D01*
X212269173Y-140981457D01*
X212316792Y-140886219D01*
X212364411Y-140838600D01*
X212459649Y-140790980D01*
X212697744Y-140790980D01*
X212840601Y-140838600D01*
X213269173Y-141267171D02*
X213602506Y-141267171D01*
X213745363Y-141790980D02*
X213269173Y-141790980D01*
X213269173Y-140790980D01*
X213745363Y-140790980D01*
X214031078Y-140790980D02*
X214602506Y-140790980D01*
X214316792Y-141790980D02*
X214316792Y-140790980D01*
D12*
X219240640Y-103012520D02*
X201740640Y-103012520D01*
X219240640Y-123012520D02*
X219240640Y-103012520D01*
X201740640Y-123012520D02*
X219240640Y-123012520D01*
X202240640Y-122512520D02*
X202240640Y-119512520D01*
X202240640Y-114212520D02*
X202240640Y-111812520D01*
X202240640Y-106512520D02*
X202240640Y-103512520D01*
D13*
X263321000Y-109426000D02*
G75*
G03X263321000Y-109426000I-6100000J0D01*
G01*
X241111000Y-107815000D02*
X241111000Y-105155000D01*
X233431000Y-107815000D02*
X241111000Y-107815000D01*
X233431000Y-105155000D02*
X241111000Y-105155000D01*
X233431000Y-107815000D02*
X233431000Y-105155000D01*
X232161000Y-107815000D02*
X230831000Y-107815000D01*
X230831000Y-107815000D02*
X230831000Y-106485000D01*
X250031000Y-148810000D02*
X254531000Y-148810000D01*
X248781000Y-144810000D02*
X248781000Y-146310000D01*
X254531000Y-142310000D02*
X250031000Y-142310000D01*
X255781000Y-146310000D02*
X255781000Y-144810000D01*
X245951000Y-146310000D02*
X245951000Y-144810000D01*
X244701000Y-142310000D02*
X240201000Y-142310000D01*
X238951000Y-144810000D02*
X238951000Y-146310000D01*
X240201000Y-148810000D02*
X244701000Y-148810000D01*
X230201000Y-148810000D02*
X234701000Y-148810000D01*
X228951000Y-144810000D02*
X228951000Y-146310000D01*
X234701000Y-142310000D02*
X230201000Y-142310000D01*
X235951000Y-146310000D02*
X235951000Y-144810000D01*
X225951000Y-146310000D02*
X225951000Y-144810000D01*
X224701000Y-142310000D02*
X220201000Y-142310000D01*
X218951000Y-144810000D02*
X218951000Y-146310000D01*
X220201000Y-148810000D02*
X224701000Y-148810000D01*
X210210000Y-148810000D02*
X214710000Y-148810000D01*
X208960000Y-144810000D02*
X208960000Y-146310000D01*
X214710000Y-142310000D02*
X210210000Y-142310000D01*
X215960000Y-146310000D02*
X215960000Y-144810000D01*
X204845000Y-139718000D02*
X210815000Y-139718000D01*
X210815000Y-139718000D02*
X210815000Y-124598000D01*
X210815000Y-124598000D02*
X204845000Y-124598000D01*
X204845000Y-124598000D02*
X204845000Y-139718000D01*
X204855000Y-136408000D02*
X205605000Y-136408000D01*
X205605000Y-136408000D02*
X205605000Y-127908000D01*
X205605000Y-127908000D02*
X204855000Y-127908000D01*
X204855000Y-127908000D02*
X204855000Y-136408000D01*
X204855000Y-139708000D02*
X205605000Y-139708000D01*
X205605000Y-139708000D02*
X205605000Y-137908000D01*
X205605000Y-137908000D02*
X204855000Y-137908000D01*
X204855000Y-137908000D02*
X204855000Y-139708000D01*
X204855000Y-126408000D02*
X205605000Y-126408000D01*
X205605000Y-126408000D02*
X205605000Y-124608000D01*
X205605000Y-124608000D02*
X204855000Y-124608000D01*
X204855000Y-124608000D02*
X204855000Y-126408000D01*
X207105000Y-139708000D02*
X207105000Y-138958000D01*
X207105000Y-138958000D02*
X210055000Y-138958000D01*
X210055000Y-138958000D02*
X210055000Y-132158000D01*
X207105000Y-124608000D02*
X207105000Y-125358000D01*
X207105000Y-125358000D02*
X210055000Y-125358000D01*
X210055000Y-125358000D02*
X210055000Y-132158000D01*
X204555000Y-138758000D02*
X204555000Y-140008000D01*
X204555000Y-140008000D02*
X205805000Y-140008000D01*
D10*
X219752000Y-137188000D02*
G75*
G03X219752000Y-137188000I-50000J0D01*
G01*
X212889000Y-137188000D02*
G75*
G03X212889000Y-137188000I-50000J0D01*
G01*
D12*
X210374720Y-101272697D02*
X210374720Y-101988240D01*
X210327017Y-102131348D01*
X210231611Y-102226754D01*
X210088502Y-102274457D01*
X209993097Y-102274457D01*
X211376480Y-102274457D02*
X210804045Y-102274457D01*
X211090262Y-102274457D02*
X211090262Y-101272697D01*
X210994857Y-101415805D01*
X210899451Y-101511211D01*
X210804045Y-101558914D01*
X256578142Y-102678380D02*
X256101952Y-102678380D01*
X256101952Y-101678380D01*
X256863857Y-102630761D02*
X257006714Y-102678380D01*
X257244809Y-102678380D01*
X257340047Y-102630761D01*
X257387666Y-102583142D01*
X257435285Y-102487904D01*
X257435285Y-102392666D01*
X257387666Y-102297428D01*
X257340047Y-102249809D01*
X257244809Y-102202190D01*
X257054333Y-102154571D01*
X256959095Y-102106952D01*
X256911476Y-102059333D01*
X256863857Y-101964095D01*
X256863857Y-101868857D01*
X256911476Y-101773619D01*
X256959095Y-101726000D01*
X257054333Y-101678380D01*
X257292428Y-101678380D01*
X257435285Y-101726000D01*
X258387666Y-102678380D02*
X257816238Y-102678380D01*
X258101952Y-102678380D02*
X258101952Y-101678380D01*
X258006714Y-101821238D01*
X257911476Y-101916476D01*
X257816238Y-101964095D01*
X253030047Y-106957428D02*
X253791952Y-106957428D01*
X253411000Y-107338380D02*
X253411000Y-106576476D01*
X229283380Y-106818333D02*
X229997666Y-106818333D01*
X230140523Y-106865952D01*
X230235761Y-106961190D01*
X230283380Y-107104047D01*
X230283380Y-107199285D01*
X229283380Y-106437380D02*
X229283380Y-105818333D01*
X229664333Y-106151666D01*
X229664333Y-106008809D01*
X229711952Y-105913571D01*
X229759571Y-105865952D01*
X229854809Y-105818333D01*
X230092904Y-105818333D01*
X230188142Y-105865952D01*
X230235761Y-105913571D01*
X230283380Y-106008809D01*
X230283380Y-106294523D01*
X230235761Y-106389761D01*
X230188142Y-106437380D01*
X250939545Y-145894081D02*
X251082402Y-145941700D01*
X251320498Y-145941700D01*
X251415736Y-145894081D01*
X251463355Y-145846462D01*
X251510974Y-145751224D01*
X251510974Y-145655986D01*
X251463355Y-145560748D01*
X251415736Y-145513129D01*
X251320498Y-145465510D01*
X251130021Y-145417891D01*
X251034783Y-145370272D01*
X250987164Y-145322653D01*
X250939545Y-145227415D01*
X250939545Y-145132177D01*
X250987164Y-145036939D01*
X251034783Y-144989320D01*
X251130021Y-144941700D01*
X251368117Y-144941700D01*
X251510974Y-144989320D01*
X251844307Y-144941700D02*
X252082402Y-145941700D01*
X252272879Y-145227415D01*
X252463355Y-145941700D01*
X252701450Y-144941700D01*
X253558593Y-144941700D02*
X253082402Y-144941700D01*
X253034783Y-145417891D01*
X253082402Y-145370272D01*
X253177640Y-145322653D01*
X253415736Y-145322653D01*
X253510974Y-145370272D01*
X253558593Y-145417891D01*
X253606212Y-145513129D01*
X253606212Y-145751224D01*
X253558593Y-145846462D01*
X253510974Y-145894081D01*
X253415736Y-145941700D01*
X253177640Y-145941700D01*
X253082402Y-145894081D01*
X253034783Y-145846462D01*
X241090066Y-145955041D02*
X241232923Y-146002660D01*
X241471019Y-146002660D01*
X241566257Y-145955041D01*
X241613876Y-145907422D01*
X241661495Y-145812184D01*
X241661495Y-145716946D01*
X241613876Y-145621708D01*
X241566257Y-145574089D01*
X241471019Y-145526470D01*
X241280542Y-145478851D01*
X241185304Y-145431232D01*
X241137685Y-145383613D01*
X241090066Y-145288375D01*
X241090066Y-145193137D01*
X241137685Y-145097899D01*
X241185304Y-145050280D01*
X241280542Y-145002660D01*
X241518638Y-145002660D01*
X241661495Y-145050280D01*
X241994828Y-145002660D02*
X242232923Y-146002660D01*
X242423400Y-145288375D01*
X242613876Y-146002660D01*
X242851971Y-145002660D01*
X243661495Y-145335994D02*
X243661495Y-146002660D01*
X243423400Y-144955041D02*
X243185304Y-145669327D01*
X243804352Y-145669327D01*
X231092626Y-145955041D02*
X231235483Y-146002660D01*
X231473579Y-146002660D01*
X231568817Y-145955041D01*
X231616436Y-145907422D01*
X231664055Y-145812184D01*
X231664055Y-145716946D01*
X231616436Y-145621708D01*
X231568817Y-145574089D01*
X231473579Y-145526470D01*
X231283102Y-145478851D01*
X231187864Y-145431232D01*
X231140245Y-145383613D01*
X231092626Y-145288375D01*
X231092626Y-145193137D01*
X231140245Y-145097899D01*
X231187864Y-145050280D01*
X231283102Y-145002660D01*
X231521198Y-145002660D01*
X231664055Y-145050280D01*
X231997388Y-145002660D02*
X232235483Y-146002660D01*
X232425960Y-145288375D01*
X232616436Y-146002660D01*
X232854531Y-145002660D01*
X233140245Y-145002660D02*
X233759293Y-145002660D01*
X233425960Y-145383613D01*
X233568817Y-145383613D01*
X233664055Y-145431232D01*
X233711674Y-145478851D01*
X233759293Y-145574089D01*
X233759293Y-145812184D01*
X233711674Y-145907422D01*
X233664055Y-145955041D01*
X233568817Y-146002660D01*
X233283102Y-146002660D01*
X233187864Y-145955041D01*
X233140245Y-145907422D01*
X221105346Y-145904241D02*
X221248203Y-145951860D01*
X221486299Y-145951860D01*
X221581537Y-145904241D01*
X221629156Y-145856622D01*
X221676775Y-145761384D01*
X221676775Y-145666146D01*
X221629156Y-145570908D01*
X221581537Y-145523289D01*
X221486299Y-145475670D01*
X221295822Y-145428051D01*
X221200584Y-145380432D01*
X221152965Y-145332813D01*
X221105346Y-145237575D01*
X221105346Y-145142337D01*
X221152965Y-145047099D01*
X221200584Y-144999480D01*
X221295822Y-144951860D01*
X221533918Y-144951860D01*
X221676775Y-144999480D01*
X222010108Y-144951860D02*
X222248203Y-145951860D01*
X222438680Y-145237575D01*
X222629156Y-145951860D01*
X222867251Y-144951860D01*
X223200584Y-145047099D02*
X223248203Y-144999480D01*
X223343441Y-144951860D01*
X223581537Y-144951860D01*
X223676775Y-144999480D01*
X223724394Y-145047099D01*
X223772013Y-145142337D01*
X223772013Y-145237575D01*
X223724394Y-145380432D01*
X223152965Y-145951860D01*
X223772013Y-145951860D01*
X211092306Y-145929641D02*
X211235163Y-145977260D01*
X211473259Y-145977260D01*
X211568497Y-145929641D01*
X211616116Y-145882022D01*
X211663735Y-145786784D01*
X211663735Y-145691546D01*
X211616116Y-145596308D01*
X211568497Y-145548689D01*
X211473259Y-145501070D01*
X211282782Y-145453451D01*
X211187544Y-145405832D01*
X211139925Y-145358213D01*
X211092306Y-145262975D01*
X211092306Y-145167737D01*
X211139925Y-145072499D01*
X211187544Y-145024880D01*
X211282782Y-144977260D01*
X211520878Y-144977260D01*
X211663735Y-145024880D01*
X211997068Y-144977260D02*
X212235163Y-145977260D01*
X212425640Y-145262975D01*
X212616116Y-145977260D01*
X212854211Y-144977260D01*
X213758973Y-145977260D02*
X213187544Y-145977260D01*
X213473259Y-145977260D02*
X213473259Y-144977260D01*
X213378020Y-145120118D01*
X213282782Y-145215356D01*
X213187544Y-145262975D01*
X207012346Y-140282980D02*
X207012346Y-140997266D01*
X206964727Y-141140123D01*
X206869489Y-141235361D01*
X206726632Y-141282980D01*
X206631394Y-141282980D01*
X207440918Y-140378219D02*
X207488537Y-140330600D01*
X207583775Y-140282980D01*
X207821870Y-140282980D01*
X207917108Y-140330600D01*
X207964727Y-140378219D01*
X208012346Y-140473457D01*
X208012346Y-140568695D01*
X207964727Y-140711552D01*
X207393299Y-141282980D01*
X208012346Y-141282980D01*
X220610253Y-134998780D02*
X220276920Y-134522590D01*
X220038824Y-134998780D02*
X220038824Y-133998780D01*
X220419777Y-133998780D01*
X220515015Y-134046400D01*
X220562634Y-134094019D01*
X220610253Y-134189257D01*
X220610253Y-134332114D01*
X220562634Y-134427352D01*
X220515015Y-134474971D01*
X220419777Y-134522590D01*
X220038824Y-134522590D01*
X221086443Y-134998780D02*
X221276920Y-134998780D01*
X221372158Y-134951161D01*
X221419777Y-134903542D01*
X221515015Y-134760685D01*
X221562634Y-134570209D01*
X221562634Y-134189257D01*
X221515015Y-134094019D01*
X221467396Y-134046400D01*
X221372158Y-133998780D01*
X221181681Y-133998780D01*
X221086443Y-134046400D01*
X221038824Y-134094019D01*
X220991205Y-134189257D01*
X220991205Y-134427352D01*
X221038824Y-134522590D01*
X221086443Y-134570209D01*
X221181681Y-134617828D01*
X221372158Y-134617828D01*
X221467396Y-134570209D01*
X221515015Y-134522590D01*
X221562634Y-134427352D01*
X213291222Y-135008940D02*
X212957889Y-134532750D01*
X212719794Y-135008940D02*
X212719794Y-134008940D01*
X213100746Y-134008940D01*
X213195984Y-134056560D01*
X213243603Y-134104179D01*
X213291222Y-134199417D01*
X213291222Y-134342274D01*
X213243603Y-134437512D01*
X213195984Y-134485131D01*
X213100746Y-134532750D01*
X212719794Y-134532750D01*
X214243603Y-135008940D02*
X213672175Y-135008940D01*
X213957889Y-135008940D02*
X213957889Y-134008940D01*
X213862651Y-134151798D01*
X213767413Y-134247036D01*
X213672175Y-134294655D01*
X214862651Y-134008940D02*
X214957889Y-134008940D01*
X215053127Y-134056560D01*
X215100746Y-134104179D01*
X215148365Y-134199417D01*
X215195984Y-134389893D01*
X215195984Y-134627988D01*
X215148365Y-134818464D01*
X215100746Y-134913702D01*
X215053127Y-134961321D01*
X214957889Y-135008940D01*
X214862651Y-135008940D01*
X214767413Y-134961321D01*
X214719794Y-134913702D01*
X214672175Y-134818464D01*
X214624556Y-134627988D01*
X214624556Y-134389893D01*
X214672175Y-134199417D01*
X214719794Y-134104179D01*
X214767413Y-134056560D01*
X214862651Y-134008940D01*
M02*
