G04 #@! TF.GenerationSoftware,KiCad,Pcbnew,(5.1.0)-1*
G04 #@! TF.CreationDate,2020-07-11T17:50:00+02:00*
G04 #@! TF.ProjectId,Pi1541,50693135-3431-42e6-9b69-6361645f7063,rev?*
G04 #@! TF.SameCoordinates,Original*
G04 #@! TF.FileFunction,Paste,Bot*
G04 #@! TF.FilePolarity,Positive*
%FSLAX46Y46*%
G04 Gerber Fmt 4.6, Leading zero omitted, Abs format (unit mm)*
G04 Created by KiCad (PCBNEW (5.1.0)-1) date 2020-07-11 17:50:00*
%MOMM*%
%LPD*%
G04 APERTURE LIST*
%ADD10R,0.800000X0.900000*%
%ADD11C,0.150000*%
%ADD12C,0.590000*%
G04 APERTURE END LIST*
D10*
X220909000Y-106850000D03*
X221859000Y-104850000D03*
X219959000Y-104850000D03*
X223607000Y-104845000D03*
X225507000Y-104845000D03*
X224557000Y-106845000D03*
X228255000Y-106840000D03*
X229205000Y-104840000D03*
X227305000Y-104840000D03*
X223607000Y-114238000D03*
X225507000Y-114238000D03*
X224557000Y-116238000D03*
D11*
G36*
X223730958Y-117686710D02*
G01*
X223745276Y-117688834D01*
X223759317Y-117692351D01*
X223772946Y-117697228D01*
X223786031Y-117703417D01*
X223798447Y-117710858D01*
X223810073Y-117719481D01*
X223820798Y-117729202D01*
X223830519Y-117739927D01*
X223839142Y-117751553D01*
X223846583Y-117763969D01*
X223852772Y-117777054D01*
X223857649Y-117790683D01*
X223861166Y-117804724D01*
X223863290Y-117819042D01*
X223864000Y-117833500D01*
X223864000Y-118178500D01*
X223863290Y-118192958D01*
X223861166Y-118207276D01*
X223857649Y-118221317D01*
X223852772Y-118234946D01*
X223846583Y-118248031D01*
X223839142Y-118260447D01*
X223830519Y-118272073D01*
X223820798Y-118282798D01*
X223810073Y-118292519D01*
X223798447Y-118301142D01*
X223786031Y-118308583D01*
X223772946Y-118314772D01*
X223759317Y-118319649D01*
X223745276Y-118323166D01*
X223730958Y-118325290D01*
X223716500Y-118326000D01*
X223421500Y-118326000D01*
X223407042Y-118325290D01*
X223392724Y-118323166D01*
X223378683Y-118319649D01*
X223365054Y-118314772D01*
X223351969Y-118308583D01*
X223339553Y-118301142D01*
X223327927Y-118292519D01*
X223317202Y-118282798D01*
X223307481Y-118272073D01*
X223298858Y-118260447D01*
X223291417Y-118248031D01*
X223285228Y-118234946D01*
X223280351Y-118221317D01*
X223276834Y-118207276D01*
X223274710Y-118192958D01*
X223274000Y-118178500D01*
X223274000Y-117833500D01*
X223274710Y-117819042D01*
X223276834Y-117804724D01*
X223280351Y-117790683D01*
X223285228Y-117777054D01*
X223291417Y-117763969D01*
X223298858Y-117751553D01*
X223307481Y-117739927D01*
X223317202Y-117729202D01*
X223327927Y-117719481D01*
X223339553Y-117710858D01*
X223351969Y-117703417D01*
X223365054Y-117697228D01*
X223378683Y-117692351D01*
X223392724Y-117688834D01*
X223407042Y-117686710D01*
X223421500Y-117686000D01*
X223716500Y-117686000D01*
X223730958Y-117686710D01*
X223730958Y-117686710D01*
G37*
D12*
X223569000Y-118006000D03*
D11*
G36*
X224700958Y-117686710D02*
G01*
X224715276Y-117688834D01*
X224729317Y-117692351D01*
X224742946Y-117697228D01*
X224756031Y-117703417D01*
X224768447Y-117710858D01*
X224780073Y-117719481D01*
X224790798Y-117729202D01*
X224800519Y-117739927D01*
X224809142Y-117751553D01*
X224816583Y-117763969D01*
X224822772Y-117777054D01*
X224827649Y-117790683D01*
X224831166Y-117804724D01*
X224833290Y-117819042D01*
X224834000Y-117833500D01*
X224834000Y-118178500D01*
X224833290Y-118192958D01*
X224831166Y-118207276D01*
X224827649Y-118221317D01*
X224822772Y-118234946D01*
X224816583Y-118248031D01*
X224809142Y-118260447D01*
X224800519Y-118272073D01*
X224790798Y-118282798D01*
X224780073Y-118292519D01*
X224768447Y-118301142D01*
X224756031Y-118308583D01*
X224742946Y-118314772D01*
X224729317Y-118319649D01*
X224715276Y-118323166D01*
X224700958Y-118325290D01*
X224686500Y-118326000D01*
X224391500Y-118326000D01*
X224377042Y-118325290D01*
X224362724Y-118323166D01*
X224348683Y-118319649D01*
X224335054Y-118314772D01*
X224321969Y-118308583D01*
X224309553Y-118301142D01*
X224297927Y-118292519D01*
X224287202Y-118282798D01*
X224277481Y-118272073D01*
X224268858Y-118260447D01*
X224261417Y-118248031D01*
X224255228Y-118234946D01*
X224250351Y-118221317D01*
X224246834Y-118207276D01*
X224244710Y-118192958D01*
X224244000Y-118178500D01*
X224244000Y-117833500D01*
X224244710Y-117819042D01*
X224246834Y-117804724D01*
X224250351Y-117790683D01*
X224255228Y-117777054D01*
X224261417Y-117763969D01*
X224268858Y-117751553D01*
X224277481Y-117739927D01*
X224287202Y-117729202D01*
X224297927Y-117719481D01*
X224309553Y-117710858D01*
X224321969Y-117703417D01*
X224335054Y-117697228D01*
X224348683Y-117692351D01*
X224362724Y-117688834D01*
X224377042Y-117686710D01*
X224391500Y-117686000D01*
X224686500Y-117686000D01*
X224700958Y-117686710D01*
X224700958Y-117686710D01*
G37*
D12*
X224539000Y-118006000D03*
D11*
G36*
X228413958Y-108293710D02*
G01*
X228428276Y-108295834D01*
X228442317Y-108299351D01*
X228455946Y-108304228D01*
X228469031Y-108310417D01*
X228481447Y-108317858D01*
X228493073Y-108326481D01*
X228503798Y-108336202D01*
X228513519Y-108346927D01*
X228522142Y-108358553D01*
X228529583Y-108370969D01*
X228535772Y-108384054D01*
X228540649Y-108397683D01*
X228544166Y-108411724D01*
X228546290Y-108426042D01*
X228547000Y-108440500D01*
X228547000Y-108785500D01*
X228546290Y-108799958D01*
X228544166Y-108814276D01*
X228540649Y-108828317D01*
X228535772Y-108841946D01*
X228529583Y-108855031D01*
X228522142Y-108867447D01*
X228513519Y-108879073D01*
X228503798Y-108889798D01*
X228493073Y-108899519D01*
X228481447Y-108908142D01*
X228469031Y-108915583D01*
X228455946Y-108921772D01*
X228442317Y-108926649D01*
X228428276Y-108930166D01*
X228413958Y-108932290D01*
X228399500Y-108933000D01*
X228104500Y-108933000D01*
X228090042Y-108932290D01*
X228075724Y-108930166D01*
X228061683Y-108926649D01*
X228048054Y-108921772D01*
X228034969Y-108915583D01*
X228022553Y-108908142D01*
X228010927Y-108899519D01*
X228000202Y-108889798D01*
X227990481Y-108879073D01*
X227981858Y-108867447D01*
X227974417Y-108855031D01*
X227968228Y-108841946D01*
X227963351Y-108828317D01*
X227959834Y-108814276D01*
X227957710Y-108799958D01*
X227957000Y-108785500D01*
X227957000Y-108440500D01*
X227957710Y-108426042D01*
X227959834Y-108411724D01*
X227963351Y-108397683D01*
X227968228Y-108384054D01*
X227974417Y-108370969D01*
X227981858Y-108358553D01*
X227990481Y-108346927D01*
X228000202Y-108336202D01*
X228010927Y-108326481D01*
X228022553Y-108317858D01*
X228034969Y-108310417D01*
X228048054Y-108304228D01*
X228061683Y-108299351D01*
X228075724Y-108295834D01*
X228090042Y-108293710D01*
X228104500Y-108293000D01*
X228399500Y-108293000D01*
X228413958Y-108293710D01*
X228413958Y-108293710D01*
G37*
D12*
X228252000Y-108613000D03*
D11*
G36*
X227443958Y-108293710D02*
G01*
X227458276Y-108295834D01*
X227472317Y-108299351D01*
X227485946Y-108304228D01*
X227499031Y-108310417D01*
X227511447Y-108317858D01*
X227523073Y-108326481D01*
X227533798Y-108336202D01*
X227543519Y-108346927D01*
X227552142Y-108358553D01*
X227559583Y-108370969D01*
X227565772Y-108384054D01*
X227570649Y-108397683D01*
X227574166Y-108411724D01*
X227576290Y-108426042D01*
X227577000Y-108440500D01*
X227577000Y-108785500D01*
X227576290Y-108799958D01*
X227574166Y-108814276D01*
X227570649Y-108828317D01*
X227565772Y-108841946D01*
X227559583Y-108855031D01*
X227552142Y-108867447D01*
X227543519Y-108879073D01*
X227533798Y-108889798D01*
X227523073Y-108899519D01*
X227511447Y-108908142D01*
X227499031Y-108915583D01*
X227485946Y-108921772D01*
X227472317Y-108926649D01*
X227458276Y-108930166D01*
X227443958Y-108932290D01*
X227429500Y-108933000D01*
X227134500Y-108933000D01*
X227120042Y-108932290D01*
X227105724Y-108930166D01*
X227091683Y-108926649D01*
X227078054Y-108921772D01*
X227064969Y-108915583D01*
X227052553Y-108908142D01*
X227040927Y-108899519D01*
X227030202Y-108889798D01*
X227020481Y-108879073D01*
X227011858Y-108867447D01*
X227004417Y-108855031D01*
X226998228Y-108841946D01*
X226993351Y-108828317D01*
X226989834Y-108814276D01*
X226987710Y-108799958D01*
X226987000Y-108785500D01*
X226987000Y-108440500D01*
X226987710Y-108426042D01*
X226989834Y-108411724D01*
X226993351Y-108397683D01*
X226998228Y-108384054D01*
X227004417Y-108370969D01*
X227011858Y-108358553D01*
X227020481Y-108346927D01*
X227030202Y-108336202D01*
X227040927Y-108326481D01*
X227052553Y-108317858D01*
X227064969Y-108310417D01*
X227078054Y-108304228D01*
X227091683Y-108299351D01*
X227105724Y-108295834D01*
X227120042Y-108293710D01*
X227134500Y-108293000D01*
X227429500Y-108293000D01*
X227443958Y-108293710D01*
X227443958Y-108293710D01*
G37*
D12*
X227282000Y-108613000D03*
D11*
G36*
X220133958Y-102903710D02*
G01*
X220148276Y-102905834D01*
X220162317Y-102909351D01*
X220175946Y-102914228D01*
X220189031Y-102920417D01*
X220201447Y-102927858D01*
X220213073Y-102936481D01*
X220223798Y-102946202D01*
X220233519Y-102956927D01*
X220242142Y-102968553D01*
X220249583Y-102980969D01*
X220255772Y-102994054D01*
X220260649Y-103007683D01*
X220264166Y-103021724D01*
X220266290Y-103036042D01*
X220267000Y-103050500D01*
X220267000Y-103395500D01*
X220266290Y-103409958D01*
X220264166Y-103424276D01*
X220260649Y-103438317D01*
X220255772Y-103451946D01*
X220249583Y-103465031D01*
X220242142Y-103477447D01*
X220233519Y-103489073D01*
X220223798Y-103499798D01*
X220213073Y-103509519D01*
X220201447Y-103518142D01*
X220189031Y-103525583D01*
X220175946Y-103531772D01*
X220162317Y-103536649D01*
X220148276Y-103540166D01*
X220133958Y-103542290D01*
X220119500Y-103543000D01*
X219824500Y-103543000D01*
X219810042Y-103542290D01*
X219795724Y-103540166D01*
X219781683Y-103536649D01*
X219768054Y-103531772D01*
X219754969Y-103525583D01*
X219742553Y-103518142D01*
X219730927Y-103509519D01*
X219720202Y-103499798D01*
X219710481Y-103489073D01*
X219701858Y-103477447D01*
X219694417Y-103465031D01*
X219688228Y-103451946D01*
X219683351Y-103438317D01*
X219679834Y-103424276D01*
X219677710Y-103409958D01*
X219677000Y-103395500D01*
X219677000Y-103050500D01*
X219677710Y-103036042D01*
X219679834Y-103021724D01*
X219683351Y-103007683D01*
X219688228Y-102994054D01*
X219694417Y-102980969D01*
X219701858Y-102968553D01*
X219710481Y-102956927D01*
X219720202Y-102946202D01*
X219730927Y-102936481D01*
X219742553Y-102927858D01*
X219754969Y-102920417D01*
X219768054Y-102914228D01*
X219781683Y-102909351D01*
X219795724Y-102905834D01*
X219810042Y-102903710D01*
X219824500Y-102903000D01*
X220119500Y-102903000D01*
X220133958Y-102903710D01*
X220133958Y-102903710D01*
G37*
D12*
X219972000Y-103223000D03*
D11*
G36*
X221103958Y-102903710D02*
G01*
X221118276Y-102905834D01*
X221132317Y-102909351D01*
X221145946Y-102914228D01*
X221159031Y-102920417D01*
X221171447Y-102927858D01*
X221183073Y-102936481D01*
X221193798Y-102946202D01*
X221203519Y-102956927D01*
X221212142Y-102968553D01*
X221219583Y-102980969D01*
X221225772Y-102994054D01*
X221230649Y-103007683D01*
X221234166Y-103021724D01*
X221236290Y-103036042D01*
X221237000Y-103050500D01*
X221237000Y-103395500D01*
X221236290Y-103409958D01*
X221234166Y-103424276D01*
X221230649Y-103438317D01*
X221225772Y-103451946D01*
X221219583Y-103465031D01*
X221212142Y-103477447D01*
X221203519Y-103489073D01*
X221193798Y-103499798D01*
X221183073Y-103509519D01*
X221171447Y-103518142D01*
X221159031Y-103525583D01*
X221145946Y-103531772D01*
X221132317Y-103536649D01*
X221118276Y-103540166D01*
X221103958Y-103542290D01*
X221089500Y-103543000D01*
X220794500Y-103543000D01*
X220780042Y-103542290D01*
X220765724Y-103540166D01*
X220751683Y-103536649D01*
X220738054Y-103531772D01*
X220724969Y-103525583D01*
X220712553Y-103518142D01*
X220700927Y-103509519D01*
X220690202Y-103499798D01*
X220680481Y-103489073D01*
X220671858Y-103477447D01*
X220664417Y-103465031D01*
X220658228Y-103451946D01*
X220653351Y-103438317D01*
X220649834Y-103424276D01*
X220647710Y-103409958D01*
X220647000Y-103395500D01*
X220647000Y-103050500D01*
X220647710Y-103036042D01*
X220649834Y-103021724D01*
X220653351Y-103007683D01*
X220658228Y-102994054D01*
X220664417Y-102980969D01*
X220671858Y-102968553D01*
X220680481Y-102956927D01*
X220690202Y-102946202D01*
X220700927Y-102936481D01*
X220712553Y-102927858D01*
X220724969Y-102920417D01*
X220738054Y-102914228D01*
X220751683Y-102909351D01*
X220765724Y-102905834D01*
X220780042Y-102903710D01*
X220794500Y-102903000D01*
X221089500Y-102903000D01*
X221103958Y-102903710D01*
X221103958Y-102903710D01*
G37*
D12*
X220942000Y-103223000D03*
D11*
G36*
X221070958Y-108283710D02*
G01*
X221085276Y-108285834D01*
X221099317Y-108289351D01*
X221112946Y-108294228D01*
X221126031Y-108300417D01*
X221138447Y-108307858D01*
X221150073Y-108316481D01*
X221160798Y-108326202D01*
X221170519Y-108336927D01*
X221179142Y-108348553D01*
X221186583Y-108360969D01*
X221192772Y-108374054D01*
X221197649Y-108387683D01*
X221201166Y-108401724D01*
X221203290Y-108416042D01*
X221204000Y-108430500D01*
X221204000Y-108775500D01*
X221203290Y-108789958D01*
X221201166Y-108804276D01*
X221197649Y-108818317D01*
X221192772Y-108831946D01*
X221186583Y-108845031D01*
X221179142Y-108857447D01*
X221170519Y-108869073D01*
X221160798Y-108879798D01*
X221150073Y-108889519D01*
X221138447Y-108898142D01*
X221126031Y-108905583D01*
X221112946Y-108911772D01*
X221099317Y-108916649D01*
X221085276Y-108920166D01*
X221070958Y-108922290D01*
X221056500Y-108923000D01*
X220761500Y-108923000D01*
X220747042Y-108922290D01*
X220732724Y-108920166D01*
X220718683Y-108916649D01*
X220705054Y-108911772D01*
X220691969Y-108905583D01*
X220679553Y-108898142D01*
X220667927Y-108889519D01*
X220657202Y-108879798D01*
X220647481Y-108869073D01*
X220638858Y-108857447D01*
X220631417Y-108845031D01*
X220625228Y-108831946D01*
X220620351Y-108818317D01*
X220616834Y-108804276D01*
X220614710Y-108789958D01*
X220614000Y-108775500D01*
X220614000Y-108430500D01*
X220614710Y-108416042D01*
X220616834Y-108401724D01*
X220620351Y-108387683D01*
X220625228Y-108374054D01*
X220631417Y-108360969D01*
X220638858Y-108348553D01*
X220647481Y-108336927D01*
X220657202Y-108326202D01*
X220667927Y-108316481D01*
X220679553Y-108307858D01*
X220691969Y-108300417D01*
X220705054Y-108294228D01*
X220718683Y-108289351D01*
X220732724Y-108285834D01*
X220747042Y-108283710D01*
X220761500Y-108283000D01*
X221056500Y-108283000D01*
X221070958Y-108283710D01*
X221070958Y-108283710D01*
G37*
D12*
X220909000Y-108603000D03*
D11*
G36*
X220100958Y-108283710D02*
G01*
X220115276Y-108285834D01*
X220129317Y-108289351D01*
X220142946Y-108294228D01*
X220156031Y-108300417D01*
X220168447Y-108307858D01*
X220180073Y-108316481D01*
X220190798Y-108326202D01*
X220200519Y-108336927D01*
X220209142Y-108348553D01*
X220216583Y-108360969D01*
X220222772Y-108374054D01*
X220227649Y-108387683D01*
X220231166Y-108401724D01*
X220233290Y-108416042D01*
X220234000Y-108430500D01*
X220234000Y-108775500D01*
X220233290Y-108789958D01*
X220231166Y-108804276D01*
X220227649Y-108818317D01*
X220222772Y-108831946D01*
X220216583Y-108845031D01*
X220209142Y-108857447D01*
X220200519Y-108869073D01*
X220190798Y-108879798D01*
X220180073Y-108889519D01*
X220168447Y-108898142D01*
X220156031Y-108905583D01*
X220142946Y-108911772D01*
X220129317Y-108916649D01*
X220115276Y-108920166D01*
X220100958Y-108922290D01*
X220086500Y-108923000D01*
X219791500Y-108923000D01*
X219777042Y-108922290D01*
X219762724Y-108920166D01*
X219748683Y-108916649D01*
X219735054Y-108911772D01*
X219721969Y-108905583D01*
X219709553Y-108898142D01*
X219697927Y-108889519D01*
X219687202Y-108879798D01*
X219677481Y-108869073D01*
X219668858Y-108857447D01*
X219661417Y-108845031D01*
X219655228Y-108831946D01*
X219650351Y-108818317D01*
X219646834Y-108804276D01*
X219644710Y-108789958D01*
X219644000Y-108775500D01*
X219644000Y-108430500D01*
X219644710Y-108416042D01*
X219646834Y-108401724D01*
X219650351Y-108387683D01*
X219655228Y-108374054D01*
X219661417Y-108360969D01*
X219668858Y-108348553D01*
X219677481Y-108336927D01*
X219687202Y-108326202D01*
X219697927Y-108316481D01*
X219709553Y-108307858D01*
X219721969Y-108300417D01*
X219735054Y-108294228D01*
X219748683Y-108289351D01*
X219762724Y-108285834D01*
X219777042Y-108283710D01*
X219791500Y-108283000D01*
X220086500Y-108283000D01*
X220100958Y-108283710D01*
X220100958Y-108283710D01*
G37*
D12*
X219939000Y-108603000D03*
D11*
G36*
X223786958Y-102893710D02*
G01*
X223801276Y-102895834D01*
X223815317Y-102899351D01*
X223828946Y-102904228D01*
X223842031Y-102910417D01*
X223854447Y-102917858D01*
X223866073Y-102926481D01*
X223876798Y-102936202D01*
X223886519Y-102946927D01*
X223895142Y-102958553D01*
X223902583Y-102970969D01*
X223908772Y-102984054D01*
X223913649Y-102997683D01*
X223917166Y-103011724D01*
X223919290Y-103026042D01*
X223920000Y-103040500D01*
X223920000Y-103385500D01*
X223919290Y-103399958D01*
X223917166Y-103414276D01*
X223913649Y-103428317D01*
X223908772Y-103441946D01*
X223902583Y-103455031D01*
X223895142Y-103467447D01*
X223886519Y-103479073D01*
X223876798Y-103489798D01*
X223866073Y-103499519D01*
X223854447Y-103508142D01*
X223842031Y-103515583D01*
X223828946Y-103521772D01*
X223815317Y-103526649D01*
X223801276Y-103530166D01*
X223786958Y-103532290D01*
X223772500Y-103533000D01*
X223477500Y-103533000D01*
X223463042Y-103532290D01*
X223448724Y-103530166D01*
X223434683Y-103526649D01*
X223421054Y-103521772D01*
X223407969Y-103515583D01*
X223395553Y-103508142D01*
X223383927Y-103499519D01*
X223373202Y-103489798D01*
X223363481Y-103479073D01*
X223354858Y-103467447D01*
X223347417Y-103455031D01*
X223341228Y-103441946D01*
X223336351Y-103428317D01*
X223332834Y-103414276D01*
X223330710Y-103399958D01*
X223330000Y-103385500D01*
X223330000Y-103040500D01*
X223330710Y-103026042D01*
X223332834Y-103011724D01*
X223336351Y-102997683D01*
X223341228Y-102984054D01*
X223347417Y-102970969D01*
X223354858Y-102958553D01*
X223363481Y-102946927D01*
X223373202Y-102936202D01*
X223383927Y-102926481D01*
X223395553Y-102917858D01*
X223407969Y-102910417D01*
X223421054Y-102904228D01*
X223434683Y-102899351D01*
X223448724Y-102895834D01*
X223463042Y-102893710D01*
X223477500Y-102893000D01*
X223772500Y-102893000D01*
X223786958Y-102893710D01*
X223786958Y-102893710D01*
G37*
D12*
X223625000Y-103213000D03*
D11*
G36*
X224756958Y-102893710D02*
G01*
X224771276Y-102895834D01*
X224785317Y-102899351D01*
X224798946Y-102904228D01*
X224812031Y-102910417D01*
X224824447Y-102917858D01*
X224836073Y-102926481D01*
X224846798Y-102936202D01*
X224856519Y-102946927D01*
X224865142Y-102958553D01*
X224872583Y-102970969D01*
X224878772Y-102984054D01*
X224883649Y-102997683D01*
X224887166Y-103011724D01*
X224889290Y-103026042D01*
X224890000Y-103040500D01*
X224890000Y-103385500D01*
X224889290Y-103399958D01*
X224887166Y-103414276D01*
X224883649Y-103428317D01*
X224878772Y-103441946D01*
X224872583Y-103455031D01*
X224865142Y-103467447D01*
X224856519Y-103479073D01*
X224846798Y-103489798D01*
X224836073Y-103499519D01*
X224824447Y-103508142D01*
X224812031Y-103515583D01*
X224798946Y-103521772D01*
X224785317Y-103526649D01*
X224771276Y-103530166D01*
X224756958Y-103532290D01*
X224742500Y-103533000D01*
X224447500Y-103533000D01*
X224433042Y-103532290D01*
X224418724Y-103530166D01*
X224404683Y-103526649D01*
X224391054Y-103521772D01*
X224377969Y-103515583D01*
X224365553Y-103508142D01*
X224353927Y-103499519D01*
X224343202Y-103489798D01*
X224333481Y-103479073D01*
X224324858Y-103467447D01*
X224317417Y-103455031D01*
X224311228Y-103441946D01*
X224306351Y-103428317D01*
X224302834Y-103414276D01*
X224300710Y-103399958D01*
X224300000Y-103385500D01*
X224300000Y-103040500D01*
X224300710Y-103026042D01*
X224302834Y-103011724D01*
X224306351Y-102997683D01*
X224311228Y-102984054D01*
X224317417Y-102970969D01*
X224324858Y-102958553D01*
X224333481Y-102946927D01*
X224343202Y-102936202D01*
X224353927Y-102926481D01*
X224365553Y-102917858D01*
X224377969Y-102910417D01*
X224391054Y-102904228D01*
X224404683Y-102899351D01*
X224418724Y-102895834D01*
X224433042Y-102893710D01*
X224447500Y-102893000D01*
X224742500Y-102893000D01*
X224756958Y-102893710D01*
X224756958Y-102893710D01*
G37*
D12*
X224595000Y-103213000D03*
D11*
G36*
X228429958Y-102893710D02*
G01*
X228444276Y-102895834D01*
X228458317Y-102899351D01*
X228471946Y-102904228D01*
X228485031Y-102910417D01*
X228497447Y-102917858D01*
X228509073Y-102926481D01*
X228519798Y-102936202D01*
X228529519Y-102946927D01*
X228538142Y-102958553D01*
X228545583Y-102970969D01*
X228551772Y-102984054D01*
X228556649Y-102997683D01*
X228560166Y-103011724D01*
X228562290Y-103026042D01*
X228563000Y-103040500D01*
X228563000Y-103385500D01*
X228562290Y-103399958D01*
X228560166Y-103414276D01*
X228556649Y-103428317D01*
X228551772Y-103441946D01*
X228545583Y-103455031D01*
X228538142Y-103467447D01*
X228529519Y-103479073D01*
X228519798Y-103489798D01*
X228509073Y-103499519D01*
X228497447Y-103508142D01*
X228485031Y-103515583D01*
X228471946Y-103521772D01*
X228458317Y-103526649D01*
X228444276Y-103530166D01*
X228429958Y-103532290D01*
X228415500Y-103533000D01*
X228120500Y-103533000D01*
X228106042Y-103532290D01*
X228091724Y-103530166D01*
X228077683Y-103526649D01*
X228064054Y-103521772D01*
X228050969Y-103515583D01*
X228038553Y-103508142D01*
X228026927Y-103499519D01*
X228016202Y-103489798D01*
X228006481Y-103479073D01*
X227997858Y-103467447D01*
X227990417Y-103455031D01*
X227984228Y-103441946D01*
X227979351Y-103428317D01*
X227975834Y-103414276D01*
X227973710Y-103399958D01*
X227973000Y-103385500D01*
X227973000Y-103040500D01*
X227973710Y-103026042D01*
X227975834Y-103011724D01*
X227979351Y-102997683D01*
X227984228Y-102984054D01*
X227990417Y-102970969D01*
X227997858Y-102958553D01*
X228006481Y-102946927D01*
X228016202Y-102936202D01*
X228026927Y-102926481D01*
X228038553Y-102917858D01*
X228050969Y-102910417D01*
X228064054Y-102904228D01*
X228077683Y-102899351D01*
X228091724Y-102895834D01*
X228106042Y-102893710D01*
X228120500Y-102893000D01*
X228415500Y-102893000D01*
X228429958Y-102893710D01*
X228429958Y-102893710D01*
G37*
D12*
X228268000Y-103213000D03*
D11*
G36*
X227459958Y-102893710D02*
G01*
X227474276Y-102895834D01*
X227488317Y-102899351D01*
X227501946Y-102904228D01*
X227515031Y-102910417D01*
X227527447Y-102917858D01*
X227539073Y-102926481D01*
X227549798Y-102936202D01*
X227559519Y-102946927D01*
X227568142Y-102958553D01*
X227575583Y-102970969D01*
X227581772Y-102984054D01*
X227586649Y-102997683D01*
X227590166Y-103011724D01*
X227592290Y-103026042D01*
X227593000Y-103040500D01*
X227593000Y-103385500D01*
X227592290Y-103399958D01*
X227590166Y-103414276D01*
X227586649Y-103428317D01*
X227581772Y-103441946D01*
X227575583Y-103455031D01*
X227568142Y-103467447D01*
X227559519Y-103479073D01*
X227549798Y-103489798D01*
X227539073Y-103499519D01*
X227527447Y-103508142D01*
X227515031Y-103515583D01*
X227501946Y-103521772D01*
X227488317Y-103526649D01*
X227474276Y-103530166D01*
X227459958Y-103532290D01*
X227445500Y-103533000D01*
X227150500Y-103533000D01*
X227136042Y-103532290D01*
X227121724Y-103530166D01*
X227107683Y-103526649D01*
X227094054Y-103521772D01*
X227080969Y-103515583D01*
X227068553Y-103508142D01*
X227056927Y-103499519D01*
X227046202Y-103489798D01*
X227036481Y-103479073D01*
X227027858Y-103467447D01*
X227020417Y-103455031D01*
X227014228Y-103441946D01*
X227009351Y-103428317D01*
X227005834Y-103414276D01*
X227003710Y-103399958D01*
X227003000Y-103385500D01*
X227003000Y-103040500D01*
X227003710Y-103026042D01*
X227005834Y-103011724D01*
X227009351Y-102997683D01*
X227014228Y-102984054D01*
X227020417Y-102970969D01*
X227027858Y-102958553D01*
X227036481Y-102946927D01*
X227046202Y-102936202D01*
X227056927Y-102926481D01*
X227068553Y-102917858D01*
X227080969Y-102910417D01*
X227094054Y-102904228D01*
X227107683Y-102899351D01*
X227121724Y-102895834D01*
X227136042Y-102893710D01*
X227150500Y-102893000D01*
X227445500Y-102893000D01*
X227459958Y-102893710D01*
X227459958Y-102893710D01*
G37*
D12*
X227298000Y-103213000D03*
D11*
G36*
X223765958Y-112276710D02*
G01*
X223780276Y-112278834D01*
X223794317Y-112282351D01*
X223807946Y-112287228D01*
X223821031Y-112293417D01*
X223833447Y-112300858D01*
X223845073Y-112309481D01*
X223855798Y-112319202D01*
X223865519Y-112329927D01*
X223874142Y-112341553D01*
X223881583Y-112353969D01*
X223887772Y-112367054D01*
X223892649Y-112380683D01*
X223896166Y-112394724D01*
X223898290Y-112409042D01*
X223899000Y-112423500D01*
X223899000Y-112768500D01*
X223898290Y-112782958D01*
X223896166Y-112797276D01*
X223892649Y-112811317D01*
X223887772Y-112824946D01*
X223881583Y-112838031D01*
X223874142Y-112850447D01*
X223865519Y-112862073D01*
X223855798Y-112872798D01*
X223845073Y-112882519D01*
X223833447Y-112891142D01*
X223821031Y-112898583D01*
X223807946Y-112904772D01*
X223794317Y-112909649D01*
X223780276Y-112913166D01*
X223765958Y-112915290D01*
X223751500Y-112916000D01*
X223456500Y-112916000D01*
X223442042Y-112915290D01*
X223427724Y-112913166D01*
X223413683Y-112909649D01*
X223400054Y-112904772D01*
X223386969Y-112898583D01*
X223374553Y-112891142D01*
X223362927Y-112882519D01*
X223352202Y-112872798D01*
X223342481Y-112862073D01*
X223333858Y-112850447D01*
X223326417Y-112838031D01*
X223320228Y-112824946D01*
X223315351Y-112811317D01*
X223311834Y-112797276D01*
X223309710Y-112782958D01*
X223309000Y-112768500D01*
X223309000Y-112423500D01*
X223309710Y-112409042D01*
X223311834Y-112394724D01*
X223315351Y-112380683D01*
X223320228Y-112367054D01*
X223326417Y-112353969D01*
X223333858Y-112341553D01*
X223342481Y-112329927D01*
X223352202Y-112319202D01*
X223362927Y-112309481D01*
X223374553Y-112300858D01*
X223386969Y-112293417D01*
X223400054Y-112287228D01*
X223413683Y-112282351D01*
X223427724Y-112278834D01*
X223442042Y-112276710D01*
X223456500Y-112276000D01*
X223751500Y-112276000D01*
X223765958Y-112276710D01*
X223765958Y-112276710D01*
G37*
D12*
X223604000Y-112596000D03*
D11*
G36*
X224735958Y-112276710D02*
G01*
X224750276Y-112278834D01*
X224764317Y-112282351D01*
X224777946Y-112287228D01*
X224791031Y-112293417D01*
X224803447Y-112300858D01*
X224815073Y-112309481D01*
X224825798Y-112319202D01*
X224835519Y-112329927D01*
X224844142Y-112341553D01*
X224851583Y-112353969D01*
X224857772Y-112367054D01*
X224862649Y-112380683D01*
X224866166Y-112394724D01*
X224868290Y-112409042D01*
X224869000Y-112423500D01*
X224869000Y-112768500D01*
X224868290Y-112782958D01*
X224866166Y-112797276D01*
X224862649Y-112811317D01*
X224857772Y-112824946D01*
X224851583Y-112838031D01*
X224844142Y-112850447D01*
X224835519Y-112862073D01*
X224825798Y-112872798D01*
X224815073Y-112882519D01*
X224803447Y-112891142D01*
X224791031Y-112898583D01*
X224777946Y-112904772D01*
X224764317Y-112909649D01*
X224750276Y-112913166D01*
X224735958Y-112915290D01*
X224721500Y-112916000D01*
X224426500Y-112916000D01*
X224412042Y-112915290D01*
X224397724Y-112913166D01*
X224383683Y-112909649D01*
X224370054Y-112904772D01*
X224356969Y-112898583D01*
X224344553Y-112891142D01*
X224332927Y-112882519D01*
X224322202Y-112872798D01*
X224312481Y-112862073D01*
X224303858Y-112850447D01*
X224296417Y-112838031D01*
X224290228Y-112824946D01*
X224285351Y-112811317D01*
X224281834Y-112797276D01*
X224279710Y-112782958D01*
X224279000Y-112768500D01*
X224279000Y-112423500D01*
X224279710Y-112409042D01*
X224281834Y-112394724D01*
X224285351Y-112380683D01*
X224290228Y-112367054D01*
X224296417Y-112353969D01*
X224303858Y-112341553D01*
X224312481Y-112329927D01*
X224322202Y-112319202D01*
X224332927Y-112309481D01*
X224344553Y-112300858D01*
X224356969Y-112293417D01*
X224370054Y-112287228D01*
X224383683Y-112282351D01*
X224397724Y-112278834D01*
X224412042Y-112276710D01*
X224426500Y-112276000D01*
X224721500Y-112276000D01*
X224735958Y-112276710D01*
X224735958Y-112276710D01*
G37*
D12*
X224574000Y-112596000D03*
D11*
G36*
X224720958Y-108293710D02*
G01*
X224735276Y-108295834D01*
X224749317Y-108299351D01*
X224762946Y-108304228D01*
X224776031Y-108310417D01*
X224788447Y-108317858D01*
X224800073Y-108326481D01*
X224810798Y-108336202D01*
X224820519Y-108346927D01*
X224829142Y-108358553D01*
X224836583Y-108370969D01*
X224842772Y-108384054D01*
X224847649Y-108397683D01*
X224851166Y-108411724D01*
X224853290Y-108426042D01*
X224854000Y-108440500D01*
X224854000Y-108785500D01*
X224853290Y-108799958D01*
X224851166Y-108814276D01*
X224847649Y-108828317D01*
X224842772Y-108841946D01*
X224836583Y-108855031D01*
X224829142Y-108867447D01*
X224820519Y-108879073D01*
X224810798Y-108889798D01*
X224800073Y-108899519D01*
X224788447Y-108908142D01*
X224776031Y-108915583D01*
X224762946Y-108921772D01*
X224749317Y-108926649D01*
X224735276Y-108930166D01*
X224720958Y-108932290D01*
X224706500Y-108933000D01*
X224411500Y-108933000D01*
X224397042Y-108932290D01*
X224382724Y-108930166D01*
X224368683Y-108926649D01*
X224355054Y-108921772D01*
X224341969Y-108915583D01*
X224329553Y-108908142D01*
X224317927Y-108899519D01*
X224307202Y-108889798D01*
X224297481Y-108879073D01*
X224288858Y-108867447D01*
X224281417Y-108855031D01*
X224275228Y-108841946D01*
X224270351Y-108828317D01*
X224266834Y-108814276D01*
X224264710Y-108799958D01*
X224264000Y-108785500D01*
X224264000Y-108440500D01*
X224264710Y-108426042D01*
X224266834Y-108411724D01*
X224270351Y-108397683D01*
X224275228Y-108384054D01*
X224281417Y-108370969D01*
X224288858Y-108358553D01*
X224297481Y-108346927D01*
X224307202Y-108336202D01*
X224317927Y-108326481D01*
X224329553Y-108317858D01*
X224341969Y-108310417D01*
X224355054Y-108304228D01*
X224368683Y-108299351D01*
X224382724Y-108295834D01*
X224397042Y-108293710D01*
X224411500Y-108293000D01*
X224706500Y-108293000D01*
X224720958Y-108293710D01*
X224720958Y-108293710D01*
G37*
D12*
X224559000Y-108613000D03*
D11*
G36*
X223750958Y-108293710D02*
G01*
X223765276Y-108295834D01*
X223779317Y-108299351D01*
X223792946Y-108304228D01*
X223806031Y-108310417D01*
X223818447Y-108317858D01*
X223830073Y-108326481D01*
X223840798Y-108336202D01*
X223850519Y-108346927D01*
X223859142Y-108358553D01*
X223866583Y-108370969D01*
X223872772Y-108384054D01*
X223877649Y-108397683D01*
X223881166Y-108411724D01*
X223883290Y-108426042D01*
X223884000Y-108440500D01*
X223884000Y-108785500D01*
X223883290Y-108799958D01*
X223881166Y-108814276D01*
X223877649Y-108828317D01*
X223872772Y-108841946D01*
X223866583Y-108855031D01*
X223859142Y-108867447D01*
X223850519Y-108879073D01*
X223840798Y-108889798D01*
X223830073Y-108899519D01*
X223818447Y-108908142D01*
X223806031Y-108915583D01*
X223792946Y-108921772D01*
X223779317Y-108926649D01*
X223765276Y-108930166D01*
X223750958Y-108932290D01*
X223736500Y-108933000D01*
X223441500Y-108933000D01*
X223427042Y-108932290D01*
X223412724Y-108930166D01*
X223398683Y-108926649D01*
X223385054Y-108921772D01*
X223371969Y-108915583D01*
X223359553Y-108908142D01*
X223347927Y-108899519D01*
X223337202Y-108889798D01*
X223327481Y-108879073D01*
X223318858Y-108867447D01*
X223311417Y-108855031D01*
X223305228Y-108841946D01*
X223300351Y-108828317D01*
X223296834Y-108814276D01*
X223294710Y-108799958D01*
X223294000Y-108785500D01*
X223294000Y-108440500D01*
X223294710Y-108426042D01*
X223296834Y-108411724D01*
X223300351Y-108397683D01*
X223305228Y-108384054D01*
X223311417Y-108370969D01*
X223318858Y-108358553D01*
X223327481Y-108346927D01*
X223337202Y-108336202D01*
X223347927Y-108326481D01*
X223359553Y-108317858D01*
X223371969Y-108310417D01*
X223385054Y-108304228D01*
X223398683Y-108299351D01*
X223412724Y-108295834D01*
X223427042Y-108293710D01*
X223441500Y-108293000D01*
X223736500Y-108293000D01*
X223750958Y-108293710D01*
X223750958Y-108293710D01*
G37*
D12*
X223589000Y-108613000D03*
M02*
