G04 #@! TF.GenerationSoftware,KiCad,Pcbnew,(5.1.0)-1*
G04 #@! TF.CreationDate,2020-07-11T17:50:00+02:00*
G04 #@! TF.ProjectId,Pi1541,50693135-3431-42e6-9b69-6361645f7063,rev?*
G04 #@! TF.SameCoordinates,Original*
G04 #@! TF.FileFunction,Copper,L2,Bot*
G04 #@! TF.FilePolarity,Positive*
%FSLAX46Y46*%
G04 Gerber Fmt 4.6, Leading zero omitted, Abs format (unit mm)*
G04 Created by KiCad (PCBNEW (5.1.0)-1) date 2020-07-11 17:50:00*
%MOMM*%
%LPD*%
G04 APERTURE LIST*
%ADD10C,2.100000*%
%ADD11C,2.200000*%
%ADD12R,2.000000X2.000000*%
%ADD13C,2.000000*%
%ADD14R,1.700000X1.700000*%
%ADD15O,1.700000X1.700000*%
%ADD16C,0.150000*%
%ADD17C,1.700000*%
%ADD18O,1.950000X1.700000*%
%ADD19R,0.800000X0.900000*%
%ADD20C,0.590000*%
%ADD21C,0.900000*%
%ADD22C,0.200000*%
%ADD23C,0.254000*%
G04 APERTURE END LIST*
D10*
X202740640Y-115512520D03*
X202740640Y-110512520D03*
X203040640Y-118012520D03*
X203040640Y-108012520D03*
D11*
X212740640Y-105512520D03*
X212740640Y-113012520D03*
X212740640Y-120512520D03*
X215240640Y-108012520D03*
X215240640Y-118012520D03*
X217740640Y-113012520D03*
D12*
X253421000Y-109426000D03*
D13*
X261021000Y-109426000D03*
D14*
X232161000Y-106485000D03*
D15*
X234701000Y-106485000D03*
X237241000Y-106485000D03*
X239781000Y-106485000D03*
D13*
X249031000Y-147810000D03*
X249031000Y-143310000D03*
X255531000Y-147810000D03*
X255531000Y-143310000D03*
X245701000Y-143310000D03*
X245701000Y-147810000D03*
X239201000Y-143310000D03*
X239201000Y-147810000D03*
X229201000Y-147810000D03*
X229201000Y-143310000D03*
X235701000Y-147810000D03*
X235701000Y-143310000D03*
X225701000Y-143310000D03*
X225701000Y-147810000D03*
X219201000Y-143310000D03*
X219201000Y-147810000D03*
X209210000Y-147810000D03*
X209210000Y-143310000D03*
X215710000Y-147810000D03*
X215710000Y-143310000D03*
D16*
G36*
X208054504Y-136309204D02*
G01*
X208078773Y-136312804D01*
X208102571Y-136318765D01*
X208125671Y-136327030D01*
X208147849Y-136337520D01*
X208168893Y-136350133D01*
X208188598Y-136364747D01*
X208206777Y-136381223D01*
X208223253Y-136399402D01*
X208237867Y-136419107D01*
X208250480Y-136440151D01*
X208260970Y-136462329D01*
X208269235Y-136485429D01*
X208275196Y-136509227D01*
X208278796Y-136533496D01*
X208280000Y-136558000D01*
X208280000Y-137758000D01*
X208278796Y-137782504D01*
X208275196Y-137806773D01*
X208269235Y-137830571D01*
X208260970Y-137853671D01*
X208250480Y-137875849D01*
X208237867Y-137896893D01*
X208223253Y-137916598D01*
X208206777Y-137934777D01*
X208188598Y-137951253D01*
X208168893Y-137965867D01*
X208147849Y-137978480D01*
X208125671Y-137988970D01*
X208102571Y-137997235D01*
X208078773Y-138003196D01*
X208054504Y-138006796D01*
X208030000Y-138008000D01*
X206580000Y-138008000D01*
X206555496Y-138006796D01*
X206531227Y-138003196D01*
X206507429Y-137997235D01*
X206484329Y-137988970D01*
X206462151Y-137978480D01*
X206441107Y-137965867D01*
X206421402Y-137951253D01*
X206403223Y-137934777D01*
X206386747Y-137916598D01*
X206372133Y-137896893D01*
X206359520Y-137875849D01*
X206349030Y-137853671D01*
X206340765Y-137830571D01*
X206334804Y-137806773D01*
X206331204Y-137782504D01*
X206330000Y-137758000D01*
X206330000Y-136558000D01*
X206331204Y-136533496D01*
X206334804Y-136509227D01*
X206340765Y-136485429D01*
X206349030Y-136462329D01*
X206359520Y-136440151D01*
X206372133Y-136419107D01*
X206386747Y-136399402D01*
X206403223Y-136381223D01*
X206421402Y-136364747D01*
X206441107Y-136350133D01*
X206462151Y-136337520D01*
X206484329Y-136327030D01*
X206507429Y-136318765D01*
X206531227Y-136312804D01*
X206555496Y-136309204D01*
X206580000Y-136308000D01*
X208030000Y-136308000D01*
X208054504Y-136309204D01*
X208054504Y-136309204D01*
G37*
D17*
X207305000Y-137158000D03*
D18*
X207305000Y-134658000D03*
X207305000Y-132158000D03*
X207305000Y-129658000D03*
X207305000Y-127158000D03*
D19*
X220909000Y-106850000D03*
X221859000Y-104850000D03*
X219959000Y-104850000D03*
X223607000Y-104845000D03*
X225507000Y-104845000D03*
X224557000Y-106845000D03*
X228255000Y-106840000D03*
X229205000Y-104840000D03*
X227305000Y-104840000D03*
X223607000Y-114238000D03*
X225507000Y-114238000D03*
X224557000Y-116238000D03*
D16*
G36*
X223730958Y-117686710D02*
G01*
X223745276Y-117688834D01*
X223759317Y-117692351D01*
X223772946Y-117697228D01*
X223786031Y-117703417D01*
X223798447Y-117710858D01*
X223810073Y-117719481D01*
X223820798Y-117729202D01*
X223830519Y-117739927D01*
X223839142Y-117751553D01*
X223846583Y-117763969D01*
X223852772Y-117777054D01*
X223857649Y-117790683D01*
X223861166Y-117804724D01*
X223863290Y-117819042D01*
X223864000Y-117833500D01*
X223864000Y-118178500D01*
X223863290Y-118192958D01*
X223861166Y-118207276D01*
X223857649Y-118221317D01*
X223852772Y-118234946D01*
X223846583Y-118248031D01*
X223839142Y-118260447D01*
X223830519Y-118272073D01*
X223820798Y-118282798D01*
X223810073Y-118292519D01*
X223798447Y-118301142D01*
X223786031Y-118308583D01*
X223772946Y-118314772D01*
X223759317Y-118319649D01*
X223745276Y-118323166D01*
X223730958Y-118325290D01*
X223716500Y-118326000D01*
X223421500Y-118326000D01*
X223407042Y-118325290D01*
X223392724Y-118323166D01*
X223378683Y-118319649D01*
X223365054Y-118314772D01*
X223351969Y-118308583D01*
X223339553Y-118301142D01*
X223327927Y-118292519D01*
X223317202Y-118282798D01*
X223307481Y-118272073D01*
X223298858Y-118260447D01*
X223291417Y-118248031D01*
X223285228Y-118234946D01*
X223280351Y-118221317D01*
X223276834Y-118207276D01*
X223274710Y-118192958D01*
X223274000Y-118178500D01*
X223274000Y-117833500D01*
X223274710Y-117819042D01*
X223276834Y-117804724D01*
X223280351Y-117790683D01*
X223285228Y-117777054D01*
X223291417Y-117763969D01*
X223298858Y-117751553D01*
X223307481Y-117739927D01*
X223317202Y-117729202D01*
X223327927Y-117719481D01*
X223339553Y-117710858D01*
X223351969Y-117703417D01*
X223365054Y-117697228D01*
X223378683Y-117692351D01*
X223392724Y-117688834D01*
X223407042Y-117686710D01*
X223421500Y-117686000D01*
X223716500Y-117686000D01*
X223730958Y-117686710D01*
X223730958Y-117686710D01*
G37*
D20*
X223569000Y-118006000D03*
D16*
G36*
X224700958Y-117686710D02*
G01*
X224715276Y-117688834D01*
X224729317Y-117692351D01*
X224742946Y-117697228D01*
X224756031Y-117703417D01*
X224768447Y-117710858D01*
X224780073Y-117719481D01*
X224790798Y-117729202D01*
X224800519Y-117739927D01*
X224809142Y-117751553D01*
X224816583Y-117763969D01*
X224822772Y-117777054D01*
X224827649Y-117790683D01*
X224831166Y-117804724D01*
X224833290Y-117819042D01*
X224834000Y-117833500D01*
X224834000Y-118178500D01*
X224833290Y-118192958D01*
X224831166Y-118207276D01*
X224827649Y-118221317D01*
X224822772Y-118234946D01*
X224816583Y-118248031D01*
X224809142Y-118260447D01*
X224800519Y-118272073D01*
X224790798Y-118282798D01*
X224780073Y-118292519D01*
X224768447Y-118301142D01*
X224756031Y-118308583D01*
X224742946Y-118314772D01*
X224729317Y-118319649D01*
X224715276Y-118323166D01*
X224700958Y-118325290D01*
X224686500Y-118326000D01*
X224391500Y-118326000D01*
X224377042Y-118325290D01*
X224362724Y-118323166D01*
X224348683Y-118319649D01*
X224335054Y-118314772D01*
X224321969Y-118308583D01*
X224309553Y-118301142D01*
X224297927Y-118292519D01*
X224287202Y-118282798D01*
X224277481Y-118272073D01*
X224268858Y-118260447D01*
X224261417Y-118248031D01*
X224255228Y-118234946D01*
X224250351Y-118221317D01*
X224246834Y-118207276D01*
X224244710Y-118192958D01*
X224244000Y-118178500D01*
X224244000Y-117833500D01*
X224244710Y-117819042D01*
X224246834Y-117804724D01*
X224250351Y-117790683D01*
X224255228Y-117777054D01*
X224261417Y-117763969D01*
X224268858Y-117751553D01*
X224277481Y-117739927D01*
X224287202Y-117729202D01*
X224297927Y-117719481D01*
X224309553Y-117710858D01*
X224321969Y-117703417D01*
X224335054Y-117697228D01*
X224348683Y-117692351D01*
X224362724Y-117688834D01*
X224377042Y-117686710D01*
X224391500Y-117686000D01*
X224686500Y-117686000D01*
X224700958Y-117686710D01*
X224700958Y-117686710D01*
G37*
D20*
X224539000Y-118006000D03*
D16*
G36*
X228413958Y-108293710D02*
G01*
X228428276Y-108295834D01*
X228442317Y-108299351D01*
X228455946Y-108304228D01*
X228469031Y-108310417D01*
X228481447Y-108317858D01*
X228493073Y-108326481D01*
X228503798Y-108336202D01*
X228513519Y-108346927D01*
X228522142Y-108358553D01*
X228529583Y-108370969D01*
X228535772Y-108384054D01*
X228540649Y-108397683D01*
X228544166Y-108411724D01*
X228546290Y-108426042D01*
X228547000Y-108440500D01*
X228547000Y-108785500D01*
X228546290Y-108799958D01*
X228544166Y-108814276D01*
X228540649Y-108828317D01*
X228535772Y-108841946D01*
X228529583Y-108855031D01*
X228522142Y-108867447D01*
X228513519Y-108879073D01*
X228503798Y-108889798D01*
X228493073Y-108899519D01*
X228481447Y-108908142D01*
X228469031Y-108915583D01*
X228455946Y-108921772D01*
X228442317Y-108926649D01*
X228428276Y-108930166D01*
X228413958Y-108932290D01*
X228399500Y-108933000D01*
X228104500Y-108933000D01*
X228090042Y-108932290D01*
X228075724Y-108930166D01*
X228061683Y-108926649D01*
X228048054Y-108921772D01*
X228034969Y-108915583D01*
X228022553Y-108908142D01*
X228010927Y-108899519D01*
X228000202Y-108889798D01*
X227990481Y-108879073D01*
X227981858Y-108867447D01*
X227974417Y-108855031D01*
X227968228Y-108841946D01*
X227963351Y-108828317D01*
X227959834Y-108814276D01*
X227957710Y-108799958D01*
X227957000Y-108785500D01*
X227957000Y-108440500D01*
X227957710Y-108426042D01*
X227959834Y-108411724D01*
X227963351Y-108397683D01*
X227968228Y-108384054D01*
X227974417Y-108370969D01*
X227981858Y-108358553D01*
X227990481Y-108346927D01*
X228000202Y-108336202D01*
X228010927Y-108326481D01*
X228022553Y-108317858D01*
X228034969Y-108310417D01*
X228048054Y-108304228D01*
X228061683Y-108299351D01*
X228075724Y-108295834D01*
X228090042Y-108293710D01*
X228104500Y-108293000D01*
X228399500Y-108293000D01*
X228413958Y-108293710D01*
X228413958Y-108293710D01*
G37*
D20*
X228252000Y-108613000D03*
D16*
G36*
X227443958Y-108293710D02*
G01*
X227458276Y-108295834D01*
X227472317Y-108299351D01*
X227485946Y-108304228D01*
X227499031Y-108310417D01*
X227511447Y-108317858D01*
X227523073Y-108326481D01*
X227533798Y-108336202D01*
X227543519Y-108346927D01*
X227552142Y-108358553D01*
X227559583Y-108370969D01*
X227565772Y-108384054D01*
X227570649Y-108397683D01*
X227574166Y-108411724D01*
X227576290Y-108426042D01*
X227577000Y-108440500D01*
X227577000Y-108785500D01*
X227576290Y-108799958D01*
X227574166Y-108814276D01*
X227570649Y-108828317D01*
X227565772Y-108841946D01*
X227559583Y-108855031D01*
X227552142Y-108867447D01*
X227543519Y-108879073D01*
X227533798Y-108889798D01*
X227523073Y-108899519D01*
X227511447Y-108908142D01*
X227499031Y-108915583D01*
X227485946Y-108921772D01*
X227472317Y-108926649D01*
X227458276Y-108930166D01*
X227443958Y-108932290D01*
X227429500Y-108933000D01*
X227134500Y-108933000D01*
X227120042Y-108932290D01*
X227105724Y-108930166D01*
X227091683Y-108926649D01*
X227078054Y-108921772D01*
X227064969Y-108915583D01*
X227052553Y-108908142D01*
X227040927Y-108899519D01*
X227030202Y-108889798D01*
X227020481Y-108879073D01*
X227011858Y-108867447D01*
X227004417Y-108855031D01*
X226998228Y-108841946D01*
X226993351Y-108828317D01*
X226989834Y-108814276D01*
X226987710Y-108799958D01*
X226987000Y-108785500D01*
X226987000Y-108440500D01*
X226987710Y-108426042D01*
X226989834Y-108411724D01*
X226993351Y-108397683D01*
X226998228Y-108384054D01*
X227004417Y-108370969D01*
X227011858Y-108358553D01*
X227020481Y-108346927D01*
X227030202Y-108336202D01*
X227040927Y-108326481D01*
X227052553Y-108317858D01*
X227064969Y-108310417D01*
X227078054Y-108304228D01*
X227091683Y-108299351D01*
X227105724Y-108295834D01*
X227120042Y-108293710D01*
X227134500Y-108293000D01*
X227429500Y-108293000D01*
X227443958Y-108293710D01*
X227443958Y-108293710D01*
G37*
D20*
X227282000Y-108613000D03*
D16*
G36*
X220133958Y-102903710D02*
G01*
X220148276Y-102905834D01*
X220162317Y-102909351D01*
X220175946Y-102914228D01*
X220189031Y-102920417D01*
X220201447Y-102927858D01*
X220213073Y-102936481D01*
X220223798Y-102946202D01*
X220233519Y-102956927D01*
X220242142Y-102968553D01*
X220249583Y-102980969D01*
X220255772Y-102994054D01*
X220260649Y-103007683D01*
X220264166Y-103021724D01*
X220266290Y-103036042D01*
X220267000Y-103050500D01*
X220267000Y-103395500D01*
X220266290Y-103409958D01*
X220264166Y-103424276D01*
X220260649Y-103438317D01*
X220255772Y-103451946D01*
X220249583Y-103465031D01*
X220242142Y-103477447D01*
X220233519Y-103489073D01*
X220223798Y-103499798D01*
X220213073Y-103509519D01*
X220201447Y-103518142D01*
X220189031Y-103525583D01*
X220175946Y-103531772D01*
X220162317Y-103536649D01*
X220148276Y-103540166D01*
X220133958Y-103542290D01*
X220119500Y-103543000D01*
X219824500Y-103543000D01*
X219810042Y-103542290D01*
X219795724Y-103540166D01*
X219781683Y-103536649D01*
X219768054Y-103531772D01*
X219754969Y-103525583D01*
X219742553Y-103518142D01*
X219730927Y-103509519D01*
X219720202Y-103499798D01*
X219710481Y-103489073D01*
X219701858Y-103477447D01*
X219694417Y-103465031D01*
X219688228Y-103451946D01*
X219683351Y-103438317D01*
X219679834Y-103424276D01*
X219677710Y-103409958D01*
X219677000Y-103395500D01*
X219677000Y-103050500D01*
X219677710Y-103036042D01*
X219679834Y-103021724D01*
X219683351Y-103007683D01*
X219688228Y-102994054D01*
X219694417Y-102980969D01*
X219701858Y-102968553D01*
X219710481Y-102956927D01*
X219720202Y-102946202D01*
X219730927Y-102936481D01*
X219742553Y-102927858D01*
X219754969Y-102920417D01*
X219768054Y-102914228D01*
X219781683Y-102909351D01*
X219795724Y-102905834D01*
X219810042Y-102903710D01*
X219824500Y-102903000D01*
X220119500Y-102903000D01*
X220133958Y-102903710D01*
X220133958Y-102903710D01*
G37*
D20*
X219972000Y-103223000D03*
D16*
G36*
X221103958Y-102903710D02*
G01*
X221118276Y-102905834D01*
X221132317Y-102909351D01*
X221145946Y-102914228D01*
X221159031Y-102920417D01*
X221171447Y-102927858D01*
X221183073Y-102936481D01*
X221193798Y-102946202D01*
X221203519Y-102956927D01*
X221212142Y-102968553D01*
X221219583Y-102980969D01*
X221225772Y-102994054D01*
X221230649Y-103007683D01*
X221234166Y-103021724D01*
X221236290Y-103036042D01*
X221237000Y-103050500D01*
X221237000Y-103395500D01*
X221236290Y-103409958D01*
X221234166Y-103424276D01*
X221230649Y-103438317D01*
X221225772Y-103451946D01*
X221219583Y-103465031D01*
X221212142Y-103477447D01*
X221203519Y-103489073D01*
X221193798Y-103499798D01*
X221183073Y-103509519D01*
X221171447Y-103518142D01*
X221159031Y-103525583D01*
X221145946Y-103531772D01*
X221132317Y-103536649D01*
X221118276Y-103540166D01*
X221103958Y-103542290D01*
X221089500Y-103543000D01*
X220794500Y-103543000D01*
X220780042Y-103542290D01*
X220765724Y-103540166D01*
X220751683Y-103536649D01*
X220738054Y-103531772D01*
X220724969Y-103525583D01*
X220712553Y-103518142D01*
X220700927Y-103509519D01*
X220690202Y-103499798D01*
X220680481Y-103489073D01*
X220671858Y-103477447D01*
X220664417Y-103465031D01*
X220658228Y-103451946D01*
X220653351Y-103438317D01*
X220649834Y-103424276D01*
X220647710Y-103409958D01*
X220647000Y-103395500D01*
X220647000Y-103050500D01*
X220647710Y-103036042D01*
X220649834Y-103021724D01*
X220653351Y-103007683D01*
X220658228Y-102994054D01*
X220664417Y-102980969D01*
X220671858Y-102968553D01*
X220680481Y-102956927D01*
X220690202Y-102946202D01*
X220700927Y-102936481D01*
X220712553Y-102927858D01*
X220724969Y-102920417D01*
X220738054Y-102914228D01*
X220751683Y-102909351D01*
X220765724Y-102905834D01*
X220780042Y-102903710D01*
X220794500Y-102903000D01*
X221089500Y-102903000D01*
X221103958Y-102903710D01*
X221103958Y-102903710D01*
G37*
D20*
X220942000Y-103223000D03*
D16*
G36*
X221070958Y-108283710D02*
G01*
X221085276Y-108285834D01*
X221099317Y-108289351D01*
X221112946Y-108294228D01*
X221126031Y-108300417D01*
X221138447Y-108307858D01*
X221150073Y-108316481D01*
X221160798Y-108326202D01*
X221170519Y-108336927D01*
X221179142Y-108348553D01*
X221186583Y-108360969D01*
X221192772Y-108374054D01*
X221197649Y-108387683D01*
X221201166Y-108401724D01*
X221203290Y-108416042D01*
X221204000Y-108430500D01*
X221204000Y-108775500D01*
X221203290Y-108789958D01*
X221201166Y-108804276D01*
X221197649Y-108818317D01*
X221192772Y-108831946D01*
X221186583Y-108845031D01*
X221179142Y-108857447D01*
X221170519Y-108869073D01*
X221160798Y-108879798D01*
X221150073Y-108889519D01*
X221138447Y-108898142D01*
X221126031Y-108905583D01*
X221112946Y-108911772D01*
X221099317Y-108916649D01*
X221085276Y-108920166D01*
X221070958Y-108922290D01*
X221056500Y-108923000D01*
X220761500Y-108923000D01*
X220747042Y-108922290D01*
X220732724Y-108920166D01*
X220718683Y-108916649D01*
X220705054Y-108911772D01*
X220691969Y-108905583D01*
X220679553Y-108898142D01*
X220667927Y-108889519D01*
X220657202Y-108879798D01*
X220647481Y-108869073D01*
X220638858Y-108857447D01*
X220631417Y-108845031D01*
X220625228Y-108831946D01*
X220620351Y-108818317D01*
X220616834Y-108804276D01*
X220614710Y-108789958D01*
X220614000Y-108775500D01*
X220614000Y-108430500D01*
X220614710Y-108416042D01*
X220616834Y-108401724D01*
X220620351Y-108387683D01*
X220625228Y-108374054D01*
X220631417Y-108360969D01*
X220638858Y-108348553D01*
X220647481Y-108336927D01*
X220657202Y-108326202D01*
X220667927Y-108316481D01*
X220679553Y-108307858D01*
X220691969Y-108300417D01*
X220705054Y-108294228D01*
X220718683Y-108289351D01*
X220732724Y-108285834D01*
X220747042Y-108283710D01*
X220761500Y-108283000D01*
X221056500Y-108283000D01*
X221070958Y-108283710D01*
X221070958Y-108283710D01*
G37*
D20*
X220909000Y-108603000D03*
D16*
G36*
X220100958Y-108283710D02*
G01*
X220115276Y-108285834D01*
X220129317Y-108289351D01*
X220142946Y-108294228D01*
X220156031Y-108300417D01*
X220168447Y-108307858D01*
X220180073Y-108316481D01*
X220190798Y-108326202D01*
X220200519Y-108336927D01*
X220209142Y-108348553D01*
X220216583Y-108360969D01*
X220222772Y-108374054D01*
X220227649Y-108387683D01*
X220231166Y-108401724D01*
X220233290Y-108416042D01*
X220234000Y-108430500D01*
X220234000Y-108775500D01*
X220233290Y-108789958D01*
X220231166Y-108804276D01*
X220227649Y-108818317D01*
X220222772Y-108831946D01*
X220216583Y-108845031D01*
X220209142Y-108857447D01*
X220200519Y-108869073D01*
X220190798Y-108879798D01*
X220180073Y-108889519D01*
X220168447Y-108898142D01*
X220156031Y-108905583D01*
X220142946Y-108911772D01*
X220129317Y-108916649D01*
X220115276Y-108920166D01*
X220100958Y-108922290D01*
X220086500Y-108923000D01*
X219791500Y-108923000D01*
X219777042Y-108922290D01*
X219762724Y-108920166D01*
X219748683Y-108916649D01*
X219735054Y-108911772D01*
X219721969Y-108905583D01*
X219709553Y-108898142D01*
X219697927Y-108889519D01*
X219687202Y-108879798D01*
X219677481Y-108869073D01*
X219668858Y-108857447D01*
X219661417Y-108845031D01*
X219655228Y-108831946D01*
X219650351Y-108818317D01*
X219646834Y-108804276D01*
X219644710Y-108789958D01*
X219644000Y-108775500D01*
X219644000Y-108430500D01*
X219644710Y-108416042D01*
X219646834Y-108401724D01*
X219650351Y-108387683D01*
X219655228Y-108374054D01*
X219661417Y-108360969D01*
X219668858Y-108348553D01*
X219677481Y-108336927D01*
X219687202Y-108326202D01*
X219697927Y-108316481D01*
X219709553Y-108307858D01*
X219721969Y-108300417D01*
X219735054Y-108294228D01*
X219748683Y-108289351D01*
X219762724Y-108285834D01*
X219777042Y-108283710D01*
X219791500Y-108283000D01*
X220086500Y-108283000D01*
X220100958Y-108283710D01*
X220100958Y-108283710D01*
G37*
D20*
X219939000Y-108603000D03*
D16*
G36*
X223786958Y-102893710D02*
G01*
X223801276Y-102895834D01*
X223815317Y-102899351D01*
X223828946Y-102904228D01*
X223842031Y-102910417D01*
X223854447Y-102917858D01*
X223866073Y-102926481D01*
X223876798Y-102936202D01*
X223886519Y-102946927D01*
X223895142Y-102958553D01*
X223902583Y-102970969D01*
X223908772Y-102984054D01*
X223913649Y-102997683D01*
X223917166Y-103011724D01*
X223919290Y-103026042D01*
X223920000Y-103040500D01*
X223920000Y-103385500D01*
X223919290Y-103399958D01*
X223917166Y-103414276D01*
X223913649Y-103428317D01*
X223908772Y-103441946D01*
X223902583Y-103455031D01*
X223895142Y-103467447D01*
X223886519Y-103479073D01*
X223876798Y-103489798D01*
X223866073Y-103499519D01*
X223854447Y-103508142D01*
X223842031Y-103515583D01*
X223828946Y-103521772D01*
X223815317Y-103526649D01*
X223801276Y-103530166D01*
X223786958Y-103532290D01*
X223772500Y-103533000D01*
X223477500Y-103533000D01*
X223463042Y-103532290D01*
X223448724Y-103530166D01*
X223434683Y-103526649D01*
X223421054Y-103521772D01*
X223407969Y-103515583D01*
X223395553Y-103508142D01*
X223383927Y-103499519D01*
X223373202Y-103489798D01*
X223363481Y-103479073D01*
X223354858Y-103467447D01*
X223347417Y-103455031D01*
X223341228Y-103441946D01*
X223336351Y-103428317D01*
X223332834Y-103414276D01*
X223330710Y-103399958D01*
X223330000Y-103385500D01*
X223330000Y-103040500D01*
X223330710Y-103026042D01*
X223332834Y-103011724D01*
X223336351Y-102997683D01*
X223341228Y-102984054D01*
X223347417Y-102970969D01*
X223354858Y-102958553D01*
X223363481Y-102946927D01*
X223373202Y-102936202D01*
X223383927Y-102926481D01*
X223395553Y-102917858D01*
X223407969Y-102910417D01*
X223421054Y-102904228D01*
X223434683Y-102899351D01*
X223448724Y-102895834D01*
X223463042Y-102893710D01*
X223477500Y-102893000D01*
X223772500Y-102893000D01*
X223786958Y-102893710D01*
X223786958Y-102893710D01*
G37*
D20*
X223625000Y-103213000D03*
D16*
G36*
X224756958Y-102893710D02*
G01*
X224771276Y-102895834D01*
X224785317Y-102899351D01*
X224798946Y-102904228D01*
X224812031Y-102910417D01*
X224824447Y-102917858D01*
X224836073Y-102926481D01*
X224846798Y-102936202D01*
X224856519Y-102946927D01*
X224865142Y-102958553D01*
X224872583Y-102970969D01*
X224878772Y-102984054D01*
X224883649Y-102997683D01*
X224887166Y-103011724D01*
X224889290Y-103026042D01*
X224890000Y-103040500D01*
X224890000Y-103385500D01*
X224889290Y-103399958D01*
X224887166Y-103414276D01*
X224883649Y-103428317D01*
X224878772Y-103441946D01*
X224872583Y-103455031D01*
X224865142Y-103467447D01*
X224856519Y-103479073D01*
X224846798Y-103489798D01*
X224836073Y-103499519D01*
X224824447Y-103508142D01*
X224812031Y-103515583D01*
X224798946Y-103521772D01*
X224785317Y-103526649D01*
X224771276Y-103530166D01*
X224756958Y-103532290D01*
X224742500Y-103533000D01*
X224447500Y-103533000D01*
X224433042Y-103532290D01*
X224418724Y-103530166D01*
X224404683Y-103526649D01*
X224391054Y-103521772D01*
X224377969Y-103515583D01*
X224365553Y-103508142D01*
X224353927Y-103499519D01*
X224343202Y-103489798D01*
X224333481Y-103479073D01*
X224324858Y-103467447D01*
X224317417Y-103455031D01*
X224311228Y-103441946D01*
X224306351Y-103428317D01*
X224302834Y-103414276D01*
X224300710Y-103399958D01*
X224300000Y-103385500D01*
X224300000Y-103040500D01*
X224300710Y-103026042D01*
X224302834Y-103011724D01*
X224306351Y-102997683D01*
X224311228Y-102984054D01*
X224317417Y-102970969D01*
X224324858Y-102958553D01*
X224333481Y-102946927D01*
X224343202Y-102936202D01*
X224353927Y-102926481D01*
X224365553Y-102917858D01*
X224377969Y-102910417D01*
X224391054Y-102904228D01*
X224404683Y-102899351D01*
X224418724Y-102895834D01*
X224433042Y-102893710D01*
X224447500Y-102893000D01*
X224742500Y-102893000D01*
X224756958Y-102893710D01*
X224756958Y-102893710D01*
G37*
D20*
X224595000Y-103213000D03*
D16*
G36*
X228429958Y-102893710D02*
G01*
X228444276Y-102895834D01*
X228458317Y-102899351D01*
X228471946Y-102904228D01*
X228485031Y-102910417D01*
X228497447Y-102917858D01*
X228509073Y-102926481D01*
X228519798Y-102936202D01*
X228529519Y-102946927D01*
X228538142Y-102958553D01*
X228545583Y-102970969D01*
X228551772Y-102984054D01*
X228556649Y-102997683D01*
X228560166Y-103011724D01*
X228562290Y-103026042D01*
X228563000Y-103040500D01*
X228563000Y-103385500D01*
X228562290Y-103399958D01*
X228560166Y-103414276D01*
X228556649Y-103428317D01*
X228551772Y-103441946D01*
X228545583Y-103455031D01*
X228538142Y-103467447D01*
X228529519Y-103479073D01*
X228519798Y-103489798D01*
X228509073Y-103499519D01*
X228497447Y-103508142D01*
X228485031Y-103515583D01*
X228471946Y-103521772D01*
X228458317Y-103526649D01*
X228444276Y-103530166D01*
X228429958Y-103532290D01*
X228415500Y-103533000D01*
X228120500Y-103533000D01*
X228106042Y-103532290D01*
X228091724Y-103530166D01*
X228077683Y-103526649D01*
X228064054Y-103521772D01*
X228050969Y-103515583D01*
X228038553Y-103508142D01*
X228026927Y-103499519D01*
X228016202Y-103489798D01*
X228006481Y-103479073D01*
X227997858Y-103467447D01*
X227990417Y-103455031D01*
X227984228Y-103441946D01*
X227979351Y-103428317D01*
X227975834Y-103414276D01*
X227973710Y-103399958D01*
X227973000Y-103385500D01*
X227973000Y-103040500D01*
X227973710Y-103026042D01*
X227975834Y-103011724D01*
X227979351Y-102997683D01*
X227984228Y-102984054D01*
X227990417Y-102970969D01*
X227997858Y-102958553D01*
X228006481Y-102946927D01*
X228016202Y-102936202D01*
X228026927Y-102926481D01*
X228038553Y-102917858D01*
X228050969Y-102910417D01*
X228064054Y-102904228D01*
X228077683Y-102899351D01*
X228091724Y-102895834D01*
X228106042Y-102893710D01*
X228120500Y-102893000D01*
X228415500Y-102893000D01*
X228429958Y-102893710D01*
X228429958Y-102893710D01*
G37*
D20*
X228268000Y-103213000D03*
D16*
G36*
X227459958Y-102893710D02*
G01*
X227474276Y-102895834D01*
X227488317Y-102899351D01*
X227501946Y-102904228D01*
X227515031Y-102910417D01*
X227527447Y-102917858D01*
X227539073Y-102926481D01*
X227549798Y-102936202D01*
X227559519Y-102946927D01*
X227568142Y-102958553D01*
X227575583Y-102970969D01*
X227581772Y-102984054D01*
X227586649Y-102997683D01*
X227590166Y-103011724D01*
X227592290Y-103026042D01*
X227593000Y-103040500D01*
X227593000Y-103385500D01*
X227592290Y-103399958D01*
X227590166Y-103414276D01*
X227586649Y-103428317D01*
X227581772Y-103441946D01*
X227575583Y-103455031D01*
X227568142Y-103467447D01*
X227559519Y-103479073D01*
X227549798Y-103489798D01*
X227539073Y-103499519D01*
X227527447Y-103508142D01*
X227515031Y-103515583D01*
X227501946Y-103521772D01*
X227488317Y-103526649D01*
X227474276Y-103530166D01*
X227459958Y-103532290D01*
X227445500Y-103533000D01*
X227150500Y-103533000D01*
X227136042Y-103532290D01*
X227121724Y-103530166D01*
X227107683Y-103526649D01*
X227094054Y-103521772D01*
X227080969Y-103515583D01*
X227068553Y-103508142D01*
X227056927Y-103499519D01*
X227046202Y-103489798D01*
X227036481Y-103479073D01*
X227027858Y-103467447D01*
X227020417Y-103455031D01*
X227014228Y-103441946D01*
X227009351Y-103428317D01*
X227005834Y-103414276D01*
X227003710Y-103399958D01*
X227003000Y-103385500D01*
X227003000Y-103040500D01*
X227003710Y-103026042D01*
X227005834Y-103011724D01*
X227009351Y-102997683D01*
X227014228Y-102984054D01*
X227020417Y-102970969D01*
X227027858Y-102958553D01*
X227036481Y-102946927D01*
X227046202Y-102936202D01*
X227056927Y-102926481D01*
X227068553Y-102917858D01*
X227080969Y-102910417D01*
X227094054Y-102904228D01*
X227107683Y-102899351D01*
X227121724Y-102895834D01*
X227136042Y-102893710D01*
X227150500Y-102893000D01*
X227445500Y-102893000D01*
X227459958Y-102893710D01*
X227459958Y-102893710D01*
G37*
D20*
X227298000Y-103213000D03*
D16*
G36*
X223765958Y-112276710D02*
G01*
X223780276Y-112278834D01*
X223794317Y-112282351D01*
X223807946Y-112287228D01*
X223821031Y-112293417D01*
X223833447Y-112300858D01*
X223845073Y-112309481D01*
X223855798Y-112319202D01*
X223865519Y-112329927D01*
X223874142Y-112341553D01*
X223881583Y-112353969D01*
X223887772Y-112367054D01*
X223892649Y-112380683D01*
X223896166Y-112394724D01*
X223898290Y-112409042D01*
X223899000Y-112423500D01*
X223899000Y-112768500D01*
X223898290Y-112782958D01*
X223896166Y-112797276D01*
X223892649Y-112811317D01*
X223887772Y-112824946D01*
X223881583Y-112838031D01*
X223874142Y-112850447D01*
X223865519Y-112862073D01*
X223855798Y-112872798D01*
X223845073Y-112882519D01*
X223833447Y-112891142D01*
X223821031Y-112898583D01*
X223807946Y-112904772D01*
X223794317Y-112909649D01*
X223780276Y-112913166D01*
X223765958Y-112915290D01*
X223751500Y-112916000D01*
X223456500Y-112916000D01*
X223442042Y-112915290D01*
X223427724Y-112913166D01*
X223413683Y-112909649D01*
X223400054Y-112904772D01*
X223386969Y-112898583D01*
X223374553Y-112891142D01*
X223362927Y-112882519D01*
X223352202Y-112872798D01*
X223342481Y-112862073D01*
X223333858Y-112850447D01*
X223326417Y-112838031D01*
X223320228Y-112824946D01*
X223315351Y-112811317D01*
X223311834Y-112797276D01*
X223309710Y-112782958D01*
X223309000Y-112768500D01*
X223309000Y-112423500D01*
X223309710Y-112409042D01*
X223311834Y-112394724D01*
X223315351Y-112380683D01*
X223320228Y-112367054D01*
X223326417Y-112353969D01*
X223333858Y-112341553D01*
X223342481Y-112329927D01*
X223352202Y-112319202D01*
X223362927Y-112309481D01*
X223374553Y-112300858D01*
X223386969Y-112293417D01*
X223400054Y-112287228D01*
X223413683Y-112282351D01*
X223427724Y-112278834D01*
X223442042Y-112276710D01*
X223456500Y-112276000D01*
X223751500Y-112276000D01*
X223765958Y-112276710D01*
X223765958Y-112276710D01*
G37*
D20*
X223604000Y-112596000D03*
D16*
G36*
X224735958Y-112276710D02*
G01*
X224750276Y-112278834D01*
X224764317Y-112282351D01*
X224777946Y-112287228D01*
X224791031Y-112293417D01*
X224803447Y-112300858D01*
X224815073Y-112309481D01*
X224825798Y-112319202D01*
X224835519Y-112329927D01*
X224844142Y-112341553D01*
X224851583Y-112353969D01*
X224857772Y-112367054D01*
X224862649Y-112380683D01*
X224866166Y-112394724D01*
X224868290Y-112409042D01*
X224869000Y-112423500D01*
X224869000Y-112768500D01*
X224868290Y-112782958D01*
X224866166Y-112797276D01*
X224862649Y-112811317D01*
X224857772Y-112824946D01*
X224851583Y-112838031D01*
X224844142Y-112850447D01*
X224835519Y-112862073D01*
X224825798Y-112872798D01*
X224815073Y-112882519D01*
X224803447Y-112891142D01*
X224791031Y-112898583D01*
X224777946Y-112904772D01*
X224764317Y-112909649D01*
X224750276Y-112913166D01*
X224735958Y-112915290D01*
X224721500Y-112916000D01*
X224426500Y-112916000D01*
X224412042Y-112915290D01*
X224397724Y-112913166D01*
X224383683Y-112909649D01*
X224370054Y-112904772D01*
X224356969Y-112898583D01*
X224344553Y-112891142D01*
X224332927Y-112882519D01*
X224322202Y-112872798D01*
X224312481Y-112862073D01*
X224303858Y-112850447D01*
X224296417Y-112838031D01*
X224290228Y-112824946D01*
X224285351Y-112811317D01*
X224281834Y-112797276D01*
X224279710Y-112782958D01*
X224279000Y-112768500D01*
X224279000Y-112423500D01*
X224279710Y-112409042D01*
X224281834Y-112394724D01*
X224285351Y-112380683D01*
X224290228Y-112367054D01*
X224296417Y-112353969D01*
X224303858Y-112341553D01*
X224312481Y-112329927D01*
X224322202Y-112319202D01*
X224332927Y-112309481D01*
X224344553Y-112300858D01*
X224356969Y-112293417D01*
X224370054Y-112287228D01*
X224383683Y-112282351D01*
X224397724Y-112278834D01*
X224412042Y-112276710D01*
X224426500Y-112276000D01*
X224721500Y-112276000D01*
X224735958Y-112276710D01*
X224735958Y-112276710D01*
G37*
D20*
X224574000Y-112596000D03*
D16*
G36*
X224720958Y-108293710D02*
G01*
X224735276Y-108295834D01*
X224749317Y-108299351D01*
X224762946Y-108304228D01*
X224776031Y-108310417D01*
X224788447Y-108317858D01*
X224800073Y-108326481D01*
X224810798Y-108336202D01*
X224820519Y-108346927D01*
X224829142Y-108358553D01*
X224836583Y-108370969D01*
X224842772Y-108384054D01*
X224847649Y-108397683D01*
X224851166Y-108411724D01*
X224853290Y-108426042D01*
X224854000Y-108440500D01*
X224854000Y-108785500D01*
X224853290Y-108799958D01*
X224851166Y-108814276D01*
X224847649Y-108828317D01*
X224842772Y-108841946D01*
X224836583Y-108855031D01*
X224829142Y-108867447D01*
X224820519Y-108879073D01*
X224810798Y-108889798D01*
X224800073Y-108899519D01*
X224788447Y-108908142D01*
X224776031Y-108915583D01*
X224762946Y-108921772D01*
X224749317Y-108926649D01*
X224735276Y-108930166D01*
X224720958Y-108932290D01*
X224706500Y-108933000D01*
X224411500Y-108933000D01*
X224397042Y-108932290D01*
X224382724Y-108930166D01*
X224368683Y-108926649D01*
X224355054Y-108921772D01*
X224341969Y-108915583D01*
X224329553Y-108908142D01*
X224317927Y-108899519D01*
X224307202Y-108889798D01*
X224297481Y-108879073D01*
X224288858Y-108867447D01*
X224281417Y-108855031D01*
X224275228Y-108841946D01*
X224270351Y-108828317D01*
X224266834Y-108814276D01*
X224264710Y-108799958D01*
X224264000Y-108785500D01*
X224264000Y-108440500D01*
X224264710Y-108426042D01*
X224266834Y-108411724D01*
X224270351Y-108397683D01*
X224275228Y-108384054D01*
X224281417Y-108370969D01*
X224288858Y-108358553D01*
X224297481Y-108346927D01*
X224307202Y-108336202D01*
X224317927Y-108326481D01*
X224329553Y-108317858D01*
X224341969Y-108310417D01*
X224355054Y-108304228D01*
X224368683Y-108299351D01*
X224382724Y-108295834D01*
X224397042Y-108293710D01*
X224411500Y-108293000D01*
X224706500Y-108293000D01*
X224720958Y-108293710D01*
X224720958Y-108293710D01*
G37*
D20*
X224559000Y-108613000D03*
D16*
G36*
X223750958Y-108293710D02*
G01*
X223765276Y-108295834D01*
X223779317Y-108299351D01*
X223792946Y-108304228D01*
X223806031Y-108310417D01*
X223818447Y-108317858D01*
X223830073Y-108326481D01*
X223840798Y-108336202D01*
X223850519Y-108346927D01*
X223859142Y-108358553D01*
X223866583Y-108370969D01*
X223872772Y-108384054D01*
X223877649Y-108397683D01*
X223881166Y-108411724D01*
X223883290Y-108426042D01*
X223884000Y-108440500D01*
X223884000Y-108785500D01*
X223883290Y-108799958D01*
X223881166Y-108814276D01*
X223877649Y-108828317D01*
X223872772Y-108841946D01*
X223866583Y-108855031D01*
X223859142Y-108867447D01*
X223850519Y-108879073D01*
X223840798Y-108889798D01*
X223830073Y-108899519D01*
X223818447Y-108908142D01*
X223806031Y-108915583D01*
X223792946Y-108921772D01*
X223779317Y-108926649D01*
X223765276Y-108930166D01*
X223750958Y-108932290D01*
X223736500Y-108933000D01*
X223441500Y-108933000D01*
X223427042Y-108932290D01*
X223412724Y-108930166D01*
X223398683Y-108926649D01*
X223385054Y-108921772D01*
X223371969Y-108915583D01*
X223359553Y-108908142D01*
X223347927Y-108899519D01*
X223337202Y-108889798D01*
X223327481Y-108879073D01*
X223318858Y-108867447D01*
X223311417Y-108855031D01*
X223305228Y-108841946D01*
X223300351Y-108828317D01*
X223296834Y-108814276D01*
X223294710Y-108799958D01*
X223294000Y-108785500D01*
X223294000Y-108440500D01*
X223294710Y-108426042D01*
X223296834Y-108411724D01*
X223300351Y-108397683D01*
X223305228Y-108384054D01*
X223311417Y-108370969D01*
X223318858Y-108358553D01*
X223327481Y-108346927D01*
X223337202Y-108336202D01*
X223347927Y-108326481D01*
X223359553Y-108317858D01*
X223371969Y-108310417D01*
X223385054Y-108304228D01*
X223398683Y-108299351D01*
X223412724Y-108295834D01*
X223427042Y-108293710D01*
X223441500Y-108293000D01*
X223736500Y-108293000D01*
X223750958Y-108293710D01*
X223750958Y-108293710D01*
G37*
D20*
X223589000Y-108613000D03*
D14*
X208370000Y-98770000D03*
D15*
X208370000Y-96230000D03*
X210910000Y-98770000D03*
X210910000Y-96230000D03*
X213450000Y-98770000D03*
X213450000Y-96230000D03*
X215990000Y-98770000D03*
X215990000Y-96230000D03*
X218530000Y-98770000D03*
X218530000Y-96230000D03*
X221070000Y-98770000D03*
X221070000Y-96230000D03*
X223610000Y-98770000D03*
X223610000Y-96230000D03*
X226150000Y-98770000D03*
X226150000Y-96230000D03*
X228690000Y-98770000D03*
X228690000Y-96230000D03*
X231230000Y-98770000D03*
X231230000Y-96230000D03*
X233770000Y-98770000D03*
X233770000Y-96230000D03*
X236310000Y-98770000D03*
X236310000Y-96230000D03*
X238850000Y-98770000D03*
X238850000Y-96230000D03*
X241390000Y-98770000D03*
X241390000Y-96230000D03*
X243930000Y-98770000D03*
X243930000Y-96230000D03*
X246470000Y-98770000D03*
X246470000Y-96230000D03*
X249010000Y-98770000D03*
X249010000Y-96230000D03*
X251550000Y-98770000D03*
X251550000Y-96230000D03*
X254090000Y-98770000D03*
X254090000Y-96230000D03*
X256630000Y-98770000D03*
X256630000Y-96230000D03*
D21*
X226358100Y-108043000D03*
X224574000Y-111149300D03*
X226795500Y-110488700D03*
D22*
X228005300Y-104840000D02*
X228005300Y-105296300D01*
X228005300Y-105296300D02*
X229002100Y-106293100D01*
X229002100Y-106293100D02*
X229002100Y-108832600D01*
X229002100Y-108832600D02*
X228096300Y-109738400D01*
X228096300Y-109738400D02*
X224840800Y-109738400D01*
X224840800Y-109738400D02*
X223604000Y-110975200D01*
X223604000Y-110975200D02*
X223604000Y-112596000D01*
X227305000Y-104840000D02*
X228005300Y-104840000D01*
X226954900Y-104840000D02*
X227305000Y-104840000D01*
X226954900Y-104840000D02*
X226604700Y-104840000D01*
X219959000Y-103223000D02*
X219972000Y-103223000D01*
X209520300Y-98770000D02*
X209520300Y-99057600D01*
X209520300Y-99057600D02*
X213685700Y-103223000D01*
X213685700Y-103223000D02*
X219959000Y-103223000D01*
X219959000Y-103223000D02*
X219959000Y-104099700D01*
X219959000Y-104850000D02*
X219959000Y-104099700D01*
X223607000Y-114238000D02*
X223607000Y-113487700D01*
X223604000Y-112596000D02*
X223604000Y-113484700D01*
X223604000Y-113484700D02*
X223607000Y-113487700D01*
X208370000Y-98770000D02*
X209520300Y-98770000D01*
X227298000Y-103213000D02*
X227305000Y-103220000D01*
X227305000Y-103220000D02*
X227305000Y-104089700D01*
X226604700Y-104840000D02*
X226604700Y-105087800D01*
X226604700Y-105087800D02*
X226059900Y-105632600D01*
X226059900Y-105632600D02*
X224988500Y-105632600D01*
X224988500Y-105632600D02*
X224307300Y-104951400D01*
X224307300Y-104951400D02*
X224307300Y-104845000D01*
X227305000Y-104464800D02*
X227305000Y-104840000D01*
X227305000Y-104464800D02*
X227305000Y-104089700D01*
X223625000Y-103213000D02*
X223625000Y-104076700D01*
X223625000Y-104076700D02*
X223607000Y-104094700D01*
X223607000Y-104845000D02*
X223607000Y-104094700D01*
X219959000Y-104850000D02*
X220659300Y-104850000D01*
X220659300Y-104850000D02*
X220659300Y-104937500D01*
X220659300Y-104937500D02*
X221322200Y-105600400D01*
X221322200Y-105600400D02*
X222413900Y-105600400D01*
X222413900Y-105600400D02*
X222906700Y-105107600D01*
X222906700Y-105107600D02*
X222906700Y-104845000D01*
X223607000Y-104845000D02*
X222906700Y-104845000D01*
X223607000Y-104845000D02*
X224307300Y-104845000D01*
X223589000Y-109293400D02*
X223589000Y-108613000D01*
X220867200Y-114338300D02*
X220867200Y-112015200D01*
X220867200Y-112015200D02*
X223589000Y-109293400D01*
X223589000Y-109293400D02*
X226601600Y-109293400D01*
X226601600Y-109293400D02*
X227282000Y-108613000D01*
X220867200Y-114338300D02*
X223569000Y-117040100D01*
X223569000Y-117040100D02*
X223569000Y-118006000D01*
X216161879Y-106512519D02*
X219095680Y-109446320D01*
X213426959Y-107012521D02*
X213926961Y-106512519D01*
X213926961Y-106512519D02*
X216161879Y-106512519D01*
X212020639Y-107012521D02*
X213426959Y-107012521D01*
X207186700Y-102178582D02*
X212020639Y-107012521D01*
X207186700Y-97772800D02*
X207186700Y-102178582D01*
X207579200Y-97380300D02*
X207186700Y-97772800D01*
X208370000Y-96230000D02*
X208370000Y-97380300D01*
X208370000Y-97380300D02*
X207579200Y-97380300D01*
X219095680Y-109446320D02*
X219939000Y-108603000D01*
X220692979Y-114512521D02*
X220867200Y-114338300D01*
X217020639Y-114512521D02*
X220692979Y-114512521D01*
X216240639Y-113732521D02*
X217020639Y-114512521D01*
X216240639Y-112301361D02*
X216240639Y-113732521D01*
X219095680Y-109446320D02*
X216240639Y-112301361D01*
X256630000Y-98770000D02*
X256630000Y-99920300D01*
X256630000Y-99920300D02*
X261021000Y-104311300D01*
X261021000Y-104311300D02*
X261021000Y-109426000D01*
X256054900Y-98770000D02*
X256630000Y-98770000D01*
X256054900Y-98770000D02*
X255479700Y-98770000D01*
X249010000Y-96230000D02*
X250160300Y-96230000D01*
X255479700Y-98770000D02*
X255479700Y-98482300D01*
X255479700Y-98482300D02*
X254617100Y-97619700D01*
X254617100Y-97619700D02*
X251311600Y-97619700D01*
X251311600Y-97619700D02*
X250160300Y-96468400D01*
X250160300Y-96468400D02*
X250160300Y-96230000D01*
X233379000Y-97467000D02*
X232380300Y-96468400D01*
X232380300Y-96468400D02*
X232380300Y-96230000D01*
X237699700Y-98770000D02*
X237699700Y-98482300D01*
X237699700Y-98482300D02*
X236837100Y-97619700D01*
X236837100Y-97619700D02*
X233531600Y-97619700D01*
X233531600Y-97619700D02*
X233379000Y-97467000D01*
X233379000Y-97467000D02*
X232415100Y-98430900D01*
X232415100Y-98430900D02*
X232415100Y-105080600D01*
X232415100Y-105080600D02*
X232161000Y-105334700D01*
X232161000Y-106485000D02*
X232161000Y-105334700D01*
X231230000Y-96230000D02*
X232380300Y-96230000D01*
X238850000Y-98770000D02*
X237699700Y-98770000D01*
X243930000Y-96230000D02*
X245080300Y-96230000D01*
X249010000Y-96230000D02*
X247859700Y-96230000D01*
X247859700Y-96230000D02*
X247859700Y-96517600D01*
X247859700Y-96517600D02*
X246956700Y-97420600D01*
X246956700Y-97420600D02*
X246032500Y-97420600D01*
X246032500Y-97420600D02*
X245080300Y-96468400D01*
X245080300Y-96468400D02*
X245080300Y-96230000D01*
X218314000Y-118627000D02*
X223918000Y-118627000D01*
X223918000Y-118627000D02*
X224539000Y-118006000D01*
X212730000Y-113043000D02*
X218314000Y-118627000D01*
X218314000Y-118627000D02*
X218314000Y-126149000D01*
X218314000Y-126149000D02*
X207305000Y-137158000D01*
X224557000Y-116238000D02*
X224557000Y-116988300D01*
X224539000Y-118006000D02*
X224539000Y-117006300D01*
X224539000Y-117006300D02*
X224557000Y-116988300D01*
X228252000Y-107986800D02*
X226414300Y-107986800D01*
X226414300Y-107986800D02*
X226358100Y-108043000D01*
X228252000Y-107986800D02*
X228252000Y-107593300D01*
X228252000Y-107593300D02*
X228255000Y-107590300D01*
X228252000Y-108613000D02*
X228252000Y-107986800D01*
X207305000Y-133507700D02*
X207756200Y-133507700D01*
X207756200Y-133507700D02*
X210198300Y-131065600D01*
X210198300Y-131065600D02*
X210198300Y-113074700D01*
X210198300Y-113074700D02*
X215230000Y-108043000D01*
X228255000Y-106840000D02*
X228255000Y-107590300D01*
X207305000Y-134658000D02*
X207305000Y-133507700D01*
X224557000Y-106845000D02*
X223856700Y-106845000D01*
X212730000Y-105543000D02*
X213187800Y-106000800D01*
X213187800Y-106000800D02*
X223012500Y-106000800D01*
X223012500Y-106000800D02*
X223856700Y-106845000D01*
X224557000Y-106845000D02*
X224557000Y-107595300D01*
X224559000Y-108613000D02*
X224559000Y-107597300D01*
X224559000Y-107597300D02*
X224557000Y-107595300D01*
X217730000Y-113043000D02*
X220909000Y-109864000D01*
X220909000Y-109864000D02*
X220909000Y-108603000D01*
X220909000Y-108603000D02*
X220909000Y-107600300D01*
X220909000Y-106850000D02*
X220909000Y-107600300D01*
X224574000Y-112596000D02*
X224574000Y-111149300D01*
X225507000Y-114238000D02*
X225507000Y-113487700D01*
X224574000Y-112596000D02*
X225465700Y-113487700D01*
X225465700Y-113487700D02*
X225507000Y-113487700D01*
X221070000Y-98770000D02*
X222220300Y-98770000D01*
X222220300Y-98770000D02*
X222220300Y-99057700D01*
X222220300Y-99057700D02*
X223082900Y-99920300D01*
X223082900Y-99920300D02*
X224975300Y-99920300D01*
X224975300Y-99920300D02*
X228268000Y-103213000D01*
X229205000Y-104840000D02*
X229205000Y-104089700D01*
X229205000Y-104089700D02*
X229144700Y-104089700D01*
X229144700Y-104089700D02*
X228268000Y-103213000D01*
X221859000Y-104850000D02*
X221859000Y-104099700D01*
X220942000Y-103223000D02*
X221818700Y-104099700D01*
X221818700Y-104099700D02*
X221859000Y-104099700D01*
X214600300Y-98770000D02*
X214600300Y-99057700D01*
X214600300Y-99057700D02*
X215462900Y-99920300D01*
X215462900Y-99920300D02*
X217639300Y-99920300D01*
X217639300Y-99920300D02*
X220942000Y-103223000D01*
X213450000Y-98770000D02*
X214600300Y-98770000D01*
X215990000Y-98770000D02*
X217140300Y-98770000D01*
X217140300Y-98770000D02*
X217140300Y-98482300D01*
X217140300Y-98482300D02*
X218002900Y-97619700D01*
X218002900Y-97619700D02*
X218828800Y-97619700D01*
X218828800Y-97619700D02*
X219800000Y-96648500D01*
X219800000Y-96648500D02*
X219800000Y-95864000D01*
X219800000Y-95864000D02*
X220625800Y-95038200D01*
X220625800Y-95038200D02*
X226616200Y-95038200D01*
X226616200Y-95038200D02*
X227539600Y-95961600D01*
X227539600Y-95961600D02*
X227539600Y-96768100D01*
X227539600Y-96768100D02*
X228391100Y-97619600D01*
X228391100Y-97619600D02*
X229228100Y-97619600D01*
X229228100Y-97619600D02*
X229960000Y-98351500D01*
X229960000Y-98351500D02*
X229960000Y-100303500D01*
X229960000Y-100303500D02*
X230706200Y-101049700D01*
X230706200Y-101049700D02*
X230706200Y-134815200D01*
X230706200Y-134815200D02*
X239201000Y-143310000D01*
X226795500Y-110488700D02*
X226795500Y-132224500D01*
X226795500Y-132224500D02*
X215710000Y-143310000D01*
X226150000Y-98770000D02*
X226150000Y-99920300D01*
X226150000Y-99920300D02*
X229905400Y-103675700D01*
X229905400Y-103675700D02*
X229905400Y-139105600D01*
X229905400Y-139105600D02*
X225701000Y-143310000D01*
X230305800Y-142205200D02*
X229201000Y-143310000D01*
X226150000Y-97380300D02*
X226437700Y-97380300D01*
X226437700Y-97380300D02*
X227300300Y-98242900D01*
X227300300Y-98242900D02*
X227300300Y-99232900D01*
X227300300Y-99232900D02*
X230305800Y-102238400D01*
X230305800Y-102238400D02*
X230305800Y-142205200D01*
X235701000Y-143310000D02*
X231410600Y-143310000D01*
X231410600Y-143310000D02*
X230305800Y-142205200D01*
X226150000Y-96230000D02*
X226150000Y-97380300D01*
X243930000Y-98770000D02*
X243930000Y-138209000D01*
X243930000Y-138209000D02*
X249031000Y-143310000D01*
X253421000Y-109426000D02*
X253421000Y-108125700D01*
X249010000Y-98770000D02*
X249010000Y-103714700D01*
X249010000Y-103714700D02*
X253421000Y-108125700D01*
X239781000Y-106485000D02*
X239781000Y-105334700D01*
X241390000Y-98770000D02*
X241390000Y-103725700D01*
X241390000Y-103725700D02*
X239781000Y-105334700D01*
X237241000Y-106485000D02*
X237241000Y-105334700D01*
X241390000Y-96230000D02*
X241390000Y-97380300D01*
X241390000Y-97380300D02*
X241102300Y-97380300D01*
X241102300Y-97380300D02*
X240239700Y-98242900D01*
X240239700Y-98242900D02*
X240239700Y-102336000D01*
X240239700Y-102336000D02*
X237241000Y-105334700D01*
X221070000Y-96230000D02*
X221070000Y-97380300D01*
X221070000Y-97380300D02*
X220782400Y-97380300D01*
X220782400Y-97380300D02*
X219892900Y-98269800D01*
X219892900Y-98269800D02*
X219892900Y-99270400D01*
X219892900Y-99270400D02*
X222525900Y-101903400D01*
X222525900Y-101903400D02*
X223285400Y-101903400D01*
X223285400Y-101903400D02*
X224595000Y-103213000D01*
X224595000Y-103213000D02*
X224625300Y-103213000D01*
X224625300Y-103213000D02*
X225507000Y-104094700D01*
X225507000Y-104845000D02*
X225507000Y-104094700D01*
D23*
G36*
X219510741Y-95113813D02*
G01*
X219359014Y-94989294D01*
X219101034Y-94851401D01*
X218821111Y-94766487D01*
X218602950Y-94745000D01*
X218457050Y-94745000D01*
X218238889Y-94766487D01*
X217958966Y-94851401D01*
X217700986Y-94989294D01*
X217474866Y-95174866D01*
X217289294Y-95400986D01*
X217260000Y-95455791D01*
X217230706Y-95400986D01*
X217045134Y-95174866D01*
X216819014Y-94989294D01*
X216561034Y-94851401D01*
X216281111Y-94766487D01*
X216062950Y-94745000D01*
X215917050Y-94745000D01*
X215698889Y-94766487D01*
X215418966Y-94851401D01*
X215160986Y-94989294D01*
X214934866Y-95174866D01*
X214749294Y-95400986D01*
X214714799Y-95465523D01*
X214645178Y-95348645D01*
X214450269Y-95132412D01*
X214216920Y-94958359D01*
X213954099Y-94833175D01*
X213806890Y-94788524D01*
X213577000Y-94909845D01*
X213577000Y-96103000D01*
X213597000Y-96103000D01*
X213597000Y-96357000D01*
X213577000Y-96357000D01*
X213577000Y-96377000D01*
X213323000Y-96377000D01*
X213323000Y-96357000D01*
X213303000Y-96357000D01*
X213303000Y-96103000D01*
X213323000Y-96103000D01*
X213323000Y-94909845D01*
X213093110Y-94788524D01*
X212945901Y-94833175D01*
X212683080Y-94958359D01*
X212449731Y-95132412D01*
X212254822Y-95348645D01*
X212185201Y-95465523D01*
X212150706Y-95400986D01*
X211965134Y-95174866D01*
X211739014Y-94989294D01*
X211481034Y-94851401D01*
X211201111Y-94766487D01*
X210982950Y-94745000D01*
X210837050Y-94745000D01*
X210618889Y-94766487D01*
X210338966Y-94851401D01*
X210080986Y-94989294D01*
X209854866Y-95174866D01*
X209669294Y-95400986D01*
X209640000Y-95455791D01*
X209610706Y-95400986D01*
X209425134Y-95174866D01*
X209199014Y-94989294D01*
X208941034Y-94851401D01*
X208661111Y-94766487D01*
X208442950Y-94745000D01*
X208297050Y-94745000D01*
X208078889Y-94766487D01*
X207798966Y-94851401D01*
X207540986Y-94989294D01*
X207314866Y-95174866D01*
X207129294Y-95400986D01*
X206991401Y-95658966D01*
X206906487Y-95938889D01*
X206877815Y-96230000D01*
X206906487Y-96521111D01*
X206991401Y-96801034D01*
X207035719Y-96883947D01*
X207033941Y-96886113D01*
X206692508Y-97227546D01*
X206664462Y-97250563D01*
X206572613Y-97362481D01*
X206504363Y-97490168D01*
X206487598Y-97545435D01*
X206462335Y-97628715D01*
X206448144Y-97772800D01*
X206451700Y-97808905D01*
X206451701Y-102142467D01*
X206448144Y-102178582D01*
X206462335Y-102322667D01*
X206493572Y-102425638D01*
X206504364Y-102461215D01*
X206572614Y-102588902D01*
X206664463Y-102700820D01*
X206692508Y-102723836D01*
X211475385Y-107506714D01*
X211498401Y-107534759D01*
X211610319Y-107626608D01*
X211738006Y-107694858D01*
X211834525Y-107724137D01*
X211876553Y-107736886D01*
X211881620Y-107737385D01*
X211984534Y-107747521D01*
X211984541Y-107747521D01*
X212020638Y-107751076D01*
X212056735Y-107747521D01*
X213390854Y-107747521D01*
X213426959Y-107751077D01*
X213463064Y-107747521D01*
X213525586Y-107741363D01*
X213505640Y-107841637D01*
X213505640Y-108183403D01*
X213572315Y-108518601D01*
X213614092Y-108619461D01*
X209704108Y-112529446D01*
X209676063Y-112552462D01*
X209584214Y-112664380D01*
X209538907Y-112749144D01*
X209515964Y-112792067D01*
X209473935Y-112930615D01*
X209459744Y-113074700D01*
X209463301Y-113110815D01*
X209463300Y-130761153D01*
X208748996Y-131475457D01*
X208670706Y-131328986D01*
X208485134Y-131102866D01*
X208259014Y-130917294D01*
X208241626Y-130908000D01*
X208259014Y-130898706D01*
X208485134Y-130713134D01*
X208670706Y-130487014D01*
X208808599Y-130229034D01*
X208893513Y-129949111D01*
X208922185Y-129658000D01*
X208893513Y-129366889D01*
X208808599Y-129086966D01*
X208670706Y-128828986D01*
X208485134Y-128602866D01*
X208259014Y-128417294D01*
X208233278Y-128403538D01*
X208439429Y-128247049D01*
X208632496Y-128029193D01*
X208779352Y-127777858D01*
X208871476Y-127514890D01*
X208750155Y-127285000D01*
X207432000Y-127285000D01*
X207432000Y-127305000D01*
X207178000Y-127305000D01*
X207178000Y-127285000D01*
X205859845Y-127285000D01*
X205738524Y-127514890D01*
X205830648Y-127777858D01*
X205977504Y-128029193D01*
X206170571Y-128247049D01*
X206376722Y-128403538D01*
X206350986Y-128417294D01*
X206124866Y-128602866D01*
X205939294Y-128828986D01*
X205801401Y-129086966D01*
X205716487Y-129366889D01*
X205687815Y-129658000D01*
X205716487Y-129949111D01*
X205801401Y-130229034D01*
X205939294Y-130487014D01*
X206124866Y-130713134D01*
X206350986Y-130898706D01*
X206368374Y-130908000D01*
X206350986Y-130917294D01*
X206124866Y-131102866D01*
X205939294Y-131328986D01*
X205801401Y-131586966D01*
X205716487Y-131866889D01*
X205687815Y-132158000D01*
X205716487Y-132449111D01*
X205801401Y-132729034D01*
X205939294Y-132987014D01*
X206124866Y-133213134D01*
X206350986Y-133398706D01*
X206368374Y-133408000D01*
X206350986Y-133417294D01*
X206124866Y-133602866D01*
X205939294Y-133828986D01*
X205801401Y-134086966D01*
X205716487Y-134366889D01*
X205687815Y-134658000D01*
X205716487Y-134949111D01*
X205801401Y-135229034D01*
X205939294Y-135487014D01*
X206124866Y-135713134D01*
X206188337Y-135765223D01*
X206086614Y-135819595D01*
X205952038Y-135930038D01*
X205841595Y-136064614D01*
X205759528Y-136218150D01*
X205708992Y-136384746D01*
X205691928Y-136558000D01*
X205691928Y-137758000D01*
X205708992Y-137931254D01*
X205759528Y-138097850D01*
X205841595Y-138251386D01*
X205952038Y-138385962D01*
X206086614Y-138496405D01*
X206240150Y-138578472D01*
X206406746Y-138629008D01*
X206580000Y-138646072D01*
X208030000Y-138646072D01*
X208203254Y-138629008D01*
X208369850Y-138578472D01*
X208523386Y-138496405D01*
X208657962Y-138385962D01*
X208768405Y-138251386D01*
X208850472Y-138097850D01*
X208901008Y-137931254D01*
X208918072Y-137758000D01*
X208918072Y-136584374D01*
X218808193Y-126694254D01*
X218836238Y-126671238D01*
X218928087Y-126559320D01*
X218996337Y-126431633D01*
X219038365Y-126293085D01*
X219049000Y-126185105D01*
X219049000Y-126185098D01*
X219052555Y-126149001D01*
X219049000Y-126112904D01*
X219049000Y-119362000D01*
X223881895Y-119362000D01*
X223918000Y-119365556D01*
X223954105Y-119362000D01*
X224062085Y-119351365D01*
X224200633Y-119309337D01*
X224328320Y-119241087D01*
X224440238Y-119149238D01*
X224463258Y-119121188D01*
X224620374Y-118964072D01*
X224686500Y-118964072D01*
X224839757Y-118948977D01*
X224987125Y-118904274D01*
X225122940Y-118831679D01*
X225241983Y-118733983D01*
X225339679Y-118614940D01*
X225412274Y-118479125D01*
X225456977Y-118331757D01*
X225472072Y-118178500D01*
X225472072Y-117833500D01*
X225456977Y-117680243D01*
X225412274Y-117532875D01*
X225339679Y-117397060D01*
X225274000Y-117317030D01*
X225274000Y-117238578D01*
X225311494Y-117218537D01*
X225408185Y-117139185D01*
X225487537Y-117042494D01*
X225546502Y-116932180D01*
X225582812Y-116812482D01*
X225595072Y-116688000D01*
X225595072Y-115788000D01*
X225582812Y-115663518D01*
X225546502Y-115543820D01*
X225487537Y-115433506D01*
X225408185Y-115336815D01*
X225395095Y-115326072D01*
X225907000Y-115326072D01*
X226031482Y-115313812D01*
X226060500Y-115305009D01*
X226060501Y-131920052D01*
X216226376Y-141754178D01*
X216186912Y-141737832D01*
X215871033Y-141675000D01*
X215548967Y-141675000D01*
X215233088Y-141737832D01*
X214935537Y-141861082D01*
X214667748Y-142040013D01*
X214440013Y-142267748D01*
X214261082Y-142535537D01*
X214137832Y-142833088D01*
X214075000Y-143148967D01*
X214075000Y-143471033D01*
X214137832Y-143786912D01*
X214261082Y-144084463D01*
X214440013Y-144352252D01*
X214667748Y-144579987D01*
X214935537Y-144758918D01*
X215233088Y-144882168D01*
X215548967Y-144945000D01*
X215871033Y-144945000D01*
X216186912Y-144882168D01*
X216484463Y-144758918D01*
X216752252Y-144579987D01*
X216979987Y-144352252D01*
X217158918Y-144084463D01*
X217282168Y-143786912D01*
X217345000Y-143471033D01*
X217345000Y-143148967D01*
X217566000Y-143148967D01*
X217566000Y-143471033D01*
X217628832Y-143786912D01*
X217752082Y-144084463D01*
X217931013Y-144352252D01*
X218158748Y-144579987D01*
X218426537Y-144758918D01*
X218724088Y-144882168D01*
X219039967Y-144945000D01*
X219362033Y-144945000D01*
X219677912Y-144882168D01*
X219975463Y-144758918D01*
X220243252Y-144579987D01*
X220470987Y-144352252D01*
X220649918Y-144084463D01*
X220773168Y-143786912D01*
X220836000Y-143471033D01*
X220836000Y-143148967D01*
X220773168Y-142833088D01*
X220649918Y-142535537D01*
X220470987Y-142267748D01*
X220243252Y-142040013D01*
X219975463Y-141861082D01*
X219677912Y-141737832D01*
X219362033Y-141675000D01*
X219039967Y-141675000D01*
X218724088Y-141737832D01*
X218426537Y-141861082D01*
X218158748Y-142040013D01*
X217931013Y-142267748D01*
X217752082Y-142535537D01*
X217628832Y-142833088D01*
X217566000Y-143148967D01*
X217345000Y-143148967D01*
X217282168Y-142833088D01*
X217265822Y-142793624D01*
X227289693Y-132769754D01*
X227317738Y-132746738D01*
X227409587Y-132634820D01*
X227477837Y-132507133D01*
X227519865Y-132368585D01*
X227530500Y-132260605D01*
X227530500Y-132260596D01*
X227534055Y-132224501D01*
X227530500Y-132188406D01*
X227530500Y-111288122D01*
X227638275Y-111180347D01*
X227757015Y-111002640D01*
X227838804Y-110805183D01*
X227880500Y-110595563D01*
X227880500Y-110473400D01*
X228060195Y-110473400D01*
X228096300Y-110476956D01*
X228132405Y-110473400D01*
X228240385Y-110462765D01*
X228378933Y-110420737D01*
X228506620Y-110352487D01*
X228618538Y-110260638D01*
X228641558Y-110232588D01*
X229170400Y-109703746D01*
X229170401Y-138801152D01*
X226217375Y-141754178D01*
X226177912Y-141737832D01*
X225862033Y-141675000D01*
X225539967Y-141675000D01*
X225224088Y-141737832D01*
X224926537Y-141861082D01*
X224658748Y-142040013D01*
X224431013Y-142267748D01*
X224252082Y-142535537D01*
X224128832Y-142833088D01*
X224066000Y-143148967D01*
X224066000Y-143471033D01*
X224128832Y-143786912D01*
X224252082Y-144084463D01*
X224431013Y-144352252D01*
X224658748Y-144579987D01*
X224926537Y-144758918D01*
X225224088Y-144882168D01*
X225539967Y-144945000D01*
X225862033Y-144945000D01*
X226177912Y-144882168D01*
X226475463Y-144758918D01*
X226743252Y-144579987D01*
X226970987Y-144352252D01*
X227149918Y-144084463D01*
X227273168Y-143786912D01*
X227336000Y-143471033D01*
X227336000Y-143148967D01*
X227273168Y-142833088D01*
X227256822Y-142793625D01*
X229570801Y-140479646D01*
X229570801Y-141716526D01*
X229362033Y-141675000D01*
X229039967Y-141675000D01*
X228724088Y-141737832D01*
X228426537Y-141861082D01*
X228158748Y-142040013D01*
X227931013Y-142267748D01*
X227752082Y-142535537D01*
X227628832Y-142833088D01*
X227566000Y-143148967D01*
X227566000Y-143471033D01*
X227628832Y-143786912D01*
X227752082Y-144084463D01*
X227931013Y-144352252D01*
X228158748Y-144579987D01*
X228426537Y-144758918D01*
X228724088Y-144882168D01*
X229039967Y-144945000D01*
X229362033Y-144945000D01*
X229677912Y-144882168D01*
X229975463Y-144758918D01*
X230243252Y-144579987D01*
X230470987Y-144352252D01*
X230649918Y-144084463D01*
X230773168Y-143786912D01*
X230785594Y-143724441D01*
X230865346Y-143804193D01*
X230888362Y-143832238D01*
X231000280Y-143924087D01*
X231127967Y-143992337D01*
X231224486Y-144021616D01*
X231266514Y-144034365D01*
X231280732Y-144035765D01*
X231374495Y-144045000D01*
X231374502Y-144045000D01*
X231410599Y-144048555D01*
X231446696Y-144045000D01*
X234235736Y-144045000D01*
X234252082Y-144084463D01*
X234431013Y-144352252D01*
X234658748Y-144579987D01*
X234926537Y-144758918D01*
X235224088Y-144882168D01*
X235539967Y-144945000D01*
X235862033Y-144945000D01*
X236177912Y-144882168D01*
X236475463Y-144758918D01*
X236743252Y-144579987D01*
X236970987Y-144352252D01*
X237149918Y-144084463D01*
X237273168Y-143786912D01*
X237336000Y-143471033D01*
X237336000Y-143148967D01*
X237273168Y-142833088D01*
X237149918Y-142535537D01*
X236970987Y-142267748D01*
X236743252Y-142040013D01*
X236475463Y-141861082D01*
X236177912Y-141737832D01*
X235862033Y-141675000D01*
X235539967Y-141675000D01*
X235224088Y-141737832D01*
X234926537Y-141861082D01*
X234658748Y-142040013D01*
X234431013Y-142267748D01*
X234252082Y-142535537D01*
X234235736Y-142575000D01*
X231715047Y-142575000D01*
X231040800Y-141900754D01*
X231040800Y-136189246D01*
X237645178Y-142793625D01*
X237628832Y-142833088D01*
X237566000Y-143148967D01*
X237566000Y-143471033D01*
X237628832Y-143786912D01*
X237752082Y-144084463D01*
X237931013Y-144352252D01*
X238158748Y-144579987D01*
X238426537Y-144758918D01*
X238724088Y-144882168D01*
X239039967Y-144945000D01*
X239362033Y-144945000D01*
X239677912Y-144882168D01*
X239975463Y-144758918D01*
X240243252Y-144579987D01*
X240470987Y-144352252D01*
X240649918Y-144084463D01*
X240773168Y-143786912D01*
X240836000Y-143471033D01*
X240836000Y-143148967D01*
X240773168Y-142833088D01*
X240649918Y-142535537D01*
X240470987Y-142267748D01*
X240243252Y-142040013D01*
X239975463Y-141861082D01*
X239677912Y-141737832D01*
X239362033Y-141675000D01*
X239039967Y-141675000D01*
X238724088Y-141737832D01*
X238684625Y-141754178D01*
X231441200Y-134510754D01*
X231441200Y-107972363D01*
X231875250Y-107970000D01*
X232034000Y-107811250D01*
X232034000Y-106612000D01*
X232014000Y-106612000D01*
X232014000Y-106358000D01*
X232034000Y-106358000D01*
X232034000Y-105158750D01*
X231875250Y-105000000D01*
X231441200Y-104997637D01*
X231441200Y-101085796D01*
X231444755Y-101049699D01*
X231441200Y-101013602D01*
X231441200Y-101013595D01*
X231430565Y-100905615D01*
X231388537Y-100767067D01*
X231320287Y-100639380D01*
X231303714Y-100619187D01*
X231251453Y-100555506D01*
X231251450Y-100555503D01*
X231228437Y-100527462D01*
X231200397Y-100504450D01*
X230925354Y-100229407D01*
X230938889Y-100233513D01*
X231157050Y-100255000D01*
X231302950Y-100255000D01*
X231521111Y-100233513D01*
X231801034Y-100148599D01*
X232059014Y-100010706D01*
X232285134Y-99825134D01*
X232470706Y-99599014D01*
X232500000Y-99544209D01*
X232529294Y-99599014D01*
X232714866Y-99825134D01*
X232940986Y-100010706D01*
X233198966Y-100148599D01*
X233478889Y-100233513D01*
X233697050Y-100255000D01*
X233842950Y-100255000D01*
X234061111Y-100233513D01*
X234341034Y-100148599D01*
X234599014Y-100010706D01*
X234825134Y-99825134D01*
X235010706Y-99599014D01*
X235040000Y-99544209D01*
X235069294Y-99599014D01*
X235254866Y-99825134D01*
X235480986Y-100010706D01*
X235738966Y-100148599D01*
X236018889Y-100233513D01*
X236237050Y-100255000D01*
X236382950Y-100255000D01*
X236601111Y-100233513D01*
X236881034Y-100148599D01*
X237139014Y-100010706D01*
X237365134Y-99825134D01*
X237550706Y-99599014D01*
X237585201Y-99534477D01*
X237654822Y-99651355D01*
X237849731Y-99867588D01*
X238083080Y-100041641D01*
X238345901Y-100166825D01*
X238493110Y-100211476D01*
X238723000Y-100090155D01*
X238723000Y-98897000D01*
X238703000Y-98897000D01*
X238703000Y-98643000D01*
X238723000Y-98643000D01*
X238723000Y-98623000D01*
X238977000Y-98623000D01*
X238977000Y-98643000D01*
X238997000Y-98643000D01*
X238997000Y-98897000D01*
X238977000Y-98897000D01*
X238977000Y-100090155D01*
X239206890Y-100211476D01*
X239354099Y-100166825D01*
X239504700Y-100095092D01*
X239504701Y-102031552D01*
X236746808Y-104789446D01*
X236718763Y-104812462D01*
X236626914Y-104924380D01*
X236583053Y-105006439D01*
X236558664Y-105052067D01*
X236517452Y-105187921D01*
X236411986Y-105244294D01*
X236185866Y-105429866D01*
X236000294Y-105655986D01*
X235971000Y-105710791D01*
X235941706Y-105655986D01*
X235756134Y-105429866D01*
X235530014Y-105244294D01*
X235272034Y-105106401D01*
X234992111Y-105021487D01*
X234773950Y-105000000D01*
X234628050Y-105000000D01*
X234409889Y-105021487D01*
X234129966Y-105106401D01*
X233871986Y-105244294D01*
X233645866Y-105429866D01*
X233621393Y-105459687D01*
X233600502Y-105390820D01*
X233541537Y-105280506D01*
X233462185Y-105183815D01*
X233365494Y-105104463D01*
X233255180Y-105045498D01*
X233135482Y-105009188D01*
X233011000Y-104996928D01*
X232446750Y-105000000D01*
X232288000Y-105158750D01*
X232288000Y-106358000D01*
X232308000Y-106358000D01*
X232308000Y-106612000D01*
X232288000Y-106612000D01*
X232288000Y-107811250D01*
X232446750Y-107970000D01*
X233011000Y-107973072D01*
X233135482Y-107960812D01*
X233255180Y-107924502D01*
X233365494Y-107865537D01*
X233462185Y-107786185D01*
X233541537Y-107689494D01*
X233600502Y-107579180D01*
X233621393Y-107510313D01*
X233645866Y-107540134D01*
X233871986Y-107725706D01*
X234129966Y-107863599D01*
X234409889Y-107948513D01*
X234628050Y-107970000D01*
X234773950Y-107970000D01*
X234992111Y-107948513D01*
X235272034Y-107863599D01*
X235530014Y-107725706D01*
X235756134Y-107540134D01*
X235941706Y-107314014D01*
X235971000Y-107259209D01*
X236000294Y-107314014D01*
X236185866Y-107540134D01*
X236411986Y-107725706D01*
X236669966Y-107863599D01*
X236949889Y-107948513D01*
X237168050Y-107970000D01*
X237313950Y-107970000D01*
X237532111Y-107948513D01*
X237812034Y-107863599D01*
X238070014Y-107725706D01*
X238296134Y-107540134D01*
X238481706Y-107314014D01*
X238511000Y-107259209D01*
X238540294Y-107314014D01*
X238725866Y-107540134D01*
X238951986Y-107725706D01*
X239209966Y-107863599D01*
X239489889Y-107948513D01*
X239708050Y-107970000D01*
X239853950Y-107970000D01*
X240072111Y-107948513D01*
X240352034Y-107863599D01*
X240610014Y-107725706D01*
X240836134Y-107540134D01*
X241021706Y-107314014D01*
X241159599Y-107056034D01*
X241244513Y-106776111D01*
X241273185Y-106485000D01*
X241244513Y-106193889D01*
X241159599Y-105913966D01*
X241021706Y-105655986D01*
X240836134Y-105429866D01*
X240775248Y-105379898D01*
X241884193Y-104270954D01*
X241912238Y-104247938D01*
X242004087Y-104136020D01*
X242011969Y-104121274D01*
X242072337Y-104008334D01*
X242114365Y-103869785D01*
X242128556Y-103725700D01*
X242125000Y-103689595D01*
X242125000Y-100060957D01*
X242219014Y-100010706D01*
X242445134Y-99825134D01*
X242630706Y-99599014D01*
X242660000Y-99544209D01*
X242689294Y-99599014D01*
X242874866Y-99825134D01*
X243100986Y-100010706D01*
X243195000Y-100060957D01*
X243195001Y-138172885D01*
X243191444Y-138209000D01*
X243205635Y-138353085D01*
X243226924Y-138423263D01*
X243247664Y-138491633D01*
X243315914Y-138619320D01*
X243407763Y-138731238D01*
X243435808Y-138754254D01*
X246677899Y-141996345D01*
X246475463Y-141861082D01*
X246177912Y-141737832D01*
X245862033Y-141675000D01*
X245539967Y-141675000D01*
X245224088Y-141737832D01*
X244926537Y-141861082D01*
X244658748Y-142040013D01*
X244431013Y-142267748D01*
X244252082Y-142535537D01*
X244128832Y-142833088D01*
X244066000Y-143148967D01*
X244066000Y-143471033D01*
X244128832Y-143786912D01*
X244252082Y-144084463D01*
X244431013Y-144352252D01*
X244658748Y-144579987D01*
X244926537Y-144758918D01*
X245224088Y-144882168D01*
X245539967Y-144945000D01*
X245862033Y-144945000D01*
X246177912Y-144882168D01*
X246475463Y-144758918D01*
X246743252Y-144579987D01*
X246970987Y-144352252D01*
X247149918Y-144084463D01*
X247273168Y-143786912D01*
X247336000Y-143471033D01*
X247336000Y-143148967D01*
X247273168Y-142833088D01*
X247149918Y-142535537D01*
X247014655Y-142333102D01*
X247475178Y-142793625D01*
X247458832Y-142833088D01*
X247396000Y-143148967D01*
X247396000Y-143471033D01*
X247458832Y-143786912D01*
X247582082Y-144084463D01*
X247761013Y-144352252D01*
X247988748Y-144579987D01*
X248256537Y-144758918D01*
X248554088Y-144882168D01*
X248869967Y-144945000D01*
X249192033Y-144945000D01*
X249507912Y-144882168D01*
X249805463Y-144758918D01*
X250073252Y-144579987D01*
X250300987Y-144352252D01*
X250479918Y-144084463D01*
X250603168Y-143786912D01*
X250666000Y-143471033D01*
X250666000Y-143148967D01*
X253896000Y-143148967D01*
X253896000Y-143471033D01*
X253958832Y-143786912D01*
X254082082Y-144084463D01*
X254261013Y-144352252D01*
X254488748Y-144579987D01*
X254756537Y-144758918D01*
X255054088Y-144882168D01*
X255369967Y-144945000D01*
X255692033Y-144945000D01*
X256007912Y-144882168D01*
X256305463Y-144758918D01*
X256573252Y-144579987D01*
X256800987Y-144352252D01*
X256979918Y-144084463D01*
X257103168Y-143786912D01*
X257166000Y-143471033D01*
X257166000Y-143148967D01*
X257103168Y-142833088D01*
X256979918Y-142535537D01*
X256800987Y-142267748D01*
X256573252Y-142040013D01*
X256305463Y-141861082D01*
X256007912Y-141737832D01*
X255692033Y-141675000D01*
X255369967Y-141675000D01*
X255054088Y-141737832D01*
X254756537Y-141861082D01*
X254488748Y-142040013D01*
X254261013Y-142267748D01*
X254082082Y-142535537D01*
X253958832Y-142833088D01*
X253896000Y-143148967D01*
X250666000Y-143148967D01*
X250603168Y-142833088D01*
X250479918Y-142535537D01*
X250300987Y-142267748D01*
X250073252Y-142040013D01*
X249805463Y-141861082D01*
X249507912Y-141737832D01*
X249192033Y-141675000D01*
X248869967Y-141675000D01*
X248554088Y-141737832D01*
X248514625Y-141754178D01*
X244665000Y-137904554D01*
X244665000Y-100060957D01*
X244759014Y-100010706D01*
X244985134Y-99825134D01*
X245170706Y-99599014D01*
X245200000Y-99544209D01*
X245229294Y-99599014D01*
X245414866Y-99825134D01*
X245640986Y-100010706D01*
X245898966Y-100148599D01*
X246178889Y-100233513D01*
X246397050Y-100255000D01*
X246542950Y-100255000D01*
X246761111Y-100233513D01*
X247041034Y-100148599D01*
X247299014Y-100010706D01*
X247525134Y-99825134D01*
X247710706Y-99599014D01*
X247740000Y-99544209D01*
X247769294Y-99599014D01*
X247954866Y-99825134D01*
X248180986Y-100010706D01*
X248275000Y-100060958D01*
X248275001Y-103678585D01*
X248271444Y-103714700D01*
X248285635Y-103858785D01*
X248315901Y-103958555D01*
X248327664Y-103997333D01*
X248395914Y-104125020D01*
X248487763Y-104236938D01*
X248515808Y-104259954D01*
X252121774Y-107865921D01*
X252066506Y-107895463D01*
X251969815Y-107974815D01*
X251890463Y-108071506D01*
X251831498Y-108181820D01*
X251795188Y-108301518D01*
X251782928Y-108426000D01*
X251782928Y-110426000D01*
X251795188Y-110550482D01*
X251831498Y-110670180D01*
X251890463Y-110780494D01*
X251969815Y-110877185D01*
X252066506Y-110956537D01*
X252176820Y-111015502D01*
X252296518Y-111051812D01*
X252421000Y-111064072D01*
X254421000Y-111064072D01*
X254545482Y-111051812D01*
X254665180Y-111015502D01*
X254775494Y-110956537D01*
X254872185Y-110877185D01*
X254951537Y-110780494D01*
X255010502Y-110670180D01*
X255043496Y-110561413D01*
X260065192Y-110561413D01*
X260160956Y-110825814D01*
X260450571Y-110966704D01*
X260762108Y-111048384D01*
X261083595Y-111067718D01*
X261402675Y-111023961D01*
X261707088Y-110918795D01*
X261881044Y-110825814D01*
X261976808Y-110561413D01*
X261021000Y-109605605D01*
X260065192Y-110561413D01*
X255043496Y-110561413D01*
X255046812Y-110550482D01*
X255059072Y-110426000D01*
X255059072Y-109488595D01*
X259379282Y-109488595D01*
X259423039Y-109807675D01*
X259528205Y-110112088D01*
X259621186Y-110286044D01*
X259885587Y-110381808D01*
X260841395Y-109426000D01*
X261200605Y-109426000D01*
X262156413Y-110381808D01*
X262420814Y-110286044D01*
X262561704Y-109996429D01*
X262643384Y-109684892D01*
X262662718Y-109363405D01*
X262618961Y-109044325D01*
X262513795Y-108739912D01*
X262420814Y-108565956D01*
X262156413Y-108470192D01*
X261200605Y-109426000D01*
X260841395Y-109426000D01*
X259885587Y-108470192D01*
X259621186Y-108565956D01*
X259480296Y-108855571D01*
X259398616Y-109167108D01*
X259379282Y-109488595D01*
X255059072Y-109488595D01*
X255059072Y-108426000D01*
X255046812Y-108301518D01*
X255043497Y-108290587D01*
X260065192Y-108290587D01*
X261021000Y-109246395D01*
X261976808Y-108290587D01*
X261881044Y-108026186D01*
X261591429Y-107885296D01*
X261279892Y-107803616D01*
X260958405Y-107784282D01*
X260639325Y-107828039D01*
X260334912Y-107933205D01*
X260160956Y-108026186D01*
X260065192Y-108290587D01*
X255043497Y-108290587D01*
X255010502Y-108181820D01*
X254951537Y-108071506D01*
X254872185Y-107974815D01*
X254775494Y-107895463D01*
X254665180Y-107836498D01*
X254545482Y-107800188D01*
X254421000Y-107787928D01*
X254073865Y-107787928D01*
X254035087Y-107715380D01*
X253943238Y-107603462D01*
X253915193Y-107580446D01*
X249745000Y-103410254D01*
X249745000Y-100060957D01*
X249839014Y-100010706D01*
X250065134Y-99825134D01*
X250250706Y-99599014D01*
X250280000Y-99544209D01*
X250309294Y-99599014D01*
X250494866Y-99825134D01*
X250720986Y-100010706D01*
X250978966Y-100148599D01*
X251258889Y-100233513D01*
X251477050Y-100255000D01*
X251622950Y-100255000D01*
X251841111Y-100233513D01*
X252121034Y-100148599D01*
X252379014Y-100010706D01*
X252605134Y-99825134D01*
X252790706Y-99599014D01*
X252820000Y-99544209D01*
X252849294Y-99599014D01*
X253034866Y-99825134D01*
X253260986Y-100010706D01*
X253518966Y-100148599D01*
X253798889Y-100233513D01*
X254017050Y-100255000D01*
X254162950Y-100255000D01*
X254381111Y-100233513D01*
X254661034Y-100148599D01*
X254919014Y-100010706D01*
X255145134Y-99825134D01*
X255330706Y-99599014D01*
X255365201Y-99534477D01*
X255434822Y-99651355D01*
X255629731Y-99867588D01*
X255863080Y-100041641D01*
X256125901Y-100166825D01*
X256273110Y-100211476D01*
X256503000Y-100090155D01*
X256503000Y-98897000D01*
X256757000Y-98897000D01*
X256757000Y-100090155D01*
X256986890Y-100211476D01*
X257134099Y-100166825D01*
X257396920Y-100041641D01*
X257630269Y-99867588D01*
X257825178Y-99651355D01*
X257974157Y-99401252D01*
X258071481Y-99126891D01*
X257950814Y-98897000D01*
X256757000Y-98897000D01*
X256503000Y-98897000D01*
X256483000Y-98897000D01*
X256483000Y-98643000D01*
X256503000Y-98643000D01*
X256503000Y-98623000D01*
X256757000Y-98623000D01*
X256757000Y-98643000D01*
X257950814Y-98643000D01*
X258071481Y-98413109D01*
X257974157Y-98138748D01*
X257825178Y-97888645D01*
X257630269Y-97672412D01*
X257401244Y-97501584D01*
X257459014Y-97470706D01*
X257661542Y-97304495D01*
X259515000Y-97304495D01*
X259515000Y-97695505D01*
X259591282Y-98079003D01*
X259740915Y-98440250D01*
X259958149Y-98765364D01*
X260234636Y-99041851D01*
X260559750Y-99259085D01*
X260920997Y-99408718D01*
X261304495Y-99485000D01*
X261695505Y-99485000D01*
X262079003Y-99408718D01*
X262440250Y-99259085D01*
X262765364Y-99041851D01*
X263041851Y-98765364D01*
X263259085Y-98440250D01*
X263408718Y-98079003D01*
X263485000Y-97695505D01*
X263485000Y-97304495D01*
X263408718Y-96920997D01*
X263259085Y-96559750D01*
X263041851Y-96234636D01*
X262765364Y-95958149D01*
X262440250Y-95740915D01*
X262079003Y-95591282D01*
X261695505Y-95515000D01*
X261304495Y-95515000D01*
X260920997Y-95591282D01*
X260559750Y-95740915D01*
X260234636Y-95958149D01*
X259958149Y-96234636D01*
X259740915Y-96559750D01*
X259591282Y-96920997D01*
X259515000Y-97304495D01*
X257661542Y-97304495D01*
X257685134Y-97285134D01*
X257870706Y-97059014D01*
X258008599Y-96801034D01*
X258093513Y-96521111D01*
X258122185Y-96230000D01*
X258093513Y-95938889D01*
X258008599Y-95658966D01*
X257870706Y-95400986D01*
X257685134Y-95174866D01*
X257459014Y-94989294D01*
X257201034Y-94851401D01*
X256921111Y-94766487D01*
X256702950Y-94745000D01*
X256557050Y-94745000D01*
X256338889Y-94766487D01*
X256058966Y-94851401D01*
X255800986Y-94989294D01*
X255574866Y-95174866D01*
X255389294Y-95400986D01*
X255360000Y-95455791D01*
X255330706Y-95400986D01*
X255145134Y-95174866D01*
X254919014Y-94989294D01*
X254661034Y-94851401D01*
X254381111Y-94766487D01*
X254162950Y-94745000D01*
X254017050Y-94745000D01*
X253798889Y-94766487D01*
X253518966Y-94851401D01*
X253260986Y-94989294D01*
X253034866Y-95174866D01*
X252849294Y-95400986D01*
X252820000Y-95455791D01*
X252790706Y-95400986D01*
X252605134Y-95174866D01*
X252379014Y-94989294D01*
X252121034Y-94851401D01*
X251841111Y-94766487D01*
X251622950Y-94745000D01*
X251477050Y-94745000D01*
X251258889Y-94766487D01*
X250978966Y-94851401D01*
X250720986Y-94989294D01*
X250494866Y-95174866D01*
X250309294Y-95400986D01*
X250274799Y-95465523D01*
X250205178Y-95348645D01*
X250010269Y-95132412D01*
X249776920Y-94958359D01*
X249514099Y-94833175D01*
X249366890Y-94788524D01*
X249137000Y-94909845D01*
X249137000Y-96103000D01*
X249157000Y-96103000D01*
X249157000Y-96357000D01*
X249137000Y-96357000D01*
X249137000Y-96377000D01*
X248883000Y-96377000D01*
X248883000Y-96357000D01*
X248863000Y-96357000D01*
X248863000Y-96103000D01*
X248883000Y-96103000D01*
X248883000Y-94909845D01*
X248653110Y-94788524D01*
X248505901Y-94833175D01*
X248243080Y-94958359D01*
X248009731Y-95132412D01*
X247814822Y-95348645D01*
X247745201Y-95465523D01*
X247710706Y-95400986D01*
X247525134Y-95174866D01*
X247299014Y-94989294D01*
X247041034Y-94851401D01*
X246761111Y-94766487D01*
X246542950Y-94745000D01*
X246397050Y-94745000D01*
X246178889Y-94766487D01*
X245898966Y-94851401D01*
X245640986Y-94989294D01*
X245414866Y-95174866D01*
X245229294Y-95400986D01*
X245194799Y-95465523D01*
X245125178Y-95348645D01*
X244930269Y-95132412D01*
X244696920Y-94958359D01*
X244434099Y-94833175D01*
X244286890Y-94788524D01*
X244057000Y-94909845D01*
X244057000Y-96103000D01*
X244077000Y-96103000D01*
X244077000Y-96357000D01*
X244057000Y-96357000D01*
X244057000Y-96377000D01*
X243803000Y-96377000D01*
X243803000Y-96357000D01*
X243783000Y-96357000D01*
X243783000Y-96103000D01*
X243803000Y-96103000D01*
X243803000Y-94909845D01*
X243573110Y-94788524D01*
X243425901Y-94833175D01*
X243163080Y-94958359D01*
X242929731Y-95132412D01*
X242734822Y-95348645D01*
X242665201Y-95465523D01*
X242630706Y-95400986D01*
X242445134Y-95174866D01*
X242219014Y-94989294D01*
X241961034Y-94851401D01*
X241681111Y-94766487D01*
X241462950Y-94745000D01*
X241317050Y-94745000D01*
X241098889Y-94766487D01*
X240818966Y-94851401D01*
X240560986Y-94989294D01*
X240334866Y-95174866D01*
X240149294Y-95400986D01*
X240120000Y-95455791D01*
X240090706Y-95400986D01*
X239905134Y-95174866D01*
X239679014Y-94989294D01*
X239421034Y-94851401D01*
X239141111Y-94766487D01*
X238922950Y-94745000D01*
X238777050Y-94745000D01*
X238558889Y-94766487D01*
X238278966Y-94851401D01*
X238020986Y-94989294D01*
X237794866Y-95174866D01*
X237609294Y-95400986D01*
X237580000Y-95455791D01*
X237550706Y-95400986D01*
X237365134Y-95174866D01*
X237139014Y-94989294D01*
X236881034Y-94851401D01*
X236601111Y-94766487D01*
X236382950Y-94745000D01*
X236237050Y-94745000D01*
X236018889Y-94766487D01*
X235738966Y-94851401D01*
X235480986Y-94989294D01*
X235254866Y-95174866D01*
X235069294Y-95400986D01*
X235040000Y-95455791D01*
X235010706Y-95400986D01*
X234825134Y-95174866D01*
X234599014Y-94989294D01*
X234341034Y-94851401D01*
X234061111Y-94766487D01*
X233842950Y-94745000D01*
X233697050Y-94745000D01*
X233478889Y-94766487D01*
X233198966Y-94851401D01*
X232940986Y-94989294D01*
X232714866Y-95174866D01*
X232529294Y-95400986D01*
X232494799Y-95465523D01*
X232425178Y-95348645D01*
X232230269Y-95132412D01*
X231996920Y-94958359D01*
X231734099Y-94833175D01*
X231586890Y-94788524D01*
X231357000Y-94909845D01*
X231357000Y-96103000D01*
X231377000Y-96103000D01*
X231377000Y-96357000D01*
X231357000Y-96357000D01*
X231357000Y-96377000D01*
X231103000Y-96377000D01*
X231103000Y-96357000D01*
X231083000Y-96357000D01*
X231083000Y-96103000D01*
X231103000Y-96103000D01*
X231103000Y-94909845D01*
X230873110Y-94788524D01*
X230725901Y-94833175D01*
X230463080Y-94958359D01*
X230229731Y-95132412D01*
X230034822Y-95348645D01*
X229965201Y-95465523D01*
X229930706Y-95400986D01*
X229745134Y-95174866D01*
X229519014Y-94989294D01*
X229261034Y-94851401D01*
X228981111Y-94766487D01*
X228762950Y-94745000D01*
X228617050Y-94745000D01*
X228398889Y-94766487D01*
X228118966Y-94851401D01*
X227860986Y-94989294D01*
X227721343Y-95103896D01*
X227302446Y-94685000D01*
X261966495Y-94685000D01*
X262449016Y-94732312D01*
X262560199Y-94765880D01*
X264234059Y-96436828D01*
X264264498Y-96535161D01*
X264315001Y-97015663D01*
X264315000Y-146966495D01*
X264267688Y-147449016D01*
X264236442Y-147552509D01*
X262521198Y-149247052D01*
X262464834Y-149264500D01*
X261984346Y-149315000D01*
X256181759Y-149315000D01*
X256217088Y-149302795D01*
X256391044Y-149209814D01*
X256486808Y-148945413D01*
X255531000Y-147989605D01*
X254575192Y-148945413D01*
X254670956Y-149209814D01*
X254887177Y-149315000D01*
X249681759Y-149315000D01*
X249717088Y-149302795D01*
X249891044Y-149209814D01*
X249986808Y-148945413D01*
X249031000Y-147989605D01*
X248075192Y-148945413D01*
X248170956Y-149209814D01*
X248387177Y-149315000D01*
X246351759Y-149315000D01*
X246387088Y-149302795D01*
X246561044Y-149209814D01*
X246656808Y-148945413D01*
X245701000Y-147989605D01*
X244745192Y-148945413D01*
X244840956Y-149209814D01*
X245057177Y-149315000D01*
X239851759Y-149315000D01*
X239887088Y-149302795D01*
X240061044Y-149209814D01*
X240156808Y-148945413D01*
X239201000Y-147989605D01*
X238245192Y-148945413D01*
X238340956Y-149209814D01*
X238557177Y-149315000D01*
X236351759Y-149315000D01*
X236387088Y-149302795D01*
X236561044Y-149209814D01*
X236656808Y-148945413D01*
X235701000Y-147989605D01*
X234745192Y-148945413D01*
X234840956Y-149209814D01*
X235057177Y-149315000D01*
X229851759Y-149315000D01*
X229887088Y-149302795D01*
X230061044Y-149209814D01*
X230156808Y-148945413D01*
X229201000Y-147989605D01*
X228245192Y-148945413D01*
X228340956Y-149209814D01*
X228557177Y-149315000D01*
X226351759Y-149315000D01*
X226387088Y-149302795D01*
X226561044Y-149209814D01*
X226656808Y-148945413D01*
X225701000Y-147989605D01*
X224745192Y-148945413D01*
X224840956Y-149209814D01*
X225057177Y-149315000D01*
X219851759Y-149315000D01*
X219887088Y-149302795D01*
X220061044Y-149209814D01*
X220156808Y-148945413D01*
X219201000Y-147989605D01*
X218245192Y-148945413D01*
X218340956Y-149209814D01*
X218557177Y-149315000D01*
X216360759Y-149315000D01*
X216396088Y-149302795D01*
X216570044Y-149209814D01*
X216665808Y-148945413D01*
X215710000Y-147989605D01*
X214754192Y-148945413D01*
X214849956Y-149209814D01*
X215066177Y-149315000D01*
X209860759Y-149315000D01*
X209896088Y-149302795D01*
X210070044Y-149209814D01*
X210165808Y-148945413D01*
X209210000Y-147989605D01*
X208254192Y-148945413D01*
X208349956Y-149209814D01*
X208566177Y-149315000D01*
X203033504Y-149315000D01*
X202550984Y-149267688D01*
X202444013Y-149235392D01*
X200755390Y-147529086D01*
X200735500Y-147464834D01*
X200685000Y-146984346D01*
X200685000Y-146304495D01*
X201515000Y-146304495D01*
X201515000Y-146695505D01*
X201591282Y-147079003D01*
X201740915Y-147440250D01*
X201958149Y-147765364D01*
X202234636Y-148041851D01*
X202559750Y-148259085D01*
X202920997Y-148408718D01*
X203304495Y-148485000D01*
X203695505Y-148485000D01*
X204079003Y-148408718D01*
X204440250Y-148259085D01*
X204765364Y-148041851D01*
X204934620Y-147872595D01*
X207568282Y-147872595D01*
X207612039Y-148191675D01*
X207717205Y-148496088D01*
X207810186Y-148670044D01*
X208074587Y-148765808D01*
X209030395Y-147810000D01*
X209389605Y-147810000D01*
X210345413Y-148765808D01*
X210609814Y-148670044D01*
X210750704Y-148380429D01*
X210832384Y-148068892D01*
X210844189Y-147872595D01*
X214068282Y-147872595D01*
X214112039Y-148191675D01*
X214217205Y-148496088D01*
X214310186Y-148670044D01*
X214574587Y-148765808D01*
X215530395Y-147810000D01*
X215889605Y-147810000D01*
X216845413Y-148765808D01*
X217109814Y-148670044D01*
X217250704Y-148380429D01*
X217332384Y-148068892D01*
X217344189Y-147872595D01*
X217559282Y-147872595D01*
X217603039Y-148191675D01*
X217708205Y-148496088D01*
X217801186Y-148670044D01*
X218065587Y-148765808D01*
X219021395Y-147810000D01*
X219380605Y-147810000D01*
X220336413Y-148765808D01*
X220600814Y-148670044D01*
X220741704Y-148380429D01*
X220823384Y-148068892D01*
X220835189Y-147872595D01*
X224059282Y-147872595D01*
X224103039Y-148191675D01*
X224208205Y-148496088D01*
X224301186Y-148670044D01*
X224565587Y-148765808D01*
X225521395Y-147810000D01*
X225880605Y-147810000D01*
X226836413Y-148765808D01*
X227100814Y-148670044D01*
X227241704Y-148380429D01*
X227323384Y-148068892D01*
X227335189Y-147872595D01*
X227559282Y-147872595D01*
X227603039Y-148191675D01*
X227708205Y-148496088D01*
X227801186Y-148670044D01*
X228065587Y-148765808D01*
X229021395Y-147810000D01*
X229380605Y-147810000D01*
X230336413Y-148765808D01*
X230600814Y-148670044D01*
X230741704Y-148380429D01*
X230823384Y-148068892D01*
X230835189Y-147872595D01*
X234059282Y-147872595D01*
X234103039Y-148191675D01*
X234208205Y-148496088D01*
X234301186Y-148670044D01*
X234565587Y-148765808D01*
X235521395Y-147810000D01*
X235880605Y-147810000D01*
X236836413Y-148765808D01*
X237100814Y-148670044D01*
X237241704Y-148380429D01*
X237323384Y-148068892D01*
X237335189Y-147872595D01*
X237559282Y-147872595D01*
X237603039Y-148191675D01*
X237708205Y-148496088D01*
X237801186Y-148670044D01*
X238065587Y-148765808D01*
X239021395Y-147810000D01*
X239380605Y-147810000D01*
X240336413Y-148765808D01*
X240600814Y-148670044D01*
X240741704Y-148380429D01*
X240823384Y-148068892D01*
X240835189Y-147872595D01*
X244059282Y-147872595D01*
X244103039Y-148191675D01*
X244208205Y-148496088D01*
X244301186Y-148670044D01*
X244565587Y-148765808D01*
X245521395Y-147810000D01*
X245880605Y-147810000D01*
X246836413Y-148765808D01*
X247100814Y-148670044D01*
X247241704Y-148380429D01*
X247323384Y-148068892D01*
X247335189Y-147872595D01*
X247389282Y-147872595D01*
X247433039Y-148191675D01*
X247538205Y-148496088D01*
X247631186Y-148670044D01*
X247895587Y-148765808D01*
X248851395Y-147810000D01*
X249210605Y-147810000D01*
X250166413Y-148765808D01*
X250430814Y-148670044D01*
X250571704Y-148380429D01*
X250653384Y-148068892D01*
X250665189Y-147872595D01*
X253889282Y-147872595D01*
X253933039Y-148191675D01*
X254038205Y-148496088D01*
X254131186Y-148670044D01*
X254395587Y-148765808D01*
X255351395Y-147810000D01*
X255710605Y-147810000D01*
X256666413Y-148765808D01*
X256930814Y-148670044D01*
X257071704Y-148380429D01*
X257153384Y-148068892D01*
X257172718Y-147747405D01*
X257128961Y-147428325D01*
X257023795Y-147123912D01*
X256930814Y-146949956D01*
X256666413Y-146854192D01*
X255710605Y-147810000D01*
X255351395Y-147810000D01*
X254395587Y-146854192D01*
X254131186Y-146949956D01*
X253990296Y-147239571D01*
X253908616Y-147551108D01*
X253889282Y-147872595D01*
X250665189Y-147872595D01*
X250672718Y-147747405D01*
X250628961Y-147428325D01*
X250523795Y-147123912D01*
X250430814Y-146949956D01*
X250166413Y-146854192D01*
X249210605Y-147810000D01*
X248851395Y-147810000D01*
X247895587Y-146854192D01*
X247631186Y-146949956D01*
X247490296Y-147239571D01*
X247408616Y-147551108D01*
X247389282Y-147872595D01*
X247335189Y-147872595D01*
X247342718Y-147747405D01*
X247298961Y-147428325D01*
X247193795Y-147123912D01*
X247100814Y-146949956D01*
X246836413Y-146854192D01*
X245880605Y-147810000D01*
X245521395Y-147810000D01*
X244565587Y-146854192D01*
X244301186Y-146949956D01*
X244160296Y-147239571D01*
X244078616Y-147551108D01*
X244059282Y-147872595D01*
X240835189Y-147872595D01*
X240842718Y-147747405D01*
X240798961Y-147428325D01*
X240693795Y-147123912D01*
X240600814Y-146949956D01*
X240336413Y-146854192D01*
X239380605Y-147810000D01*
X239021395Y-147810000D01*
X238065587Y-146854192D01*
X237801186Y-146949956D01*
X237660296Y-147239571D01*
X237578616Y-147551108D01*
X237559282Y-147872595D01*
X237335189Y-147872595D01*
X237342718Y-147747405D01*
X237298961Y-147428325D01*
X237193795Y-147123912D01*
X237100814Y-146949956D01*
X236836413Y-146854192D01*
X235880605Y-147810000D01*
X235521395Y-147810000D01*
X234565587Y-146854192D01*
X234301186Y-146949956D01*
X234160296Y-147239571D01*
X234078616Y-147551108D01*
X234059282Y-147872595D01*
X230835189Y-147872595D01*
X230842718Y-147747405D01*
X230798961Y-147428325D01*
X230693795Y-147123912D01*
X230600814Y-146949956D01*
X230336413Y-146854192D01*
X229380605Y-147810000D01*
X229021395Y-147810000D01*
X228065587Y-146854192D01*
X227801186Y-146949956D01*
X227660296Y-147239571D01*
X227578616Y-147551108D01*
X227559282Y-147872595D01*
X227335189Y-147872595D01*
X227342718Y-147747405D01*
X227298961Y-147428325D01*
X227193795Y-147123912D01*
X227100814Y-146949956D01*
X226836413Y-146854192D01*
X225880605Y-147810000D01*
X225521395Y-147810000D01*
X224565587Y-146854192D01*
X224301186Y-146949956D01*
X224160296Y-147239571D01*
X224078616Y-147551108D01*
X224059282Y-147872595D01*
X220835189Y-147872595D01*
X220842718Y-147747405D01*
X220798961Y-147428325D01*
X220693795Y-147123912D01*
X220600814Y-146949956D01*
X220336413Y-146854192D01*
X219380605Y-147810000D01*
X219021395Y-147810000D01*
X218065587Y-146854192D01*
X217801186Y-146949956D01*
X217660296Y-147239571D01*
X217578616Y-147551108D01*
X217559282Y-147872595D01*
X217344189Y-147872595D01*
X217351718Y-147747405D01*
X217307961Y-147428325D01*
X217202795Y-147123912D01*
X217109814Y-146949956D01*
X216845413Y-146854192D01*
X215889605Y-147810000D01*
X215530395Y-147810000D01*
X214574587Y-146854192D01*
X214310186Y-146949956D01*
X214169296Y-147239571D01*
X214087616Y-147551108D01*
X214068282Y-147872595D01*
X210844189Y-147872595D01*
X210851718Y-147747405D01*
X210807961Y-147428325D01*
X210702795Y-147123912D01*
X210609814Y-146949956D01*
X210345413Y-146854192D01*
X209389605Y-147810000D01*
X209030395Y-147810000D01*
X208074587Y-146854192D01*
X207810186Y-146949956D01*
X207669296Y-147239571D01*
X207587616Y-147551108D01*
X207568282Y-147872595D01*
X204934620Y-147872595D01*
X205041851Y-147765364D01*
X205259085Y-147440250D01*
X205408718Y-147079003D01*
X205485000Y-146695505D01*
X205485000Y-146674587D01*
X208254192Y-146674587D01*
X209210000Y-147630395D01*
X210165808Y-146674587D01*
X214754192Y-146674587D01*
X215710000Y-147630395D01*
X216665808Y-146674587D01*
X218245192Y-146674587D01*
X219201000Y-147630395D01*
X220156808Y-146674587D01*
X224745192Y-146674587D01*
X225701000Y-147630395D01*
X226656808Y-146674587D01*
X228245192Y-146674587D01*
X229201000Y-147630395D01*
X230156808Y-146674587D01*
X234745192Y-146674587D01*
X235701000Y-147630395D01*
X236656808Y-146674587D01*
X238245192Y-146674587D01*
X239201000Y-147630395D01*
X240156808Y-146674587D01*
X244745192Y-146674587D01*
X245701000Y-147630395D01*
X246656808Y-146674587D01*
X248075192Y-146674587D01*
X249031000Y-147630395D01*
X249986808Y-146674587D01*
X254575192Y-146674587D01*
X255531000Y-147630395D01*
X256486808Y-146674587D01*
X256391044Y-146410186D01*
X256173785Y-146304495D01*
X259515000Y-146304495D01*
X259515000Y-146695505D01*
X259591282Y-147079003D01*
X259740915Y-147440250D01*
X259958149Y-147765364D01*
X260234636Y-148041851D01*
X260559750Y-148259085D01*
X260920997Y-148408718D01*
X261304495Y-148485000D01*
X261695505Y-148485000D01*
X262079003Y-148408718D01*
X262440250Y-148259085D01*
X262765364Y-148041851D01*
X263041851Y-147765364D01*
X263259085Y-147440250D01*
X263408718Y-147079003D01*
X263485000Y-146695505D01*
X263485000Y-146304495D01*
X263408718Y-145920997D01*
X263259085Y-145559750D01*
X263041851Y-145234636D01*
X262765364Y-144958149D01*
X262440250Y-144740915D01*
X262079003Y-144591282D01*
X261695505Y-144515000D01*
X261304495Y-144515000D01*
X260920997Y-144591282D01*
X260559750Y-144740915D01*
X260234636Y-144958149D01*
X259958149Y-145234636D01*
X259740915Y-145559750D01*
X259591282Y-145920997D01*
X259515000Y-146304495D01*
X256173785Y-146304495D01*
X256101429Y-146269296D01*
X255789892Y-146187616D01*
X255468405Y-146168282D01*
X255149325Y-146212039D01*
X254844912Y-146317205D01*
X254670956Y-146410186D01*
X254575192Y-146674587D01*
X249986808Y-146674587D01*
X249891044Y-146410186D01*
X249601429Y-146269296D01*
X249289892Y-146187616D01*
X248968405Y-146168282D01*
X248649325Y-146212039D01*
X248344912Y-146317205D01*
X248170956Y-146410186D01*
X248075192Y-146674587D01*
X246656808Y-146674587D01*
X246561044Y-146410186D01*
X246271429Y-146269296D01*
X245959892Y-146187616D01*
X245638405Y-146168282D01*
X245319325Y-146212039D01*
X245014912Y-146317205D01*
X244840956Y-146410186D01*
X244745192Y-146674587D01*
X240156808Y-146674587D01*
X240061044Y-146410186D01*
X239771429Y-146269296D01*
X239459892Y-146187616D01*
X239138405Y-146168282D01*
X238819325Y-146212039D01*
X238514912Y-146317205D01*
X238340956Y-146410186D01*
X238245192Y-146674587D01*
X236656808Y-146674587D01*
X236561044Y-146410186D01*
X236271429Y-146269296D01*
X235959892Y-146187616D01*
X235638405Y-146168282D01*
X235319325Y-146212039D01*
X235014912Y-146317205D01*
X234840956Y-146410186D01*
X234745192Y-146674587D01*
X230156808Y-146674587D01*
X230061044Y-146410186D01*
X229771429Y-146269296D01*
X229459892Y-146187616D01*
X229138405Y-146168282D01*
X228819325Y-146212039D01*
X228514912Y-146317205D01*
X228340956Y-146410186D01*
X228245192Y-146674587D01*
X226656808Y-146674587D01*
X226561044Y-146410186D01*
X226271429Y-146269296D01*
X225959892Y-146187616D01*
X225638405Y-146168282D01*
X225319325Y-146212039D01*
X225014912Y-146317205D01*
X224840956Y-146410186D01*
X224745192Y-146674587D01*
X220156808Y-146674587D01*
X220061044Y-146410186D01*
X219771429Y-146269296D01*
X219459892Y-146187616D01*
X219138405Y-146168282D01*
X218819325Y-146212039D01*
X218514912Y-146317205D01*
X218340956Y-146410186D01*
X218245192Y-146674587D01*
X216665808Y-146674587D01*
X216570044Y-146410186D01*
X216280429Y-146269296D01*
X215968892Y-146187616D01*
X215647405Y-146168282D01*
X215328325Y-146212039D01*
X215023912Y-146317205D01*
X214849956Y-146410186D01*
X214754192Y-146674587D01*
X210165808Y-146674587D01*
X210070044Y-146410186D01*
X209780429Y-146269296D01*
X209468892Y-146187616D01*
X209147405Y-146168282D01*
X208828325Y-146212039D01*
X208523912Y-146317205D01*
X208349956Y-146410186D01*
X208254192Y-146674587D01*
X205485000Y-146674587D01*
X205485000Y-146304495D01*
X205408718Y-145920997D01*
X205259085Y-145559750D01*
X205041851Y-145234636D01*
X204765364Y-144958149D01*
X204440250Y-144740915D01*
X204079003Y-144591282D01*
X203695505Y-144515000D01*
X203304495Y-144515000D01*
X202920997Y-144591282D01*
X202559750Y-144740915D01*
X202234636Y-144958149D01*
X201958149Y-145234636D01*
X201740915Y-145559750D01*
X201591282Y-145920997D01*
X201515000Y-146304495D01*
X200685000Y-146304495D01*
X200685000Y-143148967D01*
X207575000Y-143148967D01*
X207575000Y-143471033D01*
X207637832Y-143786912D01*
X207761082Y-144084463D01*
X207940013Y-144352252D01*
X208167748Y-144579987D01*
X208435537Y-144758918D01*
X208733088Y-144882168D01*
X209048967Y-144945000D01*
X209371033Y-144945000D01*
X209686912Y-144882168D01*
X209984463Y-144758918D01*
X210252252Y-144579987D01*
X210479987Y-144352252D01*
X210658918Y-144084463D01*
X210782168Y-143786912D01*
X210845000Y-143471033D01*
X210845000Y-143148967D01*
X210782168Y-142833088D01*
X210658918Y-142535537D01*
X210479987Y-142267748D01*
X210252252Y-142040013D01*
X209984463Y-141861082D01*
X209686912Y-141737832D01*
X209371033Y-141675000D01*
X209048967Y-141675000D01*
X208733088Y-141737832D01*
X208435537Y-141861082D01*
X208167748Y-142040013D01*
X207940013Y-142267748D01*
X207761082Y-142535537D01*
X207637832Y-142833088D01*
X207575000Y-143148967D01*
X200685000Y-143148967D01*
X200685000Y-126801110D01*
X205738524Y-126801110D01*
X205859845Y-127031000D01*
X207178000Y-127031000D01*
X207178000Y-125831835D01*
X207432000Y-125831835D01*
X207432000Y-127031000D01*
X208750155Y-127031000D01*
X208871476Y-126801110D01*
X208779352Y-126538142D01*
X208632496Y-126286807D01*
X208439429Y-126068951D01*
X208207570Y-125892947D01*
X207945830Y-125765558D01*
X207664267Y-125691680D01*
X207432000Y-125831835D01*
X207178000Y-125831835D01*
X206945733Y-125691680D01*
X206664170Y-125765558D01*
X206402430Y-125892947D01*
X206170571Y-126068951D01*
X205977504Y-126286807D01*
X205830648Y-126538142D01*
X205738524Y-126801110D01*
X200685000Y-126801110D01*
X200685000Y-115346562D01*
X201055640Y-115346562D01*
X201055640Y-115678478D01*
X201120394Y-116004016D01*
X201247412Y-116310667D01*
X201431815Y-116586645D01*
X201666515Y-116821345D01*
X201775826Y-116894384D01*
X201731815Y-116938395D01*
X201547412Y-117214373D01*
X201420394Y-117521024D01*
X201355640Y-117846562D01*
X201355640Y-118178478D01*
X201420394Y-118504016D01*
X201547412Y-118810667D01*
X201731815Y-119086645D01*
X201966515Y-119321345D01*
X202242493Y-119505748D01*
X202549144Y-119632766D01*
X202874682Y-119697520D01*
X203206598Y-119697520D01*
X203532136Y-119632766D01*
X203838787Y-119505748D01*
X204114765Y-119321345D01*
X204349465Y-119086645D01*
X204533868Y-118810667D01*
X204660886Y-118504016D01*
X204725640Y-118178478D01*
X204725640Y-117846562D01*
X204660886Y-117521024D01*
X204533868Y-117214373D01*
X204349465Y-116938395D01*
X204114765Y-116703695D01*
X204005454Y-116630656D01*
X204049465Y-116586645D01*
X204233868Y-116310667D01*
X204360886Y-116004016D01*
X204425640Y-115678478D01*
X204425640Y-115346562D01*
X204360886Y-115021024D01*
X204233868Y-114714373D01*
X204049465Y-114438395D01*
X203814765Y-114203695D01*
X203538787Y-114019292D01*
X203232136Y-113892274D01*
X202906598Y-113827520D01*
X202574682Y-113827520D01*
X202249144Y-113892274D01*
X201942493Y-114019292D01*
X201666515Y-114203695D01*
X201431815Y-114438395D01*
X201247412Y-114714373D01*
X201120394Y-115021024D01*
X201055640Y-115346562D01*
X200685000Y-115346562D01*
X200685000Y-110346562D01*
X201055640Y-110346562D01*
X201055640Y-110678478D01*
X201120394Y-111004016D01*
X201247412Y-111310667D01*
X201431815Y-111586645D01*
X201666515Y-111821345D01*
X201942493Y-112005748D01*
X202249144Y-112132766D01*
X202574682Y-112197520D01*
X202906598Y-112197520D01*
X203232136Y-112132766D01*
X203538787Y-112005748D01*
X203814765Y-111821345D01*
X204049465Y-111586645D01*
X204233868Y-111310667D01*
X204360886Y-111004016D01*
X204425640Y-110678478D01*
X204425640Y-110346562D01*
X204360886Y-110021024D01*
X204233868Y-109714373D01*
X204049465Y-109438395D01*
X204005454Y-109394384D01*
X204114765Y-109321345D01*
X204349465Y-109086645D01*
X204533868Y-108810667D01*
X204660886Y-108504016D01*
X204725640Y-108178478D01*
X204725640Y-107846562D01*
X204660886Y-107521024D01*
X204533868Y-107214373D01*
X204349465Y-106938395D01*
X204114765Y-106703695D01*
X203838787Y-106519292D01*
X203532136Y-106392274D01*
X203206598Y-106327520D01*
X202874682Y-106327520D01*
X202549144Y-106392274D01*
X202242493Y-106519292D01*
X201966515Y-106703695D01*
X201731815Y-106938395D01*
X201547412Y-107214373D01*
X201420394Y-107521024D01*
X201355640Y-107846562D01*
X201355640Y-108178478D01*
X201420394Y-108504016D01*
X201547412Y-108810667D01*
X201731815Y-109086645D01*
X201775826Y-109130656D01*
X201666515Y-109203695D01*
X201431815Y-109438395D01*
X201247412Y-109714373D01*
X201120394Y-110021024D01*
X201055640Y-110346562D01*
X200685000Y-110346562D01*
X200685000Y-97304495D01*
X201515000Y-97304495D01*
X201515000Y-97695505D01*
X201591282Y-98079003D01*
X201740915Y-98440250D01*
X201958149Y-98765364D01*
X202234636Y-99041851D01*
X202559750Y-99259085D01*
X202920997Y-99408718D01*
X203304495Y-99485000D01*
X203695505Y-99485000D01*
X204079003Y-99408718D01*
X204440250Y-99259085D01*
X204765364Y-99041851D01*
X205041851Y-98765364D01*
X205259085Y-98440250D01*
X205408718Y-98079003D01*
X205485000Y-97695505D01*
X205485000Y-97304495D01*
X205408718Y-96920997D01*
X205259085Y-96559750D01*
X205041851Y-96234636D01*
X204765364Y-95958149D01*
X204440250Y-95740915D01*
X204079003Y-95591282D01*
X203695505Y-95515000D01*
X203304495Y-95515000D01*
X202920997Y-95591282D01*
X202559750Y-95740915D01*
X202234636Y-95958149D01*
X201958149Y-96234636D01*
X201740915Y-96559750D01*
X201591282Y-96920997D01*
X201515000Y-97304495D01*
X200685000Y-97304495D01*
X200685000Y-97033505D01*
X200732312Y-96550984D01*
X200766016Y-96439350D01*
X202440589Y-94764777D01*
X202535161Y-94735502D01*
X203015654Y-94685000D01*
X219939553Y-94685000D01*
X219510741Y-95113813D01*
X219510741Y-95113813D01*
G37*
X219510741Y-95113813D02*
X219359014Y-94989294D01*
X219101034Y-94851401D01*
X218821111Y-94766487D01*
X218602950Y-94745000D01*
X218457050Y-94745000D01*
X218238889Y-94766487D01*
X217958966Y-94851401D01*
X217700986Y-94989294D01*
X217474866Y-95174866D01*
X217289294Y-95400986D01*
X217260000Y-95455791D01*
X217230706Y-95400986D01*
X217045134Y-95174866D01*
X216819014Y-94989294D01*
X216561034Y-94851401D01*
X216281111Y-94766487D01*
X216062950Y-94745000D01*
X215917050Y-94745000D01*
X215698889Y-94766487D01*
X215418966Y-94851401D01*
X215160986Y-94989294D01*
X214934866Y-95174866D01*
X214749294Y-95400986D01*
X214714799Y-95465523D01*
X214645178Y-95348645D01*
X214450269Y-95132412D01*
X214216920Y-94958359D01*
X213954099Y-94833175D01*
X213806890Y-94788524D01*
X213577000Y-94909845D01*
X213577000Y-96103000D01*
X213597000Y-96103000D01*
X213597000Y-96357000D01*
X213577000Y-96357000D01*
X213577000Y-96377000D01*
X213323000Y-96377000D01*
X213323000Y-96357000D01*
X213303000Y-96357000D01*
X213303000Y-96103000D01*
X213323000Y-96103000D01*
X213323000Y-94909845D01*
X213093110Y-94788524D01*
X212945901Y-94833175D01*
X212683080Y-94958359D01*
X212449731Y-95132412D01*
X212254822Y-95348645D01*
X212185201Y-95465523D01*
X212150706Y-95400986D01*
X211965134Y-95174866D01*
X211739014Y-94989294D01*
X211481034Y-94851401D01*
X211201111Y-94766487D01*
X210982950Y-94745000D01*
X210837050Y-94745000D01*
X210618889Y-94766487D01*
X210338966Y-94851401D01*
X210080986Y-94989294D01*
X209854866Y-95174866D01*
X209669294Y-95400986D01*
X209640000Y-95455791D01*
X209610706Y-95400986D01*
X209425134Y-95174866D01*
X209199014Y-94989294D01*
X208941034Y-94851401D01*
X208661111Y-94766487D01*
X208442950Y-94745000D01*
X208297050Y-94745000D01*
X208078889Y-94766487D01*
X207798966Y-94851401D01*
X207540986Y-94989294D01*
X207314866Y-95174866D01*
X207129294Y-95400986D01*
X206991401Y-95658966D01*
X206906487Y-95938889D01*
X206877815Y-96230000D01*
X206906487Y-96521111D01*
X206991401Y-96801034D01*
X207035719Y-96883947D01*
X207033941Y-96886113D01*
X206692508Y-97227546D01*
X206664462Y-97250563D01*
X206572613Y-97362481D01*
X206504363Y-97490168D01*
X206487598Y-97545435D01*
X206462335Y-97628715D01*
X206448144Y-97772800D01*
X206451700Y-97808905D01*
X206451701Y-102142467D01*
X206448144Y-102178582D01*
X206462335Y-102322667D01*
X206493572Y-102425638D01*
X206504364Y-102461215D01*
X206572614Y-102588902D01*
X206664463Y-102700820D01*
X206692508Y-102723836D01*
X211475385Y-107506714D01*
X211498401Y-107534759D01*
X211610319Y-107626608D01*
X211738006Y-107694858D01*
X211834525Y-107724137D01*
X211876553Y-107736886D01*
X211881620Y-107737385D01*
X211984534Y-107747521D01*
X211984541Y-107747521D01*
X212020638Y-107751076D01*
X212056735Y-107747521D01*
X213390854Y-107747521D01*
X213426959Y-107751077D01*
X213463064Y-107747521D01*
X213525586Y-107741363D01*
X213505640Y-107841637D01*
X213505640Y-108183403D01*
X213572315Y-108518601D01*
X213614092Y-108619461D01*
X209704108Y-112529446D01*
X209676063Y-112552462D01*
X209584214Y-112664380D01*
X209538907Y-112749144D01*
X209515964Y-112792067D01*
X209473935Y-112930615D01*
X209459744Y-113074700D01*
X209463301Y-113110815D01*
X209463300Y-130761153D01*
X208748996Y-131475457D01*
X208670706Y-131328986D01*
X208485134Y-131102866D01*
X208259014Y-130917294D01*
X208241626Y-130908000D01*
X208259014Y-130898706D01*
X208485134Y-130713134D01*
X208670706Y-130487014D01*
X208808599Y-130229034D01*
X208893513Y-129949111D01*
X208922185Y-129658000D01*
X208893513Y-129366889D01*
X208808599Y-129086966D01*
X208670706Y-128828986D01*
X208485134Y-128602866D01*
X208259014Y-128417294D01*
X208233278Y-128403538D01*
X208439429Y-128247049D01*
X208632496Y-128029193D01*
X208779352Y-127777858D01*
X208871476Y-127514890D01*
X208750155Y-127285000D01*
X207432000Y-127285000D01*
X207432000Y-127305000D01*
X207178000Y-127305000D01*
X207178000Y-127285000D01*
X205859845Y-127285000D01*
X205738524Y-127514890D01*
X205830648Y-127777858D01*
X205977504Y-128029193D01*
X206170571Y-128247049D01*
X206376722Y-128403538D01*
X206350986Y-128417294D01*
X206124866Y-128602866D01*
X205939294Y-128828986D01*
X205801401Y-129086966D01*
X205716487Y-129366889D01*
X205687815Y-129658000D01*
X205716487Y-129949111D01*
X205801401Y-130229034D01*
X205939294Y-130487014D01*
X206124866Y-130713134D01*
X206350986Y-130898706D01*
X206368374Y-130908000D01*
X206350986Y-130917294D01*
X206124866Y-131102866D01*
X205939294Y-131328986D01*
X205801401Y-131586966D01*
X205716487Y-131866889D01*
X205687815Y-132158000D01*
X205716487Y-132449111D01*
X205801401Y-132729034D01*
X205939294Y-132987014D01*
X206124866Y-133213134D01*
X206350986Y-133398706D01*
X206368374Y-133408000D01*
X206350986Y-133417294D01*
X206124866Y-133602866D01*
X205939294Y-133828986D01*
X205801401Y-134086966D01*
X205716487Y-134366889D01*
X205687815Y-134658000D01*
X205716487Y-134949111D01*
X205801401Y-135229034D01*
X205939294Y-135487014D01*
X206124866Y-135713134D01*
X206188337Y-135765223D01*
X206086614Y-135819595D01*
X205952038Y-135930038D01*
X205841595Y-136064614D01*
X205759528Y-136218150D01*
X205708992Y-136384746D01*
X205691928Y-136558000D01*
X205691928Y-137758000D01*
X205708992Y-137931254D01*
X205759528Y-138097850D01*
X205841595Y-138251386D01*
X205952038Y-138385962D01*
X206086614Y-138496405D01*
X206240150Y-138578472D01*
X206406746Y-138629008D01*
X206580000Y-138646072D01*
X208030000Y-138646072D01*
X208203254Y-138629008D01*
X208369850Y-138578472D01*
X208523386Y-138496405D01*
X208657962Y-138385962D01*
X208768405Y-138251386D01*
X208850472Y-138097850D01*
X208901008Y-137931254D01*
X208918072Y-137758000D01*
X208918072Y-136584374D01*
X218808193Y-126694254D01*
X218836238Y-126671238D01*
X218928087Y-126559320D01*
X218996337Y-126431633D01*
X219038365Y-126293085D01*
X219049000Y-126185105D01*
X219049000Y-126185098D01*
X219052555Y-126149001D01*
X219049000Y-126112904D01*
X219049000Y-119362000D01*
X223881895Y-119362000D01*
X223918000Y-119365556D01*
X223954105Y-119362000D01*
X224062085Y-119351365D01*
X224200633Y-119309337D01*
X224328320Y-119241087D01*
X224440238Y-119149238D01*
X224463258Y-119121188D01*
X224620374Y-118964072D01*
X224686500Y-118964072D01*
X224839757Y-118948977D01*
X224987125Y-118904274D01*
X225122940Y-118831679D01*
X225241983Y-118733983D01*
X225339679Y-118614940D01*
X225412274Y-118479125D01*
X225456977Y-118331757D01*
X225472072Y-118178500D01*
X225472072Y-117833500D01*
X225456977Y-117680243D01*
X225412274Y-117532875D01*
X225339679Y-117397060D01*
X225274000Y-117317030D01*
X225274000Y-117238578D01*
X225311494Y-117218537D01*
X225408185Y-117139185D01*
X225487537Y-117042494D01*
X225546502Y-116932180D01*
X225582812Y-116812482D01*
X225595072Y-116688000D01*
X225595072Y-115788000D01*
X225582812Y-115663518D01*
X225546502Y-115543820D01*
X225487537Y-115433506D01*
X225408185Y-115336815D01*
X225395095Y-115326072D01*
X225907000Y-115326072D01*
X226031482Y-115313812D01*
X226060500Y-115305009D01*
X226060501Y-131920052D01*
X216226376Y-141754178D01*
X216186912Y-141737832D01*
X215871033Y-141675000D01*
X215548967Y-141675000D01*
X215233088Y-141737832D01*
X214935537Y-141861082D01*
X214667748Y-142040013D01*
X214440013Y-142267748D01*
X214261082Y-142535537D01*
X214137832Y-142833088D01*
X214075000Y-143148967D01*
X214075000Y-143471033D01*
X214137832Y-143786912D01*
X214261082Y-144084463D01*
X214440013Y-144352252D01*
X214667748Y-144579987D01*
X214935537Y-144758918D01*
X215233088Y-144882168D01*
X215548967Y-144945000D01*
X215871033Y-144945000D01*
X216186912Y-144882168D01*
X216484463Y-144758918D01*
X216752252Y-144579987D01*
X216979987Y-144352252D01*
X217158918Y-144084463D01*
X217282168Y-143786912D01*
X217345000Y-143471033D01*
X217345000Y-143148967D01*
X217566000Y-143148967D01*
X217566000Y-143471033D01*
X217628832Y-143786912D01*
X217752082Y-144084463D01*
X217931013Y-144352252D01*
X218158748Y-144579987D01*
X218426537Y-144758918D01*
X218724088Y-144882168D01*
X219039967Y-144945000D01*
X219362033Y-144945000D01*
X219677912Y-144882168D01*
X219975463Y-144758918D01*
X220243252Y-144579987D01*
X220470987Y-144352252D01*
X220649918Y-144084463D01*
X220773168Y-143786912D01*
X220836000Y-143471033D01*
X220836000Y-143148967D01*
X220773168Y-142833088D01*
X220649918Y-142535537D01*
X220470987Y-142267748D01*
X220243252Y-142040013D01*
X219975463Y-141861082D01*
X219677912Y-141737832D01*
X219362033Y-141675000D01*
X219039967Y-141675000D01*
X218724088Y-141737832D01*
X218426537Y-141861082D01*
X218158748Y-142040013D01*
X217931013Y-142267748D01*
X217752082Y-142535537D01*
X217628832Y-142833088D01*
X217566000Y-143148967D01*
X217345000Y-143148967D01*
X217282168Y-142833088D01*
X217265822Y-142793624D01*
X227289693Y-132769754D01*
X227317738Y-132746738D01*
X227409587Y-132634820D01*
X227477837Y-132507133D01*
X227519865Y-132368585D01*
X227530500Y-132260605D01*
X227530500Y-132260596D01*
X227534055Y-132224501D01*
X227530500Y-132188406D01*
X227530500Y-111288122D01*
X227638275Y-111180347D01*
X227757015Y-111002640D01*
X227838804Y-110805183D01*
X227880500Y-110595563D01*
X227880500Y-110473400D01*
X228060195Y-110473400D01*
X228096300Y-110476956D01*
X228132405Y-110473400D01*
X228240385Y-110462765D01*
X228378933Y-110420737D01*
X228506620Y-110352487D01*
X228618538Y-110260638D01*
X228641558Y-110232588D01*
X229170400Y-109703746D01*
X229170401Y-138801152D01*
X226217375Y-141754178D01*
X226177912Y-141737832D01*
X225862033Y-141675000D01*
X225539967Y-141675000D01*
X225224088Y-141737832D01*
X224926537Y-141861082D01*
X224658748Y-142040013D01*
X224431013Y-142267748D01*
X224252082Y-142535537D01*
X224128832Y-142833088D01*
X224066000Y-143148967D01*
X224066000Y-143471033D01*
X224128832Y-143786912D01*
X224252082Y-144084463D01*
X224431013Y-144352252D01*
X224658748Y-144579987D01*
X224926537Y-144758918D01*
X225224088Y-144882168D01*
X225539967Y-144945000D01*
X225862033Y-144945000D01*
X226177912Y-144882168D01*
X226475463Y-144758918D01*
X226743252Y-144579987D01*
X226970987Y-144352252D01*
X227149918Y-144084463D01*
X227273168Y-143786912D01*
X227336000Y-143471033D01*
X227336000Y-143148967D01*
X227273168Y-142833088D01*
X227256822Y-142793625D01*
X229570801Y-140479646D01*
X229570801Y-141716526D01*
X229362033Y-141675000D01*
X229039967Y-141675000D01*
X228724088Y-141737832D01*
X228426537Y-141861082D01*
X228158748Y-142040013D01*
X227931013Y-142267748D01*
X227752082Y-142535537D01*
X227628832Y-142833088D01*
X227566000Y-143148967D01*
X227566000Y-143471033D01*
X227628832Y-143786912D01*
X227752082Y-144084463D01*
X227931013Y-144352252D01*
X228158748Y-144579987D01*
X228426537Y-144758918D01*
X228724088Y-144882168D01*
X229039967Y-144945000D01*
X229362033Y-144945000D01*
X229677912Y-144882168D01*
X229975463Y-144758918D01*
X230243252Y-144579987D01*
X230470987Y-144352252D01*
X230649918Y-144084463D01*
X230773168Y-143786912D01*
X230785594Y-143724441D01*
X230865346Y-143804193D01*
X230888362Y-143832238D01*
X231000280Y-143924087D01*
X231127967Y-143992337D01*
X231224486Y-144021616D01*
X231266514Y-144034365D01*
X231280732Y-144035765D01*
X231374495Y-144045000D01*
X231374502Y-144045000D01*
X231410599Y-144048555D01*
X231446696Y-144045000D01*
X234235736Y-144045000D01*
X234252082Y-144084463D01*
X234431013Y-144352252D01*
X234658748Y-144579987D01*
X234926537Y-144758918D01*
X235224088Y-144882168D01*
X235539967Y-144945000D01*
X235862033Y-144945000D01*
X236177912Y-144882168D01*
X236475463Y-144758918D01*
X236743252Y-144579987D01*
X236970987Y-144352252D01*
X237149918Y-144084463D01*
X237273168Y-143786912D01*
X237336000Y-143471033D01*
X237336000Y-143148967D01*
X237273168Y-142833088D01*
X237149918Y-142535537D01*
X236970987Y-142267748D01*
X236743252Y-142040013D01*
X236475463Y-141861082D01*
X236177912Y-141737832D01*
X235862033Y-141675000D01*
X235539967Y-141675000D01*
X235224088Y-141737832D01*
X234926537Y-141861082D01*
X234658748Y-142040013D01*
X234431013Y-142267748D01*
X234252082Y-142535537D01*
X234235736Y-142575000D01*
X231715047Y-142575000D01*
X231040800Y-141900754D01*
X231040800Y-136189246D01*
X237645178Y-142793625D01*
X237628832Y-142833088D01*
X237566000Y-143148967D01*
X237566000Y-143471033D01*
X237628832Y-143786912D01*
X237752082Y-144084463D01*
X237931013Y-144352252D01*
X238158748Y-144579987D01*
X238426537Y-144758918D01*
X238724088Y-144882168D01*
X239039967Y-144945000D01*
X239362033Y-144945000D01*
X239677912Y-144882168D01*
X239975463Y-144758918D01*
X240243252Y-144579987D01*
X240470987Y-144352252D01*
X240649918Y-144084463D01*
X240773168Y-143786912D01*
X240836000Y-143471033D01*
X240836000Y-143148967D01*
X240773168Y-142833088D01*
X240649918Y-142535537D01*
X240470987Y-142267748D01*
X240243252Y-142040013D01*
X239975463Y-141861082D01*
X239677912Y-141737832D01*
X239362033Y-141675000D01*
X239039967Y-141675000D01*
X238724088Y-141737832D01*
X238684625Y-141754178D01*
X231441200Y-134510754D01*
X231441200Y-107972363D01*
X231875250Y-107970000D01*
X232034000Y-107811250D01*
X232034000Y-106612000D01*
X232014000Y-106612000D01*
X232014000Y-106358000D01*
X232034000Y-106358000D01*
X232034000Y-105158750D01*
X231875250Y-105000000D01*
X231441200Y-104997637D01*
X231441200Y-101085796D01*
X231444755Y-101049699D01*
X231441200Y-101013602D01*
X231441200Y-101013595D01*
X231430565Y-100905615D01*
X231388537Y-100767067D01*
X231320287Y-100639380D01*
X231303714Y-100619187D01*
X231251453Y-100555506D01*
X231251450Y-100555503D01*
X231228437Y-100527462D01*
X231200397Y-100504450D01*
X230925354Y-100229407D01*
X230938889Y-100233513D01*
X231157050Y-100255000D01*
X231302950Y-100255000D01*
X231521111Y-100233513D01*
X231801034Y-100148599D01*
X232059014Y-100010706D01*
X232285134Y-99825134D01*
X232470706Y-99599014D01*
X232500000Y-99544209D01*
X232529294Y-99599014D01*
X232714866Y-99825134D01*
X232940986Y-100010706D01*
X233198966Y-100148599D01*
X233478889Y-100233513D01*
X233697050Y-100255000D01*
X233842950Y-100255000D01*
X234061111Y-100233513D01*
X234341034Y-100148599D01*
X234599014Y-100010706D01*
X234825134Y-99825134D01*
X235010706Y-99599014D01*
X235040000Y-99544209D01*
X235069294Y-99599014D01*
X235254866Y-99825134D01*
X235480986Y-100010706D01*
X235738966Y-100148599D01*
X236018889Y-100233513D01*
X236237050Y-100255000D01*
X236382950Y-100255000D01*
X236601111Y-100233513D01*
X236881034Y-100148599D01*
X237139014Y-100010706D01*
X237365134Y-99825134D01*
X237550706Y-99599014D01*
X237585201Y-99534477D01*
X237654822Y-99651355D01*
X237849731Y-99867588D01*
X238083080Y-100041641D01*
X238345901Y-100166825D01*
X238493110Y-100211476D01*
X238723000Y-100090155D01*
X238723000Y-98897000D01*
X238703000Y-98897000D01*
X238703000Y-98643000D01*
X238723000Y-98643000D01*
X238723000Y-98623000D01*
X238977000Y-98623000D01*
X238977000Y-98643000D01*
X238997000Y-98643000D01*
X238997000Y-98897000D01*
X238977000Y-98897000D01*
X238977000Y-100090155D01*
X239206890Y-100211476D01*
X239354099Y-100166825D01*
X239504700Y-100095092D01*
X239504701Y-102031552D01*
X236746808Y-104789446D01*
X236718763Y-104812462D01*
X236626914Y-104924380D01*
X236583053Y-105006439D01*
X236558664Y-105052067D01*
X236517452Y-105187921D01*
X236411986Y-105244294D01*
X236185866Y-105429866D01*
X236000294Y-105655986D01*
X235971000Y-105710791D01*
X235941706Y-105655986D01*
X235756134Y-105429866D01*
X235530014Y-105244294D01*
X235272034Y-105106401D01*
X234992111Y-105021487D01*
X234773950Y-105000000D01*
X234628050Y-105000000D01*
X234409889Y-105021487D01*
X234129966Y-105106401D01*
X233871986Y-105244294D01*
X233645866Y-105429866D01*
X233621393Y-105459687D01*
X233600502Y-105390820D01*
X233541537Y-105280506D01*
X233462185Y-105183815D01*
X233365494Y-105104463D01*
X233255180Y-105045498D01*
X233135482Y-105009188D01*
X233011000Y-104996928D01*
X232446750Y-105000000D01*
X232288000Y-105158750D01*
X232288000Y-106358000D01*
X232308000Y-106358000D01*
X232308000Y-106612000D01*
X232288000Y-106612000D01*
X232288000Y-107811250D01*
X232446750Y-107970000D01*
X233011000Y-107973072D01*
X233135482Y-107960812D01*
X233255180Y-107924502D01*
X233365494Y-107865537D01*
X233462185Y-107786185D01*
X233541537Y-107689494D01*
X233600502Y-107579180D01*
X233621393Y-107510313D01*
X233645866Y-107540134D01*
X233871986Y-107725706D01*
X234129966Y-107863599D01*
X234409889Y-107948513D01*
X234628050Y-107970000D01*
X234773950Y-107970000D01*
X234992111Y-107948513D01*
X235272034Y-107863599D01*
X235530014Y-107725706D01*
X235756134Y-107540134D01*
X235941706Y-107314014D01*
X235971000Y-107259209D01*
X236000294Y-107314014D01*
X236185866Y-107540134D01*
X236411986Y-107725706D01*
X236669966Y-107863599D01*
X236949889Y-107948513D01*
X237168050Y-107970000D01*
X237313950Y-107970000D01*
X237532111Y-107948513D01*
X237812034Y-107863599D01*
X238070014Y-107725706D01*
X238296134Y-107540134D01*
X238481706Y-107314014D01*
X238511000Y-107259209D01*
X238540294Y-107314014D01*
X238725866Y-107540134D01*
X238951986Y-107725706D01*
X239209966Y-107863599D01*
X239489889Y-107948513D01*
X239708050Y-107970000D01*
X239853950Y-107970000D01*
X240072111Y-107948513D01*
X240352034Y-107863599D01*
X240610014Y-107725706D01*
X240836134Y-107540134D01*
X241021706Y-107314014D01*
X241159599Y-107056034D01*
X241244513Y-106776111D01*
X241273185Y-106485000D01*
X241244513Y-106193889D01*
X241159599Y-105913966D01*
X241021706Y-105655986D01*
X240836134Y-105429866D01*
X240775248Y-105379898D01*
X241884193Y-104270954D01*
X241912238Y-104247938D01*
X242004087Y-104136020D01*
X242011969Y-104121274D01*
X242072337Y-104008334D01*
X242114365Y-103869785D01*
X242128556Y-103725700D01*
X242125000Y-103689595D01*
X242125000Y-100060957D01*
X242219014Y-100010706D01*
X242445134Y-99825134D01*
X242630706Y-99599014D01*
X242660000Y-99544209D01*
X242689294Y-99599014D01*
X242874866Y-99825134D01*
X243100986Y-100010706D01*
X243195000Y-100060957D01*
X243195001Y-138172885D01*
X243191444Y-138209000D01*
X243205635Y-138353085D01*
X243226924Y-138423263D01*
X243247664Y-138491633D01*
X243315914Y-138619320D01*
X243407763Y-138731238D01*
X243435808Y-138754254D01*
X246677899Y-141996345D01*
X246475463Y-141861082D01*
X246177912Y-141737832D01*
X245862033Y-141675000D01*
X245539967Y-141675000D01*
X245224088Y-141737832D01*
X244926537Y-141861082D01*
X244658748Y-142040013D01*
X244431013Y-142267748D01*
X244252082Y-142535537D01*
X244128832Y-142833088D01*
X244066000Y-143148967D01*
X244066000Y-143471033D01*
X244128832Y-143786912D01*
X244252082Y-144084463D01*
X244431013Y-144352252D01*
X244658748Y-144579987D01*
X244926537Y-144758918D01*
X245224088Y-144882168D01*
X245539967Y-144945000D01*
X245862033Y-144945000D01*
X246177912Y-144882168D01*
X246475463Y-144758918D01*
X246743252Y-144579987D01*
X246970987Y-144352252D01*
X247149918Y-144084463D01*
X247273168Y-143786912D01*
X247336000Y-143471033D01*
X247336000Y-143148967D01*
X247273168Y-142833088D01*
X247149918Y-142535537D01*
X247014655Y-142333102D01*
X247475178Y-142793625D01*
X247458832Y-142833088D01*
X247396000Y-143148967D01*
X247396000Y-143471033D01*
X247458832Y-143786912D01*
X247582082Y-144084463D01*
X247761013Y-144352252D01*
X247988748Y-144579987D01*
X248256537Y-144758918D01*
X248554088Y-144882168D01*
X248869967Y-144945000D01*
X249192033Y-144945000D01*
X249507912Y-144882168D01*
X249805463Y-144758918D01*
X250073252Y-144579987D01*
X250300987Y-144352252D01*
X250479918Y-144084463D01*
X250603168Y-143786912D01*
X250666000Y-143471033D01*
X250666000Y-143148967D01*
X253896000Y-143148967D01*
X253896000Y-143471033D01*
X253958832Y-143786912D01*
X254082082Y-144084463D01*
X254261013Y-144352252D01*
X254488748Y-144579987D01*
X254756537Y-144758918D01*
X255054088Y-144882168D01*
X255369967Y-144945000D01*
X255692033Y-144945000D01*
X256007912Y-144882168D01*
X256305463Y-144758918D01*
X256573252Y-144579987D01*
X256800987Y-144352252D01*
X256979918Y-144084463D01*
X257103168Y-143786912D01*
X257166000Y-143471033D01*
X257166000Y-143148967D01*
X257103168Y-142833088D01*
X256979918Y-142535537D01*
X256800987Y-142267748D01*
X256573252Y-142040013D01*
X256305463Y-141861082D01*
X256007912Y-141737832D01*
X255692033Y-141675000D01*
X255369967Y-141675000D01*
X255054088Y-141737832D01*
X254756537Y-141861082D01*
X254488748Y-142040013D01*
X254261013Y-142267748D01*
X254082082Y-142535537D01*
X253958832Y-142833088D01*
X253896000Y-143148967D01*
X250666000Y-143148967D01*
X250603168Y-142833088D01*
X250479918Y-142535537D01*
X250300987Y-142267748D01*
X250073252Y-142040013D01*
X249805463Y-141861082D01*
X249507912Y-141737832D01*
X249192033Y-141675000D01*
X248869967Y-141675000D01*
X248554088Y-141737832D01*
X248514625Y-141754178D01*
X244665000Y-137904554D01*
X244665000Y-100060957D01*
X244759014Y-100010706D01*
X244985134Y-99825134D01*
X245170706Y-99599014D01*
X245200000Y-99544209D01*
X245229294Y-99599014D01*
X245414866Y-99825134D01*
X245640986Y-100010706D01*
X245898966Y-100148599D01*
X246178889Y-100233513D01*
X246397050Y-100255000D01*
X246542950Y-100255000D01*
X246761111Y-100233513D01*
X247041034Y-100148599D01*
X247299014Y-100010706D01*
X247525134Y-99825134D01*
X247710706Y-99599014D01*
X247740000Y-99544209D01*
X247769294Y-99599014D01*
X247954866Y-99825134D01*
X248180986Y-100010706D01*
X248275000Y-100060958D01*
X248275001Y-103678585D01*
X248271444Y-103714700D01*
X248285635Y-103858785D01*
X248315901Y-103958555D01*
X248327664Y-103997333D01*
X248395914Y-104125020D01*
X248487763Y-104236938D01*
X248515808Y-104259954D01*
X252121774Y-107865921D01*
X252066506Y-107895463D01*
X251969815Y-107974815D01*
X251890463Y-108071506D01*
X251831498Y-108181820D01*
X251795188Y-108301518D01*
X251782928Y-108426000D01*
X251782928Y-110426000D01*
X251795188Y-110550482D01*
X251831498Y-110670180D01*
X251890463Y-110780494D01*
X251969815Y-110877185D01*
X252066506Y-110956537D01*
X252176820Y-111015502D01*
X252296518Y-111051812D01*
X252421000Y-111064072D01*
X254421000Y-111064072D01*
X254545482Y-111051812D01*
X254665180Y-111015502D01*
X254775494Y-110956537D01*
X254872185Y-110877185D01*
X254951537Y-110780494D01*
X255010502Y-110670180D01*
X255043496Y-110561413D01*
X260065192Y-110561413D01*
X260160956Y-110825814D01*
X260450571Y-110966704D01*
X260762108Y-111048384D01*
X261083595Y-111067718D01*
X261402675Y-111023961D01*
X261707088Y-110918795D01*
X261881044Y-110825814D01*
X261976808Y-110561413D01*
X261021000Y-109605605D01*
X260065192Y-110561413D01*
X255043496Y-110561413D01*
X255046812Y-110550482D01*
X255059072Y-110426000D01*
X255059072Y-109488595D01*
X259379282Y-109488595D01*
X259423039Y-109807675D01*
X259528205Y-110112088D01*
X259621186Y-110286044D01*
X259885587Y-110381808D01*
X260841395Y-109426000D01*
X261200605Y-109426000D01*
X262156413Y-110381808D01*
X262420814Y-110286044D01*
X262561704Y-109996429D01*
X262643384Y-109684892D01*
X262662718Y-109363405D01*
X262618961Y-109044325D01*
X262513795Y-108739912D01*
X262420814Y-108565956D01*
X262156413Y-108470192D01*
X261200605Y-109426000D01*
X260841395Y-109426000D01*
X259885587Y-108470192D01*
X259621186Y-108565956D01*
X259480296Y-108855571D01*
X259398616Y-109167108D01*
X259379282Y-109488595D01*
X255059072Y-109488595D01*
X255059072Y-108426000D01*
X255046812Y-108301518D01*
X255043497Y-108290587D01*
X260065192Y-108290587D01*
X261021000Y-109246395D01*
X261976808Y-108290587D01*
X261881044Y-108026186D01*
X261591429Y-107885296D01*
X261279892Y-107803616D01*
X260958405Y-107784282D01*
X260639325Y-107828039D01*
X260334912Y-107933205D01*
X260160956Y-108026186D01*
X260065192Y-108290587D01*
X255043497Y-108290587D01*
X255010502Y-108181820D01*
X254951537Y-108071506D01*
X254872185Y-107974815D01*
X254775494Y-107895463D01*
X254665180Y-107836498D01*
X254545482Y-107800188D01*
X254421000Y-107787928D01*
X254073865Y-107787928D01*
X254035087Y-107715380D01*
X253943238Y-107603462D01*
X253915193Y-107580446D01*
X249745000Y-103410254D01*
X249745000Y-100060957D01*
X249839014Y-100010706D01*
X250065134Y-99825134D01*
X250250706Y-99599014D01*
X250280000Y-99544209D01*
X250309294Y-99599014D01*
X250494866Y-99825134D01*
X250720986Y-100010706D01*
X250978966Y-100148599D01*
X251258889Y-100233513D01*
X251477050Y-100255000D01*
X251622950Y-100255000D01*
X251841111Y-100233513D01*
X252121034Y-100148599D01*
X252379014Y-100010706D01*
X252605134Y-99825134D01*
X252790706Y-99599014D01*
X252820000Y-99544209D01*
X252849294Y-99599014D01*
X253034866Y-99825134D01*
X253260986Y-100010706D01*
X253518966Y-100148599D01*
X253798889Y-100233513D01*
X254017050Y-100255000D01*
X254162950Y-100255000D01*
X254381111Y-100233513D01*
X254661034Y-100148599D01*
X254919014Y-100010706D01*
X255145134Y-99825134D01*
X255330706Y-99599014D01*
X255365201Y-99534477D01*
X255434822Y-99651355D01*
X255629731Y-99867588D01*
X255863080Y-100041641D01*
X256125901Y-100166825D01*
X256273110Y-100211476D01*
X256503000Y-100090155D01*
X256503000Y-98897000D01*
X256757000Y-98897000D01*
X256757000Y-100090155D01*
X256986890Y-100211476D01*
X257134099Y-100166825D01*
X257396920Y-100041641D01*
X257630269Y-99867588D01*
X257825178Y-99651355D01*
X257974157Y-99401252D01*
X258071481Y-99126891D01*
X257950814Y-98897000D01*
X256757000Y-98897000D01*
X256503000Y-98897000D01*
X256483000Y-98897000D01*
X256483000Y-98643000D01*
X256503000Y-98643000D01*
X256503000Y-98623000D01*
X256757000Y-98623000D01*
X256757000Y-98643000D01*
X257950814Y-98643000D01*
X258071481Y-98413109D01*
X257974157Y-98138748D01*
X257825178Y-97888645D01*
X257630269Y-97672412D01*
X257401244Y-97501584D01*
X257459014Y-97470706D01*
X257661542Y-97304495D01*
X259515000Y-97304495D01*
X259515000Y-97695505D01*
X259591282Y-98079003D01*
X259740915Y-98440250D01*
X259958149Y-98765364D01*
X260234636Y-99041851D01*
X260559750Y-99259085D01*
X260920997Y-99408718D01*
X261304495Y-99485000D01*
X261695505Y-99485000D01*
X262079003Y-99408718D01*
X262440250Y-99259085D01*
X262765364Y-99041851D01*
X263041851Y-98765364D01*
X263259085Y-98440250D01*
X263408718Y-98079003D01*
X263485000Y-97695505D01*
X263485000Y-97304495D01*
X263408718Y-96920997D01*
X263259085Y-96559750D01*
X263041851Y-96234636D01*
X262765364Y-95958149D01*
X262440250Y-95740915D01*
X262079003Y-95591282D01*
X261695505Y-95515000D01*
X261304495Y-95515000D01*
X260920997Y-95591282D01*
X260559750Y-95740915D01*
X260234636Y-95958149D01*
X259958149Y-96234636D01*
X259740915Y-96559750D01*
X259591282Y-96920997D01*
X259515000Y-97304495D01*
X257661542Y-97304495D01*
X257685134Y-97285134D01*
X257870706Y-97059014D01*
X258008599Y-96801034D01*
X258093513Y-96521111D01*
X258122185Y-96230000D01*
X258093513Y-95938889D01*
X258008599Y-95658966D01*
X257870706Y-95400986D01*
X257685134Y-95174866D01*
X257459014Y-94989294D01*
X257201034Y-94851401D01*
X256921111Y-94766487D01*
X256702950Y-94745000D01*
X256557050Y-94745000D01*
X256338889Y-94766487D01*
X256058966Y-94851401D01*
X255800986Y-94989294D01*
X255574866Y-95174866D01*
X255389294Y-95400986D01*
X255360000Y-95455791D01*
X255330706Y-95400986D01*
X255145134Y-95174866D01*
X254919014Y-94989294D01*
X254661034Y-94851401D01*
X254381111Y-94766487D01*
X254162950Y-94745000D01*
X254017050Y-94745000D01*
X253798889Y-94766487D01*
X253518966Y-94851401D01*
X253260986Y-94989294D01*
X253034866Y-95174866D01*
X252849294Y-95400986D01*
X252820000Y-95455791D01*
X252790706Y-95400986D01*
X252605134Y-95174866D01*
X252379014Y-94989294D01*
X252121034Y-94851401D01*
X251841111Y-94766487D01*
X251622950Y-94745000D01*
X251477050Y-94745000D01*
X251258889Y-94766487D01*
X250978966Y-94851401D01*
X250720986Y-94989294D01*
X250494866Y-95174866D01*
X250309294Y-95400986D01*
X250274799Y-95465523D01*
X250205178Y-95348645D01*
X250010269Y-95132412D01*
X249776920Y-94958359D01*
X249514099Y-94833175D01*
X249366890Y-94788524D01*
X249137000Y-94909845D01*
X249137000Y-96103000D01*
X249157000Y-96103000D01*
X249157000Y-96357000D01*
X249137000Y-96357000D01*
X249137000Y-96377000D01*
X248883000Y-96377000D01*
X248883000Y-96357000D01*
X248863000Y-96357000D01*
X248863000Y-96103000D01*
X248883000Y-96103000D01*
X248883000Y-94909845D01*
X248653110Y-94788524D01*
X248505901Y-94833175D01*
X248243080Y-94958359D01*
X248009731Y-95132412D01*
X247814822Y-95348645D01*
X247745201Y-95465523D01*
X247710706Y-95400986D01*
X247525134Y-95174866D01*
X247299014Y-94989294D01*
X247041034Y-94851401D01*
X246761111Y-94766487D01*
X246542950Y-94745000D01*
X246397050Y-94745000D01*
X246178889Y-94766487D01*
X245898966Y-94851401D01*
X245640986Y-94989294D01*
X245414866Y-95174866D01*
X245229294Y-95400986D01*
X245194799Y-95465523D01*
X245125178Y-95348645D01*
X244930269Y-95132412D01*
X244696920Y-94958359D01*
X244434099Y-94833175D01*
X244286890Y-94788524D01*
X244057000Y-94909845D01*
X244057000Y-96103000D01*
X244077000Y-96103000D01*
X244077000Y-96357000D01*
X244057000Y-96357000D01*
X244057000Y-96377000D01*
X243803000Y-96377000D01*
X243803000Y-96357000D01*
X243783000Y-96357000D01*
X243783000Y-96103000D01*
X243803000Y-96103000D01*
X243803000Y-94909845D01*
X243573110Y-94788524D01*
X243425901Y-94833175D01*
X243163080Y-94958359D01*
X242929731Y-95132412D01*
X242734822Y-95348645D01*
X242665201Y-95465523D01*
X242630706Y-95400986D01*
X242445134Y-95174866D01*
X242219014Y-94989294D01*
X241961034Y-94851401D01*
X241681111Y-94766487D01*
X241462950Y-94745000D01*
X241317050Y-94745000D01*
X241098889Y-94766487D01*
X240818966Y-94851401D01*
X240560986Y-94989294D01*
X240334866Y-95174866D01*
X240149294Y-95400986D01*
X240120000Y-95455791D01*
X240090706Y-95400986D01*
X239905134Y-95174866D01*
X239679014Y-94989294D01*
X239421034Y-94851401D01*
X239141111Y-94766487D01*
X238922950Y-94745000D01*
X238777050Y-94745000D01*
X238558889Y-94766487D01*
X238278966Y-94851401D01*
X238020986Y-94989294D01*
X237794866Y-95174866D01*
X237609294Y-95400986D01*
X237580000Y-95455791D01*
X237550706Y-95400986D01*
X237365134Y-95174866D01*
X237139014Y-94989294D01*
X236881034Y-94851401D01*
X236601111Y-94766487D01*
X236382950Y-94745000D01*
X236237050Y-94745000D01*
X236018889Y-94766487D01*
X235738966Y-94851401D01*
X235480986Y-94989294D01*
X235254866Y-95174866D01*
X235069294Y-95400986D01*
X235040000Y-95455791D01*
X235010706Y-95400986D01*
X234825134Y-95174866D01*
X234599014Y-94989294D01*
X234341034Y-94851401D01*
X234061111Y-94766487D01*
X233842950Y-94745000D01*
X233697050Y-94745000D01*
X233478889Y-94766487D01*
X233198966Y-94851401D01*
X232940986Y-94989294D01*
X232714866Y-95174866D01*
X232529294Y-95400986D01*
X232494799Y-95465523D01*
X232425178Y-95348645D01*
X232230269Y-95132412D01*
X231996920Y-94958359D01*
X231734099Y-94833175D01*
X231586890Y-94788524D01*
X231357000Y-94909845D01*
X231357000Y-96103000D01*
X231377000Y-96103000D01*
X231377000Y-96357000D01*
X231357000Y-96357000D01*
X231357000Y-96377000D01*
X231103000Y-96377000D01*
X231103000Y-96357000D01*
X231083000Y-96357000D01*
X231083000Y-96103000D01*
X231103000Y-96103000D01*
X231103000Y-94909845D01*
X230873110Y-94788524D01*
X230725901Y-94833175D01*
X230463080Y-94958359D01*
X230229731Y-95132412D01*
X230034822Y-95348645D01*
X229965201Y-95465523D01*
X229930706Y-95400986D01*
X229745134Y-95174866D01*
X229519014Y-94989294D01*
X229261034Y-94851401D01*
X228981111Y-94766487D01*
X228762950Y-94745000D01*
X228617050Y-94745000D01*
X228398889Y-94766487D01*
X228118966Y-94851401D01*
X227860986Y-94989294D01*
X227721343Y-95103896D01*
X227302446Y-94685000D01*
X261966495Y-94685000D01*
X262449016Y-94732312D01*
X262560199Y-94765880D01*
X264234059Y-96436828D01*
X264264498Y-96535161D01*
X264315001Y-97015663D01*
X264315000Y-146966495D01*
X264267688Y-147449016D01*
X264236442Y-147552509D01*
X262521198Y-149247052D01*
X262464834Y-149264500D01*
X261984346Y-149315000D01*
X256181759Y-149315000D01*
X256217088Y-149302795D01*
X256391044Y-149209814D01*
X256486808Y-148945413D01*
X255531000Y-147989605D01*
X254575192Y-148945413D01*
X254670956Y-149209814D01*
X254887177Y-149315000D01*
X249681759Y-149315000D01*
X249717088Y-149302795D01*
X249891044Y-149209814D01*
X249986808Y-148945413D01*
X249031000Y-147989605D01*
X248075192Y-148945413D01*
X248170956Y-149209814D01*
X248387177Y-149315000D01*
X246351759Y-149315000D01*
X246387088Y-149302795D01*
X246561044Y-149209814D01*
X246656808Y-148945413D01*
X245701000Y-147989605D01*
X244745192Y-148945413D01*
X244840956Y-149209814D01*
X245057177Y-149315000D01*
X239851759Y-149315000D01*
X239887088Y-149302795D01*
X240061044Y-149209814D01*
X240156808Y-148945413D01*
X239201000Y-147989605D01*
X238245192Y-148945413D01*
X238340956Y-149209814D01*
X238557177Y-149315000D01*
X236351759Y-149315000D01*
X236387088Y-149302795D01*
X236561044Y-149209814D01*
X236656808Y-148945413D01*
X235701000Y-147989605D01*
X234745192Y-148945413D01*
X234840956Y-149209814D01*
X235057177Y-149315000D01*
X229851759Y-149315000D01*
X229887088Y-149302795D01*
X230061044Y-149209814D01*
X230156808Y-148945413D01*
X229201000Y-147989605D01*
X228245192Y-148945413D01*
X228340956Y-149209814D01*
X228557177Y-149315000D01*
X226351759Y-149315000D01*
X226387088Y-149302795D01*
X226561044Y-149209814D01*
X226656808Y-148945413D01*
X225701000Y-147989605D01*
X224745192Y-148945413D01*
X224840956Y-149209814D01*
X225057177Y-149315000D01*
X219851759Y-149315000D01*
X219887088Y-149302795D01*
X220061044Y-149209814D01*
X220156808Y-148945413D01*
X219201000Y-147989605D01*
X218245192Y-148945413D01*
X218340956Y-149209814D01*
X218557177Y-149315000D01*
X216360759Y-149315000D01*
X216396088Y-149302795D01*
X216570044Y-149209814D01*
X216665808Y-148945413D01*
X215710000Y-147989605D01*
X214754192Y-148945413D01*
X214849956Y-149209814D01*
X215066177Y-149315000D01*
X209860759Y-149315000D01*
X209896088Y-149302795D01*
X210070044Y-149209814D01*
X210165808Y-148945413D01*
X209210000Y-147989605D01*
X208254192Y-148945413D01*
X208349956Y-149209814D01*
X208566177Y-149315000D01*
X203033504Y-149315000D01*
X202550984Y-149267688D01*
X202444013Y-149235392D01*
X200755390Y-147529086D01*
X200735500Y-147464834D01*
X200685000Y-146984346D01*
X200685000Y-146304495D01*
X201515000Y-146304495D01*
X201515000Y-146695505D01*
X201591282Y-147079003D01*
X201740915Y-147440250D01*
X201958149Y-147765364D01*
X202234636Y-148041851D01*
X202559750Y-148259085D01*
X202920997Y-148408718D01*
X203304495Y-148485000D01*
X203695505Y-148485000D01*
X204079003Y-148408718D01*
X204440250Y-148259085D01*
X204765364Y-148041851D01*
X204934620Y-147872595D01*
X207568282Y-147872595D01*
X207612039Y-148191675D01*
X207717205Y-148496088D01*
X207810186Y-148670044D01*
X208074587Y-148765808D01*
X209030395Y-147810000D01*
X209389605Y-147810000D01*
X210345413Y-148765808D01*
X210609814Y-148670044D01*
X210750704Y-148380429D01*
X210832384Y-148068892D01*
X210844189Y-147872595D01*
X214068282Y-147872595D01*
X214112039Y-148191675D01*
X214217205Y-148496088D01*
X214310186Y-148670044D01*
X214574587Y-148765808D01*
X215530395Y-147810000D01*
X215889605Y-147810000D01*
X216845413Y-148765808D01*
X217109814Y-148670044D01*
X217250704Y-148380429D01*
X217332384Y-148068892D01*
X217344189Y-147872595D01*
X217559282Y-147872595D01*
X217603039Y-148191675D01*
X217708205Y-148496088D01*
X217801186Y-148670044D01*
X218065587Y-148765808D01*
X219021395Y-147810000D01*
X219380605Y-147810000D01*
X220336413Y-148765808D01*
X220600814Y-148670044D01*
X220741704Y-148380429D01*
X220823384Y-148068892D01*
X220835189Y-147872595D01*
X224059282Y-147872595D01*
X224103039Y-148191675D01*
X224208205Y-148496088D01*
X224301186Y-148670044D01*
X224565587Y-148765808D01*
X225521395Y-147810000D01*
X225880605Y-147810000D01*
X226836413Y-148765808D01*
X227100814Y-148670044D01*
X227241704Y-148380429D01*
X227323384Y-148068892D01*
X227335189Y-147872595D01*
X227559282Y-147872595D01*
X227603039Y-148191675D01*
X227708205Y-148496088D01*
X227801186Y-148670044D01*
X228065587Y-148765808D01*
X229021395Y-147810000D01*
X229380605Y-147810000D01*
X230336413Y-148765808D01*
X230600814Y-148670044D01*
X230741704Y-148380429D01*
X230823384Y-148068892D01*
X230835189Y-147872595D01*
X234059282Y-147872595D01*
X234103039Y-148191675D01*
X234208205Y-148496088D01*
X234301186Y-148670044D01*
X234565587Y-148765808D01*
X235521395Y-147810000D01*
X235880605Y-147810000D01*
X236836413Y-148765808D01*
X237100814Y-148670044D01*
X237241704Y-148380429D01*
X237323384Y-148068892D01*
X237335189Y-147872595D01*
X237559282Y-147872595D01*
X237603039Y-148191675D01*
X237708205Y-148496088D01*
X237801186Y-148670044D01*
X238065587Y-148765808D01*
X239021395Y-147810000D01*
X239380605Y-147810000D01*
X240336413Y-148765808D01*
X240600814Y-148670044D01*
X240741704Y-148380429D01*
X240823384Y-148068892D01*
X240835189Y-147872595D01*
X244059282Y-147872595D01*
X244103039Y-148191675D01*
X244208205Y-148496088D01*
X244301186Y-148670044D01*
X244565587Y-148765808D01*
X245521395Y-147810000D01*
X245880605Y-147810000D01*
X246836413Y-148765808D01*
X247100814Y-148670044D01*
X247241704Y-148380429D01*
X247323384Y-148068892D01*
X247335189Y-147872595D01*
X247389282Y-147872595D01*
X247433039Y-148191675D01*
X247538205Y-148496088D01*
X247631186Y-148670044D01*
X247895587Y-148765808D01*
X248851395Y-147810000D01*
X249210605Y-147810000D01*
X250166413Y-148765808D01*
X250430814Y-148670044D01*
X250571704Y-148380429D01*
X250653384Y-148068892D01*
X250665189Y-147872595D01*
X253889282Y-147872595D01*
X253933039Y-148191675D01*
X254038205Y-148496088D01*
X254131186Y-148670044D01*
X254395587Y-148765808D01*
X255351395Y-147810000D01*
X255710605Y-147810000D01*
X256666413Y-148765808D01*
X256930814Y-148670044D01*
X257071704Y-148380429D01*
X257153384Y-148068892D01*
X257172718Y-147747405D01*
X257128961Y-147428325D01*
X257023795Y-147123912D01*
X256930814Y-146949956D01*
X256666413Y-146854192D01*
X255710605Y-147810000D01*
X255351395Y-147810000D01*
X254395587Y-146854192D01*
X254131186Y-146949956D01*
X253990296Y-147239571D01*
X253908616Y-147551108D01*
X253889282Y-147872595D01*
X250665189Y-147872595D01*
X250672718Y-147747405D01*
X250628961Y-147428325D01*
X250523795Y-147123912D01*
X250430814Y-146949956D01*
X250166413Y-146854192D01*
X249210605Y-147810000D01*
X248851395Y-147810000D01*
X247895587Y-146854192D01*
X247631186Y-146949956D01*
X247490296Y-147239571D01*
X247408616Y-147551108D01*
X247389282Y-147872595D01*
X247335189Y-147872595D01*
X247342718Y-147747405D01*
X247298961Y-147428325D01*
X247193795Y-147123912D01*
X247100814Y-146949956D01*
X246836413Y-146854192D01*
X245880605Y-147810000D01*
X245521395Y-147810000D01*
X244565587Y-146854192D01*
X244301186Y-146949956D01*
X244160296Y-147239571D01*
X244078616Y-147551108D01*
X244059282Y-147872595D01*
X240835189Y-147872595D01*
X240842718Y-147747405D01*
X240798961Y-147428325D01*
X240693795Y-147123912D01*
X240600814Y-146949956D01*
X240336413Y-146854192D01*
X239380605Y-147810000D01*
X239021395Y-147810000D01*
X238065587Y-146854192D01*
X237801186Y-146949956D01*
X237660296Y-147239571D01*
X237578616Y-147551108D01*
X237559282Y-147872595D01*
X237335189Y-147872595D01*
X237342718Y-147747405D01*
X237298961Y-147428325D01*
X237193795Y-147123912D01*
X237100814Y-146949956D01*
X236836413Y-146854192D01*
X235880605Y-147810000D01*
X235521395Y-147810000D01*
X234565587Y-146854192D01*
X234301186Y-146949956D01*
X234160296Y-147239571D01*
X234078616Y-147551108D01*
X234059282Y-147872595D01*
X230835189Y-147872595D01*
X230842718Y-147747405D01*
X230798961Y-147428325D01*
X230693795Y-147123912D01*
X230600814Y-146949956D01*
X230336413Y-146854192D01*
X229380605Y-147810000D01*
X229021395Y-147810000D01*
X228065587Y-146854192D01*
X227801186Y-146949956D01*
X227660296Y-147239571D01*
X227578616Y-147551108D01*
X227559282Y-147872595D01*
X227335189Y-147872595D01*
X227342718Y-147747405D01*
X227298961Y-147428325D01*
X227193795Y-147123912D01*
X227100814Y-146949956D01*
X226836413Y-146854192D01*
X225880605Y-147810000D01*
X225521395Y-147810000D01*
X224565587Y-146854192D01*
X224301186Y-146949956D01*
X224160296Y-147239571D01*
X224078616Y-147551108D01*
X224059282Y-147872595D01*
X220835189Y-147872595D01*
X220842718Y-147747405D01*
X220798961Y-147428325D01*
X220693795Y-147123912D01*
X220600814Y-146949956D01*
X220336413Y-146854192D01*
X219380605Y-147810000D01*
X219021395Y-147810000D01*
X218065587Y-146854192D01*
X217801186Y-146949956D01*
X217660296Y-147239571D01*
X217578616Y-147551108D01*
X217559282Y-147872595D01*
X217344189Y-147872595D01*
X217351718Y-147747405D01*
X217307961Y-147428325D01*
X217202795Y-147123912D01*
X217109814Y-146949956D01*
X216845413Y-146854192D01*
X215889605Y-147810000D01*
X215530395Y-147810000D01*
X214574587Y-146854192D01*
X214310186Y-146949956D01*
X214169296Y-147239571D01*
X214087616Y-147551108D01*
X214068282Y-147872595D01*
X210844189Y-147872595D01*
X210851718Y-147747405D01*
X210807961Y-147428325D01*
X210702795Y-147123912D01*
X210609814Y-146949956D01*
X210345413Y-146854192D01*
X209389605Y-147810000D01*
X209030395Y-147810000D01*
X208074587Y-146854192D01*
X207810186Y-146949956D01*
X207669296Y-147239571D01*
X207587616Y-147551108D01*
X207568282Y-147872595D01*
X204934620Y-147872595D01*
X205041851Y-147765364D01*
X205259085Y-147440250D01*
X205408718Y-147079003D01*
X205485000Y-146695505D01*
X205485000Y-146674587D01*
X208254192Y-146674587D01*
X209210000Y-147630395D01*
X210165808Y-146674587D01*
X214754192Y-146674587D01*
X215710000Y-147630395D01*
X216665808Y-146674587D01*
X218245192Y-146674587D01*
X219201000Y-147630395D01*
X220156808Y-146674587D01*
X224745192Y-146674587D01*
X225701000Y-147630395D01*
X226656808Y-146674587D01*
X228245192Y-146674587D01*
X229201000Y-147630395D01*
X230156808Y-146674587D01*
X234745192Y-146674587D01*
X235701000Y-147630395D01*
X236656808Y-146674587D01*
X238245192Y-146674587D01*
X239201000Y-147630395D01*
X240156808Y-146674587D01*
X244745192Y-146674587D01*
X245701000Y-147630395D01*
X246656808Y-146674587D01*
X248075192Y-146674587D01*
X249031000Y-147630395D01*
X249986808Y-146674587D01*
X254575192Y-146674587D01*
X255531000Y-147630395D01*
X256486808Y-146674587D01*
X256391044Y-146410186D01*
X256173785Y-146304495D01*
X259515000Y-146304495D01*
X259515000Y-146695505D01*
X259591282Y-147079003D01*
X259740915Y-147440250D01*
X259958149Y-147765364D01*
X260234636Y-148041851D01*
X260559750Y-148259085D01*
X260920997Y-148408718D01*
X261304495Y-148485000D01*
X261695505Y-148485000D01*
X262079003Y-148408718D01*
X262440250Y-148259085D01*
X262765364Y-148041851D01*
X263041851Y-147765364D01*
X263259085Y-147440250D01*
X263408718Y-147079003D01*
X263485000Y-146695505D01*
X263485000Y-146304495D01*
X263408718Y-145920997D01*
X263259085Y-145559750D01*
X263041851Y-145234636D01*
X262765364Y-144958149D01*
X262440250Y-144740915D01*
X262079003Y-144591282D01*
X261695505Y-144515000D01*
X261304495Y-144515000D01*
X260920997Y-144591282D01*
X260559750Y-144740915D01*
X260234636Y-144958149D01*
X259958149Y-145234636D01*
X259740915Y-145559750D01*
X259591282Y-145920997D01*
X259515000Y-146304495D01*
X256173785Y-146304495D01*
X256101429Y-146269296D01*
X255789892Y-146187616D01*
X255468405Y-146168282D01*
X255149325Y-146212039D01*
X254844912Y-146317205D01*
X254670956Y-146410186D01*
X254575192Y-146674587D01*
X249986808Y-146674587D01*
X249891044Y-146410186D01*
X249601429Y-146269296D01*
X249289892Y-146187616D01*
X248968405Y-146168282D01*
X248649325Y-146212039D01*
X248344912Y-146317205D01*
X248170956Y-146410186D01*
X248075192Y-146674587D01*
X246656808Y-146674587D01*
X246561044Y-146410186D01*
X246271429Y-146269296D01*
X245959892Y-146187616D01*
X245638405Y-146168282D01*
X245319325Y-146212039D01*
X245014912Y-146317205D01*
X244840956Y-146410186D01*
X244745192Y-146674587D01*
X240156808Y-146674587D01*
X240061044Y-146410186D01*
X239771429Y-146269296D01*
X239459892Y-146187616D01*
X239138405Y-146168282D01*
X238819325Y-146212039D01*
X238514912Y-146317205D01*
X238340956Y-146410186D01*
X238245192Y-146674587D01*
X236656808Y-146674587D01*
X236561044Y-146410186D01*
X236271429Y-146269296D01*
X235959892Y-146187616D01*
X235638405Y-146168282D01*
X235319325Y-146212039D01*
X235014912Y-146317205D01*
X234840956Y-146410186D01*
X234745192Y-146674587D01*
X230156808Y-146674587D01*
X230061044Y-146410186D01*
X229771429Y-146269296D01*
X229459892Y-146187616D01*
X229138405Y-146168282D01*
X228819325Y-146212039D01*
X228514912Y-146317205D01*
X228340956Y-146410186D01*
X228245192Y-146674587D01*
X226656808Y-146674587D01*
X226561044Y-146410186D01*
X226271429Y-146269296D01*
X225959892Y-146187616D01*
X225638405Y-146168282D01*
X225319325Y-146212039D01*
X225014912Y-146317205D01*
X224840956Y-146410186D01*
X224745192Y-146674587D01*
X220156808Y-146674587D01*
X220061044Y-146410186D01*
X219771429Y-146269296D01*
X219459892Y-146187616D01*
X219138405Y-146168282D01*
X218819325Y-146212039D01*
X218514912Y-146317205D01*
X218340956Y-146410186D01*
X218245192Y-146674587D01*
X216665808Y-146674587D01*
X216570044Y-146410186D01*
X216280429Y-146269296D01*
X215968892Y-146187616D01*
X215647405Y-146168282D01*
X215328325Y-146212039D01*
X215023912Y-146317205D01*
X214849956Y-146410186D01*
X214754192Y-146674587D01*
X210165808Y-146674587D01*
X210070044Y-146410186D01*
X209780429Y-146269296D01*
X209468892Y-146187616D01*
X209147405Y-146168282D01*
X208828325Y-146212039D01*
X208523912Y-146317205D01*
X208349956Y-146410186D01*
X208254192Y-146674587D01*
X205485000Y-146674587D01*
X205485000Y-146304495D01*
X205408718Y-145920997D01*
X205259085Y-145559750D01*
X205041851Y-145234636D01*
X204765364Y-144958149D01*
X204440250Y-144740915D01*
X204079003Y-144591282D01*
X203695505Y-144515000D01*
X203304495Y-144515000D01*
X202920997Y-144591282D01*
X202559750Y-144740915D01*
X202234636Y-144958149D01*
X201958149Y-145234636D01*
X201740915Y-145559750D01*
X201591282Y-145920997D01*
X201515000Y-146304495D01*
X200685000Y-146304495D01*
X200685000Y-143148967D01*
X207575000Y-143148967D01*
X207575000Y-143471033D01*
X207637832Y-143786912D01*
X207761082Y-144084463D01*
X207940013Y-144352252D01*
X208167748Y-144579987D01*
X208435537Y-144758918D01*
X208733088Y-144882168D01*
X209048967Y-144945000D01*
X209371033Y-144945000D01*
X209686912Y-144882168D01*
X209984463Y-144758918D01*
X210252252Y-144579987D01*
X210479987Y-144352252D01*
X210658918Y-144084463D01*
X210782168Y-143786912D01*
X210845000Y-143471033D01*
X210845000Y-143148967D01*
X210782168Y-142833088D01*
X210658918Y-142535537D01*
X210479987Y-142267748D01*
X210252252Y-142040013D01*
X209984463Y-141861082D01*
X209686912Y-141737832D01*
X209371033Y-141675000D01*
X209048967Y-141675000D01*
X208733088Y-141737832D01*
X208435537Y-141861082D01*
X208167748Y-142040013D01*
X207940013Y-142267748D01*
X207761082Y-142535537D01*
X207637832Y-142833088D01*
X207575000Y-143148967D01*
X200685000Y-143148967D01*
X200685000Y-126801110D01*
X205738524Y-126801110D01*
X205859845Y-127031000D01*
X207178000Y-127031000D01*
X207178000Y-125831835D01*
X207432000Y-125831835D01*
X207432000Y-127031000D01*
X208750155Y-127031000D01*
X208871476Y-126801110D01*
X208779352Y-126538142D01*
X208632496Y-126286807D01*
X208439429Y-126068951D01*
X208207570Y-125892947D01*
X207945830Y-125765558D01*
X207664267Y-125691680D01*
X207432000Y-125831835D01*
X207178000Y-125831835D01*
X206945733Y-125691680D01*
X206664170Y-125765558D01*
X206402430Y-125892947D01*
X206170571Y-126068951D01*
X205977504Y-126286807D01*
X205830648Y-126538142D01*
X205738524Y-126801110D01*
X200685000Y-126801110D01*
X200685000Y-115346562D01*
X201055640Y-115346562D01*
X201055640Y-115678478D01*
X201120394Y-116004016D01*
X201247412Y-116310667D01*
X201431815Y-116586645D01*
X201666515Y-116821345D01*
X201775826Y-116894384D01*
X201731815Y-116938395D01*
X201547412Y-117214373D01*
X201420394Y-117521024D01*
X201355640Y-117846562D01*
X201355640Y-118178478D01*
X201420394Y-118504016D01*
X201547412Y-118810667D01*
X201731815Y-119086645D01*
X201966515Y-119321345D01*
X202242493Y-119505748D01*
X202549144Y-119632766D01*
X202874682Y-119697520D01*
X203206598Y-119697520D01*
X203532136Y-119632766D01*
X203838787Y-119505748D01*
X204114765Y-119321345D01*
X204349465Y-119086645D01*
X204533868Y-118810667D01*
X204660886Y-118504016D01*
X204725640Y-118178478D01*
X204725640Y-117846562D01*
X204660886Y-117521024D01*
X204533868Y-117214373D01*
X204349465Y-116938395D01*
X204114765Y-116703695D01*
X204005454Y-116630656D01*
X204049465Y-116586645D01*
X204233868Y-116310667D01*
X204360886Y-116004016D01*
X204425640Y-115678478D01*
X204425640Y-115346562D01*
X204360886Y-115021024D01*
X204233868Y-114714373D01*
X204049465Y-114438395D01*
X203814765Y-114203695D01*
X203538787Y-114019292D01*
X203232136Y-113892274D01*
X202906598Y-113827520D01*
X202574682Y-113827520D01*
X202249144Y-113892274D01*
X201942493Y-114019292D01*
X201666515Y-114203695D01*
X201431815Y-114438395D01*
X201247412Y-114714373D01*
X201120394Y-115021024D01*
X201055640Y-115346562D01*
X200685000Y-115346562D01*
X200685000Y-110346562D01*
X201055640Y-110346562D01*
X201055640Y-110678478D01*
X201120394Y-111004016D01*
X201247412Y-111310667D01*
X201431815Y-111586645D01*
X201666515Y-111821345D01*
X201942493Y-112005748D01*
X202249144Y-112132766D01*
X202574682Y-112197520D01*
X202906598Y-112197520D01*
X203232136Y-112132766D01*
X203538787Y-112005748D01*
X203814765Y-111821345D01*
X204049465Y-111586645D01*
X204233868Y-111310667D01*
X204360886Y-111004016D01*
X204425640Y-110678478D01*
X204425640Y-110346562D01*
X204360886Y-110021024D01*
X204233868Y-109714373D01*
X204049465Y-109438395D01*
X204005454Y-109394384D01*
X204114765Y-109321345D01*
X204349465Y-109086645D01*
X204533868Y-108810667D01*
X204660886Y-108504016D01*
X204725640Y-108178478D01*
X204725640Y-107846562D01*
X204660886Y-107521024D01*
X204533868Y-107214373D01*
X204349465Y-106938395D01*
X204114765Y-106703695D01*
X203838787Y-106519292D01*
X203532136Y-106392274D01*
X203206598Y-106327520D01*
X202874682Y-106327520D01*
X202549144Y-106392274D01*
X202242493Y-106519292D01*
X201966515Y-106703695D01*
X201731815Y-106938395D01*
X201547412Y-107214373D01*
X201420394Y-107521024D01*
X201355640Y-107846562D01*
X201355640Y-108178478D01*
X201420394Y-108504016D01*
X201547412Y-108810667D01*
X201731815Y-109086645D01*
X201775826Y-109130656D01*
X201666515Y-109203695D01*
X201431815Y-109438395D01*
X201247412Y-109714373D01*
X201120394Y-110021024D01*
X201055640Y-110346562D01*
X200685000Y-110346562D01*
X200685000Y-97304495D01*
X201515000Y-97304495D01*
X201515000Y-97695505D01*
X201591282Y-98079003D01*
X201740915Y-98440250D01*
X201958149Y-98765364D01*
X202234636Y-99041851D01*
X202559750Y-99259085D01*
X202920997Y-99408718D01*
X203304495Y-99485000D01*
X203695505Y-99485000D01*
X204079003Y-99408718D01*
X204440250Y-99259085D01*
X204765364Y-99041851D01*
X205041851Y-98765364D01*
X205259085Y-98440250D01*
X205408718Y-98079003D01*
X205485000Y-97695505D01*
X205485000Y-97304495D01*
X205408718Y-96920997D01*
X205259085Y-96559750D01*
X205041851Y-96234636D01*
X204765364Y-95958149D01*
X204440250Y-95740915D01*
X204079003Y-95591282D01*
X203695505Y-95515000D01*
X203304495Y-95515000D01*
X202920997Y-95591282D01*
X202559750Y-95740915D01*
X202234636Y-95958149D01*
X201958149Y-96234636D01*
X201740915Y-96559750D01*
X201591282Y-96920997D01*
X201515000Y-97304495D01*
X200685000Y-97304495D01*
X200685000Y-97033505D01*
X200732312Y-96550984D01*
X200766016Y-96439350D01*
X202440589Y-94764777D01*
X202535161Y-94735502D01*
X203015654Y-94685000D01*
X219939553Y-94685000D01*
X219510741Y-95113813D01*
G36*
X211072315Y-113518601D02*
G01*
X211203103Y-113834351D01*
X211392977Y-114118518D01*
X211634642Y-114360183D01*
X211918809Y-114550057D01*
X212234559Y-114680845D01*
X212569757Y-114747520D01*
X212911523Y-114747520D01*
X213246721Y-114680845D01*
X213304476Y-114656922D01*
X214948609Y-116301055D01*
X214843201Y-116315031D01*
X214519674Y-116425184D01*
X214321366Y-116531182D01*
X214213533Y-116805808D01*
X215240640Y-117832915D01*
X215254783Y-117818773D01*
X215434388Y-117998378D01*
X215420245Y-118012520D01*
X216447352Y-119039627D01*
X216721978Y-118931794D01*
X216872856Y-118625136D01*
X216957106Y-118309553D01*
X217579000Y-118931447D01*
X217579001Y-125844552D01*
X208908141Y-134515412D01*
X208893513Y-134366889D01*
X208808599Y-134086966D01*
X208670706Y-133828986D01*
X208582202Y-133721144D01*
X210692497Y-131610850D01*
X210720537Y-131587838D01*
X210743550Y-131559797D01*
X210743553Y-131559794D01*
X210792513Y-131500136D01*
X210812387Y-131475920D01*
X210880637Y-131348233D01*
X210922665Y-131209685D01*
X210933300Y-131101705D01*
X210933300Y-131101704D01*
X210936856Y-131065600D01*
X210933300Y-131029495D01*
X210933300Y-120341637D01*
X211005640Y-120341637D01*
X211005640Y-120683403D01*
X211072315Y-121018601D01*
X211203103Y-121334351D01*
X211392977Y-121618518D01*
X211634642Y-121860183D01*
X211918809Y-122050057D01*
X212234559Y-122180845D01*
X212569757Y-122247520D01*
X212911523Y-122247520D01*
X213246721Y-122180845D01*
X213562471Y-122050057D01*
X213846638Y-121860183D01*
X214088303Y-121618518D01*
X214278177Y-121334351D01*
X214408965Y-121018601D01*
X214475640Y-120683403D01*
X214475640Y-120341637D01*
X214408965Y-120006439D01*
X214278177Y-119690689D01*
X214088303Y-119406522D01*
X213901013Y-119219232D01*
X214213533Y-119219232D01*
X214321366Y-119493858D01*
X214628024Y-119644736D01*
X214958225Y-119732889D01*
X215299279Y-119754929D01*
X215638079Y-119710009D01*
X215961606Y-119599856D01*
X216159914Y-119493858D01*
X216267747Y-119219232D01*
X215240640Y-118192125D01*
X214213533Y-119219232D01*
X213901013Y-119219232D01*
X213846638Y-119164857D01*
X213562471Y-118974983D01*
X213246721Y-118844195D01*
X212911523Y-118777520D01*
X212569757Y-118777520D01*
X212234559Y-118844195D01*
X211918809Y-118974983D01*
X211634642Y-119164857D01*
X211392977Y-119406522D01*
X211203103Y-119690689D01*
X211072315Y-120006439D01*
X211005640Y-120341637D01*
X210933300Y-120341637D01*
X210933300Y-118071159D01*
X213498231Y-118071159D01*
X213543151Y-118409959D01*
X213653304Y-118733486D01*
X213759302Y-118931794D01*
X214033928Y-119039627D01*
X215061035Y-118012520D01*
X214033928Y-116985413D01*
X213759302Y-117093246D01*
X213608424Y-117399904D01*
X213520271Y-117730105D01*
X213498231Y-118071159D01*
X210933300Y-118071159D01*
X210933300Y-113379146D01*
X211026114Y-113286332D01*
X211072315Y-113518601D01*
X211072315Y-113518601D01*
G37*
X211072315Y-113518601D02*
X211203103Y-113834351D01*
X211392977Y-114118518D01*
X211634642Y-114360183D01*
X211918809Y-114550057D01*
X212234559Y-114680845D01*
X212569757Y-114747520D01*
X212911523Y-114747520D01*
X213246721Y-114680845D01*
X213304476Y-114656922D01*
X214948609Y-116301055D01*
X214843201Y-116315031D01*
X214519674Y-116425184D01*
X214321366Y-116531182D01*
X214213533Y-116805808D01*
X215240640Y-117832915D01*
X215254783Y-117818773D01*
X215434388Y-117998378D01*
X215420245Y-118012520D01*
X216447352Y-119039627D01*
X216721978Y-118931794D01*
X216872856Y-118625136D01*
X216957106Y-118309553D01*
X217579000Y-118931447D01*
X217579001Y-125844552D01*
X208908141Y-134515412D01*
X208893513Y-134366889D01*
X208808599Y-134086966D01*
X208670706Y-133828986D01*
X208582202Y-133721144D01*
X210692497Y-131610850D01*
X210720537Y-131587838D01*
X210743550Y-131559797D01*
X210743553Y-131559794D01*
X210792513Y-131500136D01*
X210812387Y-131475920D01*
X210880637Y-131348233D01*
X210922665Y-131209685D01*
X210933300Y-131101705D01*
X210933300Y-131101704D01*
X210936856Y-131065600D01*
X210933300Y-131029495D01*
X210933300Y-120341637D01*
X211005640Y-120341637D01*
X211005640Y-120683403D01*
X211072315Y-121018601D01*
X211203103Y-121334351D01*
X211392977Y-121618518D01*
X211634642Y-121860183D01*
X211918809Y-122050057D01*
X212234559Y-122180845D01*
X212569757Y-122247520D01*
X212911523Y-122247520D01*
X213246721Y-122180845D01*
X213562471Y-122050057D01*
X213846638Y-121860183D01*
X214088303Y-121618518D01*
X214278177Y-121334351D01*
X214408965Y-121018601D01*
X214475640Y-120683403D01*
X214475640Y-120341637D01*
X214408965Y-120006439D01*
X214278177Y-119690689D01*
X214088303Y-119406522D01*
X213901013Y-119219232D01*
X214213533Y-119219232D01*
X214321366Y-119493858D01*
X214628024Y-119644736D01*
X214958225Y-119732889D01*
X215299279Y-119754929D01*
X215638079Y-119710009D01*
X215961606Y-119599856D01*
X216159914Y-119493858D01*
X216267747Y-119219232D01*
X215240640Y-118192125D01*
X214213533Y-119219232D01*
X213901013Y-119219232D01*
X213846638Y-119164857D01*
X213562471Y-118974983D01*
X213246721Y-118844195D01*
X212911523Y-118777520D01*
X212569757Y-118777520D01*
X212234559Y-118844195D01*
X211918809Y-118974983D01*
X211634642Y-119164857D01*
X211392977Y-119406522D01*
X211203103Y-119690689D01*
X211072315Y-120006439D01*
X211005640Y-120341637D01*
X210933300Y-120341637D01*
X210933300Y-118071159D01*
X213498231Y-118071159D01*
X213543151Y-118409959D01*
X213653304Y-118733486D01*
X213759302Y-118931794D01*
X214033928Y-119039627D01*
X215061035Y-118012520D01*
X214033928Y-116985413D01*
X213759302Y-117093246D01*
X213608424Y-117399904D01*
X213520271Y-117730105D01*
X213498231Y-118071159D01*
X210933300Y-118071159D01*
X210933300Y-113379146D01*
X211026114Y-113286332D01*
X211072315Y-113518601D01*
G36*
X218657000Y-98643000D02*
G01*
X218677000Y-98643000D01*
X218677000Y-98897000D01*
X218657000Y-98897000D01*
X218657000Y-98917000D01*
X218403000Y-98917000D01*
X218403000Y-98897000D01*
X218383000Y-98897000D01*
X218383000Y-98643000D01*
X218403000Y-98643000D01*
X218403000Y-98623000D01*
X218657000Y-98623000D01*
X218657000Y-98643000D01*
X218657000Y-98643000D01*
G37*
X218657000Y-98643000D02*
X218677000Y-98643000D01*
X218677000Y-98897000D01*
X218657000Y-98897000D01*
X218657000Y-98917000D01*
X218403000Y-98917000D01*
X218403000Y-98897000D01*
X218383000Y-98897000D01*
X218383000Y-98643000D01*
X218403000Y-98643000D01*
X218403000Y-98623000D01*
X218657000Y-98623000D01*
X218657000Y-98643000D01*
G36*
X223737000Y-96103000D02*
G01*
X223757000Y-96103000D01*
X223757000Y-96357000D01*
X223737000Y-96357000D01*
X223737000Y-96377000D01*
X223483000Y-96377000D01*
X223483000Y-96357000D01*
X223463000Y-96357000D01*
X223463000Y-96103000D01*
X223483000Y-96103000D01*
X223483000Y-96083000D01*
X223737000Y-96083000D01*
X223737000Y-96103000D01*
X223737000Y-96103000D01*
G37*
X223737000Y-96103000D02*
X223757000Y-96103000D01*
X223757000Y-96357000D01*
X223737000Y-96357000D01*
X223737000Y-96377000D01*
X223483000Y-96377000D01*
X223483000Y-96357000D01*
X223463000Y-96357000D01*
X223463000Y-96103000D01*
X223483000Y-96103000D01*
X223483000Y-96083000D01*
X223737000Y-96083000D01*
X223737000Y-96103000D01*
M02*
