G04 #@! TF.GenerationSoftware,KiCad,Pcbnew,(5.1.0)-1*
G04 #@! TF.CreationDate,2020-07-11T17:50:00+02:00*
G04 #@! TF.ProjectId,Pi1541,50693135-3431-42e6-9b69-6361645f7063,rev?*
G04 #@! TF.SameCoordinates,Original*
G04 #@! TF.FileFunction,Copper,L1,Top*
G04 #@! TF.FilePolarity,Positive*
%FSLAX46Y46*%
G04 Gerber Fmt 4.6, Leading zero omitted, Abs format (unit mm)*
G04 Created by KiCad (PCBNEW (5.1.0)-1) date 2020-07-11 17:50:00*
%MOMM*%
%LPD*%
G04 APERTURE LIST*
%ADD10C,2.100000*%
%ADD11C,2.200000*%
%ADD12R,2.000000X2.000000*%
%ADD13C,2.000000*%
%ADD14R,1.700000X1.700000*%
%ADD15O,1.700000X1.700000*%
%ADD16C,0.150000*%
%ADD17C,1.700000*%
%ADD18O,1.950000X1.700000*%
%ADD19C,0.590000*%
%ADD20C,0.900000*%
%ADD21C,0.200000*%
%ADD22C,0.254000*%
G04 APERTURE END LIST*
D10*
X202740640Y-115512520D03*
X202740640Y-110512520D03*
X203040640Y-118012520D03*
X203040640Y-108012520D03*
D11*
X212740640Y-105512520D03*
X212740640Y-113012520D03*
X212740640Y-120512520D03*
X215240640Y-108012520D03*
X215240640Y-118012520D03*
X217740640Y-113012520D03*
D12*
X253421000Y-109426000D03*
D13*
X261021000Y-109426000D03*
D14*
X232161000Y-106485000D03*
D15*
X234701000Y-106485000D03*
X237241000Y-106485000D03*
X239781000Y-106485000D03*
D13*
X249031000Y-147810000D03*
X249031000Y-143310000D03*
X255531000Y-147810000D03*
X255531000Y-143310000D03*
X245701000Y-143310000D03*
X245701000Y-147810000D03*
X239201000Y-143310000D03*
X239201000Y-147810000D03*
X229201000Y-147810000D03*
X229201000Y-143310000D03*
X235701000Y-147810000D03*
X235701000Y-143310000D03*
X225701000Y-143310000D03*
X225701000Y-147810000D03*
X219201000Y-143310000D03*
X219201000Y-147810000D03*
X209210000Y-147810000D03*
X209210000Y-143310000D03*
X215710000Y-147810000D03*
X215710000Y-143310000D03*
D16*
G36*
X208054504Y-136309204D02*
G01*
X208078773Y-136312804D01*
X208102571Y-136318765D01*
X208125671Y-136327030D01*
X208147849Y-136337520D01*
X208168893Y-136350133D01*
X208188598Y-136364747D01*
X208206777Y-136381223D01*
X208223253Y-136399402D01*
X208237867Y-136419107D01*
X208250480Y-136440151D01*
X208260970Y-136462329D01*
X208269235Y-136485429D01*
X208275196Y-136509227D01*
X208278796Y-136533496D01*
X208280000Y-136558000D01*
X208280000Y-137758000D01*
X208278796Y-137782504D01*
X208275196Y-137806773D01*
X208269235Y-137830571D01*
X208260970Y-137853671D01*
X208250480Y-137875849D01*
X208237867Y-137896893D01*
X208223253Y-137916598D01*
X208206777Y-137934777D01*
X208188598Y-137951253D01*
X208168893Y-137965867D01*
X208147849Y-137978480D01*
X208125671Y-137988970D01*
X208102571Y-137997235D01*
X208078773Y-138003196D01*
X208054504Y-138006796D01*
X208030000Y-138008000D01*
X206580000Y-138008000D01*
X206555496Y-138006796D01*
X206531227Y-138003196D01*
X206507429Y-137997235D01*
X206484329Y-137988970D01*
X206462151Y-137978480D01*
X206441107Y-137965867D01*
X206421402Y-137951253D01*
X206403223Y-137934777D01*
X206386747Y-137916598D01*
X206372133Y-137896893D01*
X206359520Y-137875849D01*
X206349030Y-137853671D01*
X206340765Y-137830571D01*
X206334804Y-137806773D01*
X206331204Y-137782504D01*
X206330000Y-137758000D01*
X206330000Y-136558000D01*
X206331204Y-136533496D01*
X206334804Y-136509227D01*
X206340765Y-136485429D01*
X206349030Y-136462329D01*
X206359520Y-136440151D01*
X206372133Y-136419107D01*
X206386747Y-136399402D01*
X206403223Y-136381223D01*
X206421402Y-136364747D01*
X206441107Y-136350133D01*
X206462151Y-136337520D01*
X206484329Y-136327030D01*
X206507429Y-136318765D01*
X206531227Y-136312804D01*
X206555496Y-136309204D01*
X206580000Y-136308000D01*
X208030000Y-136308000D01*
X208054504Y-136309204D01*
X208054504Y-136309204D01*
G37*
D17*
X207305000Y-137158000D03*
D18*
X207305000Y-134658000D03*
X207305000Y-132158000D03*
X207305000Y-129658000D03*
X207305000Y-127158000D03*
D16*
G36*
X221438958Y-136868710D02*
G01*
X221453276Y-136870834D01*
X221467317Y-136874351D01*
X221480946Y-136879228D01*
X221494031Y-136885417D01*
X221506447Y-136892858D01*
X221518073Y-136901481D01*
X221528798Y-136911202D01*
X221538519Y-136921927D01*
X221547142Y-136933553D01*
X221554583Y-136945969D01*
X221560772Y-136959054D01*
X221565649Y-136972683D01*
X221569166Y-136986724D01*
X221571290Y-137001042D01*
X221572000Y-137015500D01*
X221572000Y-137360500D01*
X221571290Y-137374958D01*
X221569166Y-137389276D01*
X221565649Y-137403317D01*
X221560772Y-137416946D01*
X221554583Y-137430031D01*
X221547142Y-137442447D01*
X221538519Y-137454073D01*
X221528798Y-137464798D01*
X221518073Y-137474519D01*
X221506447Y-137483142D01*
X221494031Y-137490583D01*
X221480946Y-137496772D01*
X221467317Y-137501649D01*
X221453276Y-137505166D01*
X221438958Y-137507290D01*
X221424500Y-137508000D01*
X221129500Y-137508000D01*
X221115042Y-137507290D01*
X221100724Y-137505166D01*
X221086683Y-137501649D01*
X221073054Y-137496772D01*
X221059969Y-137490583D01*
X221047553Y-137483142D01*
X221035927Y-137474519D01*
X221025202Y-137464798D01*
X221015481Y-137454073D01*
X221006858Y-137442447D01*
X220999417Y-137430031D01*
X220993228Y-137416946D01*
X220988351Y-137403317D01*
X220984834Y-137389276D01*
X220982710Y-137374958D01*
X220982000Y-137360500D01*
X220982000Y-137015500D01*
X220982710Y-137001042D01*
X220984834Y-136986724D01*
X220988351Y-136972683D01*
X220993228Y-136959054D01*
X220999417Y-136945969D01*
X221006858Y-136933553D01*
X221015481Y-136921927D01*
X221025202Y-136911202D01*
X221035927Y-136901481D01*
X221047553Y-136892858D01*
X221059969Y-136885417D01*
X221073054Y-136879228D01*
X221086683Y-136874351D01*
X221100724Y-136870834D01*
X221115042Y-136868710D01*
X221129500Y-136868000D01*
X221424500Y-136868000D01*
X221438958Y-136868710D01*
X221438958Y-136868710D01*
G37*
D19*
X221277000Y-137188000D03*
D16*
G36*
X220468958Y-136868710D02*
G01*
X220483276Y-136870834D01*
X220497317Y-136874351D01*
X220510946Y-136879228D01*
X220524031Y-136885417D01*
X220536447Y-136892858D01*
X220548073Y-136901481D01*
X220558798Y-136911202D01*
X220568519Y-136921927D01*
X220577142Y-136933553D01*
X220584583Y-136945969D01*
X220590772Y-136959054D01*
X220595649Y-136972683D01*
X220599166Y-136986724D01*
X220601290Y-137001042D01*
X220602000Y-137015500D01*
X220602000Y-137360500D01*
X220601290Y-137374958D01*
X220599166Y-137389276D01*
X220595649Y-137403317D01*
X220590772Y-137416946D01*
X220584583Y-137430031D01*
X220577142Y-137442447D01*
X220568519Y-137454073D01*
X220558798Y-137464798D01*
X220548073Y-137474519D01*
X220536447Y-137483142D01*
X220524031Y-137490583D01*
X220510946Y-137496772D01*
X220497317Y-137501649D01*
X220483276Y-137505166D01*
X220468958Y-137507290D01*
X220454500Y-137508000D01*
X220159500Y-137508000D01*
X220145042Y-137507290D01*
X220130724Y-137505166D01*
X220116683Y-137501649D01*
X220103054Y-137496772D01*
X220089969Y-137490583D01*
X220077553Y-137483142D01*
X220065927Y-137474519D01*
X220055202Y-137464798D01*
X220045481Y-137454073D01*
X220036858Y-137442447D01*
X220029417Y-137430031D01*
X220023228Y-137416946D01*
X220018351Y-137403317D01*
X220014834Y-137389276D01*
X220012710Y-137374958D01*
X220012000Y-137360500D01*
X220012000Y-137015500D01*
X220012710Y-137001042D01*
X220014834Y-136986724D01*
X220018351Y-136972683D01*
X220023228Y-136959054D01*
X220029417Y-136945969D01*
X220036858Y-136933553D01*
X220045481Y-136921927D01*
X220055202Y-136911202D01*
X220065927Y-136901481D01*
X220077553Y-136892858D01*
X220089969Y-136885417D01*
X220103054Y-136879228D01*
X220116683Y-136874351D01*
X220130724Y-136870834D01*
X220145042Y-136868710D01*
X220159500Y-136868000D01*
X220454500Y-136868000D01*
X220468958Y-136868710D01*
X220468958Y-136868710D01*
G37*
D19*
X220307000Y-137188000D03*
D16*
G36*
X213605958Y-136868710D02*
G01*
X213620276Y-136870834D01*
X213634317Y-136874351D01*
X213647946Y-136879228D01*
X213661031Y-136885417D01*
X213673447Y-136892858D01*
X213685073Y-136901481D01*
X213695798Y-136911202D01*
X213705519Y-136921927D01*
X213714142Y-136933553D01*
X213721583Y-136945969D01*
X213727772Y-136959054D01*
X213732649Y-136972683D01*
X213736166Y-136986724D01*
X213738290Y-137001042D01*
X213739000Y-137015500D01*
X213739000Y-137360500D01*
X213738290Y-137374958D01*
X213736166Y-137389276D01*
X213732649Y-137403317D01*
X213727772Y-137416946D01*
X213721583Y-137430031D01*
X213714142Y-137442447D01*
X213705519Y-137454073D01*
X213695798Y-137464798D01*
X213685073Y-137474519D01*
X213673447Y-137483142D01*
X213661031Y-137490583D01*
X213647946Y-137496772D01*
X213634317Y-137501649D01*
X213620276Y-137505166D01*
X213605958Y-137507290D01*
X213591500Y-137508000D01*
X213296500Y-137508000D01*
X213282042Y-137507290D01*
X213267724Y-137505166D01*
X213253683Y-137501649D01*
X213240054Y-137496772D01*
X213226969Y-137490583D01*
X213214553Y-137483142D01*
X213202927Y-137474519D01*
X213192202Y-137464798D01*
X213182481Y-137454073D01*
X213173858Y-137442447D01*
X213166417Y-137430031D01*
X213160228Y-137416946D01*
X213155351Y-137403317D01*
X213151834Y-137389276D01*
X213149710Y-137374958D01*
X213149000Y-137360500D01*
X213149000Y-137015500D01*
X213149710Y-137001042D01*
X213151834Y-136986724D01*
X213155351Y-136972683D01*
X213160228Y-136959054D01*
X213166417Y-136945969D01*
X213173858Y-136933553D01*
X213182481Y-136921927D01*
X213192202Y-136911202D01*
X213202927Y-136901481D01*
X213214553Y-136892858D01*
X213226969Y-136885417D01*
X213240054Y-136879228D01*
X213253683Y-136874351D01*
X213267724Y-136870834D01*
X213282042Y-136868710D01*
X213296500Y-136868000D01*
X213591500Y-136868000D01*
X213605958Y-136868710D01*
X213605958Y-136868710D01*
G37*
D19*
X213444000Y-137188000D03*
D16*
G36*
X214575958Y-136868710D02*
G01*
X214590276Y-136870834D01*
X214604317Y-136874351D01*
X214617946Y-136879228D01*
X214631031Y-136885417D01*
X214643447Y-136892858D01*
X214655073Y-136901481D01*
X214665798Y-136911202D01*
X214675519Y-136921927D01*
X214684142Y-136933553D01*
X214691583Y-136945969D01*
X214697772Y-136959054D01*
X214702649Y-136972683D01*
X214706166Y-136986724D01*
X214708290Y-137001042D01*
X214709000Y-137015500D01*
X214709000Y-137360500D01*
X214708290Y-137374958D01*
X214706166Y-137389276D01*
X214702649Y-137403317D01*
X214697772Y-137416946D01*
X214691583Y-137430031D01*
X214684142Y-137442447D01*
X214675519Y-137454073D01*
X214665798Y-137464798D01*
X214655073Y-137474519D01*
X214643447Y-137483142D01*
X214631031Y-137490583D01*
X214617946Y-137496772D01*
X214604317Y-137501649D01*
X214590276Y-137505166D01*
X214575958Y-137507290D01*
X214561500Y-137508000D01*
X214266500Y-137508000D01*
X214252042Y-137507290D01*
X214237724Y-137505166D01*
X214223683Y-137501649D01*
X214210054Y-137496772D01*
X214196969Y-137490583D01*
X214184553Y-137483142D01*
X214172927Y-137474519D01*
X214162202Y-137464798D01*
X214152481Y-137454073D01*
X214143858Y-137442447D01*
X214136417Y-137430031D01*
X214130228Y-137416946D01*
X214125351Y-137403317D01*
X214121834Y-137389276D01*
X214119710Y-137374958D01*
X214119000Y-137360500D01*
X214119000Y-137015500D01*
X214119710Y-137001042D01*
X214121834Y-136986724D01*
X214125351Y-136972683D01*
X214130228Y-136959054D01*
X214136417Y-136945969D01*
X214143858Y-136933553D01*
X214152481Y-136921927D01*
X214162202Y-136911202D01*
X214172927Y-136901481D01*
X214184553Y-136892858D01*
X214196969Y-136885417D01*
X214210054Y-136879228D01*
X214223683Y-136874351D01*
X214237724Y-136870834D01*
X214252042Y-136868710D01*
X214266500Y-136868000D01*
X214561500Y-136868000D01*
X214575958Y-136868710D01*
X214575958Y-136868710D01*
G37*
D19*
X214414000Y-137188000D03*
D16*
G36*
X220458958Y-135471710D02*
G01*
X220473276Y-135473834D01*
X220487317Y-135477351D01*
X220500946Y-135482228D01*
X220514031Y-135488417D01*
X220526447Y-135495858D01*
X220538073Y-135504481D01*
X220548798Y-135514202D01*
X220558519Y-135524927D01*
X220567142Y-135536553D01*
X220574583Y-135548969D01*
X220580772Y-135562054D01*
X220585649Y-135575683D01*
X220589166Y-135589724D01*
X220591290Y-135604042D01*
X220592000Y-135618500D01*
X220592000Y-135963500D01*
X220591290Y-135977958D01*
X220589166Y-135992276D01*
X220585649Y-136006317D01*
X220580772Y-136019946D01*
X220574583Y-136033031D01*
X220567142Y-136045447D01*
X220558519Y-136057073D01*
X220548798Y-136067798D01*
X220538073Y-136077519D01*
X220526447Y-136086142D01*
X220514031Y-136093583D01*
X220500946Y-136099772D01*
X220487317Y-136104649D01*
X220473276Y-136108166D01*
X220458958Y-136110290D01*
X220444500Y-136111000D01*
X220149500Y-136111000D01*
X220135042Y-136110290D01*
X220120724Y-136108166D01*
X220106683Y-136104649D01*
X220093054Y-136099772D01*
X220079969Y-136093583D01*
X220067553Y-136086142D01*
X220055927Y-136077519D01*
X220045202Y-136067798D01*
X220035481Y-136057073D01*
X220026858Y-136045447D01*
X220019417Y-136033031D01*
X220013228Y-136019946D01*
X220008351Y-136006317D01*
X220004834Y-135992276D01*
X220002710Y-135977958D01*
X220002000Y-135963500D01*
X220002000Y-135618500D01*
X220002710Y-135604042D01*
X220004834Y-135589724D01*
X220008351Y-135575683D01*
X220013228Y-135562054D01*
X220019417Y-135548969D01*
X220026858Y-135536553D01*
X220035481Y-135524927D01*
X220045202Y-135514202D01*
X220055927Y-135504481D01*
X220067553Y-135495858D01*
X220079969Y-135488417D01*
X220093054Y-135482228D01*
X220106683Y-135477351D01*
X220120724Y-135473834D01*
X220135042Y-135471710D01*
X220149500Y-135471000D01*
X220444500Y-135471000D01*
X220458958Y-135471710D01*
X220458958Y-135471710D01*
G37*
D19*
X220297000Y-135791000D03*
D16*
G36*
X221428958Y-135471710D02*
G01*
X221443276Y-135473834D01*
X221457317Y-135477351D01*
X221470946Y-135482228D01*
X221484031Y-135488417D01*
X221496447Y-135495858D01*
X221508073Y-135504481D01*
X221518798Y-135514202D01*
X221528519Y-135524927D01*
X221537142Y-135536553D01*
X221544583Y-135548969D01*
X221550772Y-135562054D01*
X221555649Y-135575683D01*
X221559166Y-135589724D01*
X221561290Y-135604042D01*
X221562000Y-135618500D01*
X221562000Y-135963500D01*
X221561290Y-135977958D01*
X221559166Y-135992276D01*
X221555649Y-136006317D01*
X221550772Y-136019946D01*
X221544583Y-136033031D01*
X221537142Y-136045447D01*
X221528519Y-136057073D01*
X221518798Y-136067798D01*
X221508073Y-136077519D01*
X221496447Y-136086142D01*
X221484031Y-136093583D01*
X221470946Y-136099772D01*
X221457317Y-136104649D01*
X221443276Y-136108166D01*
X221428958Y-136110290D01*
X221414500Y-136111000D01*
X221119500Y-136111000D01*
X221105042Y-136110290D01*
X221090724Y-136108166D01*
X221076683Y-136104649D01*
X221063054Y-136099772D01*
X221049969Y-136093583D01*
X221037553Y-136086142D01*
X221025927Y-136077519D01*
X221015202Y-136067798D01*
X221005481Y-136057073D01*
X220996858Y-136045447D01*
X220989417Y-136033031D01*
X220983228Y-136019946D01*
X220978351Y-136006317D01*
X220974834Y-135992276D01*
X220972710Y-135977958D01*
X220972000Y-135963500D01*
X220972000Y-135618500D01*
X220972710Y-135604042D01*
X220974834Y-135589724D01*
X220978351Y-135575683D01*
X220983228Y-135562054D01*
X220989417Y-135548969D01*
X220996858Y-135536553D01*
X221005481Y-135524927D01*
X221015202Y-135514202D01*
X221025927Y-135504481D01*
X221037553Y-135495858D01*
X221049969Y-135488417D01*
X221063054Y-135482228D01*
X221076683Y-135477351D01*
X221090724Y-135473834D01*
X221105042Y-135471710D01*
X221119500Y-135471000D01*
X221414500Y-135471000D01*
X221428958Y-135471710D01*
X221428958Y-135471710D01*
G37*
D19*
X221267000Y-135791000D03*
D16*
G36*
X214575958Y-135471710D02*
G01*
X214590276Y-135473834D01*
X214604317Y-135477351D01*
X214617946Y-135482228D01*
X214631031Y-135488417D01*
X214643447Y-135495858D01*
X214655073Y-135504481D01*
X214665798Y-135514202D01*
X214675519Y-135524927D01*
X214684142Y-135536553D01*
X214691583Y-135548969D01*
X214697772Y-135562054D01*
X214702649Y-135575683D01*
X214706166Y-135589724D01*
X214708290Y-135604042D01*
X214709000Y-135618500D01*
X214709000Y-135963500D01*
X214708290Y-135977958D01*
X214706166Y-135992276D01*
X214702649Y-136006317D01*
X214697772Y-136019946D01*
X214691583Y-136033031D01*
X214684142Y-136045447D01*
X214675519Y-136057073D01*
X214665798Y-136067798D01*
X214655073Y-136077519D01*
X214643447Y-136086142D01*
X214631031Y-136093583D01*
X214617946Y-136099772D01*
X214604317Y-136104649D01*
X214590276Y-136108166D01*
X214575958Y-136110290D01*
X214561500Y-136111000D01*
X214266500Y-136111000D01*
X214252042Y-136110290D01*
X214237724Y-136108166D01*
X214223683Y-136104649D01*
X214210054Y-136099772D01*
X214196969Y-136093583D01*
X214184553Y-136086142D01*
X214172927Y-136077519D01*
X214162202Y-136067798D01*
X214152481Y-136057073D01*
X214143858Y-136045447D01*
X214136417Y-136033031D01*
X214130228Y-136019946D01*
X214125351Y-136006317D01*
X214121834Y-135992276D01*
X214119710Y-135977958D01*
X214119000Y-135963500D01*
X214119000Y-135618500D01*
X214119710Y-135604042D01*
X214121834Y-135589724D01*
X214125351Y-135575683D01*
X214130228Y-135562054D01*
X214136417Y-135548969D01*
X214143858Y-135536553D01*
X214152481Y-135524927D01*
X214162202Y-135514202D01*
X214172927Y-135504481D01*
X214184553Y-135495858D01*
X214196969Y-135488417D01*
X214210054Y-135482228D01*
X214223683Y-135477351D01*
X214237724Y-135473834D01*
X214252042Y-135471710D01*
X214266500Y-135471000D01*
X214561500Y-135471000D01*
X214575958Y-135471710D01*
X214575958Y-135471710D01*
G37*
D19*
X214414000Y-135791000D03*
D16*
G36*
X213605958Y-135471710D02*
G01*
X213620276Y-135473834D01*
X213634317Y-135477351D01*
X213647946Y-135482228D01*
X213661031Y-135488417D01*
X213673447Y-135495858D01*
X213685073Y-135504481D01*
X213695798Y-135514202D01*
X213705519Y-135524927D01*
X213714142Y-135536553D01*
X213721583Y-135548969D01*
X213727772Y-135562054D01*
X213732649Y-135575683D01*
X213736166Y-135589724D01*
X213738290Y-135604042D01*
X213739000Y-135618500D01*
X213739000Y-135963500D01*
X213738290Y-135977958D01*
X213736166Y-135992276D01*
X213732649Y-136006317D01*
X213727772Y-136019946D01*
X213721583Y-136033031D01*
X213714142Y-136045447D01*
X213705519Y-136057073D01*
X213695798Y-136067798D01*
X213685073Y-136077519D01*
X213673447Y-136086142D01*
X213661031Y-136093583D01*
X213647946Y-136099772D01*
X213634317Y-136104649D01*
X213620276Y-136108166D01*
X213605958Y-136110290D01*
X213591500Y-136111000D01*
X213296500Y-136111000D01*
X213282042Y-136110290D01*
X213267724Y-136108166D01*
X213253683Y-136104649D01*
X213240054Y-136099772D01*
X213226969Y-136093583D01*
X213214553Y-136086142D01*
X213202927Y-136077519D01*
X213192202Y-136067798D01*
X213182481Y-136057073D01*
X213173858Y-136045447D01*
X213166417Y-136033031D01*
X213160228Y-136019946D01*
X213155351Y-136006317D01*
X213151834Y-135992276D01*
X213149710Y-135977958D01*
X213149000Y-135963500D01*
X213149000Y-135618500D01*
X213149710Y-135604042D01*
X213151834Y-135589724D01*
X213155351Y-135575683D01*
X213160228Y-135562054D01*
X213166417Y-135548969D01*
X213173858Y-135536553D01*
X213182481Y-135524927D01*
X213192202Y-135514202D01*
X213202927Y-135504481D01*
X213214553Y-135495858D01*
X213226969Y-135488417D01*
X213240054Y-135482228D01*
X213253683Y-135477351D01*
X213267724Y-135473834D01*
X213282042Y-135471710D01*
X213296500Y-135471000D01*
X213591500Y-135471000D01*
X213605958Y-135471710D01*
X213605958Y-135471710D01*
G37*
D19*
X213444000Y-135791000D03*
D14*
X208370000Y-98770000D03*
D15*
X208370000Y-96230000D03*
X210910000Y-98770000D03*
X210910000Y-96230000D03*
X213450000Y-98770000D03*
X213450000Y-96230000D03*
X215990000Y-98770000D03*
X215990000Y-96230000D03*
X218530000Y-98770000D03*
X218530000Y-96230000D03*
X221070000Y-98770000D03*
X221070000Y-96230000D03*
X223610000Y-98770000D03*
X223610000Y-96230000D03*
X226150000Y-98770000D03*
X226150000Y-96230000D03*
X228690000Y-98770000D03*
X228690000Y-96230000D03*
X231230000Y-98770000D03*
X231230000Y-96230000D03*
X233770000Y-98770000D03*
X233770000Y-96230000D03*
X236310000Y-98770000D03*
X236310000Y-96230000D03*
X238850000Y-98770000D03*
X238850000Y-96230000D03*
X241390000Y-98770000D03*
X241390000Y-96230000D03*
X243930000Y-98770000D03*
X243930000Y-96230000D03*
X246470000Y-98770000D03*
X246470000Y-96230000D03*
X249010000Y-98770000D03*
X249010000Y-96230000D03*
X251550000Y-98770000D03*
X251550000Y-96230000D03*
X254090000Y-98770000D03*
X254090000Y-96230000D03*
X256630000Y-98770000D03*
X256630000Y-96230000D03*
D20*
X226358100Y-108043000D03*
X224574000Y-111149300D03*
X226795500Y-110488700D03*
D21*
X208370000Y-98770000D02*
X209520300Y-98770000D01*
X228690000Y-99245000D02*
X227064600Y-97619600D01*
X227064600Y-97619600D02*
X223071900Y-97619600D01*
X223071900Y-97619600D02*
X222436700Y-98254800D01*
X222436700Y-98254800D02*
X222436700Y-99087700D01*
X222436700Y-99087700D02*
X221562500Y-99961900D01*
X221562500Y-99961900D02*
X212976900Y-99961900D01*
X212976900Y-99961900D02*
X212060400Y-99045400D01*
X212060400Y-99045400D02*
X212060400Y-98231900D01*
X212060400Y-98231900D02*
X211448200Y-97619700D01*
X211448200Y-97619700D02*
X210382900Y-97619700D01*
X210382900Y-97619700D02*
X209520300Y-98482300D01*
X209520300Y-98482300D02*
X209520300Y-98770000D01*
X228690000Y-99245000D02*
X228690000Y-99920300D01*
X228690000Y-98770000D02*
X228690000Y-99245000D01*
X234701000Y-106485000D02*
X234701000Y-105334700D01*
X228690000Y-99920300D02*
X234104400Y-105334700D01*
X234104400Y-105334700D02*
X234701000Y-105334700D01*
X234701000Y-106485000D02*
X234701000Y-114534000D01*
X234701000Y-114534000D02*
X213444000Y-135791000D01*
X210910000Y-96230000D02*
X208370000Y-96230000D01*
X225701000Y-147810000D02*
X229201000Y-147810000D01*
X219201000Y-147810000D02*
X225701000Y-147810000D01*
X223956600Y-111900600D02*
X226444700Y-111900600D01*
X226444700Y-111900600D02*
X231010700Y-107334600D01*
X231010700Y-107334600D02*
X231010700Y-106485000D01*
X232161000Y-106485000D02*
X231010700Y-106485000D01*
X223610000Y-96230000D02*
X224760300Y-96230000D01*
X231230000Y-96230000D02*
X230079700Y-96230000D01*
X230079700Y-96230000D02*
X230079700Y-95942400D01*
X230079700Y-95942400D02*
X229211700Y-95074400D01*
X229211700Y-95074400D02*
X225677500Y-95074400D01*
X225677500Y-95074400D02*
X224760300Y-95991600D01*
X224760300Y-95991600D02*
X224760300Y-96230000D01*
X207305000Y-127158000D02*
X207305000Y-128308300D01*
X217010400Y-146509600D02*
X215710000Y-147810000D01*
X217010400Y-140428000D02*
X217010400Y-146509600D01*
X219201000Y-147810000D02*
X218310800Y-147810000D01*
X218310800Y-147810000D02*
X217010400Y-146509600D01*
X217010400Y-140428000D02*
X217067000Y-140428000D01*
X217067000Y-140428000D02*
X220307000Y-137188000D01*
X213444000Y-137188000D02*
X216684000Y-140428000D01*
X216684000Y-140428000D02*
X217010400Y-140428000D01*
X213450000Y-96230000D02*
X214600300Y-96230000D01*
X218831400Y-98770000D02*
X217681000Y-97619600D01*
X217681000Y-97619600D02*
X215751500Y-97619600D01*
X215751500Y-97619600D02*
X214600300Y-96468400D01*
X214600300Y-96468400D02*
X214600300Y-96230000D01*
X219105200Y-98770000D02*
X219680300Y-98770000D01*
X218530000Y-98770000D02*
X218831400Y-98770000D01*
X219105200Y-98770000D02*
X218831400Y-98770000D01*
X223610000Y-96230000D02*
X222459700Y-96230000D01*
X222459700Y-96230000D02*
X222459700Y-96517700D01*
X222459700Y-96517700D02*
X221597100Y-97380300D01*
X221597100Y-97380300D02*
X220831600Y-97380300D01*
X220831600Y-97380300D02*
X219680300Y-98531600D01*
X219680300Y-98531600D02*
X219680300Y-98770000D01*
X215710000Y-147810000D02*
X209210000Y-147810000D01*
X238850000Y-98770000D02*
X240000300Y-98770000D01*
X243930000Y-96230000D02*
X242779700Y-96230000D01*
X242779700Y-96230000D02*
X242779700Y-96517700D01*
X242779700Y-96517700D02*
X241917100Y-97380300D01*
X241917100Y-97380300D02*
X241151600Y-97380300D01*
X241151600Y-97380300D02*
X240000300Y-98531600D01*
X240000300Y-98531600D02*
X240000300Y-98770000D01*
X207305000Y-128308300D02*
X206873600Y-128308300D01*
X206873600Y-128308300D02*
X206026500Y-129155400D01*
X206026500Y-129155400D02*
X206026500Y-130153000D01*
X206026500Y-130153000D02*
X206781500Y-130908000D01*
X206781500Y-130908000D02*
X207848500Y-130908000D01*
X207848500Y-130908000D02*
X209597500Y-132657000D01*
X209597500Y-132657000D02*
X209597500Y-133341500D01*
X209597500Y-133341500D02*
X213444000Y-137188000D01*
X255531000Y-147810000D02*
X249031000Y-147810000D01*
X229201000Y-147810000D02*
X235701000Y-147810000D01*
X239201000Y-147810000D02*
X245701000Y-147810000D01*
X235701000Y-147810000D02*
X239201000Y-147810000D01*
X245701000Y-147810000D02*
X249031000Y-147810000D01*
X217020639Y-111512519D02*
X223568519Y-111512519D01*
X223568519Y-111512519D02*
X223867740Y-111811740D01*
X223867740Y-111811740D02*
X223956600Y-111900600D01*
X223781100Y-111725100D02*
X223867740Y-111811740D01*
X207305000Y-127158000D02*
X208580300Y-127158000D01*
X208580300Y-127158000D02*
X215230000Y-120508300D01*
X215230000Y-120508300D02*
X215230000Y-113303158D01*
X215230000Y-113303158D02*
X217020639Y-111512519D01*
X215230000Y-108043000D02*
X226358100Y-108043000D01*
X212730000Y-105543000D02*
X205609300Y-112663700D01*
X205609300Y-112663700D02*
X205609300Y-130462300D01*
X205609300Y-130462300D02*
X207305000Y-132158000D01*
X217730000Y-113043000D02*
X217730000Y-119233000D01*
X217730000Y-119233000D02*
X207305000Y-129658000D01*
X214414000Y-135791000D02*
X214414000Y-137188000D01*
X210910000Y-99920300D02*
X210910000Y-98770000D01*
X213740639Y-108732521D02*
X213740639Y-106732523D01*
X213740639Y-106732523D02*
X214240641Y-106232521D01*
X214240641Y-106232521D02*
X214240641Y-103250941D01*
X214240641Y-103250941D02*
X210910000Y-99920300D01*
X224574000Y-110512904D02*
X224264376Y-110203280D01*
X224574000Y-111149300D02*
X224574000Y-110512904D01*
X215211398Y-110203280D02*
X213740639Y-108732521D01*
X224264376Y-110203280D02*
X215211398Y-110203280D01*
X251550000Y-96230000D02*
X251550000Y-97380300D01*
X251550000Y-97380300D02*
X251262300Y-97380300D01*
X251262300Y-97380300D02*
X250399700Y-98242900D01*
X250399700Y-98242900D02*
X250399700Y-105688300D01*
X250399700Y-105688300D02*
X220297000Y-135791000D01*
X221267000Y-135791000D02*
X221277000Y-135801000D01*
X221277000Y-135801000D02*
X221277000Y-137188000D01*
X239201000Y-143310000D02*
X245701000Y-143310000D01*
X223610000Y-98770000D02*
X223610000Y-99920300D01*
X223610000Y-99920300D02*
X227108500Y-103418800D01*
X227108500Y-103418800D02*
X227108500Y-110175700D01*
X227108500Y-110175700D02*
X226795500Y-110488700D01*
X215710000Y-143310000D02*
X209210000Y-143310000D01*
X219201000Y-143310000D02*
X225701000Y-143310000D01*
X255531000Y-143310000D02*
X249031000Y-143310000D01*
D22*
G36*
X224595080Y-95117374D02*
G01*
X224439014Y-94989294D01*
X224181034Y-94851401D01*
X223901111Y-94766487D01*
X223682950Y-94745000D01*
X223537050Y-94745000D01*
X223318889Y-94766487D01*
X223038966Y-94851401D01*
X222780986Y-94989294D01*
X222554866Y-95174866D01*
X222369294Y-95400986D01*
X222340000Y-95455791D01*
X222310706Y-95400986D01*
X222125134Y-95174866D01*
X221899014Y-94989294D01*
X221641034Y-94851401D01*
X221361111Y-94766487D01*
X221142950Y-94745000D01*
X220997050Y-94745000D01*
X220778889Y-94766487D01*
X220498966Y-94851401D01*
X220240986Y-94989294D01*
X220014866Y-95174866D01*
X219829294Y-95400986D01*
X219800000Y-95455791D01*
X219770706Y-95400986D01*
X219585134Y-95174866D01*
X219359014Y-94989294D01*
X219101034Y-94851401D01*
X218821111Y-94766487D01*
X218602950Y-94745000D01*
X218457050Y-94745000D01*
X218238889Y-94766487D01*
X217958966Y-94851401D01*
X217700986Y-94989294D01*
X217474866Y-95174866D01*
X217289294Y-95400986D01*
X217260000Y-95455791D01*
X217230706Y-95400986D01*
X217045134Y-95174866D01*
X216819014Y-94989294D01*
X216561034Y-94851401D01*
X216281111Y-94766487D01*
X216062950Y-94745000D01*
X215917050Y-94745000D01*
X215698889Y-94766487D01*
X215418966Y-94851401D01*
X215160986Y-94989294D01*
X214934866Y-95174866D01*
X214749294Y-95400986D01*
X214720000Y-95455791D01*
X214690706Y-95400986D01*
X214505134Y-95174866D01*
X214279014Y-94989294D01*
X214021034Y-94851401D01*
X213741111Y-94766487D01*
X213522950Y-94745000D01*
X213377050Y-94745000D01*
X213158889Y-94766487D01*
X212878966Y-94851401D01*
X212620986Y-94989294D01*
X212394866Y-95174866D01*
X212209294Y-95400986D01*
X212180000Y-95455791D01*
X212150706Y-95400986D01*
X211965134Y-95174866D01*
X211739014Y-94989294D01*
X211481034Y-94851401D01*
X211201111Y-94766487D01*
X210982950Y-94745000D01*
X210837050Y-94745000D01*
X210618889Y-94766487D01*
X210338966Y-94851401D01*
X210080986Y-94989294D01*
X209854866Y-95174866D01*
X209669294Y-95400986D01*
X209640000Y-95455791D01*
X209610706Y-95400986D01*
X209425134Y-95174866D01*
X209199014Y-94989294D01*
X208941034Y-94851401D01*
X208661111Y-94766487D01*
X208442950Y-94745000D01*
X208297050Y-94745000D01*
X208078889Y-94766487D01*
X207798966Y-94851401D01*
X207540986Y-94989294D01*
X207314866Y-95174866D01*
X207129294Y-95400986D01*
X206991401Y-95658966D01*
X206906487Y-95938889D01*
X206877815Y-96230000D01*
X206906487Y-96521111D01*
X206991401Y-96801034D01*
X207129294Y-97059014D01*
X207314866Y-97285134D01*
X207344687Y-97309607D01*
X207275820Y-97330498D01*
X207165506Y-97389463D01*
X207068815Y-97468815D01*
X206989463Y-97565506D01*
X206930498Y-97675820D01*
X206894188Y-97795518D01*
X206881928Y-97920000D01*
X206885000Y-98484250D01*
X207043750Y-98643000D01*
X208243000Y-98643000D01*
X208243000Y-98623000D01*
X208497000Y-98623000D01*
X208497000Y-98643000D01*
X208517000Y-98643000D01*
X208517000Y-98897000D01*
X208497000Y-98897000D01*
X208497000Y-100096250D01*
X208655750Y-100255000D01*
X209220000Y-100258072D01*
X209344482Y-100245812D01*
X209464180Y-100209502D01*
X209574494Y-100150537D01*
X209671185Y-100071185D01*
X209750537Y-99974494D01*
X209809502Y-99864180D01*
X209830393Y-99795313D01*
X209854866Y-99825134D01*
X210080986Y-100010706D01*
X210186452Y-100067079D01*
X210195301Y-100096250D01*
X210227663Y-100202932D01*
X210295913Y-100330619D01*
X210387762Y-100442537D01*
X210415808Y-100465554D01*
X213505642Y-103555389D01*
X213505642Y-103951444D01*
X213246721Y-103844195D01*
X212911523Y-103777520D01*
X212569757Y-103777520D01*
X212234559Y-103844195D01*
X211918809Y-103974983D01*
X211634642Y-104164857D01*
X211392977Y-104406522D01*
X211203103Y-104690689D01*
X211072315Y-105006439D01*
X211005640Y-105341637D01*
X211005640Y-105683403D01*
X211072315Y-106018601D01*
X211114092Y-106119461D01*
X205115108Y-112118446D01*
X205087062Y-112141463D01*
X204995213Y-112253381D01*
X204926963Y-112381068D01*
X204907311Y-112445853D01*
X204884935Y-112519615D01*
X204870744Y-112663700D01*
X204874300Y-112699805D01*
X204874301Y-130426185D01*
X204870744Y-130462300D01*
X204884935Y-130606385D01*
X204905143Y-130673000D01*
X204926964Y-130744933D01*
X204995214Y-130872620D01*
X205087063Y-130984538D01*
X205115108Y-131007554D01*
X205776525Y-131668971D01*
X205716487Y-131866889D01*
X205687815Y-132158000D01*
X205716487Y-132449111D01*
X205801401Y-132729034D01*
X205939294Y-132987014D01*
X206124866Y-133213134D01*
X206350986Y-133398706D01*
X206368374Y-133408000D01*
X206350986Y-133417294D01*
X206124866Y-133602866D01*
X205939294Y-133828986D01*
X205801401Y-134086966D01*
X205716487Y-134366889D01*
X205687815Y-134658000D01*
X205716487Y-134949111D01*
X205801401Y-135229034D01*
X205939294Y-135487014D01*
X206124866Y-135713134D01*
X206188337Y-135765223D01*
X206086614Y-135819595D01*
X205952038Y-135930038D01*
X205841595Y-136064614D01*
X205759528Y-136218150D01*
X205708992Y-136384746D01*
X205691928Y-136558000D01*
X205691928Y-137758000D01*
X205708992Y-137931254D01*
X205759528Y-138097850D01*
X205841595Y-138251386D01*
X205952038Y-138385962D01*
X206086614Y-138496405D01*
X206240150Y-138578472D01*
X206406746Y-138629008D01*
X206580000Y-138646072D01*
X208030000Y-138646072D01*
X208203254Y-138629008D01*
X208369850Y-138578472D01*
X208523386Y-138496405D01*
X208657962Y-138385962D01*
X208768405Y-138251386D01*
X208850472Y-138097850D01*
X208901008Y-137931254D01*
X208918072Y-137758000D01*
X208918072Y-136558000D01*
X208901008Y-136384746D01*
X208850472Y-136218150D01*
X208768405Y-136064614D01*
X208657962Y-135930038D01*
X208523386Y-135819595D01*
X208421663Y-135765223D01*
X208485134Y-135713134D01*
X208670706Y-135487014D01*
X208808599Y-135229034D01*
X208893513Y-134949111D01*
X208922185Y-134658000D01*
X208893513Y-134366889D01*
X208808599Y-134086966D01*
X208670706Y-133828986D01*
X208485134Y-133602866D01*
X208259014Y-133417294D01*
X208241626Y-133408000D01*
X208259014Y-133398706D01*
X208485134Y-133213134D01*
X208670706Y-132987014D01*
X208746419Y-132845365D01*
X208862500Y-132961447D01*
X208862500Y-133305395D01*
X208858944Y-133341500D01*
X208862500Y-133377605D01*
X208873135Y-133485585D01*
X208915164Y-133624133D01*
X208983414Y-133751820D01*
X209075263Y-133863738D01*
X209103308Y-133886754D01*
X212510928Y-137294375D01*
X212510928Y-137360500D01*
X212526023Y-137513757D01*
X212570726Y-137661125D01*
X212643321Y-137796940D01*
X212741017Y-137915983D01*
X212860060Y-138013679D01*
X212995875Y-138086274D01*
X213143243Y-138130977D01*
X213296500Y-138146072D01*
X213362626Y-138146072D01*
X216138746Y-140922193D01*
X216161762Y-140950238D01*
X216273680Y-141042087D01*
X216275400Y-141043006D01*
X216275400Y-141774485D01*
X216186912Y-141737832D01*
X215871033Y-141675000D01*
X215548967Y-141675000D01*
X215233088Y-141737832D01*
X214935537Y-141861082D01*
X214667748Y-142040013D01*
X214440013Y-142267748D01*
X214261082Y-142535537D01*
X214244736Y-142575000D01*
X210675264Y-142575000D01*
X210658918Y-142535537D01*
X210479987Y-142267748D01*
X210252252Y-142040013D01*
X209984463Y-141861082D01*
X209686912Y-141737832D01*
X209371033Y-141675000D01*
X209048967Y-141675000D01*
X208733088Y-141737832D01*
X208435537Y-141861082D01*
X208167748Y-142040013D01*
X207940013Y-142267748D01*
X207761082Y-142535537D01*
X207637832Y-142833088D01*
X207575000Y-143148967D01*
X207575000Y-143471033D01*
X207637832Y-143786912D01*
X207761082Y-144084463D01*
X207940013Y-144352252D01*
X208167748Y-144579987D01*
X208435537Y-144758918D01*
X208733088Y-144882168D01*
X209048967Y-144945000D01*
X209371033Y-144945000D01*
X209686912Y-144882168D01*
X209984463Y-144758918D01*
X210252252Y-144579987D01*
X210479987Y-144352252D01*
X210658918Y-144084463D01*
X210675264Y-144045000D01*
X214244736Y-144045000D01*
X214261082Y-144084463D01*
X214440013Y-144352252D01*
X214667748Y-144579987D01*
X214935537Y-144758918D01*
X215233088Y-144882168D01*
X215548967Y-144945000D01*
X215871033Y-144945000D01*
X216186912Y-144882168D01*
X216275401Y-144845515D01*
X216275401Y-146205152D01*
X216226375Y-146254178D01*
X216186912Y-146237832D01*
X215871033Y-146175000D01*
X215548967Y-146175000D01*
X215233088Y-146237832D01*
X214935537Y-146361082D01*
X214667748Y-146540013D01*
X214440013Y-146767748D01*
X214261082Y-147035537D01*
X214244736Y-147075000D01*
X210675264Y-147075000D01*
X210658918Y-147035537D01*
X210479987Y-146767748D01*
X210252252Y-146540013D01*
X209984463Y-146361082D01*
X209686912Y-146237832D01*
X209371033Y-146175000D01*
X209048967Y-146175000D01*
X208733088Y-146237832D01*
X208435537Y-146361082D01*
X208167748Y-146540013D01*
X207940013Y-146767748D01*
X207761082Y-147035537D01*
X207637832Y-147333088D01*
X207575000Y-147648967D01*
X207575000Y-147971033D01*
X207637832Y-148286912D01*
X207761082Y-148584463D01*
X207940013Y-148852252D01*
X208167748Y-149079987D01*
X208435537Y-149258918D01*
X208570931Y-149315000D01*
X203033504Y-149315000D01*
X202550984Y-149267688D01*
X202444013Y-149235392D01*
X200755390Y-147529086D01*
X200735500Y-147464834D01*
X200685000Y-146984346D01*
X200685000Y-146304495D01*
X201515000Y-146304495D01*
X201515000Y-146695505D01*
X201591282Y-147079003D01*
X201740915Y-147440250D01*
X201958149Y-147765364D01*
X202234636Y-148041851D01*
X202559750Y-148259085D01*
X202920997Y-148408718D01*
X203304495Y-148485000D01*
X203695505Y-148485000D01*
X204079003Y-148408718D01*
X204440250Y-148259085D01*
X204765364Y-148041851D01*
X205041851Y-147765364D01*
X205259085Y-147440250D01*
X205408718Y-147079003D01*
X205485000Y-146695505D01*
X205485000Y-146304495D01*
X205408718Y-145920997D01*
X205259085Y-145559750D01*
X205041851Y-145234636D01*
X204765364Y-144958149D01*
X204440250Y-144740915D01*
X204079003Y-144591282D01*
X203695505Y-144515000D01*
X203304495Y-144515000D01*
X202920997Y-144591282D01*
X202559750Y-144740915D01*
X202234636Y-144958149D01*
X201958149Y-145234636D01*
X201740915Y-145559750D01*
X201591282Y-145920997D01*
X201515000Y-146304495D01*
X200685000Y-146304495D01*
X200685000Y-115346562D01*
X201055640Y-115346562D01*
X201055640Y-115678478D01*
X201120394Y-116004016D01*
X201247412Y-116310667D01*
X201431815Y-116586645D01*
X201666515Y-116821345D01*
X201775826Y-116894384D01*
X201731815Y-116938395D01*
X201547412Y-117214373D01*
X201420394Y-117521024D01*
X201355640Y-117846562D01*
X201355640Y-118178478D01*
X201420394Y-118504016D01*
X201547412Y-118810667D01*
X201731815Y-119086645D01*
X201966515Y-119321345D01*
X202242493Y-119505748D01*
X202549144Y-119632766D01*
X202874682Y-119697520D01*
X203206598Y-119697520D01*
X203532136Y-119632766D01*
X203838787Y-119505748D01*
X204114765Y-119321345D01*
X204349465Y-119086645D01*
X204533868Y-118810667D01*
X204660886Y-118504016D01*
X204725640Y-118178478D01*
X204725640Y-117846562D01*
X204660886Y-117521024D01*
X204533868Y-117214373D01*
X204349465Y-116938395D01*
X204114765Y-116703695D01*
X204005454Y-116630656D01*
X204049465Y-116586645D01*
X204233868Y-116310667D01*
X204360886Y-116004016D01*
X204425640Y-115678478D01*
X204425640Y-115346562D01*
X204360886Y-115021024D01*
X204233868Y-114714373D01*
X204049465Y-114438395D01*
X203814765Y-114203695D01*
X203538787Y-114019292D01*
X203232136Y-113892274D01*
X202906598Y-113827520D01*
X202574682Y-113827520D01*
X202249144Y-113892274D01*
X201942493Y-114019292D01*
X201666515Y-114203695D01*
X201431815Y-114438395D01*
X201247412Y-114714373D01*
X201120394Y-115021024D01*
X201055640Y-115346562D01*
X200685000Y-115346562D01*
X200685000Y-110346562D01*
X201055640Y-110346562D01*
X201055640Y-110678478D01*
X201120394Y-111004016D01*
X201247412Y-111310667D01*
X201431815Y-111586645D01*
X201666515Y-111821345D01*
X201942493Y-112005748D01*
X202249144Y-112132766D01*
X202574682Y-112197520D01*
X202906598Y-112197520D01*
X203232136Y-112132766D01*
X203538787Y-112005748D01*
X203814765Y-111821345D01*
X204049465Y-111586645D01*
X204233868Y-111310667D01*
X204360886Y-111004016D01*
X204425640Y-110678478D01*
X204425640Y-110346562D01*
X204360886Y-110021024D01*
X204233868Y-109714373D01*
X204049465Y-109438395D01*
X204005454Y-109394384D01*
X204114765Y-109321345D01*
X204349465Y-109086645D01*
X204533868Y-108810667D01*
X204660886Y-108504016D01*
X204725640Y-108178478D01*
X204725640Y-107846562D01*
X204660886Y-107521024D01*
X204533868Y-107214373D01*
X204349465Y-106938395D01*
X204114765Y-106703695D01*
X203838787Y-106519292D01*
X203532136Y-106392274D01*
X203206598Y-106327520D01*
X202874682Y-106327520D01*
X202549144Y-106392274D01*
X202242493Y-106519292D01*
X201966515Y-106703695D01*
X201731815Y-106938395D01*
X201547412Y-107214373D01*
X201420394Y-107521024D01*
X201355640Y-107846562D01*
X201355640Y-108178478D01*
X201420394Y-108504016D01*
X201547412Y-108810667D01*
X201731815Y-109086645D01*
X201775826Y-109130656D01*
X201666515Y-109203695D01*
X201431815Y-109438395D01*
X201247412Y-109714373D01*
X201120394Y-110021024D01*
X201055640Y-110346562D01*
X200685000Y-110346562D01*
X200685000Y-99620000D01*
X206881928Y-99620000D01*
X206894188Y-99744482D01*
X206930498Y-99864180D01*
X206989463Y-99974494D01*
X207068815Y-100071185D01*
X207165506Y-100150537D01*
X207275820Y-100209502D01*
X207395518Y-100245812D01*
X207520000Y-100258072D01*
X208084250Y-100255000D01*
X208243000Y-100096250D01*
X208243000Y-98897000D01*
X207043750Y-98897000D01*
X206885000Y-99055750D01*
X206881928Y-99620000D01*
X200685000Y-99620000D01*
X200685000Y-97304495D01*
X201515000Y-97304495D01*
X201515000Y-97695505D01*
X201591282Y-98079003D01*
X201740915Y-98440250D01*
X201958149Y-98765364D01*
X202234636Y-99041851D01*
X202559750Y-99259085D01*
X202920997Y-99408718D01*
X203304495Y-99485000D01*
X203695505Y-99485000D01*
X204079003Y-99408718D01*
X204440250Y-99259085D01*
X204765364Y-99041851D01*
X205041851Y-98765364D01*
X205259085Y-98440250D01*
X205408718Y-98079003D01*
X205485000Y-97695505D01*
X205485000Y-97304495D01*
X205408718Y-96920997D01*
X205259085Y-96559750D01*
X205041851Y-96234636D01*
X204765364Y-95958149D01*
X204440250Y-95740915D01*
X204079003Y-95591282D01*
X203695505Y-95515000D01*
X203304495Y-95515000D01*
X202920997Y-95591282D01*
X202559750Y-95740915D01*
X202234636Y-95958149D01*
X201958149Y-96234636D01*
X201740915Y-96559750D01*
X201591282Y-96920997D01*
X201515000Y-97304495D01*
X200685000Y-97304495D01*
X200685000Y-97033505D01*
X200732312Y-96550984D01*
X200766016Y-96439350D01*
X202440589Y-94764777D01*
X202535161Y-94735502D01*
X203015654Y-94685000D01*
X225027453Y-94685000D01*
X224595080Y-95117374D01*
X224595080Y-95117374D01*
G37*
X224595080Y-95117374D02*
X224439014Y-94989294D01*
X224181034Y-94851401D01*
X223901111Y-94766487D01*
X223682950Y-94745000D01*
X223537050Y-94745000D01*
X223318889Y-94766487D01*
X223038966Y-94851401D01*
X222780986Y-94989294D01*
X222554866Y-95174866D01*
X222369294Y-95400986D01*
X222340000Y-95455791D01*
X222310706Y-95400986D01*
X222125134Y-95174866D01*
X221899014Y-94989294D01*
X221641034Y-94851401D01*
X221361111Y-94766487D01*
X221142950Y-94745000D01*
X220997050Y-94745000D01*
X220778889Y-94766487D01*
X220498966Y-94851401D01*
X220240986Y-94989294D01*
X220014866Y-95174866D01*
X219829294Y-95400986D01*
X219800000Y-95455791D01*
X219770706Y-95400986D01*
X219585134Y-95174866D01*
X219359014Y-94989294D01*
X219101034Y-94851401D01*
X218821111Y-94766487D01*
X218602950Y-94745000D01*
X218457050Y-94745000D01*
X218238889Y-94766487D01*
X217958966Y-94851401D01*
X217700986Y-94989294D01*
X217474866Y-95174866D01*
X217289294Y-95400986D01*
X217260000Y-95455791D01*
X217230706Y-95400986D01*
X217045134Y-95174866D01*
X216819014Y-94989294D01*
X216561034Y-94851401D01*
X216281111Y-94766487D01*
X216062950Y-94745000D01*
X215917050Y-94745000D01*
X215698889Y-94766487D01*
X215418966Y-94851401D01*
X215160986Y-94989294D01*
X214934866Y-95174866D01*
X214749294Y-95400986D01*
X214720000Y-95455791D01*
X214690706Y-95400986D01*
X214505134Y-95174866D01*
X214279014Y-94989294D01*
X214021034Y-94851401D01*
X213741111Y-94766487D01*
X213522950Y-94745000D01*
X213377050Y-94745000D01*
X213158889Y-94766487D01*
X212878966Y-94851401D01*
X212620986Y-94989294D01*
X212394866Y-95174866D01*
X212209294Y-95400986D01*
X212180000Y-95455791D01*
X212150706Y-95400986D01*
X211965134Y-95174866D01*
X211739014Y-94989294D01*
X211481034Y-94851401D01*
X211201111Y-94766487D01*
X210982950Y-94745000D01*
X210837050Y-94745000D01*
X210618889Y-94766487D01*
X210338966Y-94851401D01*
X210080986Y-94989294D01*
X209854866Y-95174866D01*
X209669294Y-95400986D01*
X209640000Y-95455791D01*
X209610706Y-95400986D01*
X209425134Y-95174866D01*
X209199014Y-94989294D01*
X208941034Y-94851401D01*
X208661111Y-94766487D01*
X208442950Y-94745000D01*
X208297050Y-94745000D01*
X208078889Y-94766487D01*
X207798966Y-94851401D01*
X207540986Y-94989294D01*
X207314866Y-95174866D01*
X207129294Y-95400986D01*
X206991401Y-95658966D01*
X206906487Y-95938889D01*
X206877815Y-96230000D01*
X206906487Y-96521111D01*
X206991401Y-96801034D01*
X207129294Y-97059014D01*
X207314866Y-97285134D01*
X207344687Y-97309607D01*
X207275820Y-97330498D01*
X207165506Y-97389463D01*
X207068815Y-97468815D01*
X206989463Y-97565506D01*
X206930498Y-97675820D01*
X206894188Y-97795518D01*
X206881928Y-97920000D01*
X206885000Y-98484250D01*
X207043750Y-98643000D01*
X208243000Y-98643000D01*
X208243000Y-98623000D01*
X208497000Y-98623000D01*
X208497000Y-98643000D01*
X208517000Y-98643000D01*
X208517000Y-98897000D01*
X208497000Y-98897000D01*
X208497000Y-100096250D01*
X208655750Y-100255000D01*
X209220000Y-100258072D01*
X209344482Y-100245812D01*
X209464180Y-100209502D01*
X209574494Y-100150537D01*
X209671185Y-100071185D01*
X209750537Y-99974494D01*
X209809502Y-99864180D01*
X209830393Y-99795313D01*
X209854866Y-99825134D01*
X210080986Y-100010706D01*
X210186452Y-100067079D01*
X210195301Y-100096250D01*
X210227663Y-100202932D01*
X210295913Y-100330619D01*
X210387762Y-100442537D01*
X210415808Y-100465554D01*
X213505642Y-103555389D01*
X213505642Y-103951444D01*
X213246721Y-103844195D01*
X212911523Y-103777520D01*
X212569757Y-103777520D01*
X212234559Y-103844195D01*
X211918809Y-103974983D01*
X211634642Y-104164857D01*
X211392977Y-104406522D01*
X211203103Y-104690689D01*
X211072315Y-105006439D01*
X211005640Y-105341637D01*
X211005640Y-105683403D01*
X211072315Y-106018601D01*
X211114092Y-106119461D01*
X205115108Y-112118446D01*
X205087062Y-112141463D01*
X204995213Y-112253381D01*
X204926963Y-112381068D01*
X204907311Y-112445853D01*
X204884935Y-112519615D01*
X204870744Y-112663700D01*
X204874300Y-112699805D01*
X204874301Y-130426185D01*
X204870744Y-130462300D01*
X204884935Y-130606385D01*
X204905143Y-130673000D01*
X204926964Y-130744933D01*
X204995214Y-130872620D01*
X205087063Y-130984538D01*
X205115108Y-131007554D01*
X205776525Y-131668971D01*
X205716487Y-131866889D01*
X205687815Y-132158000D01*
X205716487Y-132449111D01*
X205801401Y-132729034D01*
X205939294Y-132987014D01*
X206124866Y-133213134D01*
X206350986Y-133398706D01*
X206368374Y-133408000D01*
X206350986Y-133417294D01*
X206124866Y-133602866D01*
X205939294Y-133828986D01*
X205801401Y-134086966D01*
X205716487Y-134366889D01*
X205687815Y-134658000D01*
X205716487Y-134949111D01*
X205801401Y-135229034D01*
X205939294Y-135487014D01*
X206124866Y-135713134D01*
X206188337Y-135765223D01*
X206086614Y-135819595D01*
X205952038Y-135930038D01*
X205841595Y-136064614D01*
X205759528Y-136218150D01*
X205708992Y-136384746D01*
X205691928Y-136558000D01*
X205691928Y-137758000D01*
X205708992Y-137931254D01*
X205759528Y-138097850D01*
X205841595Y-138251386D01*
X205952038Y-138385962D01*
X206086614Y-138496405D01*
X206240150Y-138578472D01*
X206406746Y-138629008D01*
X206580000Y-138646072D01*
X208030000Y-138646072D01*
X208203254Y-138629008D01*
X208369850Y-138578472D01*
X208523386Y-138496405D01*
X208657962Y-138385962D01*
X208768405Y-138251386D01*
X208850472Y-138097850D01*
X208901008Y-137931254D01*
X208918072Y-137758000D01*
X208918072Y-136558000D01*
X208901008Y-136384746D01*
X208850472Y-136218150D01*
X208768405Y-136064614D01*
X208657962Y-135930038D01*
X208523386Y-135819595D01*
X208421663Y-135765223D01*
X208485134Y-135713134D01*
X208670706Y-135487014D01*
X208808599Y-135229034D01*
X208893513Y-134949111D01*
X208922185Y-134658000D01*
X208893513Y-134366889D01*
X208808599Y-134086966D01*
X208670706Y-133828986D01*
X208485134Y-133602866D01*
X208259014Y-133417294D01*
X208241626Y-133408000D01*
X208259014Y-133398706D01*
X208485134Y-133213134D01*
X208670706Y-132987014D01*
X208746419Y-132845365D01*
X208862500Y-132961447D01*
X208862500Y-133305395D01*
X208858944Y-133341500D01*
X208862500Y-133377605D01*
X208873135Y-133485585D01*
X208915164Y-133624133D01*
X208983414Y-133751820D01*
X209075263Y-133863738D01*
X209103308Y-133886754D01*
X212510928Y-137294375D01*
X212510928Y-137360500D01*
X212526023Y-137513757D01*
X212570726Y-137661125D01*
X212643321Y-137796940D01*
X212741017Y-137915983D01*
X212860060Y-138013679D01*
X212995875Y-138086274D01*
X213143243Y-138130977D01*
X213296500Y-138146072D01*
X213362626Y-138146072D01*
X216138746Y-140922193D01*
X216161762Y-140950238D01*
X216273680Y-141042087D01*
X216275400Y-141043006D01*
X216275400Y-141774485D01*
X216186912Y-141737832D01*
X215871033Y-141675000D01*
X215548967Y-141675000D01*
X215233088Y-141737832D01*
X214935537Y-141861082D01*
X214667748Y-142040013D01*
X214440013Y-142267748D01*
X214261082Y-142535537D01*
X214244736Y-142575000D01*
X210675264Y-142575000D01*
X210658918Y-142535537D01*
X210479987Y-142267748D01*
X210252252Y-142040013D01*
X209984463Y-141861082D01*
X209686912Y-141737832D01*
X209371033Y-141675000D01*
X209048967Y-141675000D01*
X208733088Y-141737832D01*
X208435537Y-141861082D01*
X208167748Y-142040013D01*
X207940013Y-142267748D01*
X207761082Y-142535537D01*
X207637832Y-142833088D01*
X207575000Y-143148967D01*
X207575000Y-143471033D01*
X207637832Y-143786912D01*
X207761082Y-144084463D01*
X207940013Y-144352252D01*
X208167748Y-144579987D01*
X208435537Y-144758918D01*
X208733088Y-144882168D01*
X209048967Y-144945000D01*
X209371033Y-144945000D01*
X209686912Y-144882168D01*
X209984463Y-144758918D01*
X210252252Y-144579987D01*
X210479987Y-144352252D01*
X210658918Y-144084463D01*
X210675264Y-144045000D01*
X214244736Y-144045000D01*
X214261082Y-144084463D01*
X214440013Y-144352252D01*
X214667748Y-144579987D01*
X214935537Y-144758918D01*
X215233088Y-144882168D01*
X215548967Y-144945000D01*
X215871033Y-144945000D01*
X216186912Y-144882168D01*
X216275401Y-144845515D01*
X216275401Y-146205152D01*
X216226375Y-146254178D01*
X216186912Y-146237832D01*
X215871033Y-146175000D01*
X215548967Y-146175000D01*
X215233088Y-146237832D01*
X214935537Y-146361082D01*
X214667748Y-146540013D01*
X214440013Y-146767748D01*
X214261082Y-147035537D01*
X214244736Y-147075000D01*
X210675264Y-147075000D01*
X210658918Y-147035537D01*
X210479987Y-146767748D01*
X210252252Y-146540013D01*
X209984463Y-146361082D01*
X209686912Y-146237832D01*
X209371033Y-146175000D01*
X209048967Y-146175000D01*
X208733088Y-146237832D01*
X208435537Y-146361082D01*
X208167748Y-146540013D01*
X207940013Y-146767748D01*
X207761082Y-147035537D01*
X207637832Y-147333088D01*
X207575000Y-147648967D01*
X207575000Y-147971033D01*
X207637832Y-148286912D01*
X207761082Y-148584463D01*
X207940013Y-148852252D01*
X208167748Y-149079987D01*
X208435537Y-149258918D01*
X208570931Y-149315000D01*
X203033504Y-149315000D01*
X202550984Y-149267688D01*
X202444013Y-149235392D01*
X200755390Y-147529086D01*
X200735500Y-147464834D01*
X200685000Y-146984346D01*
X200685000Y-146304495D01*
X201515000Y-146304495D01*
X201515000Y-146695505D01*
X201591282Y-147079003D01*
X201740915Y-147440250D01*
X201958149Y-147765364D01*
X202234636Y-148041851D01*
X202559750Y-148259085D01*
X202920997Y-148408718D01*
X203304495Y-148485000D01*
X203695505Y-148485000D01*
X204079003Y-148408718D01*
X204440250Y-148259085D01*
X204765364Y-148041851D01*
X205041851Y-147765364D01*
X205259085Y-147440250D01*
X205408718Y-147079003D01*
X205485000Y-146695505D01*
X205485000Y-146304495D01*
X205408718Y-145920997D01*
X205259085Y-145559750D01*
X205041851Y-145234636D01*
X204765364Y-144958149D01*
X204440250Y-144740915D01*
X204079003Y-144591282D01*
X203695505Y-144515000D01*
X203304495Y-144515000D01*
X202920997Y-144591282D01*
X202559750Y-144740915D01*
X202234636Y-144958149D01*
X201958149Y-145234636D01*
X201740915Y-145559750D01*
X201591282Y-145920997D01*
X201515000Y-146304495D01*
X200685000Y-146304495D01*
X200685000Y-115346562D01*
X201055640Y-115346562D01*
X201055640Y-115678478D01*
X201120394Y-116004016D01*
X201247412Y-116310667D01*
X201431815Y-116586645D01*
X201666515Y-116821345D01*
X201775826Y-116894384D01*
X201731815Y-116938395D01*
X201547412Y-117214373D01*
X201420394Y-117521024D01*
X201355640Y-117846562D01*
X201355640Y-118178478D01*
X201420394Y-118504016D01*
X201547412Y-118810667D01*
X201731815Y-119086645D01*
X201966515Y-119321345D01*
X202242493Y-119505748D01*
X202549144Y-119632766D01*
X202874682Y-119697520D01*
X203206598Y-119697520D01*
X203532136Y-119632766D01*
X203838787Y-119505748D01*
X204114765Y-119321345D01*
X204349465Y-119086645D01*
X204533868Y-118810667D01*
X204660886Y-118504016D01*
X204725640Y-118178478D01*
X204725640Y-117846562D01*
X204660886Y-117521024D01*
X204533868Y-117214373D01*
X204349465Y-116938395D01*
X204114765Y-116703695D01*
X204005454Y-116630656D01*
X204049465Y-116586645D01*
X204233868Y-116310667D01*
X204360886Y-116004016D01*
X204425640Y-115678478D01*
X204425640Y-115346562D01*
X204360886Y-115021024D01*
X204233868Y-114714373D01*
X204049465Y-114438395D01*
X203814765Y-114203695D01*
X203538787Y-114019292D01*
X203232136Y-113892274D01*
X202906598Y-113827520D01*
X202574682Y-113827520D01*
X202249144Y-113892274D01*
X201942493Y-114019292D01*
X201666515Y-114203695D01*
X201431815Y-114438395D01*
X201247412Y-114714373D01*
X201120394Y-115021024D01*
X201055640Y-115346562D01*
X200685000Y-115346562D01*
X200685000Y-110346562D01*
X201055640Y-110346562D01*
X201055640Y-110678478D01*
X201120394Y-111004016D01*
X201247412Y-111310667D01*
X201431815Y-111586645D01*
X201666515Y-111821345D01*
X201942493Y-112005748D01*
X202249144Y-112132766D01*
X202574682Y-112197520D01*
X202906598Y-112197520D01*
X203232136Y-112132766D01*
X203538787Y-112005748D01*
X203814765Y-111821345D01*
X204049465Y-111586645D01*
X204233868Y-111310667D01*
X204360886Y-111004016D01*
X204425640Y-110678478D01*
X204425640Y-110346562D01*
X204360886Y-110021024D01*
X204233868Y-109714373D01*
X204049465Y-109438395D01*
X204005454Y-109394384D01*
X204114765Y-109321345D01*
X204349465Y-109086645D01*
X204533868Y-108810667D01*
X204660886Y-108504016D01*
X204725640Y-108178478D01*
X204725640Y-107846562D01*
X204660886Y-107521024D01*
X204533868Y-107214373D01*
X204349465Y-106938395D01*
X204114765Y-106703695D01*
X203838787Y-106519292D01*
X203532136Y-106392274D01*
X203206598Y-106327520D01*
X202874682Y-106327520D01*
X202549144Y-106392274D01*
X202242493Y-106519292D01*
X201966515Y-106703695D01*
X201731815Y-106938395D01*
X201547412Y-107214373D01*
X201420394Y-107521024D01*
X201355640Y-107846562D01*
X201355640Y-108178478D01*
X201420394Y-108504016D01*
X201547412Y-108810667D01*
X201731815Y-109086645D01*
X201775826Y-109130656D01*
X201666515Y-109203695D01*
X201431815Y-109438395D01*
X201247412Y-109714373D01*
X201120394Y-110021024D01*
X201055640Y-110346562D01*
X200685000Y-110346562D01*
X200685000Y-99620000D01*
X206881928Y-99620000D01*
X206894188Y-99744482D01*
X206930498Y-99864180D01*
X206989463Y-99974494D01*
X207068815Y-100071185D01*
X207165506Y-100150537D01*
X207275820Y-100209502D01*
X207395518Y-100245812D01*
X207520000Y-100258072D01*
X208084250Y-100255000D01*
X208243000Y-100096250D01*
X208243000Y-98897000D01*
X207043750Y-98897000D01*
X206885000Y-99055750D01*
X206881928Y-99620000D01*
X200685000Y-99620000D01*
X200685000Y-97304495D01*
X201515000Y-97304495D01*
X201515000Y-97695505D01*
X201591282Y-98079003D01*
X201740915Y-98440250D01*
X201958149Y-98765364D01*
X202234636Y-99041851D01*
X202559750Y-99259085D01*
X202920997Y-99408718D01*
X203304495Y-99485000D01*
X203695505Y-99485000D01*
X204079003Y-99408718D01*
X204440250Y-99259085D01*
X204765364Y-99041851D01*
X205041851Y-98765364D01*
X205259085Y-98440250D01*
X205408718Y-98079003D01*
X205485000Y-97695505D01*
X205485000Y-97304495D01*
X205408718Y-96920997D01*
X205259085Y-96559750D01*
X205041851Y-96234636D01*
X204765364Y-95958149D01*
X204440250Y-95740915D01*
X204079003Y-95591282D01*
X203695505Y-95515000D01*
X203304495Y-95515000D01*
X202920997Y-95591282D01*
X202559750Y-95740915D01*
X202234636Y-95958149D01*
X201958149Y-96234636D01*
X201740915Y-96559750D01*
X201591282Y-96920997D01*
X201515000Y-97304495D01*
X200685000Y-97304495D01*
X200685000Y-97033505D01*
X200732312Y-96550984D01*
X200766016Y-96439350D01*
X202440589Y-94764777D01*
X202535161Y-94735502D01*
X203015654Y-94685000D01*
X225027453Y-94685000D01*
X224595080Y-95117374D01*
G36*
X228817000Y-98643000D02*
G01*
X228837000Y-98643000D01*
X228837000Y-98897000D01*
X228817000Y-98897000D01*
X228817000Y-100090155D01*
X229046890Y-100211476D01*
X229194099Y-100166825D01*
X229456920Y-100041641D01*
X229690269Y-99867588D01*
X229885178Y-99651355D01*
X229954799Y-99534477D01*
X229989294Y-99599014D01*
X230174866Y-99825134D01*
X230400986Y-100010706D01*
X230658966Y-100148599D01*
X230938889Y-100233513D01*
X231157050Y-100255000D01*
X231302950Y-100255000D01*
X231521111Y-100233513D01*
X231801034Y-100148599D01*
X232059014Y-100010706D01*
X232285134Y-99825134D01*
X232470706Y-99599014D01*
X232500000Y-99544209D01*
X232529294Y-99599014D01*
X232714866Y-99825134D01*
X232940986Y-100010706D01*
X233198966Y-100148599D01*
X233478889Y-100233513D01*
X233697050Y-100255000D01*
X233842950Y-100255000D01*
X234061111Y-100233513D01*
X234341034Y-100148599D01*
X234599014Y-100010706D01*
X234825134Y-99825134D01*
X235010706Y-99599014D01*
X235040000Y-99544209D01*
X235069294Y-99599014D01*
X235254866Y-99825134D01*
X235480986Y-100010706D01*
X235738966Y-100148599D01*
X236018889Y-100233513D01*
X236237050Y-100255000D01*
X236382950Y-100255000D01*
X236601111Y-100233513D01*
X236881034Y-100148599D01*
X237139014Y-100010706D01*
X237365134Y-99825134D01*
X237550706Y-99599014D01*
X237580000Y-99544209D01*
X237609294Y-99599014D01*
X237794866Y-99825134D01*
X238020986Y-100010706D01*
X238278966Y-100148599D01*
X238558889Y-100233513D01*
X238777050Y-100255000D01*
X238922950Y-100255000D01*
X239141111Y-100233513D01*
X239421034Y-100148599D01*
X239679014Y-100010706D01*
X239905134Y-99825134D01*
X240090706Y-99599014D01*
X240120000Y-99544209D01*
X240149294Y-99599014D01*
X240334866Y-99825134D01*
X240560986Y-100010706D01*
X240818966Y-100148599D01*
X241098889Y-100233513D01*
X241317050Y-100255000D01*
X241462950Y-100255000D01*
X241681111Y-100233513D01*
X241961034Y-100148599D01*
X242219014Y-100010706D01*
X242445134Y-99825134D01*
X242630706Y-99599014D01*
X242660000Y-99544209D01*
X242689294Y-99599014D01*
X242874866Y-99825134D01*
X243100986Y-100010706D01*
X243358966Y-100148599D01*
X243638889Y-100233513D01*
X243857050Y-100255000D01*
X244002950Y-100255000D01*
X244221111Y-100233513D01*
X244501034Y-100148599D01*
X244759014Y-100010706D01*
X244985134Y-99825134D01*
X245170706Y-99599014D01*
X245200000Y-99544209D01*
X245229294Y-99599014D01*
X245414866Y-99825134D01*
X245640986Y-100010706D01*
X245898966Y-100148599D01*
X246178889Y-100233513D01*
X246397050Y-100255000D01*
X246542950Y-100255000D01*
X246761111Y-100233513D01*
X247041034Y-100148599D01*
X247299014Y-100010706D01*
X247525134Y-99825134D01*
X247710706Y-99599014D01*
X247740000Y-99544209D01*
X247769294Y-99599014D01*
X247954866Y-99825134D01*
X248180986Y-100010706D01*
X248438966Y-100148599D01*
X248718889Y-100233513D01*
X248937050Y-100255000D01*
X249082950Y-100255000D01*
X249301111Y-100233513D01*
X249581034Y-100148599D01*
X249664700Y-100103879D01*
X249664701Y-105383852D01*
X220215626Y-134832928D01*
X220149500Y-134832928D01*
X219996243Y-134848023D01*
X219848875Y-134892726D01*
X219713060Y-134965321D01*
X219594017Y-135063017D01*
X219496321Y-135182060D01*
X219423726Y-135317875D01*
X219379023Y-135465243D01*
X219363928Y-135618500D01*
X219363928Y-135963500D01*
X219379023Y-136116757D01*
X219423726Y-136264125D01*
X219496321Y-136399940D01*
X219574821Y-136495593D01*
X219506321Y-136579060D01*
X219433726Y-136714875D01*
X219389023Y-136862243D01*
X219373928Y-137015500D01*
X219373928Y-137081625D01*
X216875500Y-139580053D01*
X215159555Y-137864109D01*
X215214679Y-137796940D01*
X215287274Y-137661125D01*
X215331977Y-137513757D01*
X215347072Y-137360500D01*
X215347072Y-137015500D01*
X215331977Y-136862243D01*
X215287274Y-136714875D01*
X215214679Y-136579060D01*
X215149000Y-136499030D01*
X215149000Y-136479970D01*
X215214679Y-136399940D01*
X215287274Y-136264125D01*
X215331977Y-136116757D01*
X215347072Y-135963500D01*
X215347072Y-135618500D01*
X215331977Y-135465243D01*
X215287274Y-135317875D01*
X215214679Y-135182060D01*
X215116983Y-135063017D01*
X214997940Y-134965321D01*
X214862125Y-134892726D01*
X214714757Y-134848023D01*
X214561500Y-134832928D01*
X214266500Y-134832928D01*
X214113243Y-134848023D01*
X213990316Y-134885312D01*
X213983180Y-134881498D01*
X213863482Y-134845188D01*
X213739000Y-134832928D01*
X213729750Y-134836000D01*
X213571000Y-134994750D01*
X213571000Y-135261237D01*
X213540726Y-135317875D01*
X213496023Y-135465243D01*
X213480928Y-135618500D01*
X213480928Y-135938000D01*
X213317000Y-135938000D01*
X213317000Y-135918000D01*
X213297000Y-135918000D01*
X213297000Y-135664000D01*
X213317000Y-135664000D01*
X213317000Y-134994750D01*
X213158250Y-134836000D01*
X213149000Y-134832928D01*
X213024518Y-134845188D01*
X212904820Y-134881498D01*
X212794506Y-134940463D01*
X212697815Y-135019815D01*
X212618463Y-135116506D01*
X212559498Y-135226820D01*
X212550833Y-135255386D01*
X210332500Y-133037054D01*
X210332500Y-132693105D01*
X210336056Y-132657000D01*
X210321865Y-132512915D01*
X210279837Y-132374366D01*
X210211587Y-132246680D01*
X210142753Y-132162806D01*
X210142750Y-132162803D01*
X210119737Y-132134762D01*
X210091697Y-132111750D01*
X208578867Y-130598921D01*
X208670706Y-130487014D01*
X208808599Y-130229034D01*
X208893513Y-129949111D01*
X208922185Y-129658000D01*
X208893513Y-129366889D01*
X208833475Y-129168971D01*
X218224193Y-119778254D01*
X218252238Y-119755238D01*
X218344087Y-119643320D01*
X218412337Y-119515633D01*
X218454365Y-119377085D01*
X218465000Y-119269105D01*
X218465000Y-119269096D01*
X218468555Y-119233001D01*
X218465000Y-119196906D01*
X218465000Y-114590431D01*
X218562471Y-114550057D01*
X218846638Y-114360183D01*
X219088303Y-114118518D01*
X219278177Y-113834351D01*
X219408965Y-113518601D01*
X219475640Y-113183403D01*
X219475640Y-112841637D01*
X219408965Y-112506439D01*
X219301717Y-112247519D01*
X223264073Y-112247519D01*
X223411341Y-112394787D01*
X223434362Y-112422838D01*
X223546280Y-112514687D01*
X223673967Y-112582937D01*
X223798854Y-112620821D01*
X223812515Y-112624965D01*
X223956599Y-112639156D01*
X223992704Y-112635600D01*
X226408595Y-112635600D01*
X226444700Y-112639156D01*
X226480805Y-112635600D01*
X226588785Y-112624965D01*
X226727333Y-112582937D01*
X226855020Y-112514687D01*
X226966938Y-112422838D01*
X226989959Y-112394787D01*
X231411675Y-107973072D01*
X233011000Y-107973072D01*
X233135482Y-107960812D01*
X233255180Y-107924502D01*
X233365494Y-107865537D01*
X233462185Y-107786185D01*
X233541537Y-107689494D01*
X233600502Y-107579180D01*
X233624966Y-107498534D01*
X233700731Y-107582588D01*
X233934080Y-107756641D01*
X234196901Y-107881825D01*
X234344110Y-107926476D01*
X234574000Y-107805155D01*
X234574000Y-106612000D01*
X234554000Y-106612000D01*
X234554000Y-106358000D01*
X234574000Y-106358000D01*
X234574000Y-105164845D01*
X234828000Y-105164845D01*
X234828000Y-106358000D01*
X234848000Y-106358000D01*
X234848000Y-106612000D01*
X234828000Y-106612000D01*
X234828000Y-107805155D01*
X235057890Y-107926476D01*
X235205099Y-107881825D01*
X235467920Y-107756641D01*
X235701269Y-107582588D01*
X235896178Y-107366355D01*
X235965799Y-107249477D01*
X236000294Y-107314014D01*
X236185866Y-107540134D01*
X236411986Y-107725706D01*
X236669966Y-107863599D01*
X236949889Y-107948513D01*
X237168050Y-107970000D01*
X237313950Y-107970000D01*
X237532111Y-107948513D01*
X237812034Y-107863599D01*
X238070014Y-107725706D01*
X238296134Y-107540134D01*
X238481706Y-107314014D01*
X238511000Y-107259209D01*
X238540294Y-107314014D01*
X238725866Y-107540134D01*
X238951986Y-107725706D01*
X239209966Y-107863599D01*
X239489889Y-107948513D01*
X239708050Y-107970000D01*
X239853950Y-107970000D01*
X240072111Y-107948513D01*
X240352034Y-107863599D01*
X240610014Y-107725706D01*
X240836134Y-107540134D01*
X241021706Y-107314014D01*
X241159599Y-107056034D01*
X241244513Y-106776111D01*
X241273185Y-106485000D01*
X241244513Y-106193889D01*
X241159599Y-105913966D01*
X241021706Y-105655986D01*
X240836134Y-105429866D01*
X240610014Y-105244294D01*
X240352034Y-105106401D01*
X240072111Y-105021487D01*
X239853950Y-105000000D01*
X239708050Y-105000000D01*
X239489889Y-105021487D01*
X239209966Y-105106401D01*
X238951986Y-105244294D01*
X238725866Y-105429866D01*
X238540294Y-105655986D01*
X238511000Y-105710791D01*
X238481706Y-105655986D01*
X238296134Y-105429866D01*
X238070014Y-105244294D01*
X237812034Y-105106401D01*
X237532111Y-105021487D01*
X237313950Y-105000000D01*
X237168050Y-105000000D01*
X236949889Y-105021487D01*
X236669966Y-105106401D01*
X236411986Y-105244294D01*
X236185866Y-105429866D01*
X236000294Y-105655986D01*
X235965799Y-105720523D01*
X235896178Y-105603645D01*
X235701269Y-105387412D01*
X235467920Y-105213359D01*
X235205099Y-105088175D01*
X235057890Y-105043524D01*
X234828000Y-105164845D01*
X234574000Y-105164845D01*
X234344110Y-105043524D01*
X234196901Y-105088175D01*
X233934080Y-105213359D01*
X233700731Y-105387412D01*
X233624966Y-105471466D01*
X233600502Y-105390820D01*
X233541537Y-105280506D01*
X233462185Y-105183815D01*
X233365494Y-105104463D01*
X233255180Y-105045498D01*
X233135482Y-105009188D01*
X233011000Y-104996928D01*
X231311000Y-104996928D01*
X231186518Y-105009188D01*
X231066820Y-105045498D01*
X230956506Y-105104463D01*
X230859815Y-105183815D01*
X230780463Y-105280506D01*
X230721498Y-105390820D01*
X230685188Y-105510518D01*
X230672928Y-105635000D01*
X230672928Y-105832135D01*
X230600380Y-105870913D01*
X230488462Y-105962762D01*
X230396613Y-106074680D01*
X230328363Y-106202367D01*
X230286335Y-106340915D01*
X230272144Y-106485000D01*
X230275700Y-106521105D01*
X230275700Y-107030153D01*
X227843500Y-109462354D01*
X227843500Y-103454896D01*
X227847055Y-103418799D01*
X227843500Y-103382702D01*
X227843500Y-103382695D01*
X227832865Y-103274715D01*
X227790837Y-103136167D01*
X227722587Y-103008480D01*
X227689618Y-102968308D01*
X227653753Y-102924606D01*
X227653750Y-102924603D01*
X227630737Y-102896562D01*
X227602697Y-102873550D01*
X224604248Y-99875102D01*
X224665134Y-99825134D01*
X224850706Y-99599014D01*
X224880000Y-99544209D01*
X224909294Y-99599014D01*
X225094866Y-99825134D01*
X225320986Y-100010706D01*
X225578966Y-100148599D01*
X225858889Y-100233513D01*
X226077050Y-100255000D01*
X226222950Y-100255000D01*
X226441111Y-100233513D01*
X226721034Y-100148599D01*
X226979014Y-100010706D01*
X227205134Y-99825134D01*
X227390706Y-99599014D01*
X227425201Y-99534477D01*
X227494822Y-99651355D01*
X227689731Y-99867588D01*
X227923080Y-100041641D01*
X228185901Y-100166825D01*
X228333110Y-100211476D01*
X228563000Y-100090155D01*
X228563000Y-98897000D01*
X228543000Y-98897000D01*
X228543000Y-98643000D01*
X228563000Y-98643000D01*
X228563000Y-98623000D01*
X228817000Y-98623000D01*
X228817000Y-98643000D01*
X228817000Y-98643000D01*
G37*
X228817000Y-98643000D02*
X228837000Y-98643000D01*
X228837000Y-98897000D01*
X228817000Y-98897000D01*
X228817000Y-100090155D01*
X229046890Y-100211476D01*
X229194099Y-100166825D01*
X229456920Y-100041641D01*
X229690269Y-99867588D01*
X229885178Y-99651355D01*
X229954799Y-99534477D01*
X229989294Y-99599014D01*
X230174866Y-99825134D01*
X230400986Y-100010706D01*
X230658966Y-100148599D01*
X230938889Y-100233513D01*
X231157050Y-100255000D01*
X231302950Y-100255000D01*
X231521111Y-100233513D01*
X231801034Y-100148599D01*
X232059014Y-100010706D01*
X232285134Y-99825134D01*
X232470706Y-99599014D01*
X232500000Y-99544209D01*
X232529294Y-99599014D01*
X232714866Y-99825134D01*
X232940986Y-100010706D01*
X233198966Y-100148599D01*
X233478889Y-100233513D01*
X233697050Y-100255000D01*
X233842950Y-100255000D01*
X234061111Y-100233513D01*
X234341034Y-100148599D01*
X234599014Y-100010706D01*
X234825134Y-99825134D01*
X235010706Y-99599014D01*
X235040000Y-99544209D01*
X235069294Y-99599014D01*
X235254866Y-99825134D01*
X235480986Y-100010706D01*
X235738966Y-100148599D01*
X236018889Y-100233513D01*
X236237050Y-100255000D01*
X236382950Y-100255000D01*
X236601111Y-100233513D01*
X236881034Y-100148599D01*
X237139014Y-100010706D01*
X237365134Y-99825134D01*
X237550706Y-99599014D01*
X237580000Y-99544209D01*
X237609294Y-99599014D01*
X237794866Y-99825134D01*
X238020986Y-100010706D01*
X238278966Y-100148599D01*
X238558889Y-100233513D01*
X238777050Y-100255000D01*
X238922950Y-100255000D01*
X239141111Y-100233513D01*
X239421034Y-100148599D01*
X239679014Y-100010706D01*
X239905134Y-99825134D01*
X240090706Y-99599014D01*
X240120000Y-99544209D01*
X240149294Y-99599014D01*
X240334866Y-99825134D01*
X240560986Y-100010706D01*
X240818966Y-100148599D01*
X241098889Y-100233513D01*
X241317050Y-100255000D01*
X241462950Y-100255000D01*
X241681111Y-100233513D01*
X241961034Y-100148599D01*
X242219014Y-100010706D01*
X242445134Y-99825134D01*
X242630706Y-99599014D01*
X242660000Y-99544209D01*
X242689294Y-99599014D01*
X242874866Y-99825134D01*
X243100986Y-100010706D01*
X243358966Y-100148599D01*
X243638889Y-100233513D01*
X243857050Y-100255000D01*
X244002950Y-100255000D01*
X244221111Y-100233513D01*
X244501034Y-100148599D01*
X244759014Y-100010706D01*
X244985134Y-99825134D01*
X245170706Y-99599014D01*
X245200000Y-99544209D01*
X245229294Y-99599014D01*
X245414866Y-99825134D01*
X245640986Y-100010706D01*
X245898966Y-100148599D01*
X246178889Y-100233513D01*
X246397050Y-100255000D01*
X246542950Y-100255000D01*
X246761111Y-100233513D01*
X247041034Y-100148599D01*
X247299014Y-100010706D01*
X247525134Y-99825134D01*
X247710706Y-99599014D01*
X247740000Y-99544209D01*
X247769294Y-99599014D01*
X247954866Y-99825134D01*
X248180986Y-100010706D01*
X248438966Y-100148599D01*
X248718889Y-100233513D01*
X248937050Y-100255000D01*
X249082950Y-100255000D01*
X249301111Y-100233513D01*
X249581034Y-100148599D01*
X249664700Y-100103879D01*
X249664701Y-105383852D01*
X220215626Y-134832928D01*
X220149500Y-134832928D01*
X219996243Y-134848023D01*
X219848875Y-134892726D01*
X219713060Y-134965321D01*
X219594017Y-135063017D01*
X219496321Y-135182060D01*
X219423726Y-135317875D01*
X219379023Y-135465243D01*
X219363928Y-135618500D01*
X219363928Y-135963500D01*
X219379023Y-136116757D01*
X219423726Y-136264125D01*
X219496321Y-136399940D01*
X219574821Y-136495593D01*
X219506321Y-136579060D01*
X219433726Y-136714875D01*
X219389023Y-136862243D01*
X219373928Y-137015500D01*
X219373928Y-137081625D01*
X216875500Y-139580053D01*
X215159555Y-137864109D01*
X215214679Y-137796940D01*
X215287274Y-137661125D01*
X215331977Y-137513757D01*
X215347072Y-137360500D01*
X215347072Y-137015500D01*
X215331977Y-136862243D01*
X215287274Y-136714875D01*
X215214679Y-136579060D01*
X215149000Y-136499030D01*
X215149000Y-136479970D01*
X215214679Y-136399940D01*
X215287274Y-136264125D01*
X215331977Y-136116757D01*
X215347072Y-135963500D01*
X215347072Y-135618500D01*
X215331977Y-135465243D01*
X215287274Y-135317875D01*
X215214679Y-135182060D01*
X215116983Y-135063017D01*
X214997940Y-134965321D01*
X214862125Y-134892726D01*
X214714757Y-134848023D01*
X214561500Y-134832928D01*
X214266500Y-134832928D01*
X214113243Y-134848023D01*
X213990316Y-134885312D01*
X213983180Y-134881498D01*
X213863482Y-134845188D01*
X213739000Y-134832928D01*
X213729750Y-134836000D01*
X213571000Y-134994750D01*
X213571000Y-135261237D01*
X213540726Y-135317875D01*
X213496023Y-135465243D01*
X213480928Y-135618500D01*
X213480928Y-135938000D01*
X213317000Y-135938000D01*
X213317000Y-135918000D01*
X213297000Y-135918000D01*
X213297000Y-135664000D01*
X213317000Y-135664000D01*
X213317000Y-134994750D01*
X213158250Y-134836000D01*
X213149000Y-134832928D01*
X213024518Y-134845188D01*
X212904820Y-134881498D01*
X212794506Y-134940463D01*
X212697815Y-135019815D01*
X212618463Y-135116506D01*
X212559498Y-135226820D01*
X212550833Y-135255386D01*
X210332500Y-133037054D01*
X210332500Y-132693105D01*
X210336056Y-132657000D01*
X210321865Y-132512915D01*
X210279837Y-132374366D01*
X210211587Y-132246680D01*
X210142753Y-132162806D01*
X210142750Y-132162803D01*
X210119737Y-132134762D01*
X210091697Y-132111750D01*
X208578867Y-130598921D01*
X208670706Y-130487014D01*
X208808599Y-130229034D01*
X208893513Y-129949111D01*
X208922185Y-129658000D01*
X208893513Y-129366889D01*
X208833475Y-129168971D01*
X218224193Y-119778254D01*
X218252238Y-119755238D01*
X218344087Y-119643320D01*
X218412337Y-119515633D01*
X218454365Y-119377085D01*
X218465000Y-119269105D01*
X218465000Y-119269096D01*
X218468555Y-119233001D01*
X218465000Y-119196906D01*
X218465000Y-114590431D01*
X218562471Y-114550057D01*
X218846638Y-114360183D01*
X219088303Y-114118518D01*
X219278177Y-113834351D01*
X219408965Y-113518601D01*
X219475640Y-113183403D01*
X219475640Y-112841637D01*
X219408965Y-112506439D01*
X219301717Y-112247519D01*
X223264073Y-112247519D01*
X223411341Y-112394787D01*
X223434362Y-112422838D01*
X223546280Y-112514687D01*
X223673967Y-112582937D01*
X223798854Y-112620821D01*
X223812515Y-112624965D01*
X223956599Y-112639156D01*
X223992704Y-112635600D01*
X226408595Y-112635600D01*
X226444700Y-112639156D01*
X226480805Y-112635600D01*
X226588785Y-112624965D01*
X226727333Y-112582937D01*
X226855020Y-112514687D01*
X226966938Y-112422838D01*
X226989959Y-112394787D01*
X231411675Y-107973072D01*
X233011000Y-107973072D01*
X233135482Y-107960812D01*
X233255180Y-107924502D01*
X233365494Y-107865537D01*
X233462185Y-107786185D01*
X233541537Y-107689494D01*
X233600502Y-107579180D01*
X233624966Y-107498534D01*
X233700731Y-107582588D01*
X233934080Y-107756641D01*
X234196901Y-107881825D01*
X234344110Y-107926476D01*
X234574000Y-107805155D01*
X234574000Y-106612000D01*
X234554000Y-106612000D01*
X234554000Y-106358000D01*
X234574000Y-106358000D01*
X234574000Y-105164845D01*
X234828000Y-105164845D01*
X234828000Y-106358000D01*
X234848000Y-106358000D01*
X234848000Y-106612000D01*
X234828000Y-106612000D01*
X234828000Y-107805155D01*
X235057890Y-107926476D01*
X235205099Y-107881825D01*
X235467920Y-107756641D01*
X235701269Y-107582588D01*
X235896178Y-107366355D01*
X235965799Y-107249477D01*
X236000294Y-107314014D01*
X236185866Y-107540134D01*
X236411986Y-107725706D01*
X236669966Y-107863599D01*
X236949889Y-107948513D01*
X237168050Y-107970000D01*
X237313950Y-107970000D01*
X237532111Y-107948513D01*
X237812034Y-107863599D01*
X238070014Y-107725706D01*
X238296134Y-107540134D01*
X238481706Y-107314014D01*
X238511000Y-107259209D01*
X238540294Y-107314014D01*
X238725866Y-107540134D01*
X238951986Y-107725706D01*
X239209966Y-107863599D01*
X239489889Y-107948513D01*
X239708050Y-107970000D01*
X239853950Y-107970000D01*
X240072111Y-107948513D01*
X240352034Y-107863599D01*
X240610014Y-107725706D01*
X240836134Y-107540134D01*
X241021706Y-107314014D01*
X241159599Y-107056034D01*
X241244513Y-106776111D01*
X241273185Y-106485000D01*
X241244513Y-106193889D01*
X241159599Y-105913966D01*
X241021706Y-105655986D01*
X240836134Y-105429866D01*
X240610014Y-105244294D01*
X240352034Y-105106401D01*
X240072111Y-105021487D01*
X239853950Y-105000000D01*
X239708050Y-105000000D01*
X239489889Y-105021487D01*
X239209966Y-105106401D01*
X238951986Y-105244294D01*
X238725866Y-105429866D01*
X238540294Y-105655986D01*
X238511000Y-105710791D01*
X238481706Y-105655986D01*
X238296134Y-105429866D01*
X238070014Y-105244294D01*
X237812034Y-105106401D01*
X237532111Y-105021487D01*
X237313950Y-105000000D01*
X237168050Y-105000000D01*
X236949889Y-105021487D01*
X236669966Y-105106401D01*
X236411986Y-105244294D01*
X236185866Y-105429866D01*
X236000294Y-105655986D01*
X235965799Y-105720523D01*
X235896178Y-105603645D01*
X235701269Y-105387412D01*
X235467920Y-105213359D01*
X235205099Y-105088175D01*
X235057890Y-105043524D01*
X234828000Y-105164845D01*
X234574000Y-105164845D01*
X234344110Y-105043524D01*
X234196901Y-105088175D01*
X233934080Y-105213359D01*
X233700731Y-105387412D01*
X233624966Y-105471466D01*
X233600502Y-105390820D01*
X233541537Y-105280506D01*
X233462185Y-105183815D01*
X233365494Y-105104463D01*
X233255180Y-105045498D01*
X233135482Y-105009188D01*
X233011000Y-104996928D01*
X231311000Y-104996928D01*
X231186518Y-105009188D01*
X231066820Y-105045498D01*
X230956506Y-105104463D01*
X230859815Y-105183815D01*
X230780463Y-105280506D01*
X230721498Y-105390820D01*
X230685188Y-105510518D01*
X230672928Y-105635000D01*
X230672928Y-105832135D01*
X230600380Y-105870913D01*
X230488462Y-105962762D01*
X230396613Y-106074680D01*
X230328363Y-106202367D01*
X230286335Y-106340915D01*
X230272144Y-106485000D01*
X230275700Y-106521105D01*
X230275700Y-107030153D01*
X227843500Y-109462354D01*
X227843500Y-103454896D01*
X227847055Y-103418799D01*
X227843500Y-103382702D01*
X227843500Y-103382695D01*
X227832865Y-103274715D01*
X227790837Y-103136167D01*
X227722587Y-103008480D01*
X227689618Y-102968308D01*
X227653753Y-102924606D01*
X227653750Y-102924603D01*
X227630737Y-102896562D01*
X227602697Y-102873550D01*
X224604248Y-99875102D01*
X224665134Y-99825134D01*
X224850706Y-99599014D01*
X224880000Y-99544209D01*
X224909294Y-99599014D01*
X225094866Y-99825134D01*
X225320986Y-100010706D01*
X225578966Y-100148599D01*
X225858889Y-100233513D01*
X226077050Y-100255000D01*
X226222950Y-100255000D01*
X226441111Y-100233513D01*
X226721034Y-100148599D01*
X226979014Y-100010706D01*
X227205134Y-99825134D01*
X227390706Y-99599014D01*
X227425201Y-99534477D01*
X227494822Y-99651355D01*
X227689731Y-99867588D01*
X227923080Y-100041641D01*
X228185901Y-100166825D01*
X228333110Y-100211476D01*
X228563000Y-100090155D01*
X228563000Y-98897000D01*
X228543000Y-98897000D01*
X228543000Y-98643000D01*
X228563000Y-98643000D01*
X228563000Y-98623000D01*
X228817000Y-98623000D01*
X228817000Y-98643000D01*
G36*
X222369294Y-99599014D02*
G01*
X222554866Y-99825134D01*
X222780986Y-100010706D01*
X222886452Y-100067079D01*
X222916711Y-100166825D01*
X222927664Y-100202933D01*
X222995914Y-100330620D01*
X223087763Y-100442538D01*
X223115808Y-100465554D01*
X226373500Y-103723247D01*
X226373501Y-106958000D01*
X226251237Y-106958000D01*
X226041617Y-106999696D01*
X225844160Y-107081485D01*
X225666453Y-107200225D01*
X225558678Y-107308000D01*
X216826769Y-107308000D01*
X216778177Y-107190689D01*
X216588303Y-106906522D01*
X216346638Y-106664857D01*
X216062471Y-106474983D01*
X215746721Y-106344195D01*
X215411523Y-106277520D01*
X215069757Y-106277520D01*
X214972867Y-106296793D01*
X214979197Y-106232521D01*
X214975641Y-106196416D01*
X214975641Y-103287046D01*
X214979197Y-103250941D01*
X214965006Y-103106856D01*
X214922978Y-102968307D01*
X214854728Y-102840621D01*
X214785894Y-102756747D01*
X214762879Y-102728703D01*
X214734834Y-102705687D01*
X211904248Y-99875102D01*
X211965134Y-99825134D01*
X212150706Y-99599014D01*
X212180000Y-99544209D01*
X212209294Y-99599014D01*
X212394866Y-99825134D01*
X212620986Y-100010706D01*
X212878966Y-100148599D01*
X213158889Y-100233513D01*
X213377050Y-100255000D01*
X213522950Y-100255000D01*
X213741111Y-100233513D01*
X214021034Y-100148599D01*
X214279014Y-100010706D01*
X214505134Y-99825134D01*
X214690706Y-99599014D01*
X214720000Y-99544209D01*
X214749294Y-99599014D01*
X214934866Y-99825134D01*
X215160986Y-100010706D01*
X215418966Y-100148599D01*
X215698889Y-100233513D01*
X215917050Y-100255000D01*
X216062950Y-100255000D01*
X216281111Y-100233513D01*
X216561034Y-100148599D01*
X216819014Y-100010706D01*
X217045134Y-99825134D01*
X217230706Y-99599014D01*
X217260000Y-99544209D01*
X217289294Y-99599014D01*
X217474866Y-99825134D01*
X217700986Y-100010706D01*
X217958966Y-100148599D01*
X218238889Y-100233513D01*
X218457050Y-100255000D01*
X218602950Y-100255000D01*
X218821111Y-100233513D01*
X219101034Y-100148599D01*
X219359014Y-100010706D01*
X219585134Y-99825134D01*
X219770706Y-99599014D01*
X219800000Y-99544209D01*
X219829294Y-99599014D01*
X220014866Y-99825134D01*
X220240986Y-100010706D01*
X220498966Y-100148599D01*
X220778889Y-100233513D01*
X220997050Y-100255000D01*
X221142950Y-100255000D01*
X221361111Y-100233513D01*
X221641034Y-100148599D01*
X221899014Y-100010706D01*
X222125134Y-99825134D01*
X222310706Y-99599014D01*
X222340000Y-99544209D01*
X222369294Y-99599014D01*
X222369294Y-99599014D01*
G37*
X222369294Y-99599014D02*
X222554866Y-99825134D01*
X222780986Y-100010706D01*
X222886452Y-100067079D01*
X222916711Y-100166825D01*
X222927664Y-100202933D01*
X222995914Y-100330620D01*
X223087763Y-100442538D01*
X223115808Y-100465554D01*
X226373500Y-103723247D01*
X226373501Y-106958000D01*
X226251237Y-106958000D01*
X226041617Y-106999696D01*
X225844160Y-107081485D01*
X225666453Y-107200225D01*
X225558678Y-107308000D01*
X216826769Y-107308000D01*
X216778177Y-107190689D01*
X216588303Y-106906522D01*
X216346638Y-106664857D01*
X216062471Y-106474983D01*
X215746721Y-106344195D01*
X215411523Y-106277520D01*
X215069757Y-106277520D01*
X214972867Y-106296793D01*
X214979197Y-106232521D01*
X214975641Y-106196416D01*
X214975641Y-103287046D01*
X214979197Y-103250941D01*
X214965006Y-103106856D01*
X214922978Y-102968307D01*
X214854728Y-102840621D01*
X214785894Y-102756747D01*
X214762879Y-102728703D01*
X214734834Y-102705687D01*
X211904248Y-99875102D01*
X211965134Y-99825134D01*
X212150706Y-99599014D01*
X212180000Y-99544209D01*
X212209294Y-99599014D01*
X212394866Y-99825134D01*
X212620986Y-100010706D01*
X212878966Y-100148599D01*
X213158889Y-100233513D01*
X213377050Y-100255000D01*
X213522950Y-100255000D01*
X213741111Y-100233513D01*
X214021034Y-100148599D01*
X214279014Y-100010706D01*
X214505134Y-99825134D01*
X214690706Y-99599014D01*
X214720000Y-99544209D01*
X214749294Y-99599014D01*
X214934866Y-99825134D01*
X215160986Y-100010706D01*
X215418966Y-100148599D01*
X215698889Y-100233513D01*
X215917050Y-100255000D01*
X216062950Y-100255000D01*
X216281111Y-100233513D01*
X216561034Y-100148599D01*
X216819014Y-100010706D01*
X217045134Y-99825134D01*
X217230706Y-99599014D01*
X217260000Y-99544209D01*
X217289294Y-99599014D01*
X217474866Y-99825134D01*
X217700986Y-100010706D01*
X217958966Y-100148599D01*
X218238889Y-100233513D01*
X218457050Y-100255000D01*
X218602950Y-100255000D01*
X218821111Y-100233513D01*
X219101034Y-100148599D01*
X219359014Y-100010706D01*
X219585134Y-99825134D01*
X219770706Y-99599014D01*
X219800000Y-99544209D01*
X219829294Y-99599014D01*
X220014866Y-99825134D01*
X220240986Y-100010706D01*
X220498966Y-100148599D01*
X220778889Y-100233513D01*
X220997050Y-100255000D01*
X221142950Y-100255000D01*
X221361111Y-100233513D01*
X221641034Y-100148599D01*
X221899014Y-100010706D01*
X222125134Y-99825134D01*
X222310706Y-99599014D01*
X222340000Y-99544209D01*
X222369294Y-99599014D01*
G36*
X227449294Y-97059014D02*
G01*
X227634866Y-97285134D01*
X227860986Y-97470706D01*
X227918756Y-97501584D01*
X227689731Y-97672412D01*
X227494822Y-97888645D01*
X227425201Y-98005523D01*
X227390706Y-97940986D01*
X227205134Y-97714866D01*
X226979014Y-97529294D01*
X226924209Y-97500000D01*
X226979014Y-97470706D01*
X227205134Y-97285134D01*
X227390706Y-97059014D01*
X227420000Y-97004209D01*
X227449294Y-97059014D01*
X227449294Y-97059014D01*
G37*
X227449294Y-97059014D02*
X227634866Y-97285134D01*
X227860986Y-97470706D01*
X227918756Y-97501584D01*
X227689731Y-97672412D01*
X227494822Y-97888645D01*
X227425201Y-98005523D01*
X227390706Y-97940986D01*
X227205134Y-97714866D01*
X226979014Y-97529294D01*
X226924209Y-97500000D01*
X226979014Y-97470706D01*
X227205134Y-97285134D01*
X227390706Y-97059014D01*
X227420000Y-97004209D01*
X227449294Y-97059014D01*
M02*
